%TF.GenerationSoftware,KiCad,Pcbnew,8.0.5*%
%TF.CreationDate,2025-08-16T16:19:27-04:00*%
%TF.ProjectId,TagTag,54616754-6167-42e6-9b69-6361645f7063,1.2*%
%TF.SameCoordinates,Original*%
%TF.FileFunction,Legend,Top*%
%TF.FilePolarity,Positive*%
%FSLAX46Y46*%
G04 Gerber Fmt 4.6, Leading zero omitted, Abs format (unit mm)*
G04 Created by KiCad (PCBNEW 8.0.5) date 2025-08-16 16:19:27*
%MOMM*%
%LPD*%
G01*
G04 APERTURE LIST*
%ADD10C,0.050000*%
%ADD11C,0.250000*%
%ADD12C,0.150000*%
%ADD13C,0.100000*%
%ADD14C,0.120000*%
%ADD15C,0.300000*%
%ADD16C,0.152400*%
%ADD17C,0.127000*%
%ADD18C,0.000000*%
%ADD19C,0.200000*%
G04 APERTURE END LIST*
D10*
X158579620Y-98056272D02*
X163659620Y-98056272D01*
X163659620Y-103136272D01*
X158579620Y-103136272D01*
X158579620Y-98056272D01*
D11*
X162000000Y-96500000D02*
X222000000Y-96500000D01*
X162000000Y-61600000D02*
X162000000Y-96500000D01*
X222000000Y-96500000D02*
X222000000Y-61600000D01*
X162000000Y-61600000D02*
X222000000Y-61600000D01*
D12*
G36*
X184962809Y-142855122D02*
G01*
X184437932Y-142855122D01*
X184437932Y-142505122D01*
X184962809Y-142505122D01*
X184962809Y-142855122D01*
G37*
G36*
X184962809Y-142330000D02*
G01*
X184437932Y-142330000D01*
X184437932Y-141980000D01*
X184962809Y-141980000D01*
X184962809Y-142330000D01*
G37*
G36*
X186362809Y-142855122D02*
G01*
X185837932Y-142855122D01*
X185837932Y-141980000D01*
X186362809Y-141980000D01*
X186362809Y-142855122D01*
G37*
G36*
X187762809Y-142855122D02*
G01*
X187237932Y-142855122D01*
X187237932Y-141980000D01*
X187762809Y-141980000D01*
X187762809Y-142855122D01*
G37*
G36*
X189623920Y-143141111D02*
G01*
X183976821Y-143141111D01*
X183976821Y-142330000D01*
X184087932Y-142330000D01*
X184087932Y-142855122D01*
X184087932Y-143030000D01*
X185137932Y-143030000D01*
X185137932Y-142855122D01*
X185312809Y-142855122D01*
X185312809Y-142505122D01*
X185137932Y-142505122D01*
X185137932Y-142330000D01*
X185312809Y-142330000D01*
X185312809Y-141980000D01*
X185487932Y-141980000D01*
X185487932Y-142855122D01*
X185662809Y-142855122D01*
X185662809Y-143030000D01*
X186537932Y-143030000D01*
X186537932Y-142855122D01*
X186712809Y-142855122D01*
X186712809Y-141980000D01*
X186887932Y-141980000D01*
X186887932Y-142855122D01*
X187062809Y-142855122D01*
X187062809Y-143030000D01*
X187937932Y-143030000D01*
X187937932Y-142855122D01*
X188112809Y-142855122D01*
X188112809Y-141980000D01*
X188287932Y-141980000D01*
X188637932Y-141980000D01*
X188637932Y-143030000D01*
X189162809Y-143030000D01*
X189162809Y-141980000D01*
X189512809Y-141980000D01*
X189512809Y-141805122D01*
X188287932Y-141805122D01*
X188287932Y-141980000D01*
X188112809Y-141980000D01*
X187937932Y-141980000D01*
X187937932Y-141805122D01*
X187062809Y-141805122D01*
X187062809Y-141980000D01*
X186887932Y-141980000D01*
X186712809Y-141980000D01*
X186537932Y-141980000D01*
X186537932Y-141805122D01*
X185662809Y-141805122D01*
X185662809Y-141980000D01*
X185487932Y-141980000D01*
X185312809Y-141980000D01*
X185137932Y-141980000D01*
X185137932Y-141805122D01*
X184087932Y-141805122D01*
X184087932Y-142330000D01*
X183976821Y-142330000D01*
X183976821Y-141694011D01*
X189623920Y-141694011D01*
X189623920Y-143141111D01*
G37*
G36*
X157445180Y-102672888D02*
G01*
X157095180Y-102672888D01*
X157095180Y-102498010D01*
X156920058Y-102498010D01*
X156920058Y-102322888D01*
X157095180Y-102322888D01*
X157095180Y-102148010D01*
X157445180Y-102148010D01*
X157445180Y-102672888D01*
G37*
G36*
X157795180Y-101272888D02*
G01*
X156920058Y-101272888D01*
X156920058Y-100748010D01*
X157795180Y-100748010D01*
X157795180Y-101272888D01*
G37*
G36*
X158081169Y-104533999D02*
G01*
X156634069Y-104533999D01*
X156634069Y-103372888D01*
X156745180Y-103372888D01*
X156745180Y-104248010D01*
X156920058Y-104248010D01*
X156920058Y-104422888D01*
X157270058Y-104422888D01*
X157270058Y-104248010D01*
X157445180Y-104248010D01*
X157445180Y-103548010D01*
X157795180Y-103548010D01*
X157795180Y-104072888D01*
X157620058Y-104072888D01*
X157620058Y-104422888D01*
X157795180Y-104422888D01*
X157795180Y-104248010D01*
X157970058Y-104248010D01*
X157970058Y-103372888D01*
X157795180Y-103372888D01*
X157795180Y-103198010D01*
X157445180Y-103198010D01*
X157445180Y-103372888D01*
X157270058Y-103372888D01*
X157270058Y-104072888D01*
X156920058Y-104072888D01*
X156920058Y-103548010D01*
X157095180Y-103548010D01*
X157095180Y-103198010D01*
X156920058Y-103198010D01*
X156920058Y-103372888D01*
X156745180Y-103372888D01*
X156634069Y-103372888D01*
X156634069Y-102148010D01*
X156745180Y-102148010D01*
X156745180Y-102322888D01*
X156745180Y-102672888D01*
X156920058Y-102672888D01*
X156920058Y-102848010D01*
X157270058Y-102848010D01*
X157270058Y-103022888D01*
X157970058Y-103022888D01*
X157970058Y-102672888D01*
X157620058Y-102672888D01*
X157620058Y-102148010D01*
X157970058Y-102148010D01*
X157970058Y-101798010D01*
X157270058Y-101798010D01*
X157270058Y-101972888D01*
X156920058Y-101972888D01*
X156920058Y-102148010D01*
X156745180Y-102148010D01*
X156634069Y-102148010D01*
X156634069Y-100572888D01*
X156745180Y-100572888D01*
X156745180Y-101272888D01*
X156745180Y-101448010D01*
X156920058Y-101448010D01*
X156920058Y-101622888D01*
X157795180Y-101622888D01*
X157795180Y-101448010D01*
X157970058Y-101448010D01*
X157970058Y-100572888D01*
X157795180Y-100572888D01*
X157795180Y-100398010D01*
X156920058Y-100398010D01*
X156920058Y-100572888D01*
X156745180Y-100572888D01*
X156634069Y-100572888D01*
X156634069Y-100286899D01*
X158081169Y-100286899D01*
X158081169Y-104533999D01*
G37*
G36*
X192404455Y-142505122D02*
G01*
X191879578Y-142505122D01*
X191879578Y-141980000D01*
X192404455Y-141980000D01*
X192404455Y-142505122D01*
G37*
G36*
X198465566Y-143141111D02*
G01*
X191418467Y-143141111D01*
X191418467Y-142505122D01*
X191529578Y-142505122D01*
X191529578Y-143030000D01*
X191879578Y-143030000D01*
X191879578Y-142680000D01*
X192229578Y-142680000D01*
X192229578Y-142855122D01*
X192404455Y-142855122D01*
X192404455Y-143030000D01*
X192754455Y-143030000D01*
X192929578Y-143030000D01*
X194154455Y-143030000D01*
X194154455Y-142855122D01*
X193279578Y-142855122D01*
X193279578Y-142505122D01*
X193979578Y-142505122D01*
X193979578Y-142330000D01*
X193279578Y-142330000D01*
X193279578Y-141980000D01*
X194154455Y-141980000D01*
X194329578Y-141980000D01*
X194329578Y-142330000D01*
X194504455Y-142330000D01*
X194504455Y-142505122D01*
X195204455Y-142505122D01*
X195204455Y-142855122D01*
X194679578Y-142855122D01*
X194679578Y-142680000D01*
X194329578Y-142680000D01*
X194329578Y-142855122D01*
X194504455Y-142855122D01*
X194504455Y-143030000D01*
X195379578Y-143030000D01*
X195729578Y-143030000D01*
X196954455Y-143030000D01*
X196954455Y-142855122D01*
X196079578Y-142855122D01*
X196079578Y-142505122D01*
X196779578Y-142505122D01*
X196779578Y-142330000D01*
X196079578Y-142330000D01*
X196079578Y-141980000D01*
X196954455Y-141980000D01*
X197129578Y-141980000D01*
X197479578Y-141980000D01*
X197479578Y-143030000D01*
X198004455Y-143030000D01*
X198004455Y-141980000D01*
X198354455Y-141980000D01*
X198354455Y-141805122D01*
X197129578Y-141805122D01*
X197129578Y-141980000D01*
X196954455Y-141980000D01*
X196954455Y-141805122D01*
X195729578Y-141805122D01*
X195729578Y-143030000D01*
X195379578Y-143030000D01*
X195379578Y-142855122D01*
X195554455Y-142855122D01*
X195554455Y-142505122D01*
X195379578Y-142505122D01*
X195379578Y-142330000D01*
X194679578Y-142330000D01*
X194679578Y-141980000D01*
X195204455Y-141980000D01*
X195204455Y-142155122D01*
X195554455Y-142155122D01*
X195554455Y-141980000D01*
X195379578Y-141980000D01*
X195379578Y-141805122D01*
X194504455Y-141805122D01*
X194504455Y-141980000D01*
X194329578Y-141980000D01*
X194154455Y-141980000D01*
X194154455Y-141805122D01*
X192929578Y-141805122D01*
X192929578Y-143030000D01*
X192754455Y-143030000D01*
X192754455Y-142855122D01*
X192579578Y-142855122D01*
X192579578Y-142505122D01*
X192754455Y-142505122D01*
X192754455Y-141980000D01*
X192579578Y-141980000D01*
X192579578Y-141805122D01*
X191529578Y-141805122D01*
X191529578Y-142505122D01*
X191418467Y-142505122D01*
X191418467Y-141694011D01*
X198465566Y-141694011D01*
X198465566Y-143141111D01*
G37*
D13*
X161516687Y-104194576D02*
X161630973Y-104237433D01*
X161630973Y-104237433D02*
X161821449Y-104237433D01*
X161821449Y-104237433D02*
X161897640Y-104194576D01*
X161897640Y-104194576D02*
X161935735Y-104151718D01*
X161935735Y-104151718D02*
X161973830Y-104066004D01*
X161973830Y-104066004D02*
X161973830Y-103980290D01*
X161973830Y-103980290D02*
X161935735Y-103894576D01*
X161935735Y-103894576D02*
X161897640Y-103851718D01*
X161897640Y-103851718D02*
X161821449Y-103808861D01*
X161821449Y-103808861D02*
X161669068Y-103766004D01*
X161669068Y-103766004D02*
X161592878Y-103723147D01*
X161592878Y-103723147D02*
X161554783Y-103680290D01*
X161554783Y-103680290D02*
X161516687Y-103594576D01*
X161516687Y-103594576D02*
X161516687Y-103508861D01*
X161516687Y-103508861D02*
X161554783Y-103423147D01*
X161554783Y-103423147D02*
X161592878Y-103380290D01*
X161592878Y-103380290D02*
X161669068Y-103337433D01*
X161669068Y-103337433D02*
X161859545Y-103337433D01*
X161859545Y-103337433D02*
X161973830Y-103380290D01*
X162773831Y-104151718D02*
X162735735Y-104194576D01*
X162735735Y-104194576D02*
X162621450Y-104237433D01*
X162621450Y-104237433D02*
X162545259Y-104237433D01*
X162545259Y-104237433D02*
X162430973Y-104194576D01*
X162430973Y-104194576D02*
X162354783Y-104108861D01*
X162354783Y-104108861D02*
X162316688Y-104023147D01*
X162316688Y-104023147D02*
X162278592Y-103851718D01*
X162278592Y-103851718D02*
X162278592Y-103723147D01*
X162278592Y-103723147D02*
X162316688Y-103551718D01*
X162316688Y-103551718D02*
X162354783Y-103466004D01*
X162354783Y-103466004D02*
X162430973Y-103380290D01*
X162430973Y-103380290D02*
X162545259Y-103337433D01*
X162545259Y-103337433D02*
X162621450Y-103337433D01*
X162621450Y-103337433D02*
X162735735Y-103380290D01*
X162735735Y-103380290D02*
X162773831Y-103423147D01*
X163497640Y-104237433D02*
X163116688Y-104237433D01*
X163116688Y-104237433D02*
X163116688Y-103337433D01*
G36*
X186980231Y-56688613D02*
G01*
X186980231Y-56531222D01*
X187137841Y-56531222D01*
X187137841Y-55743613D01*
X186980231Y-55743613D01*
X186980231Y-55586222D01*
X187767841Y-55586222D01*
X187767841Y-55743613D01*
X187610231Y-55743613D01*
X187610231Y-56531222D01*
X187767841Y-56531222D01*
X187767841Y-56688613D01*
X186980231Y-56688613D01*
G37*
G36*
X189027841Y-55743613D02*
G01*
X189185231Y-55743613D01*
X189185231Y-56216222D01*
X189027841Y-56216222D01*
X189027841Y-56531222D01*
X189185231Y-56531222D01*
X189185231Y-56688613D01*
X188870231Y-56688613D01*
X188870231Y-56531222D01*
X188712841Y-56531222D01*
X188712841Y-56373613D01*
X188397841Y-56373613D01*
X188397841Y-56688613D01*
X188082841Y-56688613D01*
X188082841Y-56216222D01*
X188397841Y-56216222D01*
X188870231Y-56216222D01*
X188870231Y-55743613D01*
X188397841Y-55743613D01*
X188397841Y-56216222D01*
X188082841Y-56216222D01*
X188082841Y-55586222D01*
X189027841Y-55586222D01*
X189027841Y-55743613D01*
G37*
G36*
X190760231Y-56688613D02*
G01*
X190760231Y-56531222D01*
X190602841Y-56531222D01*
X190602841Y-56373613D01*
X190917841Y-56373613D01*
X190917841Y-56531222D01*
X191390231Y-56531222D01*
X191390231Y-56216222D01*
X190760231Y-56216222D01*
X190760231Y-56058613D01*
X190602841Y-56058613D01*
X190602841Y-55743613D01*
X190760231Y-55743613D01*
X190760231Y-55586222D01*
X191547841Y-55586222D01*
X191547841Y-55743613D01*
X191705231Y-55743613D01*
X191705231Y-55901222D01*
X191390231Y-55901222D01*
X191390231Y-55743613D01*
X190917841Y-55743613D01*
X190917841Y-56058613D01*
X191547841Y-56058613D01*
X191547841Y-56216222D01*
X191705231Y-56216222D01*
X191705231Y-56531222D01*
X191547841Y-56531222D01*
X191547841Y-56688613D01*
X190760231Y-56688613D01*
G37*
G36*
X191862841Y-56688613D02*
G01*
X191862841Y-55586222D01*
X192965231Y-55586222D01*
X192965231Y-55743613D01*
X192177841Y-55743613D01*
X192177841Y-56058613D01*
X192807841Y-56058613D01*
X192807841Y-56216222D01*
X192177841Y-56216222D01*
X192177841Y-56531222D01*
X192965231Y-56531222D01*
X192965231Y-56688613D01*
X191862841Y-56688613D01*
G37*
G36*
X193122841Y-56688613D02*
G01*
X193122841Y-55586222D01*
X193437841Y-55586222D01*
X193437841Y-55743613D01*
X193595231Y-55743613D01*
X193595231Y-55901222D01*
X193752841Y-55901222D01*
X193752841Y-56058613D01*
X193910231Y-56058613D01*
X193910231Y-55586222D01*
X194225231Y-55586222D01*
X194225231Y-56688613D01*
X193910231Y-56688613D01*
X193910231Y-56531222D01*
X193752841Y-56531222D01*
X193752841Y-56373613D01*
X193595231Y-56373613D01*
X193595231Y-56216222D01*
X193437841Y-56216222D01*
X193437841Y-56688613D01*
X193122841Y-56688613D01*
G37*
G36*
X194540231Y-56688613D02*
G01*
X194540231Y-56531222D01*
X194382841Y-56531222D01*
X194382841Y-56373613D01*
X194697841Y-56373613D01*
X194697841Y-56531222D01*
X195170231Y-56531222D01*
X195170231Y-56216222D01*
X194540231Y-56216222D01*
X194540231Y-56058613D01*
X194382841Y-56058613D01*
X194382841Y-55743613D01*
X194540231Y-55743613D01*
X194540231Y-55586222D01*
X195327841Y-55586222D01*
X195327841Y-55743613D01*
X195485231Y-55743613D01*
X195485231Y-55901222D01*
X195170231Y-55901222D01*
X195170231Y-55743613D01*
X194697841Y-55743613D01*
X194697841Y-56058613D01*
X195327841Y-56058613D01*
X195327841Y-56216222D01*
X195485231Y-56216222D01*
X195485231Y-56531222D01*
X195327841Y-56531222D01*
X195327841Y-56688613D01*
X194540231Y-56688613D01*
G37*
G36*
X196587841Y-55743613D02*
G01*
X196745231Y-55743613D01*
X196745231Y-56531222D01*
X196587841Y-56531222D01*
X196587841Y-56688613D01*
X195800231Y-56688613D01*
X195800231Y-56531222D01*
X195957841Y-56531222D01*
X196430231Y-56531222D01*
X196430231Y-55743613D01*
X195957841Y-55743613D01*
X195957841Y-56531222D01*
X195800231Y-56531222D01*
X195642841Y-56531222D01*
X195642841Y-55743613D01*
X195800231Y-55743613D01*
X195800231Y-55586222D01*
X196587841Y-55586222D01*
X196587841Y-55743613D01*
G37*
G36*
X197847841Y-55743613D02*
G01*
X198005231Y-55743613D01*
X198005231Y-56216222D01*
X197847841Y-56216222D01*
X197847841Y-56531222D01*
X198005231Y-56531222D01*
X198005231Y-56688613D01*
X197690231Y-56688613D01*
X197690231Y-56531222D01*
X197532841Y-56531222D01*
X197532841Y-56373613D01*
X197217841Y-56373613D01*
X197217841Y-56688613D01*
X196902841Y-56688613D01*
X196902841Y-56216222D01*
X197217841Y-56216222D01*
X197690231Y-56216222D01*
X197690231Y-55743613D01*
X197217841Y-55743613D01*
X197217841Y-56216222D01*
X196902841Y-56216222D01*
X196902841Y-55586222D01*
X197847841Y-55586222D01*
X197847841Y-55743613D01*
G37*
D14*
G36*
X157130000Y-143835231D02*
G01*
X156780000Y-143835231D01*
X156780000Y-143415328D01*
X157130000Y-143415328D01*
X157130000Y-143835231D01*
G37*
G36*
X157655122Y-143835231D02*
G01*
X157305122Y-143835231D01*
X157305122Y-143415328D01*
X157655122Y-143415328D01*
X157655122Y-143835231D01*
G37*
G36*
X157941111Y-146466342D02*
G01*
X156494011Y-146466342D01*
X156494011Y-145655328D01*
X156605122Y-145655328D01*
X157655122Y-145655328D01*
X157655122Y-146075231D01*
X156605122Y-146075231D01*
X156605122Y-146355231D01*
X157655122Y-146355231D01*
X157655122Y-146215328D01*
X157830000Y-146215328D01*
X157830000Y-145515231D01*
X157655122Y-145515231D01*
X157655122Y-145375328D01*
X156605122Y-145375328D01*
X156605122Y-145655328D01*
X156494011Y-145655328D01*
X156494011Y-144395231D01*
X156605122Y-144395231D01*
X156605122Y-145095328D01*
X156780000Y-145095328D01*
X156780000Y-145235231D01*
X157130000Y-145235231D01*
X157130000Y-145095328D01*
X157305122Y-145095328D01*
X157305122Y-144535328D01*
X157655122Y-144535328D01*
X157655122Y-144955231D01*
X157480000Y-144955231D01*
X157480000Y-145235231D01*
X157655122Y-145235231D01*
X157655122Y-145095328D01*
X157830000Y-145095328D01*
X157830000Y-144395231D01*
X157655122Y-144395231D01*
X157655122Y-144255328D01*
X157305122Y-144255328D01*
X157305122Y-144395231D01*
X157130000Y-144395231D01*
X157130000Y-144955231D01*
X156780000Y-144955231D01*
X156780000Y-144535328D01*
X156955122Y-144535328D01*
X156955122Y-144255328D01*
X156780000Y-144255328D01*
X156780000Y-144395231D01*
X156605122Y-144395231D01*
X156494011Y-144395231D01*
X156494011Y-143275231D01*
X156605122Y-143275231D01*
X156605122Y-143835231D01*
X156605122Y-144115231D01*
X157830000Y-144115231D01*
X157830000Y-143275231D01*
X157655122Y-143275231D01*
X157655122Y-143135328D01*
X157305122Y-143135328D01*
X157305122Y-143275231D01*
X157130000Y-143275231D01*
X157130000Y-143135328D01*
X156780000Y-143135328D01*
X156780000Y-143275231D01*
X156605122Y-143275231D01*
X156494011Y-143275231D01*
X156494011Y-143024217D01*
X157941111Y-143024217D01*
X157941111Y-146466342D01*
G37*
G36*
X157207214Y-122907463D02*
G01*
X156332092Y-122907463D01*
X156332092Y-122382585D01*
X157207214Y-122382585D01*
X157207214Y-122907463D01*
G37*
G36*
X157493203Y-123368574D02*
G01*
X156046103Y-123368574D01*
X156046103Y-122207463D01*
X156157214Y-122207463D01*
X156157214Y-122907463D01*
X156157214Y-123082585D01*
X156332092Y-123082585D01*
X156332092Y-123257463D01*
X157207214Y-123257463D01*
X157207214Y-123082585D01*
X157382092Y-123082585D01*
X157382092Y-122207463D01*
X157207214Y-122207463D01*
X157207214Y-122032585D01*
X156332092Y-122032585D01*
X156332092Y-122207463D01*
X156157214Y-122207463D01*
X156046103Y-122207463D01*
X156046103Y-120982585D01*
X156157214Y-120982585D01*
X156682092Y-120982585D01*
X156682092Y-121157463D01*
X156507214Y-121157463D01*
X156507214Y-121332585D01*
X156332092Y-121332585D01*
X156332092Y-121507463D01*
X156157214Y-121507463D01*
X156157214Y-121857463D01*
X157382092Y-121857463D01*
X157382092Y-121507463D01*
X156857214Y-121507463D01*
X156857214Y-121332585D01*
X157032092Y-121332585D01*
X157032092Y-121157463D01*
X157207214Y-121157463D01*
X157207214Y-120982585D01*
X157382092Y-120982585D01*
X157382092Y-120632585D01*
X156157214Y-120632585D01*
X156157214Y-120982585D01*
X156046103Y-120982585D01*
X156046103Y-120521474D01*
X157493203Y-120521474D01*
X157493203Y-123368574D01*
G37*
D15*
G36*
X208086273Y-114134235D02*
G01*
X207322404Y-114134235D01*
X207322404Y-113370000D01*
X208086273Y-113370000D01*
X208086273Y-114134235D01*
G37*
G36*
X217201388Y-115111667D02*
G01*
X206607290Y-115111667D01*
X206607290Y-114134235D01*
X206773957Y-114134235D01*
X206773957Y-114945000D01*
X207322404Y-114945000D01*
X207322404Y-114420000D01*
X207823957Y-114420000D01*
X207823957Y-114682683D01*
X208086273Y-114682683D01*
X208086273Y-114945000D01*
X208634721Y-114945000D01*
X208634721Y-114659235D01*
X208372404Y-114659235D01*
X208372404Y-114157683D01*
X208634721Y-114157683D01*
X208634721Y-113370000D01*
X209136273Y-113370000D01*
X209398957Y-113370000D01*
X209398957Y-114659235D01*
X209136273Y-114659235D01*
X209136273Y-114945000D01*
X210472404Y-114945000D01*
X210472404Y-114659235D01*
X210209721Y-114659235D01*
X210209721Y-113370000D01*
X210472404Y-113370000D01*
X210472404Y-113346552D01*
X210973957Y-113346552D01*
X210973957Y-114682683D01*
X211236273Y-114682683D01*
X211236273Y-114945000D01*
X212572404Y-114945000D01*
X213073957Y-114945000D01*
X213622404Y-114945000D01*
X213622404Y-114157683D01*
X214386273Y-114157683D01*
X214386273Y-114945000D01*
X214934721Y-114945000D01*
X214934721Y-113370000D01*
X215173957Y-113370000D01*
X215698957Y-113370000D01*
X215698957Y-114945000D01*
X216509721Y-114945000D01*
X216509721Y-113370000D01*
X217034721Y-113370000D01*
X217034721Y-113084235D01*
X215173957Y-113084235D01*
X215173957Y-113370000D01*
X214934721Y-113370000D01*
X214934721Y-113084235D01*
X214386273Y-113084235D01*
X214386273Y-113871552D01*
X213622404Y-113871552D01*
X213622404Y-113084235D01*
X213073957Y-113084235D01*
X213073957Y-114945000D01*
X212572404Y-114945000D01*
X212572404Y-114682683D01*
X212834721Y-114682683D01*
X212834721Y-113871552D01*
X211761273Y-113871552D01*
X211761273Y-114157683D01*
X212286273Y-114157683D01*
X212286273Y-114659235D01*
X211522404Y-114659235D01*
X211522404Y-113370000D01*
X212286273Y-113370000D01*
X212286273Y-113632683D01*
X212834721Y-113632683D01*
X212834721Y-113346552D01*
X212572404Y-113346552D01*
X212572404Y-113084235D01*
X211236273Y-113084235D01*
X211236273Y-113346552D01*
X210973957Y-113346552D01*
X210472404Y-113346552D01*
X210472404Y-113084235D01*
X209136273Y-113084235D01*
X209136273Y-113370000D01*
X208634721Y-113370000D01*
X208634721Y-113346552D01*
X208372404Y-113346552D01*
X208372404Y-113084235D01*
X206773957Y-113084235D01*
X206773957Y-114134235D01*
X206607290Y-114134235D01*
X206607290Y-112917568D01*
X217201388Y-112917568D01*
X217201388Y-115111667D01*
G37*
D13*
X161582468Y-97840088D02*
X161696754Y-97882945D01*
X161696754Y-97882945D02*
X161887230Y-97882945D01*
X161887230Y-97882945D02*
X161963421Y-97840088D01*
X161963421Y-97840088D02*
X162001516Y-97797230D01*
X162001516Y-97797230D02*
X162039611Y-97711516D01*
X162039611Y-97711516D02*
X162039611Y-97625802D01*
X162039611Y-97625802D02*
X162001516Y-97540088D01*
X162001516Y-97540088D02*
X161963421Y-97497230D01*
X161963421Y-97497230D02*
X161887230Y-97454373D01*
X161887230Y-97454373D02*
X161734849Y-97411516D01*
X161734849Y-97411516D02*
X161658659Y-97368659D01*
X161658659Y-97368659D02*
X161620564Y-97325802D01*
X161620564Y-97325802D02*
X161582468Y-97240088D01*
X161582468Y-97240088D02*
X161582468Y-97154373D01*
X161582468Y-97154373D02*
X161620564Y-97068659D01*
X161620564Y-97068659D02*
X161658659Y-97025802D01*
X161658659Y-97025802D02*
X161734849Y-96982945D01*
X161734849Y-96982945D02*
X161925326Y-96982945D01*
X161925326Y-96982945D02*
X162039611Y-97025802D01*
X162382469Y-97882945D02*
X162382469Y-96982945D01*
X162382469Y-96982945D02*
X162572945Y-96982945D01*
X162572945Y-96982945D02*
X162687231Y-97025802D01*
X162687231Y-97025802D02*
X162763421Y-97111516D01*
X162763421Y-97111516D02*
X162801516Y-97197230D01*
X162801516Y-97197230D02*
X162839612Y-97368659D01*
X162839612Y-97368659D02*
X162839612Y-97497230D01*
X162839612Y-97497230D02*
X162801516Y-97668659D01*
X162801516Y-97668659D02*
X162763421Y-97754373D01*
X162763421Y-97754373D02*
X162687231Y-97840088D01*
X162687231Y-97840088D02*
X162572945Y-97882945D01*
X162572945Y-97882945D02*
X162382469Y-97882945D01*
X163144373Y-97625802D02*
X163525326Y-97625802D01*
X163068183Y-97882945D02*
X163334850Y-96982945D01*
X163334850Y-96982945D02*
X163601516Y-97882945D01*
X158559269Y-96982945D02*
X158825936Y-97882945D01*
X158825936Y-97882945D02*
X159092602Y-96982945D01*
X159816412Y-97797230D02*
X159778316Y-97840088D01*
X159778316Y-97840088D02*
X159664031Y-97882945D01*
X159664031Y-97882945D02*
X159587840Y-97882945D01*
X159587840Y-97882945D02*
X159473554Y-97840088D01*
X159473554Y-97840088D02*
X159397364Y-97754373D01*
X159397364Y-97754373D02*
X159359269Y-97668659D01*
X159359269Y-97668659D02*
X159321173Y-97497230D01*
X159321173Y-97497230D02*
X159321173Y-97368659D01*
X159321173Y-97368659D02*
X159359269Y-97197230D01*
X159359269Y-97197230D02*
X159397364Y-97111516D01*
X159397364Y-97111516D02*
X159473554Y-97025802D01*
X159473554Y-97025802D02*
X159587840Y-96982945D01*
X159587840Y-96982945D02*
X159664031Y-96982945D01*
X159664031Y-96982945D02*
X159778316Y-97025802D01*
X159778316Y-97025802D02*
X159816412Y-97068659D01*
X160616412Y-97797230D02*
X160578316Y-97840088D01*
X160578316Y-97840088D02*
X160464031Y-97882945D01*
X160464031Y-97882945D02*
X160387840Y-97882945D01*
X160387840Y-97882945D02*
X160273554Y-97840088D01*
X160273554Y-97840088D02*
X160197364Y-97754373D01*
X160197364Y-97754373D02*
X160159269Y-97668659D01*
X160159269Y-97668659D02*
X160121173Y-97497230D01*
X160121173Y-97497230D02*
X160121173Y-97368659D01*
X160121173Y-97368659D02*
X160159269Y-97197230D01*
X160159269Y-97197230D02*
X160197364Y-97111516D01*
X160197364Y-97111516D02*
X160273554Y-97025802D01*
X160273554Y-97025802D02*
X160387840Y-96982945D01*
X160387840Y-96982945D02*
X160464031Y-96982945D01*
X160464031Y-96982945D02*
X160578316Y-97025802D01*
X160578316Y-97025802D02*
X160616412Y-97068659D01*
D12*
G36*
X157409674Y-119414015D02*
G01*
X156798578Y-119414015D01*
X156798578Y-118802627D01*
X157409674Y-118802627D01*
X157409674Y-119414015D01*
G37*
G36*
X159089674Y-119834015D02*
G01*
X158478578Y-119834015D01*
X158478578Y-118802627D01*
X159089674Y-118802627D01*
X159089674Y-119834015D01*
G37*
G36*
X164129674Y-119414015D02*
G01*
X163518578Y-119414015D01*
X163518578Y-118802627D01*
X164129674Y-118802627D01*
X164129674Y-119414015D01*
G37*
G36*
X164701765Y-120195960D02*
G01*
X156226488Y-120195960D01*
X156226488Y-119414015D01*
X156359821Y-119414015D01*
X156359821Y-120062627D01*
X156798578Y-120062627D01*
X156798578Y-119642627D01*
X157638578Y-119642627D01*
X157638578Y-119432773D01*
X157848432Y-119432773D01*
X157848432Y-118783869D01*
X158039821Y-118783869D01*
X158039821Y-119834015D01*
X158039821Y-119852773D01*
X158249674Y-119852773D01*
X158249674Y-120062627D01*
X159318578Y-120062627D01*
X159318578Y-119852773D01*
X159528432Y-119852773D01*
X159528432Y-119432773D01*
X159719821Y-119432773D01*
X159929674Y-119432773D01*
X159929674Y-120062627D01*
X160368432Y-120062627D01*
X160368432Y-119852773D01*
X160559821Y-119852773D01*
X160559821Y-120062627D01*
X160998578Y-120062627D01*
X161399821Y-120062627D01*
X162888432Y-120062627D01*
X162888432Y-119834015D01*
X161838578Y-119834015D01*
X161838578Y-119432773D01*
X162678578Y-119432773D01*
X162678578Y-119414015D01*
X163079821Y-119414015D01*
X163079821Y-120062627D01*
X163518578Y-120062627D01*
X163518578Y-119642627D01*
X163919821Y-119642627D01*
X163919821Y-119852773D01*
X164129674Y-119852773D01*
X164129674Y-120062627D01*
X164568432Y-120062627D01*
X164568432Y-119834015D01*
X164358578Y-119834015D01*
X164358578Y-119432773D01*
X164568432Y-119432773D01*
X164568432Y-118783869D01*
X164358578Y-118783869D01*
X164358578Y-118574015D01*
X163079821Y-118574015D01*
X163079821Y-119414015D01*
X162678578Y-119414015D01*
X162678578Y-119203869D01*
X161838578Y-119203869D01*
X161838578Y-118802627D01*
X162888432Y-118802627D01*
X162888432Y-118574015D01*
X161399821Y-118574015D01*
X161399821Y-120062627D01*
X160998578Y-120062627D01*
X160998578Y-119432773D01*
X161208432Y-119432773D01*
X161208432Y-118574015D01*
X160769674Y-118574015D01*
X160769674Y-119203869D01*
X160578578Y-119203869D01*
X160578578Y-118574015D01*
X160349674Y-118574015D01*
X160349674Y-119203869D01*
X160158578Y-119203869D01*
X160158578Y-118574015D01*
X159719821Y-118574015D01*
X159719821Y-119432773D01*
X159528432Y-119432773D01*
X159528432Y-118783869D01*
X159318578Y-118783869D01*
X159318578Y-118574015D01*
X158249674Y-118574015D01*
X158249674Y-118783869D01*
X158039821Y-118783869D01*
X157848432Y-118783869D01*
X157638578Y-118783869D01*
X157638578Y-118574015D01*
X156359821Y-118574015D01*
X156359821Y-119414015D01*
X156226488Y-119414015D01*
X156226488Y-118440682D01*
X164701765Y-118440682D01*
X164701765Y-120195960D01*
G37*
G36*
X190208385Y-120382454D02*
G01*
X189814727Y-120382454D01*
X189814727Y-120032454D01*
X190208385Y-120032454D01*
X190208385Y-120382454D01*
G37*
G36*
X190208385Y-119857332D02*
G01*
X189814727Y-119857332D01*
X189814727Y-119507332D01*
X190208385Y-119507332D01*
X190208385Y-119857332D01*
G37*
G36*
X195831996Y-120668443D02*
G01*
X189441116Y-120668443D01*
X189441116Y-119857332D01*
X189552227Y-119857332D01*
X189552227Y-120382454D01*
X189552227Y-120557332D01*
X190339727Y-120557332D01*
X190602227Y-120557332D01*
X191520885Y-120557332D01*
X191520885Y-120382454D01*
X190864727Y-120382454D01*
X190864727Y-119507332D01*
X191783385Y-119507332D01*
X191914727Y-119507332D01*
X191914727Y-120382454D01*
X191783385Y-120382454D01*
X191783385Y-120557332D01*
X192439727Y-120557332D01*
X192702227Y-120557332D01*
X192964727Y-120557332D01*
X192964727Y-120032454D01*
X193095885Y-120032454D01*
X193095885Y-120207332D01*
X193227227Y-120207332D01*
X193227227Y-120382454D01*
X193358385Y-120382454D01*
X193358385Y-120557332D01*
X193620885Y-120557332D01*
X193752227Y-120557332D01*
X194014727Y-120557332D01*
X194014727Y-120207332D01*
X194145885Y-120207332D01*
X194145885Y-120382454D01*
X194277227Y-120382454D01*
X194277227Y-120557332D01*
X194670885Y-120557332D01*
X194802227Y-120557332D01*
X195064727Y-120557332D01*
X195064727Y-120207332D01*
X194802227Y-120207332D01*
X194802227Y-120557332D01*
X194670885Y-120557332D01*
X194670885Y-120382454D01*
X194539727Y-120382454D01*
X194539727Y-120207332D01*
X194408385Y-120207332D01*
X194408385Y-120032454D01*
X194277227Y-120032454D01*
X194277227Y-119857332D01*
X194408385Y-119857332D01*
X194408385Y-119682454D01*
X194539727Y-119682454D01*
X195195885Y-119682454D01*
X195195885Y-120032454D01*
X195458385Y-120032454D01*
X195458385Y-119857332D01*
X195589727Y-119857332D01*
X195589727Y-119682454D01*
X195720885Y-119682454D01*
X195720885Y-119332454D01*
X195458385Y-119332454D01*
X195458385Y-119507332D01*
X195327227Y-119507332D01*
X195327227Y-119682454D01*
X195195885Y-119682454D01*
X194539727Y-119682454D01*
X194539727Y-119507332D01*
X194670885Y-119507332D01*
X194670885Y-119332454D01*
X194277227Y-119332454D01*
X194277227Y-119507332D01*
X194145885Y-119507332D01*
X194145885Y-119682454D01*
X194014727Y-119682454D01*
X194014727Y-119332454D01*
X193752227Y-119332454D01*
X193752227Y-120557332D01*
X193620885Y-120557332D01*
X193620885Y-119332454D01*
X193358385Y-119332454D01*
X193358385Y-119857332D01*
X193227227Y-119857332D01*
X193227227Y-119682454D01*
X193095885Y-119682454D01*
X193095885Y-119507332D01*
X192964727Y-119507332D01*
X192964727Y-119332454D01*
X192702227Y-119332454D01*
X192702227Y-120557332D01*
X192439727Y-120557332D01*
X192439727Y-120382454D01*
X192308385Y-120382454D01*
X192308385Y-119507332D01*
X192439727Y-119507332D01*
X192439727Y-119332454D01*
X191783385Y-119332454D01*
X191783385Y-119507332D01*
X190864727Y-119507332D01*
X190864727Y-119332454D01*
X190602227Y-119332454D01*
X190602227Y-120557332D01*
X190339727Y-120557332D01*
X190339727Y-120382454D01*
X190470885Y-120382454D01*
X190470885Y-120032454D01*
X190339727Y-120032454D01*
X190339727Y-119857332D01*
X190470885Y-119857332D01*
X190470885Y-119507332D01*
X190339727Y-119507332D01*
X190339727Y-119332454D01*
X189552227Y-119332454D01*
X189552227Y-119857332D01*
X189441116Y-119857332D01*
X189441116Y-119221343D01*
X195831996Y-119221343D01*
X195831996Y-120668443D01*
G37*
D15*
G36*
X192290218Y-114659235D02*
G01*
X191526349Y-114659235D01*
X191526349Y-113370000D01*
X192290218Y-113370000D01*
X192290218Y-114659235D01*
G37*
G36*
X197205333Y-115111667D02*
G01*
X186611235Y-115111667D01*
X186611235Y-114945000D01*
X186777902Y-114945000D01*
X187326349Y-114945000D01*
X187326349Y-114420000D01*
X187565218Y-114420000D01*
X187565218Y-114945000D01*
X187851349Y-114945000D01*
X187851349Y-114420000D01*
X188090218Y-114420000D01*
X188090218Y-114945000D01*
X188638666Y-114945000D01*
X188877902Y-114945000D01*
X190738666Y-114945000D01*
X190738666Y-114659235D01*
X189426349Y-114659235D01*
X189426349Y-114157683D01*
X190476349Y-114157683D01*
X190476349Y-113871552D01*
X189426349Y-113871552D01*
X189426349Y-113370000D01*
X190738666Y-113370000D01*
X190738666Y-113346552D01*
X190977902Y-113346552D01*
X190977902Y-114659235D01*
X190977902Y-114682683D01*
X191240218Y-114682683D01*
X191240218Y-114945000D01*
X192576349Y-114945000D01*
X192576349Y-114682683D01*
X192838666Y-114682683D01*
X192838666Y-114157683D01*
X193077902Y-114157683D01*
X193340218Y-114157683D01*
X193340218Y-114945000D01*
X193888666Y-114945000D01*
X193888666Y-114682683D01*
X194127902Y-114682683D01*
X194127902Y-114945000D01*
X194676349Y-114945000D01*
X195177902Y-114945000D01*
X195726349Y-114945000D01*
X195726349Y-114396552D01*
X195177902Y-114396552D01*
X195177902Y-114945000D01*
X194676349Y-114945000D01*
X194676349Y-114157683D01*
X194938666Y-114157683D01*
X194938666Y-113609235D01*
X195965218Y-113609235D01*
X195965218Y-114157683D01*
X196513666Y-114157683D01*
X196513666Y-113895000D01*
X196776349Y-113895000D01*
X196776349Y-113632683D01*
X197038666Y-113632683D01*
X197038666Y-113084235D01*
X196490218Y-113084235D01*
X196490218Y-113346552D01*
X196227902Y-113346552D01*
X196227902Y-113609235D01*
X195965218Y-113609235D01*
X194938666Y-113609235D01*
X194938666Y-113084235D01*
X194390218Y-113084235D01*
X194390218Y-113871552D01*
X194151349Y-113871552D01*
X194151349Y-113084235D01*
X193865218Y-113084235D01*
X193865218Y-113871552D01*
X193626349Y-113871552D01*
X193626349Y-113084235D01*
X193077902Y-113084235D01*
X193077902Y-114157683D01*
X192838666Y-114157683D01*
X192838666Y-113346552D01*
X192576349Y-113346552D01*
X192576349Y-113084235D01*
X191240218Y-113084235D01*
X191240218Y-113346552D01*
X190977902Y-113346552D01*
X190738666Y-113346552D01*
X190738666Y-113084235D01*
X188877902Y-113084235D01*
X188877902Y-114945000D01*
X188638666Y-114945000D01*
X188638666Y-113084235D01*
X188352902Y-113084235D01*
X188352902Y-113346552D01*
X188090218Y-113346552D01*
X188090218Y-113609235D01*
X187827902Y-113609235D01*
X187827902Y-113871552D01*
X187588666Y-113871552D01*
X187588666Y-113609235D01*
X187326349Y-113609235D01*
X187326349Y-113346552D01*
X187063666Y-113346552D01*
X187063666Y-113084235D01*
X186777902Y-113084235D01*
X186777902Y-114945000D01*
X186611235Y-114945000D01*
X186611235Y-112917568D01*
X197205333Y-112917568D01*
X197205333Y-115111667D01*
G37*
G36*
X176170812Y-115111667D02*
G01*
X167676714Y-115111667D01*
X167676714Y-114945000D01*
X167843381Y-114945000D01*
X169704145Y-114945000D01*
X169943381Y-114945000D01*
X171804145Y-114945000D01*
X172043381Y-114945000D01*
X172591828Y-114945000D01*
X172591828Y-114157683D01*
X173641828Y-114157683D01*
X173641828Y-113871552D01*
X172591828Y-113871552D01*
X172591828Y-113370000D01*
X173904145Y-113370000D01*
X174143381Y-113370000D01*
X174668381Y-113370000D01*
X174668381Y-114945000D01*
X175479145Y-114945000D01*
X175479145Y-113370000D01*
X176004145Y-113370000D01*
X176004145Y-113084235D01*
X174143381Y-113084235D01*
X174143381Y-113370000D01*
X173904145Y-113370000D01*
X173904145Y-113084235D01*
X172043381Y-113084235D01*
X172043381Y-114945000D01*
X171804145Y-114945000D01*
X171804145Y-114659235D01*
X170491828Y-114659235D01*
X170491828Y-114157683D01*
X171541828Y-114157683D01*
X171541828Y-113871552D01*
X170491828Y-113871552D01*
X170491828Y-113370000D01*
X171804145Y-113370000D01*
X171804145Y-113084235D01*
X169943381Y-113084235D01*
X169943381Y-114945000D01*
X169704145Y-114945000D01*
X169704145Y-114659235D01*
X168391828Y-114659235D01*
X168391828Y-113084235D01*
X167843381Y-113084235D01*
X167843381Y-114945000D01*
X167676714Y-114945000D01*
X167676714Y-112917568D01*
X176170812Y-112917568D01*
X176170812Y-115111667D01*
G37*
D14*
G36*
X157941111Y-150839421D02*
G01*
X156494011Y-150839421D01*
X156494011Y-149993310D01*
X156605122Y-149993310D01*
X156605122Y-150605895D01*
X156780000Y-150605895D01*
X156780000Y-150728310D01*
X156955122Y-150728310D01*
X156955122Y-150483310D01*
X156780000Y-150483310D01*
X156780000Y-150115895D01*
X157130000Y-150115895D01*
X157130000Y-150483310D01*
X157305122Y-150483310D01*
X157305122Y-150115895D01*
X157655122Y-150115895D01*
X157655122Y-150483310D01*
X157480000Y-150483310D01*
X157480000Y-150728310D01*
X157655122Y-150728310D01*
X157655122Y-150605895D01*
X157830000Y-150605895D01*
X157830000Y-149993310D01*
X157655122Y-149993310D01*
X157655122Y-149870895D01*
X157305122Y-149870895D01*
X157305122Y-149993310D01*
X157130000Y-149993310D01*
X157130000Y-149870895D01*
X156780000Y-149870895D01*
X156780000Y-149993310D01*
X156605122Y-149993310D01*
X156494011Y-149993310D01*
X156494011Y-149625895D01*
X157480000Y-149625895D01*
X157830000Y-149625895D01*
X157830000Y-149380895D01*
X157480000Y-149380895D01*
X157480000Y-149625895D01*
X156494011Y-149625895D01*
X156494011Y-148033310D01*
X156605122Y-148033310D01*
X156605122Y-148645895D01*
X156780000Y-148645895D01*
X156780000Y-148768310D01*
X156955122Y-148768310D01*
X156955122Y-148523310D01*
X156780000Y-148523310D01*
X156780000Y-148155895D01*
X157130000Y-148155895D01*
X157130000Y-148523310D01*
X157305122Y-148523310D01*
X157305122Y-148155895D01*
X157655122Y-148155895D01*
X157655122Y-148523310D01*
X157480000Y-148523310D01*
X157480000Y-148768310D01*
X157655122Y-148768310D01*
X157655122Y-148645895D01*
X157830000Y-148645895D01*
X157830000Y-148033310D01*
X157655122Y-148033310D01*
X157655122Y-147910895D01*
X157305122Y-147910895D01*
X157305122Y-148033310D01*
X157130000Y-148033310D01*
X157130000Y-147910895D01*
X156780000Y-147910895D01*
X156780000Y-148033310D01*
X156605122Y-148033310D01*
X156494011Y-148033310D01*
X156494011Y-147175895D01*
X156605122Y-147175895D01*
X157130000Y-147175895D01*
X157130000Y-147298310D01*
X157480000Y-147298310D01*
X157480000Y-147420895D01*
X157130000Y-147420895D01*
X157130000Y-147543310D01*
X156605122Y-147543310D01*
X156605122Y-147788310D01*
X157130000Y-147788310D01*
X157130000Y-147665895D01*
X157480000Y-147665895D01*
X157480000Y-147543310D01*
X157830000Y-147543310D01*
X157830000Y-147175895D01*
X157480000Y-147175895D01*
X157480000Y-147053310D01*
X157130000Y-147053310D01*
X157130000Y-146930895D01*
X156605122Y-146930895D01*
X156605122Y-147175895D01*
X156494011Y-147175895D01*
X156494011Y-146819784D01*
X157941111Y-146819784D01*
X157941111Y-150839421D01*
G37*
G36*
X157169944Y-129533322D02*
G01*
X156294822Y-129533322D01*
X156294822Y-129008444D01*
X157169944Y-129008444D01*
X157169944Y-129533322D01*
G37*
G36*
X157455933Y-129994433D02*
G01*
X156008833Y-129994433D01*
X156008833Y-128833322D01*
X156119944Y-128833322D01*
X156119944Y-129533322D01*
X156119944Y-129708444D01*
X156294822Y-129708444D01*
X156294822Y-129883322D01*
X157169944Y-129883322D01*
X157169944Y-129708444D01*
X157344822Y-129708444D01*
X157344822Y-128833322D01*
X157169944Y-128833322D01*
X157169944Y-128658444D01*
X156294822Y-128658444D01*
X156294822Y-128833322D01*
X156119944Y-128833322D01*
X156008833Y-128833322D01*
X156008833Y-128483322D01*
X156119944Y-128483322D01*
X157344822Y-128483322D01*
X157344822Y-128133322D01*
X156819944Y-128133322D01*
X156819944Y-127433322D01*
X156644822Y-127433322D01*
X156644822Y-128133322D01*
X156294822Y-128133322D01*
X156294822Y-127258444D01*
X156119944Y-127258444D01*
X156119944Y-128483322D01*
X156008833Y-128483322D01*
X156008833Y-127083322D01*
X156119944Y-127083322D01*
X157344822Y-127083322D01*
X157344822Y-126733322D01*
X156819944Y-126733322D01*
X156819944Y-126033322D01*
X156644822Y-126033322D01*
X156644822Y-126733322D01*
X156294822Y-126733322D01*
X156294822Y-125858444D01*
X156119944Y-125858444D01*
X156119944Y-127083322D01*
X156008833Y-127083322D01*
X156008833Y-125747333D01*
X157455933Y-125747333D01*
X157455933Y-129994433D01*
G37*
D13*
X190871109Y-121619154D02*
X190871109Y-120919154D01*
X191337776Y-120919154D02*
X191471109Y-120919154D01*
X191471109Y-120919154D02*
X191537776Y-120952487D01*
X191537776Y-120952487D02*
X191604442Y-121019154D01*
X191604442Y-121019154D02*
X191637776Y-121152487D01*
X191637776Y-121152487D02*
X191637776Y-121385821D01*
X191637776Y-121385821D02*
X191604442Y-121519154D01*
X191604442Y-121519154D02*
X191537776Y-121585821D01*
X191537776Y-121585821D02*
X191471109Y-121619154D01*
X191471109Y-121619154D02*
X191337776Y-121619154D01*
X191337776Y-121619154D02*
X191271109Y-121585821D01*
X191271109Y-121585821D02*
X191204442Y-121519154D01*
X191204442Y-121519154D02*
X191171109Y-121385821D01*
X191171109Y-121385821D02*
X191171109Y-121152487D01*
X191171109Y-121152487D02*
X191204442Y-121019154D01*
X191204442Y-121019154D02*
X191271109Y-120952487D01*
X191271109Y-120952487D02*
X191337776Y-120919154D01*
X191904442Y-121152487D02*
X192404442Y-121152487D01*
X192104442Y-120852487D02*
X191904442Y-121752487D01*
X192337775Y-121452487D02*
X191837775Y-121452487D01*
X192137775Y-121752487D02*
X192337775Y-120852487D01*
X193004442Y-121619154D02*
X192604442Y-121619154D01*
X192804442Y-121619154D02*
X192804442Y-120919154D01*
X192804442Y-120919154D02*
X192737775Y-121019154D01*
X192737775Y-121019154D02*
X192671109Y-121085821D01*
X192671109Y-121085821D02*
X192604442Y-121119154D01*
X193671109Y-121619154D02*
X193271109Y-121619154D01*
X193471109Y-121619154D02*
X193471109Y-120919154D01*
X193471109Y-120919154D02*
X193404442Y-121019154D01*
X193404442Y-121019154D02*
X193337776Y-121085821D01*
X193337776Y-121085821D02*
X193271109Y-121119154D01*
X158974196Y-103393446D02*
X158898006Y-103350589D01*
X158898006Y-103350589D02*
X158783720Y-103350589D01*
X158783720Y-103350589D02*
X158669434Y-103393446D01*
X158669434Y-103393446D02*
X158593244Y-103479160D01*
X158593244Y-103479160D02*
X158555149Y-103564874D01*
X158555149Y-103564874D02*
X158517053Y-103736303D01*
X158517053Y-103736303D02*
X158517053Y-103864874D01*
X158517053Y-103864874D02*
X158555149Y-104036303D01*
X158555149Y-104036303D02*
X158593244Y-104122017D01*
X158593244Y-104122017D02*
X158669434Y-104207732D01*
X158669434Y-104207732D02*
X158783720Y-104250589D01*
X158783720Y-104250589D02*
X158859911Y-104250589D01*
X158859911Y-104250589D02*
X158974196Y-104207732D01*
X158974196Y-104207732D02*
X159012292Y-104164874D01*
X159012292Y-104164874D02*
X159012292Y-103864874D01*
X159012292Y-103864874D02*
X158859911Y-103864874D01*
X159355149Y-104250589D02*
X159355149Y-103350589D01*
X159355149Y-103350589D02*
X159812292Y-104250589D01*
X159812292Y-104250589D02*
X159812292Y-103350589D01*
X160193244Y-104250589D02*
X160193244Y-103350589D01*
X160193244Y-103350589D02*
X160383720Y-103350589D01*
X160383720Y-103350589D02*
X160498006Y-103393446D01*
X160498006Y-103393446D02*
X160574196Y-103479160D01*
X160574196Y-103479160D02*
X160612291Y-103564874D01*
X160612291Y-103564874D02*
X160650387Y-103736303D01*
X160650387Y-103736303D02*
X160650387Y-103864874D01*
X160650387Y-103864874D02*
X160612291Y-104036303D01*
X160612291Y-104036303D02*
X160574196Y-104122017D01*
X160574196Y-104122017D02*
X160498006Y-104207732D01*
X160498006Y-104207732D02*
X160383720Y-104250589D01*
X160383720Y-104250589D02*
X160193244Y-104250589D01*
D12*
G36*
X195251530Y-61120118D02*
G01*
X195251530Y-60994205D01*
X195368862Y-60994205D01*
X195368862Y-60490205D01*
X195251530Y-60490205D01*
X195251530Y-60364118D01*
X195368862Y-60364118D01*
X195368862Y-60238205D01*
X195720530Y-60238205D01*
X195720530Y-60994205D01*
X195837862Y-60994205D01*
X195837862Y-61120118D01*
X195251530Y-61120118D01*
G37*
G36*
X196189530Y-61120118D02*
G01*
X196189530Y-60994205D01*
X196072362Y-60994205D01*
X196072362Y-60868118D01*
X196306862Y-60868118D01*
X196306862Y-60994205D01*
X196658530Y-60994205D01*
X196658530Y-60616118D01*
X196306862Y-60616118D01*
X196306862Y-60742205D01*
X196072362Y-60742205D01*
X196072362Y-60238205D01*
X196893030Y-60238205D01*
X196893030Y-60364118D01*
X196306862Y-60364118D01*
X196306862Y-60490205D01*
X196775862Y-60490205D01*
X196775862Y-60616118D01*
X196893030Y-60616118D01*
X196893030Y-60994205D01*
X196775862Y-60994205D01*
X196775862Y-61120118D01*
X196189530Y-61120118D01*
G37*
G36*
X197010362Y-61120118D02*
G01*
X197010362Y-60868118D01*
X197127530Y-60868118D01*
X197127530Y-60742205D01*
X197244862Y-60742205D01*
X197244862Y-60616118D01*
X197127530Y-60616118D01*
X197127530Y-60490205D01*
X197010362Y-60490205D01*
X197010362Y-60238205D01*
X197244862Y-60238205D01*
X197244862Y-60490205D01*
X197362030Y-60490205D01*
X197362030Y-60616118D01*
X197479362Y-60616118D01*
X197479362Y-60490205D01*
X197596530Y-60490205D01*
X197596530Y-60238205D01*
X197831030Y-60238205D01*
X197831030Y-60490205D01*
X197713862Y-60490205D01*
X197713862Y-60616118D01*
X197596530Y-60616118D01*
X197596530Y-60742205D01*
X197713862Y-60742205D01*
X197713862Y-60868118D01*
X197831030Y-60868118D01*
X197831030Y-61120118D01*
X197596530Y-61120118D01*
X197596530Y-60868118D01*
X197479362Y-60868118D01*
X197479362Y-60742205D01*
X197362030Y-60742205D01*
X197362030Y-60868118D01*
X197244862Y-60868118D01*
X197244862Y-61120118D01*
X197010362Y-61120118D01*
G37*
G36*
X198182862Y-61120118D02*
G01*
X198182862Y-60742205D01*
X198300030Y-60742205D01*
X198300030Y-60616118D01*
X198534530Y-60616118D01*
X198534530Y-60364118D01*
X198182862Y-60364118D01*
X198182862Y-60490205D01*
X197948362Y-60490205D01*
X197948362Y-60238205D01*
X198769030Y-60238205D01*
X198769030Y-60616118D01*
X198651862Y-60616118D01*
X198651862Y-60742205D01*
X198534530Y-60742205D01*
X198534530Y-61120118D01*
X198182862Y-61120118D01*
G37*
G36*
X200527862Y-60364118D02*
G01*
X200645030Y-60364118D01*
X200645030Y-60742205D01*
X200527862Y-60742205D01*
X200527862Y-60994205D01*
X200645030Y-60994205D01*
X200645030Y-61120118D01*
X200410530Y-61120118D01*
X200410530Y-60994205D01*
X200293362Y-60994205D01*
X200293362Y-60868118D01*
X200058862Y-60868118D01*
X200058862Y-61120118D01*
X199824362Y-61120118D01*
X199824362Y-60742205D01*
X200058862Y-60742205D01*
X200410530Y-60742205D01*
X200410530Y-60364118D01*
X200058862Y-60364118D01*
X200058862Y-60742205D01*
X199824362Y-60742205D01*
X199824362Y-60238205D01*
X200527862Y-60238205D01*
X200527862Y-60364118D01*
G37*
G36*
X200879530Y-61120118D02*
G01*
X200879530Y-60994205D01*
X200762362Y-60994205D01*
X200762362Y-60364118D01*
X200879530Y-60364118D01*
X200879530Y-60238205D01*
X201465862Y-60238205D01*
X201465862Y-60364118D01*
X201583030Y-60364118D01*
X201583030Y-60490205D01*
X201348530Y-60490205D01*
X201348530Y-60364118D01*
X200996862Y-60364118D01*
X200996862Y-60994205D01*
X201348530Y-60994205D01*
X201348530Y-60742205D01*
X201114030Y-60742205D01*
X201114030Y-60616118D01*
X201583030Y-60616118D01*
X201583030Y-60994205D01*
X201465862Y-60994205D01*
X201465862Y-61120118D01*
X200879530Y-61120118D01*
G37*
G36*
X202403862Y-60364118D02*
G01*
X202521030Y-60364118D01*
X202521030Y-60616118D01*
X202403862Y-60616118D01*
X202403862Y-60742205D01*
X202521030Y-60742205D01*
X202521030Y-60994205D01*
X202403862Y-60994205D01*
X202403862Y-61120118D01*
X201700362Y-61120118D01*
X201700362Y-60994205D01*
X201934862Y-60994205D01*
X202286530Y-60994205D01*
X202286530Y-60742205D01*
X201934862Y-60742205D01*
X201934862Y-60994205D01*
X201700362Y-60994205D01*
X201700362Y-60616118D01*
X201934862Y-60616118D01*
X202286530Y-60616118D01*
X202286530Y-60364118D01*
X201934862Y-60364118D01*
X201934862Y-60616118D01*
X201700362Y-60616118D01*
X201700362Y-60238205D01*
X202403862Y-60238205D01*
X202403862Y-60364118D01*
G37*
G36*
X204279862Y-60364118D02*
G01*
X204397030Y-60364118D01*
X204397030Y-60742205D01*
X204279862Y-60742205D01*
X204279862Y-60868118D01*
X203810862Y-60868118D01*
X203810862Y-61120118D01*
X203576362Y-61120118D01*
X203576362Y-60742205D01*
X203810862Y-60742205D01*
X204162530Y-60742205D01*
X204162530Y-60364118D01*
X203810862Y-60364118D01*
X203810862Y-60742205D01*
X203576362Y-60742205D01*
X203576362Y-60238205D01*
X204279862Y-60238205D01*
X204279862Y-60364118D01*
G37*
G36*
X204631530Y-61120118D02*
G01*
X204631530Y-60994205D01*
X204748862Y-60994205D01*
X204748862Y-60364118D01*
X204631530Y-60364118D01*
X204631530Y-60238205D01*
X205217862Y-60238205D01*
X205217862Y-60364118D01*
X205100530Y-60364118D01*
X205100530Y-60994205D01*
X205217862Y-60994205D01*
X205217862Y-61120118D01*
X204631530Y-61120118D01*
G37*
G36*
X205452362Y-61120118D02*
G01*
X205452362Y-60868118D01*
X205569530Y-60868118D01*
X205569530Y-60742205D01*
X205686862Y-60742205D01*
X205686862Y-60616118D01*
X205569530Y-60616118D01*
X205569530Y-60490205D01*
X205452362Y-60490205D01*
X205452362Y-60238205D01*
X205686862Y-60238205D01*
X205686862Y-60490205D01*
X205804030Y-60490205D01*
X205804030Y-60616118D01*
X205921362Y-60616118D01*
X205921362Y-60490205D01*
X206038530Y-60490205D01*
X206038530Y-60238205D01*
X206273030Y-60238205D01*
X206273030Y-60490205D01*
X206155862Y-60490205D01*
X206155862Y-60616118D01*
X206038530Y-60616118D01*
X206038530Y-60742205D01*
X206155862Y-60742205D01*
X206155862Y-60868118D01*
X206273030Y-60868118D01*
X206273030Y-61120118D01*
X206038530Y-61120118D01*
X206038530Y-60868118D01*
X205921362Y-60868118D01*
X205921362Y-60742205D01*
X205804030Y-60742205D01*
X205804030Y-60868118D01*
X205686862Y-60868118D01*
X205686862Y-61120118D01*
X205452362Y-61120118D01*
G37*
G36*
X206390362Y-61120118D02*
G01*
X206390362Y-60238205D01*
X207211030Y-60238205D01*
X207211030Y-60364118D01*
X206624862Y-60364118D01*
X206624862Y-60616118D01*
X207093862Y-60616118D01*
X207093862Y-60742205D01*
X206624862Y-60742205D01*
X206624862Y-60994205D01*
X207211030Y-60994205D01*
X207211030Y-61120118D01*
X206390362Y-61120118D01*
G37*
G36*
X207328362Y-61120118D02*
G01*
X207328362Y-60238205D01*
X207562862Y-60238205D01*
X207562862Y-60994205D01*
X208149030Y-60994205D01*
X208149030Y-61120118D01*
X207328362Y-61120118D01*
G37*
G36*
X209204362Y-61120118D02*
G01*
X209204362Y-60238205D01*
X209321530Y-60238205D01*
X209321530Y-60364118D01*
X209438862Y-60364118D01*
X209438862Y-60490205D01*
X209556030Y-60490205D01*
X209556030Y-60616118D01*
X209673362Y-60616118D01*
X209673362Y-60490205D01*
X209790530Y-60490205D01*
X209790530Y-60364118D01*
X209907862Y-60364118D01*
X209907862Y-60238205D01*
X210025030Y-60238205D01*
X210025030Y-61120118D01*
X209790530Y-61120118D01*
X209790530Y-60868118D01*
X209673362Y-60868118D01*
X209673362Y-61120118D01*
X209556030Y-61120118D01*
X209556030Y-60868118D01*
X209438862Y-60868118D01*
X209438862Y-61120118D01*
X209204362Y-61120118D01*
G37*
G36*
X210728530Y-60364118D02*
G01*
X210845862Y-60364118D01*
X210845862Y-60616118D01*
X210963030Y-60616118D01*
X210963030Y-61120118D01*
X210728530Y-61120118D01*
X210728530Y-60868118D01*
X210376862Y-60868118D01*
X210376862Y-61120118D01*
X210142362Y-61120118D01*
X210142362Y-60616118D01*
X210259530Y-60616118D01*
X210259530Y-60490205D01*
X210376862Y-60490205D01*
X210376862Y-60742205D01*
X210728530Y-60742205D01*
X210728530Y-60490205D01*
X210611362Y-60490205D01*
X210611362Y-60364118D01*
X210494030Y-60364118D01*
X210494030Y-60490205D01*
X210376862Y-60490205D01*
X210259530Y-60490205D01*
X210259530Y-60364118D01*
X210376862Y-60364118D01*
X210376862Y-60238205D01*
X210728530Y-60238205D01*
X210728530Y-60364118D01*
G37*
G36*
X211314862Y-61120118D02*
G01*
X211314862Y-60364118D01*
X211080362Y-60364118D01*
X211080362Y-60238205D01*
X211901030Y-60238205D01*
X211901030Y-60364118D01*
X211666530Y-60364118D01*
X211666530Y-61120118D01*
X211314862Y-61120118D01*
G37*
G36*
X212721862Y-60364118D02*
G01*
X212839030Y-60364118D01*
X212839030Y-60742205D01*
X212721862Y-60742205D01*
X212721862Y-60994205D01*
X212839030Y-60994205D01*
X212839030Y-61120118D01*
X212604530Y-61120118D01*
X212604530Y-60994205D01*
X212487362Y-60994205D01*
X212487362Y-60868118D01*
X212252862Y-60868118D01*
X212252862Y-61120118D01*
X212018362Y-61120118D01*
X212018362Y-60742205D01*
X212252862Y-60742205D01*
X212604530Y-60742205D01*
X212604530Y-60364118D01*
X212252862Y-60364118D01*
X212252862Y-60742205D01*
X212018362Y-60742205D01*
X212018362Y-60238205D01*
X212721862Y-60238205D01*
X212721862Y-60364118D01*
G37*
G36*
X213073530Y-61120118D02*
G01*
X213073530Y-60994205D01*
X213190862Y-60994205D01*
X213190862Y-60364118D01*
X213073530Y-60364118D01*
X213073530Y-60238205D01*
X213659862Y-60238205D01*
X213659862Y-60364118D01*
X213542530Y-60364118D01*
X213542530Y-60994205D01*
X213659862Y-60994205D01*
X213659862Y-61120118D01*
X213073530Y-61120118D01*
G37*
G36*
X213894362Y-61120118D02*
G01*
X213894362Y-60868118D01*
X214011530Y-60868118D01*
X214011530Y-60742205D01*
X214128862Y-60742205D01*
X214128862Y-60616118D01*
X214011530Y-60616118D01*
X214011530Y-60490205D01*
X213894362Y-60490205D01*
X213894362Y-60238205D01*
X214128862Y-60238205D01*
X214128862Y-60490205D01*
X214246030Y-60490205D01*
X214246030Y-60616118D01*
X214363362Y-60616118D01*
X214363362Y-60490205D01*
X214480530Y-60490205D01*
X214480530Y-60238205D01*
X214715030Y-60238205D01*
X214715030Y-60490205D01*
X214597862Y-60490205D01*
X214597862Y-60616118D01*
X214480530Y-60616118D01*
X214480530Y-60742205D01*
X214597862Y-60742205D01*
X214597862Y-60868118D01*
X214715030Y-60868118D01*
X214715030Y-61120118D01*
X214480530Y-61120118D01*
X214480530Y-60868118D01*
X214363362Y-60868118D01*
X214363362Y-60742205D01*
X214246030Y-60742205D01*
X214246030Y-60868118D01*
X214128862Y-60868118D01*
X214128862Y-61120118D01*
X213894362Y-61120118D01*
G37*
G36*
X216473862Y-60364118D02*
G01*
X216591030Y-60364118D01*
X216591030Y-60994205D01*
X216473862Y-60994205D01*
X216473862Y-61120118D01*
X215770362Y-61120118D01*
X215770362Y-60994205D01*
X216004862Y-60994205D01*
X216356530Y-60994205D01*
X216356530Y-60364118D01*
X216004862Y-60364118D01*
X216004862Y-60994205D01*
X215770362Y-60994205D01*
X215770362Y-60238205D01*
X216473862Y-60238205D01*
X216473862Y-60364118D01*
G37*
G36*
X216825530Y-61120118D02*
G01*
X216825530Y-60994205D01*
X216942862Y-60994205D01*
X216942862Y-60364118D01*
X216825530Y-60364118D01*
X216825530Y-60238205D01*
X217411862Y-60238205D01*
X217411862Y-60364118D01*
X217294530Y-60364118D01*
X217294530Y-60994205D01*
X217411862Y-60994205D01*
X217411862Y-61120118D01*
X216825530Y-61120118D01*
G37*
G36*
X217763530Y-61120118D02*
G01*
X217763530Y-60994205D01*
X217646362Y-60994205D01*
X217646362Y-60868118D01*
X217880862Y-60868118D01*
X217880862Y-60994205D01*
X218232530Y-60994205D01*
X218232530Y-60742205D01*
X217763530Y-60742205D01*
X217763530Y-60616118D01*
X217646362Y-60616118D01*
X217646362Y-60364118D01*
X217763530Y-60364118D01*
X217763530Y-60238205D01*
X218349862Y-60238205D01*
X218349862Y-60364118D01*
X218467030Y-60364118D01*
X218467030Y-60490205D01*
X218232530Y-60490205D01*
X218232530Y-60364118D01*
X217880862Y-60364118D01*
X217880862Y-60616118D01*
X218349862Y-60616118D01*
X218349862Y-60742205D01*
X218467030Y-60742205D01*
X218467030Y-60994205D01*
X218349862Y-60994205D01*
X218349862Y-61120118D01*
X217763530Y-61120118D01*
G37*
G36*
X219287862Y-60364118D02*
G01*
X219405030Y-60364118D01*
X219405030Y-60742205D01*
X219287862Y-60742205D01*
X219287862Y-60868118D01*
X218818862Y-60868118D01*
X218818862Y-61120118D01*
X218584362Y-61120118D01*
X218584362Y-60742205D01*
X218818862Y-60742205D01*
X219170530Y-60742205D01*
X219170530Y-60364118D01*
X218818862Y-60364118D01*
X218818862Y-60742205D01*
X218584362Y-60742205D01*
X218584362Y-60238205D01*
X219287862Y-60238205D01*
X219287862Y-60364118D01*
G37*
G36*
X219522362Y-61120118D02*
G01*
X219522362Y-60238205D01*
X219756862Y-60238205D01*
X219756862Y-60994205D01*
X220343030Y-60994205D01*
X220343030Y-61120118D01*
X219522362Y-61120118D01*
G37*
G36*
X221046530Y-60364118D02*
G01*
X221163862Y-60364118D01*
X221163862Y-60616118D01*
X221281030Y-60616118D01*
X221281030Y-61120118D01*
X221046530Y-61120118D01*
X221046530Y-60868118D01*
X220694862Y-60868118D01*
X220694862Y-61120118D01*
X220460362Y-61120118D01*
X220460362Y-60616118D01*
X220577530Y-60616118D01*
X220577530Y-60490205D01*
X220694862Y-60490205D01*
X220694862Y-60742205D01*
X221046530Y-60742205D01*
X221046530Y-60490205D01*
X220929362Y-60490205D01*
X220929362Y-60364118D01*
X220812030Y-60364118D01*
X220812030Y-60490205D01*
X220694862Y-60490205D01*
X220577530Y-60490205D01*
X220577530Y-60364118D01*
X220694862Y-60364118D01*
X220694862Y-60238205D01*
X221046530Y-60238205D01*
X221046530Y-60364118D01*
G37*
G36*
X221632862Y-61120118D02*
G01*
X221632862Y-60742205D01*
X221515530Y-60742205D01*
X221515530Y-60490205D01*
X221398362Y-60490205D01*
X221398362Y-60238205D01*
X221632862Y-60238205D01*
X221632862Y-60490205D01*
X221750030Y-60490205D01*
X221750030Y-60616118D01*
X221867362Y-60616118D01*
X221867362Y-60490205D01*
X221984530Y-60490205D01*
X221984530Y-60238205D01*
X222219030Y-60238205D01*
X222219030Y-60490205D01*
X222101862Y-60490205D01*
X222101862Y-60742205D01*
X221984530Y-60742205D01*
X221984530Y-61120118D01*
X221632862Y-61120118D01*
G37*
D13*
X219071525Y-139782869D02*
X219042953Y-139811441D01*
X219042953Y-139811441D02*
X218957239Y-139840012D01*
X218957239Y-139840012D02*
X218900096Y-139840012D01*
X218900096Y-139840012D02*
X218814382Y-139811441D01*
X218814382Y-139811441D02*
X218757239Y-139754298D01*
X218757239Y-139754298D02*
X218728668Y-139697155D01*
X218728668Y-139697155D02*
X218700096Y-139582869D01*
X218700096Y-139582869D02*
X218700096Y-139497155D01*
X218700096Y-139497155D02*
X218728668Y-139382869D01*
X218728668Y-139382869D02*
X218757239Y-139325726D01*
X218757239Y-139325726D02*
X218814382Y-139268583D01*
X218814382Y-139268583D02*
X218900096Y-139240012D01*
X218900096Y-139240012D02*
X218957239Y-139240012D01*
X218957239Y-139240012D02*
X219042953Y-139268583D01*
X219042953Y-139268583D02*
X219071525Y-139297155D01*
X219300096Y-139297155D02*
X219328668Y-139268583D01*
X219328668Y-139268583D02*
X219385811Y-139240012D01*
X219385811Y-139240012D02*
X219528668Y-139240012D01*
X219528668Y-139240012D02*
X219585811Y-139268583D01*
X219585811Y-139268583D02*
X219614382Y-139297155D01*
X219614382Y-139297155D02*
X219642953Y-139354298D01*
X219642953Y-139354298D02*
X219642953Y-139411441D01*
X219642953Y-139411441D02*
X219614382Y-139497155D01*
X219614382Y-139497155D02*
X219271525Y-139840012D01*
X219271525Y-139840012D02*
X219642953Y-139840012D01*
X219985811Y-139497155D02*
X219928668Y-139468583D01*
X219928668Y-139468583D02*
X219900097Y-139440012D01*
X219900097Y-139440012D02*
X219871525Y-139382869D01*
X219871525Y-139382869D02*
X219871525Y-139354298D01*
X219871525Y-139354298D02*
X219900097Y-139297155D01*
X219900097Y-139297155D02*
X219928668Y-139268583D01*
X219928668Y-139268583D02*
X219985811Y-139240012D01*
X219985811Y-139240012D02*
X220100097Y-139240012D01*
X220100097Y-139240012D02*
X220157240Y-139268583D01*
X220157240Y-139268583D02*
X220185811Y-139297155D01*
X220185811Y-139297155D02*
X220214382Y-139354298D01*
X220214382Y-139354298D02*
X220214382Y-139382869D01*
X220214382Y-139382869D02*
X220185811Y-139440012D01*
X220185811Y-139440012D02*
X220157240Y-139468583D01*
X220157240Y-139468583D02*
X220100097Y-139497155D01*
X220100097Y-139497155D02*
X219985811Y-139497155D01*
X219985811Y-139497155D02*
X219928668Y-139525726D01*
X219928668Y-139525726D02*
X219900097Y-139554298D01*
X219900097Y-139554298D02*
X219871525Y-139611441D01*
X219871525Y-139611441D02*
X219871525Y-139725726D01*
X219871525Y-139725726D02*
X219900097Y-139782869D01*
X219900097Y-139782869D02*
X219928668Y-139811441D01*
X219928668Y-139811441D02*
X219985811Y-139840012D01*
X219985811Y-139840012D02*
X220100097Y-139840012D01*
X220100097Y-139840012D02*
X220157240Y-139811441D01*
X220157240Y-139811441D02*
X220185811Y-139782869D01*
X220185811Y-139782869D02*
X220214382Y-139725726D01*
X220214382Y-139725726D02*
X220214382Y-139611441D01*
X220214382Y-139611441D02*
X220185811Y-139554298D01*
X220185811Y-139554298D02*
X220157240Y-139525726D01*
X220157240Y-139525726D02*
X220100097Y-139497155D01*
X189784715Y-121699955D02*
X189756143Y-121728527D01*
X189756143Y-121728527D02*
X189670429Y-121757098D01*
X189670429Y-121757098D02*
X189613286Y-121757098D01*
X189613286Y-121757098D02*
X189527572Y-121728527D01*
X189527572Y-121728527D02*
X189470429Y-121671384D01*
X189470429Y-121671384D02*
X189441858Y-121614241D01*
X189441858Y-121614241D02*
X189413286Y-121499955D01*
X189413286Y-121499955D02*
X189413286Y-121414241D01*
X189413286Y-121414241D02*
X189441858Y-121299955D01*
X189441858Y-121299955D02*
X189470429Y-121242812D01*
X189470429Y-121242812D02*
X189527572Y-121185669D01*
X189527572Y-121185669D02*
X189613286Y-121157098D01*
X189613286Y-121157098D02*
X189670429Y-121157098D01*
X189670429Y-121157098D02*
X189756143Y-121185669D01*
X189756143Y-121185669D02*
X189784715Y-121214241D01*
X189984715Y-121157098D02*
X190384715Y-121157098D01*
X190384715Y-121157098D02*
X190127572Y-121757098D01*
X164888068Y-54252637D02*
X165121402Y-54252637D01*
X165221402Y-54619304D02*
X164888068Y-54619304D01*
X164888068Y-54619304D02*
X164888068Y-53919304D01*
X164888068Y-53919304D02*
X165221402Y-53919304D01*
X165488068Y-54419304D02*
X165821401Y-54419304D01*
X165421401Y-54619304D02*
X165654735Y-53919304D01*
X165654735Y-53919304D02*
X165888068Y-54619304D01*
X166521401Y-54619304D02*
X166288068Y-54285971D01*
X166121401Y-54619304D02*
X166121401Y-53919304D01*
X166121401Y-53919304D02*
X166388068Y-53919304D01*
X166388068Y-53919304D02*
X166454735Y-53952637D01*
X166454735Y-53952637D02*
X166488068Y-53985971D01*
X166488068Y-53985971D02*
X166521401Y-54052637D01*
X166521401Y-54052637D02*
X166521401Y-54152637D01*
X166521401Y-54152637D02*
X166488068Y-54219304D01*
X166488068Y-54219304D02*
X166454735Y-54252637D01*
X166454735Y-54252637D02*
X166388068Y-54285971D01*
X166388068Y-54285971D02*
X166121401Y-54285971D01*
X167188068Y-54619304D02*
X166788068Y-54619304D01*
X166988068Y-54619304D02*
X166988068Y-53919304D01*
X166988068Y-53919304D02*
X166921401Y-54019304D01*
X166921401Y-54019304D02*
X166854735Y-54085971D01*
X166854735Y-54085971D02*
X166788068Y-54119304D01*
X211835022Y-139966951D02*
X211549308Y-139966951D01*
X211549308Y-139966951D02*
X211549308Y-139366951D01*
X212349307Y-139966951D02*
X212006450Y-139966951D01*
X212177879Y-139966951D02*
X212177879Y-139366951D01*
X212177879Y-139366951D02*
X212120736Y-139452665D01*
X212120736Y-139452665D02*
X212063593Y-139509808D01*
X212063593Y-139509808D02*
X212006450Y-139538380D01*
X158579562Y-125188933D02*
X158665277Y-125217504D01*
X158665277Y-125217504D02*
X158808134Y-125217504D01*
X158808134Y-125217504D02*
X158865277Y-125188933D01*
X158865277Y-125188933D02*
X158893848Y-125160361D01*
X158893848Y-125160361D02*
X158922419Y-125103218D01*
X158922419Y-125103218D02*
X158922419Y-125046075D01*
X158922419Y-125046075D02*
X158893848Y-124988933D01*
X158893848Y-124988933D02*
X158865277Y-124960361D01*
X158865277Y-124960361D02*
X158808134Y-124931790D01*
X158808134Y-124931790D02*
X158693848Y-124903218D01*
X158693848Y-124903218D02*
X158636705Y-124874647D01*
X158636705Y-124874647D02*
X158608134Y-124846075D01*
X158608134Y-124846075D02*
X158579562Y-124788933D01*
X158579562Y-124788933D02*
X158579562Y-124731790D01*
X158579562Y-124731790D02*
X158608134Y-124674647D01*
X158608134Y-124674647D02*
X158636705Y-124646075D01*
X158636705Y-124646075D02*
X158693848Y-124617504D01*
X158693848Y-124617504D02*
X158836705Y-124617504D01*
X158836705Y-124617504D02*
X158922419Y-124646075D01*
X159122420Y-124617504D02*
X159265277Y-125217504D01*
X159265277Y-125217504D02*
X159379563Y-124788933D01*
X159379563Y-124788933D02*
X159493848Y-125217504D01*
X159493848Y-125217504D02*
X159636706Y-124617504D01*
X159950991Y-124874647D02*
X159893848Y-124846075D01*
X159893848Y-124846075D02*
X159865277Y-124817504D01*
X159865277Y-124817504D02*
X159836705Y-124760361D01*
X159836705Y-124760361D02*
X159836705Y-124731790D01*
X159836705Y-124731790D02*
X159865277Y-124674647D01*
X159865277Y-124674647D02*
X159893848Y-124646075D01*
X159893848Y-124646075D02*
X159950991Y-124617504D01*
X159950991Y-124617504D02*
X160065277Y-124617504D01*
X160065277Y-124617504D02*
X160122420Y-124646075D01*
X160122420Y-124646075D02*
X160150991Y-124674647D01*
X160150991Y-124674647D02*
X160179562Y-124731790D01*
X160179562Y-124731790D02*
X160179562Y-124760361D01*
X160179562Y-124760361D02*
X160150991Y-124817504D01*
X160150991Y-124817504D02*
X160122420Y-124846075D01*
X160122420Y-124846075D02*
X160065277Y-124874647D01*
X160065277Y-124874647D02*
X159950991Y-124874647D01*
X159950991Y-124874647D02*
X159893848Y-124903218D01*
X159893848Y-124903218D02*
X159865277Y-124931790D01*
X159865277Y-124931790D02*
X159836705Y-124988933D01*
X159836705Y-124988933D02*
X159836705Y-125103218D01*
X159836705Y-125103218D02*
X159865277Y-125160361D01*
X159865277Y-125160361D02*
X159893848Y-125188933D01*
X159893848Y-125188933D02*
X159950991Y-125217504D01*
X159950991Y-125217504D02*
X160065277Y-125217504D01*
X160065277Y-125217504D02*
X160122420Y-125188933D01*
X160122420Y-125188933D02*
X160150991Y-125160361D01*
X160150991Y-125160361D02*
X160179562Y-125103218D01*
X160179562Y-125103218D02*
X160179562Y-124988933D01*
X160179562Y-124988933D02*
X160150991Y-124931790D01*
X160150991Y-124931790D02*
X160122420Y-124903218D01*
X160122420Y-124903218D02*
X160065277Y-124874647D01*
X166886246Y-132642930D02*
X166686246Y-132357216D01*
X166543389Y-132642930D02*
X166543389Y-132042930D01*
X166543389Y-132042930D02*
X166771960Y-132042930D01*
X166771960Y-132042930D02*
X166829103Y-132071501D01*
X166829103Y-132071501D02*
X166857674Y-132100073D01*
X166857674Y-132100073D02*
X166886246Y-132157216D01*
X166886246Y-132157216D02*
X166886246Y-132242930D01*
X166886246Y-132242930D02*
X166857674Y-132300073D01*
X166857674Y-132300073D02*
X166829103Y-132328644D01*
X166829103Y-132328644D02*
X166771960Y-132357216D01*
X166771960Y-132357216D02*
X166543389Y-132357216D01*
X167429103Y-132042930D02*
X167143389Y-132042930D01*
X167143389Y-132042930D02*
X167114817Y-132328644D01*
X167114817Y-132328644D02*
X167143389Y-132300073D01*
X167143389Y-132300073D02*
X167200532Y-132271501D01*
X167200532Y-132271501D02*
X167343389Y-132271501D01*
X167343389Y-132271501D02*
X167400532Y-132300073D01*
X167400532Y-132300073D02*
X167429103Y-132328644D01*
X167429103Y-132328644D02*
X167457674Y-132385787D01*
X167457674Y-132385787D02*
X167457674Y-132528644D01*
X167457674Y-132528644D02*
X167429103Y-132585787D01*
X167429103Y-132585787D02*
X167400532Y-132614359D01*
X167400532Y-132614359D02*
X167343389Y-132642930D01*
X167343389Y-132642930D02*
X167200532Y-132642930D01*
X167200532Y-132642930D02*
X167143389Y-132614359D01*
X167143389Y-132614359D02*
X167114817Y-132585787D01*
X164699044Y-139560825D02*
X164499044Y-139275111D01*
X164356187Y-139560825D02*
X164356187Y-138960825D01*
X164356187Y-138960825D02*
X164584758Y-138960825D01*
X164584758Y-138960825D02*
X164641901Y-138989396D01*
X164641901Y-138989396D02*
X164670472Y-139017968D01*
X164670472Y-139017968D02*
X164699044Y-139075111D01*
X164699044Y-139075111D02*
X164699044Y-139160825D01*
X164699044Y-139160825D02*
X164670472Y-139217968D01*
X164670472Y-139217968D02*
X164641901Y-139246539D01*
X164641901Y-139246539D02*
X164584758Y-139275111D01*
X164584758Y-139275111D02*
X164356187Y-139275111D01*
X165213330Y-138960825D02*
X165099044Y-138960825D01*
X165099044Y-138960825D02*
X165041901Y-138989396D01*
X165041901Y-138989396D02*
X165013330Y-139017968D01*
X165013330Y-139017968D02*
X164956187Y-139103682D01*
X164956187Y-139103682D02*
X164927615Y-139217968D01*
X164927615Y-139217968D02*
X164927615Y-139446539D01*
X164927615Y-139446539D02*
X164956187Y-139503682D01*
X164956187Y-139503682D02*
X164984758Y-139532254D01*
X164984758Y-139532254D02*
X165041901Y-139560825D01*
X165041901Y-139560825D02*
X165156187Y-139560825D01*
X165156187Y-139560825D02*
X165213330Y-139532254D01*
X165213330Y-139532254D02*
X165241901Y-139503682D01*
X165241901Y-139503682D02*
X165270472Y-139446539D01*
X165270472Y-139446539D02*
X165270472Y-139303682D01*
X165270472Y-139303682D02*
X165241901Y-139246539D01*
X165241901Y-139246539D02*
X165213330Y-139217968D01*
X165213330Y-139217968D02*
X165156187Y-139189396D01*
X165156187Y-139189396D02*
X165041901Y-139189396D01*
X165041901Y-139189396D02*
X164984758Y-139217968D01*
X164984758Y-139217968D02*
X164956187Y-139246539D01*
X164956187Y-139246539D02*
X164927615Y-139303682D01*
X183371860Y-119730338D02*
X183343288Y-119758910D01*
X183343288Y-119758910D02*
X183257574Y-119787481D01*
X183257574Y-119787481D02*
X183200431Y-119787481D01*
X183200431Y-119787481D02*
X183114717Y-119758910D01*
X183114717Y-119758910D02*
X183057574Y-119701767D01*
X183057574Y-119701767D02*
X183029003Y-119644624D01*
X183029003Y-119644624D02*
X183000431Y-119530338D01*
X183000431Y-119530338D02*
X183000431Y-119444624D01*
X183000431Y-119444624D02*
X183029003Y-119330338D01*
X183029003Y-119330338D02*
X183057574Y-119273195D01*
X183057574Y-119273195D02*
X183114717Y-119216052D01*
X183114717Y-119216052D02*
X183200431Y-119187481D01*
X183200431Y-119187481D02*
X183257574Y-119187481D01*
X183257574Y-119187481D02*
X183343288Y-119216052D01*
X183343288Y-119216052D02*
X183371860Y-119244624D01*
X183657574Y-119787481D02*
X183771860Y-119787481D01*
X183771860Y-119787481D02*
X183829003Y-119758910D01*
X183829003Y-119758910D02*
X183857574Y-119730338D01*
X183857574Y-119730338D02*
X183914717Y-119644624D01*
X183914717Y-119644624D02*
X183943288Y-119530338D01*
X183943288Y-119530338D02*
X183943288Y-119301767D01*
X183943288Y-119301767D02*
X183914717Y-119244624D01*
X183914717Y-119244624D02*
X183886146Y-119216052D01*
X183886146Y-119216052D02*
X183829003Y-119187481D01*
X183829003Y-119187481D02*
X183714717Y-119187481D01*
X183714717Y-119187481D02*
X183657574Y-119216052D01*
X183657574Y-119216052D02*
X183629003Y-119244624D01*
X183629003Y-119244624D02*
X183600431Y-119301767D01*
X183600431Y-119301767D02*
X183600431Y-119444624D01*
X183600431Y-119444624D02*
X183629003Y-119501767D01*
X183629003Y-119501767D02*
X183657574Y-119530338D01*
X183657574Y-119530338D02*
X183714717Y-119558910D01*
X183714717Y-119558910D02*
X183829003Y-119558910D01*
X183829003Y-119558910D02*
X183886146Y-119530338D01*
X183886146Y-119530338D02*
X183914717Y-119501767D01*
X183914717Y-119501767D02*
X183943288Y-119444624D01*
X182586834Y-132694917D02*
X182558262Y-132723489D01*
X182558262Y-132723489D02*
X182472548Y-132752060D01*
X182472548Y-132752060D02*
X182415405Y-132752060D01*
X182415405Y-132752060D02*
X182329691Y-132723489D01*
X182329691Y-132723489D02*
X182272548Y-132666346D01*
X182272548Y-132666346D02*
X182243977Y-132609203D01*
X182243977Y-132609203D02*
X182215405Y-132494917D01*
X182215405Y-132494917D02*
X182215405Y-132409203D01*
X182215405Y-132409203D02*
X182243977Y-132294917D01*
X182243977Y-132294917D02*
X182272548Y-132237774D01*
X182272548Y-132237774D02*
X182329691Y-132180631D01*
X182329691Y-132180631D02*
X182415405Y-132152060D01*
X182415405Y-132152060D02*
X182472548Y-132152060D01*
X182472548Y-132152060D02*
X182558262Y-132180631D01*
X182558262Y-132180631D02*
X182586834Y-132209203D01*
X182929691Y-132409203D02*
X182872548Y-132380631D01*
X182872548Y-132380631D02*
X182843977Y-132352060D01*
X182843977Y-132352060D02*
X182815405Y-132294917D01*
X182815405Y-132294917D02*
X182815405Y-132266346D01*
X182815405Y-132266346D02*
X182843977Y-132209203D01*
X182843977Y-132209203D02*
X182872548Y-132180631D01*
X182872548Y-132180631D02*
X182929691Y-132152060D01*
X182929691Y-132152060D02*
X183043977Y-132152060D01*
X183043977Y-132152060D02*
X183101120Y-132180631D01*
X183101120Y-132180631D02*
X183129691Y-132209203D01*
X183129691Y-132209203D02*
X183158262Y-132266346D01*
X183158262Y-132266346D02*
X183158262Y-132294917D01*
X183158262Y-132294917D02*
X183129691Y-132352060D01*
X183129691Y-132352060D02*
X183101120Y-132380631D01*
X183101120Y-132380631D02*
X183043977Y-132409203D01*
X183043977Y-132409203D02*
X182929691Y-132409203D01*
X182929691Y-132409203D02*
X182872548Y-132437774D01*
X182872548Y-132437774D02*
X182843977Y-132466346D01*
X182843977Y-132466346D02*
X182815405Y-132523489D01*
X182815405Y-132523489D02*
X182815405Y-132637774D01*
X182815405Y-132637774D02*
X182843977Y-132694917D01*
X182843977Y-132694917D02*
X182872548Y-132723489D01*
X182872548Y-132723489D02*
X182929691Y-132752060D01*
X182929691Y-132752060D02*
X183043977Y-132752060D01*
X183043977Y-132752060D02*
X183101120Y-132723489D01*
X183101120Y-132723489D02*
X183129691Y-132694917D01*
X183129691Y-132694917D02*
X183158262Y-132637774D01*
X183158262Y-132637774D02*
X183158262Y-132523489D01*
X183158262Y-132523489D02*
X183129691Y-132466346D01*
X183129691Y-132466346D02*
X183101120Y-132437774D01*
X183101120Y-132437774D02*
X183043977Y-132409203D01*
X217163974Y-54287550D02*
X217397308Y-54287550D01*
X217497308Y-54654217D02*
X217163974Y-54654217D01*
X217163974Y-54654217D02*
X217163974Y-53954217D01*
X217163974Y-53954217D02*
X217497308Y-53954217D01*
X217763974Y-54454217D02*
X218097307Y-54454217D01*
X217697307Y-54654217D02*
X217930641Y-53954217D01*
X217930641Y-53954217D02*
X218163974Y-54654217D01*
X218797307Y-54654217D02*
X218563974Y-54320884D01*
X218397307Y-54654217D02*
X218397307Y-53954217D01*
X218397307Y-53954217D02*
X218663974Y-53954217D01*
X218663974Y-53954217D02*
X218730641Y-53987550D01*
X218730641Y-53987550D02*
X218763974Y-54020884D01*
X218763974Y-54020884D02*
X218797307Y-54087550D01*
X218797307Y-54087550D02*
X218797307Y-54187550D01*
X218797307Y-54187550D02*
X218763974Y-54254217D01*
X218763974Y-54254217D02*
X218730641Y-54287550D01*
X218730641Y-54287550D02*
X218663974Y-54320884D01*
X218663974Y-54320884D02*
X218397307Y-54320884D01*
X219063974Y-54020884D02*
X219097307Y-53987550D01*
X219097307Y-53987550D02*
X219163974Y-53954217D01*
X219163974Y-53954217D02*
X219330641Y-53954217D01*
X219330641Y-53954217D02*
X219397307Y-53987550D01*
X219397307Y-53987550D02*
X219430641Y-54020884D01*
X219430641Y-54020884D02*
X219463974Y-54087550D01*
X219463974Y-54087550D02*
X219463974Y-54154217D01*
X219463974Y-54154217D02*
X219430641Y-54254217D01*
X219430641Y-54254217D02*
X219030641Y-54654217D01*
X219030641Y-54654217D02*
X219463974Y-54654217D01*
X223829698Y-133945432D02*
X223829698Y-134431146D01*
X223829698Y-134431146D02*
X223858269Y-134488289D01*
X223858269Y-134488289D02*
X223886841Y-134516861D01*
X223886841Y-134516861D02*
X223943983Y-134545432D01*
X223943983Y-134545432D02*
X224058269Y-134545432D01*
X224058269Y-134545432D02*
X224115412Y-134516861D01*
X224115412Y-134516861D02*
X224143983Y-134488289D01*
X224143983Y-134488289D02*
X224172555Y-134431146D01*
X224172555Y-134431146D02*
X224172555Y-133945432D01*
X224743983Y-133945432D02*
X224458269Y-133945432D01*
X224458269Y-133945432D02*
X224429697Y-134231146D01*
X224429697Y-134231146D02*
X224458269Y-134202575D01*
X224458269Y-134202575D02*
X224515412Y-134174003D01*
X224515412Y-134174003D02*
X224658269Y-134174003D01*
X224658269Y-134174003D02*
X224715412Y-134202575D01*
X224715412Y-134202575D02*
X224743983Y-134231146D01*
X224743983Y-134231146D02*
X224772554Y-134288289D01*
X224772554Y-134288289D02*
X224772554Y-134431146D01*
X224772554Y-134431146D02*
X224743983Y-134488289D01*
X224743983Y-134488289D02*
X224715412Y-134516861D01*
X224715412Y-134516861D02*
X224658269Y-134545432D01*
X224658269Y-134545432D02*
X224515412Y-134545432D01*
X224515412Y-134545432D02*
X224458269Y-134516861D01*
X224458269Y-134516861D02*
X224429697Y-134488289D01*
X173044551Y-139109940D02*
X172844551Y-138824226D01*
X172701694Y-139109940D02*
X172701694Y-138509940D01*
X172701694Y-138509940D02*
X172930265Y-138509940D01*
X172930265Y-138509940D02*
X172987408Y-138538511D01*
X172987408Y-138538511D02*
X173015979Y-138567083D01*
X173015979Y-138567083D02*
X173044551Y-138624226D01*
X173044551Y-138624226D02*
X173044551Y-138709940D01*
X173044551Y-138709940D02*
X173015979Y-138767083D01*
X173015979Y-138767083D02*
X172987408Y-138795654D01*
X172987408Y-138795654D02*
X172930265Y-138824226D01*
X172930265Y-138824226D02*
X172701694Y-138824226D01*
X173273122Y-138567083D02*
X173301694Y-138538511D01*
X173301694Y-138538511D02*
X173358837Y-138509940D01*
X173358837Y-138509940D02*
X173501694Y-138509940D01*
X173501694Y-138509940D02*
X173558837Y-138538511D01*
X173558837Y-138538511D02*
X173587408Y-138567083D01*
X173587408Y-138567083D02*
X173615979Y-138624226D01*
X173615979Y-138624226D02*
X173615979Y-138681369D01*
X173615979Y-138681369D02*
X173587408Y-138767083D01*
X173587408Y-138767083D02*
X173244551Y-139109940D01*
X173244551Y-139109940D02*
X173615979Y-139109940D01*
X173815980Y-138509940D02*
X174215980Y-138509940D01*
X174215980Y-138509940D02*
X173958837Y-139109940D01*
X216444526Y-134993371D02*
X216415954Y-135021943D01*
X216415954Y-135021943D02*
X216330240Y-135050514D01*
X216330240Y-135050514D02*
X216273097Y-135050514D01*
X216273097Y-135050514D02*
X216187383Y-135021943D01*
X216187383Y-135021943D02*
X216130240Y-134964800D01*
X216130240Y-134964800D02*
X216101669Y-134907657D01*
X216101669Y-134907657D02*
X216073097Y-134793371D01*
X216073097Y-134793371D02*
X216073097Y-134707657D01*
X216073097Y-134707657D02*
X216101669Y-134593371D01*
X216101669Y-134593371D02*
X216130240Y-134536228D01*
X216130240Y-134536228D02*
X216187383Y-134479085D01*
X216187383Y-134479085D02*
X216273097Y-134450514D01*
X216273097Y-134450514D02*
X216330240Y-134450514D01*
X216330240Y-134450514D02*
X216415954Y-134479085D01*
X216415954Y-134479085D02*
X216444526Y-134507657D01*
X216673097Y-134507657D02*
X216701669Y-134479085D01*
X216701669Y-134479085D02*
X216758812Y-134450514D01*
X216758812Y-134450514D02*
X216901669Y-134450514D01*
X216901669Y-134450514D02*
X216958812Y-134479085D01*
X216958812Y-134479085D02*
X216987383Y-134507657D01*
X216987383Y-134507657D02*
X217015954Y-134564800D01*
X217015954Y-134564800D02*
X217015954Y-134621943D01*
X217015954Y-134621943D02*
X216987383Y-134707657D01*
X216987383Y-134707657D02*
X216644526Y-135050514D01*
X216644526Y-135050514D02*
X217015954Y-135050514D01*
X217530241Y-134650514D02*
X217530241Y-135050514D01*
X217387383Y-134421943D02*
X217244526Y-134850514D01*
X217244526Y-134850514D02*
X217615955Y-134850514D01*
X194001775Y-123178286D02*
X193801775Y-122892572D01*
X193658918Y-123178286D02*
X193658918Y-122578286D01*
X193658918Y-122578286D02*
X193887489Y-122578286D01*
X193887489Y-122578286D02*
X193944632Y-122606857D01*
X193944632Y-122606857D02*
X193973203Y-122635429D01*
X193973203Y-122635429D02*
X194001775Y-122692572D01*
X194001775Y-122692572D02*
X194001775Y-122778286D01*
X194001775Y-122778286D02*
X193973203Y-122835429D01*
X193973203Y-122835429D02*
X193944632Y-122864000D01*
X193944632Y-122864000D02*
X193887489Y-122892572D01*
X193887489Y-122892572D02*
X193658918Y-122892572D01*
X194573203Y-123178286D02*
X194230346Y-123178286D01*
X194401775Y-123178286D02*
X194401775Y-122578286D01*
X194401775Y-122578286D02*
X194344632Y-122664000D01*
X194344632Y-122664000D02*
X194287489Y-122721143D01*
X194287489Y-122721143D02*
X194230346Y-122749715D01*
X194944632Y-122578286D02*
X195001775Y-122578286D01*
X195001775Y-122578286D02*
X195058918Y-122606857D01*
X195058918Y-122606857D02*
X195087490Y-122635429D01*
X195087490Y-122635429D02*
X195116061Y-122692572D01*
X195116061Y-122692572D02*
X195144632Y-122806857D01*
X195144632Y-122806857D02*
X195144632Y-122949715D01*
X195144632Y-122949715D02*
X195116061Y-123064000D01*
X195116061Y-123064000D02*
X195087490Y-123121143D01*
X195087490Y-123121143D02*
X195058918Y-123149715D01*
X195058918Y-123149715D02*
X195001775Y-123178286D01*
X195001775Y-123178286D02*
X194944632Y-123178286D01*
X194944632Y-123178286D02*
X194887490Y-123149715D01*
X194887490Y-123149715D02*
X194858918Y-123121143D01*
X194858918Y-123121143D02*
X194830347Y-123064000D01*
X194830347Y-123064000D02*
X194801775Y-122949715D01*
X194801775Y-122949715D02*
X194801775Y-122806857D01*
X194801775Y-122806857D02*
X194830347Y-122692572D01*
X194830347Y-122692572D02*
X194858918Y-122635429D01*
X194858918Y-122635429D02*
X194887490Y-122606857D01*
X194887490Y-122606857D02*
X194944632Y-122578286D01*
X201370478Y-128152818D02*
X201341906Y-128181390D01*
X201341906Y-128181390D02*
X201256192Y-128209961D01*
X201256192Y-128209961D02*
X201199049Y-128209961D01*
X201199049Y-128209961D02*
X201113335Y-128181390D01*
X201113335Y-128181390D02*
X201056192Y-128124247D01*
X201056192Y-128124247D02*
X201027621Y-128067104D01*
X201027621Y-128067104D02*
X200999049Y-127952818D01*
X200999049Y-127952818D02*
X200999049Y-127867104D01*
X200999049Y-127867104D02*
X201027621Y-127752818D01*
X201027621Y-127752818D02*
X201056192Y-127695675D01*
X201056192Y-127695675D02*
X201113335Y-127638532D01*
X201113335Y-127638532D02*
X201199049Y-127609961D01*
X201199049Y-127609961D02*
X201256192Y-127609961D01*
X201256192Y-127609961D02*
X201341906Y-127638532D01*
X201341906Y-127638532D02*
X201370478Y-127667104D01*
X201570478Y-127609961D02*
X201941906Y-127609961D01*
X201941906Y-127609961D02*
X201741906Y-127838532D01*
X201741906Y-127838532D02*
X201827621Y-127838532D01*
X201827621Y-127838532D02*
X201884764Y-127867104D01*
X201884764Y-127867104D02*
X201913335Y-127895675D01*
X201913335Y-127895675D02*
X201941906Y-127952818D01*
X201941906Y-127952818D02*
X201941906Y-128095675D01*
X201941906Y-128095675D02*
X201913335Y-128152818D01*
X201913335Y-128152818D02*
X201884764Y-128181390D01*
X201884764Y-128181390D02*
X201827621Y-128209961D01*
X201827621Y-128209961D02*
X201656192Y-128209961D01*
X201656192Y-128209961D02*
X201599049Y-128181390D01*
X201599049Y-128181390D02*
X201570478Y-128152818D01*
X202313335Y-127609961D02*
X202370478Y-127609961D01*
X202370478Y-127609961D02*
X202427621Y-127638532D01*
X202427621Y-127638532D02*
X202456193Y-127667104D01*
X202456193Y-127667104D02*
X202484764Y-127724247D01*
X202484764Y-127724247D02*
X202513335Y-127838532D01*
X202513335Y-127838532D02*
X202513335Y-127981390D01*
X202513335Y-127981390D02*
X202484764Y-128095675D01*
X202484764Y-128095675D02*
X202456193Y-128152818D01*
X202456193Y-128152818D02*
X202427621Y-128181390D01*
X202427621Y-128181390D02*
X202370478Y-128209961D01*
X202370478Y-128209961D02*
X202313335Y-128209961D01*
X202313335Y-128209961D02*
X202256193Y-128181390D01*
X202256193Y-128181390D02*
X202227621Y-128152818D01*
X202227621Y-128152818D02*
X202199050Y-128095675D01*
X202199050Y-128095675D02*
X202170478Y-127981390D01*
X202170478Y-127981390D02*
X202170478Y-127838532D01*
X202170478Y-127838532D02*
X202199050Y-127724247D01*
X202199050Y-127724247D02*
X202227621Y-127667104D01*
X202227621Y-127667104D02*
X202256193Y-127638532D01*
X202256193Y-127638532D02*
X202313335Y-127609961D01*
X175436414Y-119427724D02*
X175436414Y-119913438D01*
X175436414Y-119913438D02*
X175464985Y-119970581D01*
X175464985Y-119970581D02*
X175493557Y-119999153D01*
X175493557Y-119999153D02*
X175550699Y-120027724D01*
X175550699Y-120027724D02*
X175664985Y-120027724D01*
X175664985Y-120027724D02*
X175722128Y-119999153D01*
X175722128Y-119999153D02*
X175750699Y-119970581D01*
X175750699Y-119970581D02*
X175779271Y-119913438D01*
X175779271Y-119913438D02*
X175779271Y-119427724D01*
X176007842Y-119427724D02*
X176379270Y-119427724D01*
X176379270Y-119427724D02*
X176179270Y-119656295D01*
X176179270Y-119656295D02*
X176264985Y-119656295D01*
X176264985Y-119656295D02*
X176322128Y-119684867D01*
X176322128Y-119684867D02*
X176350699Y-119713438D01*
X176350699Y-119713438D02*
X176379270Y-119770581D01*
X176379270Y-119770581D02*
X176379270Y-119913438D01*
X176379270Y-119913438D02*
X176350699Y-119970581D01*
X176350699Y-119970581D02*
X176322128Y-119999153D01*
X176322128Y-119999153D02*
X176264985Y-120027724D01*
X176264985Y-120027724D02*
X176093556Y-120027724D01*
X176093556Y-120027724D02*
X176036413Y-119999153D01*
X176036413Y-119999153D02*
X176007842Y-119970581D01*
X193906355Y-124812258D02*
X193706355Y-124526544D01*
X193563498Y-124812258D02*
X193563498Y-124212258D01*
X193563498Y-124212258D02*
X193792069Y-124212258D01*
X193792069Y-124212258D02*
X193849212Y-124240829D01*
X193849212Y-124240829D02*
X193877783Y-124269401D01*
X193877783Y-124269401D02*
X193906355Y-124326544D01*
X193906355Y-124326544D02*
X193906355Y-124412258D01*
X193906355Y-124412258D02*
X193877783Y-124469401D01*
X193877783Y-124469401D02*
X193849212Y-124497972D01*
X193849212Y-124497972D02*
X193792069Y-124526544D01*
X193792069Y-124526544D02*
X193563498Y-124526544D01*
X194477783Y-124812258D02*
X194134926Y-124812258D01*
X194306355Y-124812258D02*
X194306355Y-124212258D01*
X194306355Y-124212258D02*
X194249212Y-124297972D01*
X194249212Y-124297972D02*
X194192069Y-124355115D01*
X194192069Y-124355115D02*
X194134926Y-124383687D01*
X194677784Y-124212258D02*
X195049212Y-124212258D01*
X195049212Y-124212258D02*
X194849212Y-124440829D01*
X194849212Y-124440829D02*
X194934927Y-124440829D01*
X194934927Y-124440829D02*
X194992070Y-124469401D01*
X194992070Y-124469401D02*
X195020641Y-124497972D01*
X195020641Y-124497972D02*
X195049212Y-124555115D01*
X195049212Y-124555115D02*
X195049212Y-124697972D01*
X195049212Y-124697972D02*
X195020641Y-124755115D01*
X195020641Y-124755115D02*
X194992070Y-124783687D01*
X194992070Y-124783687D02*
X194934927Y-124812258D01*
X194934927Y-124812258D02*
X194763498Y-124812258D01*
X194763498Y-124812258D02*
X194706355Y-124783687D01*
X194706355Y-124783687D02*
X194677784Y-124755115D01*
X159174714Y-144116708D02*
X159174714Y-143516708D01*
X159174714Y-143516708D02*
X159317571Y-143516708D01*
X159317571Y-143516708D02*
X159403285Y-143545279D01*
X159403285Y-143545279D02*
X159460428Y-143602422D01*
X159460428Y-143602422D02*
X159488999Y-143659565D01*
X159488999Y-143659565D02*
X159517571Y-143773851D01*
X159517571Y-143773851D02*
X159517571Y-143859565D01*
X159517571Y-143859565D02*
X159488999Y-143973851D01*
X159488999Y-143973851D02*
X159460428Y-144030994D01*
X159460428Y-144030994D02*
X159403285Y-144088137D01*
X159403285Y-144088137D02*
X159317571Y-144116708D01*
X159317571Y-144116708D02*
X159174714Y-144116708D01*
X160088999Y-144116708D02*
X159746142Y-144116708D01*
X159917571Y-144116708D02*
X159917571Y-143516708D01*
X159917571Y-143516708D02*
X159860428Y-143602422D01*
X159860428Y-143602422D02*
X159803285Y-143659565D01*
X159803285Y-143659565D02*
X159746142Y-143688137D01*
X216409223Y-143978971D02*
X216209223Y-143693257D01*
X216066366Y-143978971D02*
X216066366Y-143378971D01*
X216066366Y-143378971D02*
X216294937Y-143378971D01*
X216294937Y-143378971D02*
X216352080Y-143407542D01*
X216352080Y-143407542D02*
X216380651Y-143436114D01*
X216380651Y-143436114D02*
X216409223Y-143493257D01*
X216409223Y-143493257D02*
X216409223Y-143578971D01*
X216409223Y-143578971D02*
X216380651Y-143636114D01*
X216380651Y-143636114D02*
X216352080Y-143664685D01*
X216352080Y-143664685D02*
X216294937Y-143693257D01*
X216294937Y-143693257D02*
X216066366Y-143693257D01*
X216637794Y-143436114D02*
X216666366Y-143407542D01*
X216666366Y-143407542D02*
X216723509Y-143378971D01*
X216723509Y-143378971D02*
X216866366Y-143378971D01*
X216866366Y-143378971D02*
X216923509Y-143407542D01*
X216923509Y-143407542D02*
X216952080Y-143436114D01*
X216952080Y-143436114D02*
X216980651Y-143493257D01*
X216980651Y-143493257D02*
X216980651Y-143550400D01*
X216980651Y-143550400D02*
X216952080Y-143636114D01*
X216952080Y-143636114D02*
X216609223Y-143978971D01*
X216609223Y-143978971D02*
X216980651Y-143978971D01*
X193888186Y-130680521D02*
X193859614Y-130709093D01*
X193859614Y-130709093D02*
X193773900Y-130737664D01*
X193773900Y-130737664D02*
X193716757Y-130737664D01*
X193716757Y-130737664D02*
X193631043Y-130709093D01*
X193631043Y-130709093D02*
X193573900Y-130651950D01*
X193573900Y-130651950D02*
X193545329Y-130594807D01*
X193545329Y-130594807D02*
X193516757Y-130480521D01*
X193516757Y-130480521D02*
X193516757Y-130394807D01*
X193516757Y-130394807D02*
X193545329Y-130280521D01*
X193545329Y-130280521D02*
X193573900Y-130223378D01*
X193573900Y-130223378D02*
X193631043Y-130166235D01*
X193631043Y-130166235D02*
X193716757Y-130137664D01*
X193716757Y-130137664D02*
X193773900Y-130137664D01*
X193773900Y-130137664D02*
X193859614Y-130166235D01*
X193859614Y-130166235D02*
X193888186Y-130194807D01*
X194459614Y-130737664D02*
X194116757Y-130737664D01*
X194288186Y-130737664D02*
X194288186Y-130137664D01*
X194288186Y-130137664D02*
X194231043Y-130223378D01*
X194231043Y-130223378D02*
X194173900Y-130280521D01*
X194173900Y-130280521D02*
X194116757Y-130309093D01*
X194973901Y-130337664D02*
X194973901Y-130737664D01*
X194831043Y-130109093D02*
X194688186Y-130537664D01*
X194688186Y-130537664D02*
X195059615Y-130537664D01*
X176945353Y-137300903D02*
X176945353Y-137786617D01*
X176945353Y-137786617D02*
X176973924Y-137843760D01*
X176973924Y-137843760D02*
X177002496Y-137872332D01*
X177002496Y-137872332D02*
X177059638Y-137900903D01*
X177059638Y-137900903D02*
X177173924Y-137900903D01*
X177173924Y-137900903D02*
X177231067Y-137872332D01*
X177231067Y-137872332D02*
X177259638Y-137843760D01*
X177259638Y-137843760D02*
X177288210Y-137786617D01*
X177288210Y-137786617D02*
X177288210Y-137300903D01*
X177516781Y-137300903D02*
X177916781Y-137300903D01*
X177916781Y-137300903D02*
X177659638Y-137900903D01*
X220440467Y-130707317D02*
X220411895Y-130735889D01*
X220411895Y-130735889D02*
X220326181Y-130764460D01*
X220326181Y-130764460D02*
X220269038Y-130764460D01*
X220269038Y-130764460D02*
X220183324Y-130735889D01*
X220183324Y-130735889D02*
X220126181Y-130678746D01*
X220126181Y-130678746D02*
X220097610Y-130621603D01*
X220097610Y-130621603D02*
X220069038Y-130507317D01*
X220069038Y-130507317D02*
X220069038Y-130421603D01*
X220069038Y-130421603D02*
X220097610Y-130307317D01*
X220097610Y-130307317D02*
X220126181Y-130250174D01*
X220126181Y-130250174D02*
X220183324Y-130193031D01*
X220183324Y-130193031D02*
X220269038Y-130164460D01*
X220269038Y-130164460D02*
X220326181Y-130164460D01*
X220326181Y-130164460D02*
X220411895Y-130193031D01*
X220411895Y-130193031D02*
X220440467Y-130221603D01*
X220669038Y-130221603D02*
X220697610Y-130193031D01*
X220697610Y-130193031D02*
X220754753Y-130164460D01*
X220754753Y-130164460D02*
X220897610Y-130164460D01*
X220897610Y-130164460D02*
X220954753Y-130193031D01*
X220954753Y-130193031D02*
X220983324Y-130221603D01*
X220983324Y-130221603D02*
X221011895Y-130278746D01*
X221011895Y-130278746D02*
X221011895Y-130335889D01*
X221011895Y-130335889D02*
X220983324Y-130421603D01*
X220983324Y-130421603D02*
X220640467Y-130764460D01*
X220640467Y-130764460D02*
X221011895Y-130764460D01*
X221211896Y-130164460D02*
X221611896Y-130164460D01*
X221611896Y-130164460D02*
X221354753Y-130764460D01*
X193958013Y-126451759D02*
X193929441Y-126480331D01*
X193929441Y-126480331D02*
X193843727Y-126508902D01*
X193843727Y-126508902D02*
X193786584Y-126508902D01*
X193786584Y-126508902D02*
X193700870Y-126480331D01*
X193700870Y-126480331D02*
X193643727Y-126423188D01*
X193643727Y-126423188D02*
X193615156Y-126366045D01*
X193615156Y-126366045D02*
X193586584Y-126251759D01*
X193586584Y-126251759D02*
X193586584Y-126166045D01*
X193586584Y-126166045D02*
X193615156Y-126051759D01*
X193615156Y-126051759D02*
X193643727Y-125994616D01*
X193643727Y-125994616D02*
X193700870Y-125937473D01*
X193700870Y-125937473D02*
X193786584Y-125908902D01*
X193786584Y-125908902D02*
X193843727Y-125908902D01*
X193843727Y-125908902D02*
X193929441Y-125937473D01*
X193929441Y-125937473D02*
X193958013Y-125966045D01*
X194529441Y-126508902D02*
X194186584Y-126508902D01*
X194358013Y-126508902D02*
X194358013Y-125908902D01*
X194358013Y-125908902D02*
X194300870Y-125994616D01*
X194300870Y-125994616D02*
X194243727Y-126051759D01*
X194243727Y-126051759D02*
X194186584Y-126080331D01*
X159300269Y-150242230D02*
X159300269Y-149642230D01*
X159300269Y-149642230D02*
X159443126Y-149642230D01*
X159443126Y-149642230D02*
X159528840Y-149670801D01*
X159528840Y-149670801D02*
X159585983Y-149727944D01*
X159585983Y-149727944D02*
X159614554Y-149785087D01*
X159614554Y-149785087D02*
X159643126Y-149899373D01*
X159643126Y-149899373D02*
X159643126Y-149985087D01*
X159643126Y-149985087D02*
X159614554Y-150099373D01*
X159614554Y-150099373D02*
X159585983Y-150156516D01*
X159585983Y-150156516D02*
X159528840Y-150213659D01*
X159528840Y-150213659D02*
X159443126Y-150242230D01*
X159443126Y-150242230D02*
X159300269Y-150242230D01*
X159871697Y-149699373D02*
X159900269Y-149670801D01*
X159900269Y-149670801D02*
X159957412Y-149642230D01*
X159957412Y-149642230D02*
X160100269Y-149642230D01*
X160100269Y-149642230D02*
X160157412Y-149670801D01*
X160157412Y-149670801D02*
X160185983Y-149699373D01*
X160185983Y-149699373D02*
X160214554Y-149756516D01*
X160214554Y-149756516D02*
X160214554Y-149813659D01*
X160214554Y-149813659D02*
X160185983Y-149899373D01*
X160185983Y-149899373D02*
X159843126Y-150242230D01*
X159843126Y-150242230D02*
X160214554Y-150242230D01*
X190666667Y-107159800D02*
X190809524Y-107207419D01*
X190809524Y-107207419D02*
X191047619Y-107207419D01*
X191047619Y-107207419D02*
X191142857Y-107159800D01*
X191142857Y-107159800D02*
X191190476Y-107112180D01*
X191190476Y-107112180D02*
X191238095Y-107016942D01*
X191238095Y-107016942D02*
X191238095Y-106921704D01*
X191238095Y-106921704D02*
X191190476Y-106826466D01*
X191190476Y-106826466D02*
X191142857Y-106778847D01*
X191142857Y-106778847D02*
X191047619Y-106731228D01*
X191047619Y-106731228D02*
X190857143Y-106683609D01*
X190857143Y-106683609D02*
X190761905Y-106635990D01*
X190761905Y-106635990D02*
X190714286Y-106588371D01*
X190714286Y-106588371D02*
X190666667Y-106493133D01*
X190666667Y-106493133D02*
X190666667Y-106397895D01*
X190666667Y-106397895D02*
X190714286Y-106302657D01*
X190714286Y-106302657D02*
X190761905Y-106255038D01*
X190761905Y-106255038D02*
X190857143Y-106207419D01*
X190857143Y-106207419D02*
X191095238Y-106207419D01*
X191095238Y-106207419D02*
X191238095Y-106255038D01*
X191571429Y-106207419D02*
X191809524Y-107207419D01*
X191809524Y-107207419D02*
X192000000Y-106493133D01*
X192000000Y-106493133D02*
X192190476Y-107207419D01*
X192190476Y-107207419D02*
X192428572Y-106207419D01*
X192714286Y-106207419D02*
X193333333Y-106207419D01*
X193333333Y-106207419D02*
X193000000Y-106588371D01*
X193000000Y-106588371D02*
X193142857Y-106588371D01*
X193142857Y-106588371D02*
X193238095Y-106635990D01*
X193238095Y-106635990D02*
X193285714Y-106683609D01*
X193285714Y-106683609D02*
X193333333Y-106778847D01*
X193333333Y-106778847D02*
X193333333Y-107016942D01*
X193333333Y-107016942D02*
X193285714Y-107112180D01*
X193285714Y-107112180D02*
X193238095Y-107159800D01*
X193238095Y-107159800D02*
X193142857Y-107207419D01*
X193142857Y-107207419D02*
X192857143Y-107207419D01*
X192857143Y-107207419D02*
X192761905Y-107159800D01*
X192761905Y-107159800D02*
X192714286Y-107112180D01*
X185852180Y-118482648D02*
X185652180Y-118196934D01*
X185509323Y-118482648D02*
X185509323Y-117882648D01*
X185509323Y-117882648D02*
X185737894Y-117882648D01*
X185737894Y-117882648D02*
X185795037Y-117911219D01*
X185795037Y-117911219D02*
X185823608Y-117939791D01*
X185823608Y-117939791D02*
X185852180Y-117996934D01*
X185852180Y-117996934D02*
X185852180Y-118082648D01*
X185852180Y-118082648D02*
X185823608Y-118139791D01*
X185823608Y-118139791D02*
X185795037Y-118168362D01*
X185795037Y-118168362D02*
X185737894Y-118196934D01*
X185737894Y-118196934D02*
X185509323Y-118196934D01*
X186080751Y-117939791D02*
X186109323Y-117911219D01*
X186109323Y-117911219D02*
X186166466Y-117882648D01*
X186166466Y-117882648D02*
X186309323Y-117882648D01*
X186309323Y-117882648D02*
X186366466Y-117911219D01*
X186366466Y-117911219D02*
X186395037Y-117939791D01*
X186395037Y-117939791D02*
X186423608Y-117996934D01*
X186423608Y-117996934D02*
X186423608Y-118054077D01*
X186423608Y-118054077D02*
X186395037Y-118139791D01*
X186395037Y-118139791D02*
X186052180Y-118482648D01*
X186052180Y-118482648D02*
X186423608Y-118482648D01*
X186709323Y-118482648D02*
X186823609Y-118482648D01*
X186823609Y-118482648D02*
X186880752Y-118454077D01*
X186880752Y-118454077D02*
X186909323Y-118425505D01*
X186909323Y-118425505D02*
X186966466Y-118339791D01*
X186966466Y-118339791D02*
X186995037Y-118225505D01*
X186995037Y-118225505D02*
X186995037Y-117996934D01*
X186995037Y-117996934D02*
X186966466Y-117939791D01*
X186966466Y-117939791D02*
X186937895Y-117911219D01*
X186937895Y-117911219D02*
X186880752Y-117882648D01*
X186880752Y-117882648D02*
X186766466Y-117882648D01*
X186766466Y-117882648D02*
X186709323Y-117911219D01*
X186709323Y-117911219D02*
X186680752Y-117939791D01*
X186680752Y-117939791D02*
X186652180Y-117996934D01*
X186652180Y-117996934D02*
X186652180Y-118139791D01*
X186652180Y-118139791D02*
X186680752Y-118196934D01*
X186680752Y-118196934D02*
X186709323Y-118225505D01*
X186709323Y-118225505D02*
X186766466Y-118254077D01*
X186766466Y-118254077D02*
X186880752Y-118254077D01*
X186880752Y-118254077D02*
X186937895Y-118225505D01*
X186937895Y-118225505D02*
X186966466Y-118196934D01*
X186966466Y-118196934D02*
X186995037Y-118139791D01*
X159901760Y-147084109D02*
X159873188Y-147112681D01*
X159873188Y-147112681D02*
X159787474Y-147141252D01*
X159787474Y-147141252D02*
X159730331Y-147141252D01*
X159730331Y-147141252D02*
X159644617Y-147112681D01*
X159644617Y-147112681D02*
X159587474Y-147055538D01*
X159587474Y-147055538D02*
X159558903Y-146998395D01*
X159558903Y-146998395D02*
X159530331Y-146884109D01*
X159530331Y-146884109D02*
X159530331Y-146798395D01*
X159530331Y-146798395D02*
X159558903Y-146684109D01*
X159558903Y-146684109D02*
X159587474Y-146626966D01*
X159587474Y-146626966D02*
X159644617Y-146569823D01*
X159644617Y-146569823D02*
X159730331Y-146541252D01*
X159730331Y-146541252D02*
X159787474Y-146541252D01*
X159787474Y-146541252D02*
X159873188Y-146569823D01*
X159873188Y-146569823D02*
X159901760Y-146598395D01*
X160473188Y-147141252D02*
X160130331Y-147141252D01*
X160301760Y-147141252D02*
X160301760Y-146541252D01*
X160301760Y-146541252D02*
X160244617Y-146626966D01*
X160244617Y-146626966D02*
X160187474Y-146684109D01*
X160187474Y-146684109D02*
X160130331Y-146712681D01*
X160701760Y-146598395D02*
X160730332Y-146569823D01*
X160730332Y-146569823D02*
X160787475Y-146541252D01*
X160787475Y-146541252D02*
X160930332Y-146541252D01*
X160930332Y-146541252D02*
X160987475Y-146569823D01*
X160987475Y-146569823D02*
X161016046Y-146598395D01*
X161016046Y-146598395D02*
X161044617Y-146655538D01*
X161044617Y-146655538D02*
X161044617Y-146712681D01*
X161044617Y-146712681D02*
X161016046Y-146798395D01*
X161016046Y-146798395D02*
X160673189Y-147141252D01*
X160673189Y-147141252D02*
X161044617Y-147141252D01*
X197520333Y-119326226D02*
X197520333Y-119611940D01*
X197320333Y-119011940D02*
X197520333Y-119326226D01*
X197520333Y-119326226D02*
X197720333Y-119011940D01*
X198234619Y-119611940D02*
X197891762Y-119611940D01*
X198063191Y-119611940D02*
X198063191Y-119011940D01*
X198063191Y-119011940D02*
X198006048Y-119097654D01*
X198006048Y-119097654D02*
X197948905Y-119154797D01*
X197948905Y-119154797D02*
X197891762Y-119183369D01*
X172522060Y-127228728D02*
X172322060Y-126943014D01*
X172179203Y-127228728D02*
X172179203Y-126628728D01*
X172179203Y-126628728D02*
X172407774Y-126628728D01*
X172407774Y-126628728D02*
X172464917Y-126657299D01*
X172464917Y-126657299D02*
X172493488Y-126685871D01*
X172493488Y-126685871D02*
X172522060Y-126743014D01*
X172522060Y-126743014D02*
X172522060Y-126828728D01*
X172522060Y-126828728D02*
X172493488Y-126885871D01*
X172493488Y-126885871D02*
X172464917Y-126914442D01*
X172464917Y-126914442D02*
X172407774Y-126943014D01*
X172407774Y-126943014D02*
X172179203Y-126943014D01*
X173093488Y-127228728D02*
X172750631Y-127228728D01*
X172922060Y-127228728D02*
X172922060Y-126628728D01*
X172922060Y-126628728D02*
X172864917Y-126714442D01*
X172864917Y-126714442D02*
X172807774Y-126771585D01*
X172807774Y-126771585D02*
X172750631Y-126800157D01*
X193958354Y-118518663D02*
X193958354Y-117918663D01*
X193958354Y-117918663D02*
X194101211Y-117918663D01*
X194101211Y-117918663D02*
X194186925Y-117947234D01*
X194186925Y-117947234D02*
X194244068Y-118004377D01*
X194244068Y-118004377D02*
X194272639Y-118061520D01*
X194272639Y-118061520D02*
X194301211Y-118175806D01*
X194301211Y-118175806D02*
X194301211Y-118261520D01*
X194301211Y-118261520D02*
X194272639Y-118375806D01*
X194272639Y-118375806D02*
X194244068Y-118432949D01*
X194244068Y-118432949D02*
X194186925Y-118490092D01*
X194186925Y-118490092D02*
X194101211Y-118518663D01*
X194101211Y-118518663D02*
X193958354Y-118518663D01*
X194501211Y-117918663D02*
X194872639Y-117918663D01*
X194872639Y-117918663D02*
X194672639Y-118147234D01*
X194672639Y-118147234D02*
X194758354Y-118147234D01*
X194758354Y-118147234D02*
X194815497Y-118175806D01*
X194815497Y-118175806D02*
X194844068Y-118204377D01*
X194844068Y-118204377D02*
X194872639Y-118261520D01*
X194872639Y-118261520D02*
X194872639Y-118404377D01*
X194872639Y-118404377D02*
X194844068Y-118461520D01*
X194844068Y-118461520D02*
X194815497Y-118490092D01*
X194815497Y-118490092D02*
X194758354Y-118518663D01*
X194758354Y-118518663D02*
X194586925Y-118518663D01*
X194586925Y-118518663D02*
X194529782Y-118490092D01*
X194529782Y-118490092D02*
X194501211Y-118461520D01*
X192417912Y-132499483D02*
X192389340Y-132528055D01*
X192389340Y-132528055D02*
X192303626Y-132556626D01*
X192303626Y-132556626D02*
X192246483Y-132556626D01*
X192246483Y-132556626D02*
X192160769Y-132528055D01*
X192160769Y-132528055D02*
X192103626Y-132470912D01*
X192103626Y-132470912D02*
X192075055Y-132413769D01*
X192075055Y-132413769D02*
X192046483Y-132299483D01*
X192046483Y-132299483D02*
X192046483Y-132213769D01*
X192046483Y-132213769D02*
X192075055Y-132099483D01*
X192075055Y-132099483D02*
X192103626Y-132042340D01*
X192103626Y-132042340D02*
X192160769Y-131985197D01*
X192160769Y-131985197D02*
X192246483Y-131956626D01*
X192246483Y-131956626D02*
X192303626Y-131956626D01*
X192303626Y-131956626D02*
X192389340Y-131985197D01*
X192389340Y-131985197D02*
X192417912Y-132013769D01*
X192989340Y-132556626D02*
X192646483Y-132556626D01*
X192817912Y-132556626D02*
X192817912Y-131956626D01*
X192817912Y-131956626D02*
X192760769Y-132042340D01*
X192760769Y-132042340D02*
X192703626Y-132099483D01*
X192703626Y-132099483D02*
X192646483Y-132128055D01*
X193532198Y-131956626D02*
X193246484Y-131956626D01*
X193246484Y-131956626D02*
X193217912Y-132242340D01*
X193217912Y-132242340D02*
X193246484Y-132213769D01*
X193246484Y-132213769D02*
X193303627Y-132185197D01*
X193303627Y-132185197D02*
X193446484Y-132185197D01*
X193446484Y-132185197D02*
X193503627Y-132213769D01*
X193503627Y-132213769D02*
X193532198Y-132242340D01*
X193532198Y-132242340D02*
X193560769Y-132299483D01*
X193560769Y-132299483D02*
X193560769Y-132442340D01*
X193560769Y-132442340D02*
X193532198Y-132499483D01*
X193532198Y-132499483D02*
X193503627Y-132528055D01*
X193503627Y-132528055D02*
X193446484Y-132556626D01*
X193446484Y-132556626D02*
X193303627Y-132556626D01*
X193303627Y-132556626D02*
X193246484Y-132528055D01*
X193246484Y-132528055D02*
X193217912Y-132499483D01*
X218640263Y-134989926D02*
X218611691Y-135018498D01*
X218611691Y-135018498D02*
X218525977Y-135047069D01*
X218525977Y-135047069D02*
X218468834Y-135047069D01*
X218468834Y-135047069D02*
X218383120Y-135018498D01*
X218383120Y-135018498D02*
X218325977Y-134961355D01*
X218325977Y-134961355D02*
X218297406Y-134904212D01*
X218297406Y-134904212D02*
X218268834Y-134789926D01*
X218268834Y-134789926D02*
X218268834Y-134704212D01*
X218268834Y-134704212D02*
X218297406Y-134589926D01*
X218297406Y-134589926D02*
X218325977Y-134532783D01*
X218325977Y-134532783D02*
X218383120Y-134475640D01*
X218383120Y-134475640D02*
X218468834Y-134447069D01*
X218468834Y-134447069D02*
X218525977Y-134447069D01*
X218525977Y-134447069D02*
X218611691Y-134475640D01*
X218611691Y-134475640D02*
X218640263Y-134504212D01*
X218868834Y-134504212D02*
X218897406Y-134475640D01*
X218897406Y-134475640D02*
X218954549Y-134447069D01*
X218954549Y-134447069D02*
X219097406Y-134447069D01*
X219097406Y-134447069D02*
X219154549Y-134475640D01*
X219154549Y-134475640D02*
X219183120Y-134504212D01*
X219183120Y-134504212D02*
X219211691Y-134561355D01*
X219211691Y-134561355D02*
X219211691Y-134618498D01*
X219211691Y-134618498D02*
X219183120Y-134704212D01*
X219183120Y-134704212D02*
X218840263Y-135047069D01*
X218840263Y-135047069D02*
X219211691Y-135047069D01*
X219754549Y-134447069D02*
X219468835Y-134447069D01*
X219468835Y-134447069D02*
X219440263Y-134732783D01*
X219440263Y-134732783D02*
X219468835Y-134704212D01*
X219468835Y-134704212D02*
X219525978Y-134675640D01*
X219525978Y-134675640D02*
X219668835Y-134675640D01*
X219668835Y-134675640D02*
X219725978Y-134704212D01*
X219725978Y-134704212D02*
X219754549Y-134732783D01*
X219754549Y-134732783D02*
X219783120Y-134789926D01*
X219783120Y-134789926D02*
X219783120Y-134932783D01*
X219783120Y-134932783D02*
X219754549Y-134989926D01*
X219754549Y-134989926D02*
X219725978Y-135018498D01*
X219725978Y-135018498D02*
X219668835Y-135047069D01*
X219668835Y-135047069D02*
X219525978Y-135047069D01*
X219525978Y-135047069D02*
X219468835Y-135018498D01*
X219468835Y-135018498D02*
X219440263Y-134989926D01*
X210666667Y-107159800D02*
X210809524Y-107207419D01*
X210809524Y-107207419D02*
X211047619Y-107207419D01*
X211047619Y-107207419D02*
X211142857Y-107159800D01*
X211142857Y-107159800D02*
X211190476Y-107112180D01*
X211190476Y-107112180D02*
X211238095Y-107016942D01*
X211238095Y-107016942D02*
X211238095Y-106921704D01*
X211238095Y-106921704D02*
X211190476Y-106826466D01*
X211190476Y-106826466D02*
X211142857Y-106778847D01*
X211142857Y-106778847D02*
X211047619Y-106731228D01*
X211047619Y-106731228D02*
X210857143Y-106683609D01*
X210857143Y-106683609D02*
X210761905Y-106635990D01*
X210761905Y-106635990D02*
X210714286Y-106588371D01*
X210714286Y-106588371D02*
X210666667Y-106493133D01*
X210666667Y-106493133D02*
X210666667Y-106397895D01*
X210666667Y-106397895D02*
X210714286Y-106302657D01*
X210714286Y-106302657D02*
X210761905Y-106255038D01*
X210761905Y-106255038D02*
X210857143Y-106207419D01*
X210857143Y-106207419D02*
X211095238Y-106207419D01*
X211095238Y-106207419D02*
X211238095Y-106255038D01*
X211571429Y-106207419D02*
X211809524Y-107207419D01*
X211809524Y-107207419D02*
X212000000Y-106493133D01*
X212000000Y-106493133D02*
X212190476Y-107207419D01*
X212190476Y-107207419D02*
X212428572Y-106207419D01*
X213238095Y-106540752D02*
X213238095Y-107207419D01*
X213000000Y-106159800D02*
X212761905Y-106874085D01*
X212761905Y-106874085D02*
X213380952Y-106874085D01*
X207675362Y-130437420D02*
X207475362Y-130151706D01*
X207332505Y-130437420D02*
X207332505Y-129837420D01*
X207332505Y-129837420D02*
X207561076Y-129837420D01*
X207561076Y-129837420D02*
X207618219Y-129865991D01*
X207618219Y-129865991D02*
X207646790Y-129894563D01*
X207646790Y-129894563D02*
X207675362Y-129951706D01*
X207675362Y-129951706D02*
X207675362Y-130037420D01*
X207675362Y-130037420D02*
X207646790Y-130094563D01*
X207646790Y-130094563D02*
X207618219Y-130123134D01*
X207618219Y-130123134D02*
X207561076Y-130151706D01*
X207561076Y-130151706D02*
X207332505Y-130151706D01*
X208246790Y-130437420D02*
X207903933Y-130437420D01*
X208075362Y-130437420D02*
X208075362Y-129837420D01*
X208075362Y-129837420D02*
X208018219Y-129923134D01*
X208018219Y-129923134D02*
X207961076Y-129980277D01*
X207961076Y-129980277D02*
X207903933Y-130008849D01*
X208589648Y-130094563D02*
X208532505Y-130065991D01*
X208532505Y-130065991D02*
X208503934Y-130037420D01*
X208503934Y-130037420D02*
X208475362Y-129980277D01*
X208475362Y-129980277D02*
X208475362Y-129951706D01*
X208475362Y-129951706D02*
X208503934Y-129894563D01*
X208503934Y-129894563D02*
X208532505Y-129865991D01*
X208532505Y-129865991D02*
X208589648Y-129837420D01*
X208589648Y-129837420D02*
X208703934Y-129837420D01*
X208703934Y-129837420D02*
X208761077Y-129865991D01*
X208761077Y-129865991D02*
X208789648Y-129894563D01*
X208789648Y-129894563D02*
X208818219Y-129951706D01*
X208818219Y-129951706D02*
X208818219Y-129980277D01*
X208818219Y-129980277D02*
X208789648Y-130037420D01*
X208789648Y-130037420D02*
X208761077Y-130065991D01*
X208761077Y-130065991D02*
X208703934Y-130094563D01*
X208703934Y-130094563D02*
X208589648Y-130094563D01*
X208589648Y-130094563D02*
X208532505Y-130123134D01*
X208532505Y-130123134D02*
X208503934Y-130151706D01*
X208503934Y-130151706D02*
X208475362Y-130208849D01*
X208475362Y-130208849D02*
X208475362Y-130323134D01*
X208475362Y-130323134D02*
X208503934Y-130380277D01*
X208503934Y-130380277D02*
X208532505Y-130408849D01*
X208532505Y-130408849D02*
X208589648Y-130437420D01*
X208589648Y-130437420D02*
X208703934Y-130437420D01*
X208703934Y-130437420D02*
X208761077Y-130408849D01*
X208761077Y-130408849D02*
X208789648Y-130380277D01*
X208789648Y-130380277D02*
X208818219Y-130323134D01*
X208818219Y-130323134D02*
X208818219Y-130208849D01*
X208818219Y-130208849D02*
X208789648Y-130151706D01*
X208789648Y-130151706D02*
X208761077Y-130123134D01*
X208761077Y-130123134D02*
X208703934Y-130094563D01*
X190161075Y-128128666D02*
X190189647Y-128157238D01*
X190189647Y-128157238D02*
X190218218Y-128242952D01*
X190218218Y-128242952D02*
X190218218Y-128300095D01*
X190218218Y-128300095D02*
X190189647Y-128385809D01*
X190189647Y-128385809D02*
X190132504Y-128442952D01*
X190132504Y-128442952D02*
X190075361Y-128471523D01*
X190075361Y-128471523D02*
X189961075Y-128500095D01*
X189961075Y-128500095D02*
X189875361Y-128500095D01*
X189875361Y-128500095D02*
X189761075Y-128471523D01*
X189761075Y-128471523D02*
X189703932Y-128442952D01*
X189703932Y-128442952D02*
X189646789Y-128385809D01*
X189646789Y-128385809D02*
X189618218Y-128300095D01*
X189618218Y-128300095D02*
X189618218Y-128242952D01*
X189618218Y-128242952D02*
X189646789Y-128157238D01*
X189646789Y-128157238D02*
X189675361Y-128128666D01*
X190218218Y-127557238D02*
X190218218Y-127900095D01*
X190218218Y-127728666D02*
X189618218Y-127728666D01*
X189618218Y-127728666D02*
X189703932Y-127785809D01*
X189703932Y-127785809D02*
X189761075Y-127842952D01*
X189761075Y-127842952D02*
X189789647Y-127900095D01*
X190218218Y-126985809D02*
X190218218Y-127328666D01*
X190218218Y-127157237D02*
X189618218Y-127157237D01*
X189618218Y-127157237D02*
X189703932Y-127214380D01*
X189703932Y-127214380D02*
X189761075Y-127271523D01*
X189761075Y-127271523D02*
X189789647Y-127328666D01*
X162895621Y-149992038D02*
X162695621Y-149706324D01*
X162552764Y-149992038D02*
X162552764Y-149392038D01*
X162552764Y-149392038D02*
X162781335Y-149392038D01*
X162781335Y-149392038D02*
X162838478Y-149420609D01*
X162838478Y-149420609D02*
X162867049Y-149449181D01*
X162867049Y-149449181D02*
X162895621Y-149506324D01*
X162895621Y-149506324D02*
X162895621Y-149592038D01*
X162895621Y-149592038D02*
X162867049Y-149649181D01*
X162867049Y-149649181D02*
X162838478Y-149677752D01*
X162838478Y-149677752D02*
X162781335Y-149706324D01*
X162781335Y-149706324D02*
X162552764Y-149706324D01*
X163238478Y-149649181D02*
X163181335Y-149620609D01*
X163181335Y-149620609D02*
X163152764Y-149592038D01*
X163152764Y-149592038D02*
X163124192Y-149534895D01*
X163124192Y-149534895D02*
X163124192Y-149506324D01*
X163124192Y-149506324D02*
X163152764Y-149449181D01*
X163152764Y-149449181D02*
X163181335Y-149420609D01*
X163181335Y-149420609D02*
X163238478Y-149392038D01*
X163238478Y-149392038D02*
X163352764Y-149392038D01*
X163352764Y-149392038D02*
X163409907Y-149420609D01*
X163409907Y-149420609D02*
X163438478Y-149449181D01*
X163438478Y-149449181D02*
X163467049Y-149506324D01*
X163467049Y-149506324D02*
X163467049Y-149534895D01*
X163467049Y-149534895D02*
X163438478Y-149592038D01*
X163438478Y-149592038D02*
X163409907Y-149620609D01*
X163409907Y-149620609D02*
X163352764Y-149649181D01*
X163352764Y-149649181D02*
X163238478Y-149649181D01*
X163238478Y-149649181D02*
X163181335Y-149677752D01*
X163181335Y-149677752D02*
X163152764Y-149706324D01*
X163152764Y-149706324D02*
X163124192Y-149763467D01*
X163124192Y-149763467D02*
X163124192Y-149877752D01*
X163124192Y-149877752D02*
X163152764Y-149934895D01*
X163152764Y-149934895D02*
X163181335Y-149963467D01*
X163181335Y-149963467D02*
X163238478Y-149992038D01*
X163238478Y-149992038D02*
X163352764Y-149992038D01*
X163352764Y-149992038D02*
X163409907Y-149963467D01*
X163409907Y-149963467D02*
X163438478Y-149934895D01*
X163438478Y-149934895D02*
X163467049Y-149877752D01*
X163467049Y-149877752D02*
X163467049Y-149763467D01*
X163467049Y-149763467D02*
X163438478Y-149706324D01*
X163438478Y-149706324D02*
X163409907Y-149677752D01*
X163409907Y-149677752D02*
X163352764Y-149649181D01*
X183506808Y-59065898D02*
X183506808Y-58465898D01*
X184135379Y-59008755D02*
X184106807Y-59037327D01*
X184106807Y-59037327D02*
X184021093Y-59065898D01*
X184021093Y-59065898D02*
X183963950Y-59065898D01*
X183963950Y-59065898D02*
X183878236Y-59037327D01*
X183878236Y-59037327D02*
X183821093Y-58980184D01*
X183821093Y-58980184D02*
X183792522Y-58923041D01*
X183792522Y-58923041D02*
X183763950Y-58808755D01*
X183763950Y-58808755D02*
X183763950Y-58723041D01*
X183763950Y-58723041D02*
X183792522Y-58608755D01*
X183792522Y-58608755D02*
X183821093Y-58551612D01*
X183821093Y-58551612D02*
X183878236Y-58494469D01*
X183878236Y-58494469D02*
X183963950Y-58465898D01*
X183963950Y-58465898D02*
X184021093Y-58465898D01*
X184021093Y-58465898D02*
X184106807Y-58494469D01*
X184106807Y-58494469D02*
X184135379Y-58523041D01*
X184706807Y-59065898D02*
X184363950Y-59065898D01*
X184535379Y-59065898D02*
X184535379Y-58465898D01*
X184535379Y-58465898D02*
X184478236Y-58551612D01*
X184478236Y-58551612D02*
X184421093Y-58608755D01*
X184421093Y-58608755D02*
X184363950Y-58637327D01*
X206957752Y-134979676D02*
X206929180Y-135008248D01*
X206929180Y-135008248D02*
X206843466Y-135036819D01*
X206843466Y-135036819D02*
X206786323Y-135036819D01*
X206786323Y-135036819D02*
X206700609Y-135008248D01*
X206700609Y-135008248D02*
X206643466Y-134951105D01*
X206643466Y-134951105D02*
X206614895Y-134893962D01*
X206614895Y-134893962D02*
X206586323Y-134779676D01*
X206586323Y-134779676D02*
X206586323Y-134693962D01*
X206586323Y-134693962D02*
X206614895Y-134579676D01*
X206614895Y-134579676D02*
X206643466Y-134522533D01*
X206643466Y-134522533D02*
X206700609Y-134465390D01*
X206700609Y-134465390D02*
X206786323Y-134436819D01*
X206786323Y-134436819D02*
X206843466Y-134436819D01*
X206843466Y-134436819D02*
X206929180Y-134465390D01*
X206929180Y-134465390D02*
X206957752Y-134493962D01*
X207186323Y-134493962D02*
X207214895Y-134465390D01*
X207214895Y-134465390D02*
X207272038Y-134436819D01*
X207272038Y-134436819D02*
X207414895Y-134436819D01*
X207414895Y-134436819D02*
X207472038Y-134465390D01*
X207472038Y-134465390D02*
X207500609Y-134493962D01*
X207500609Y-134493962D02*
X207529180Y-134551105D01*
X207529180Y-134551105D02*
X207529180Y-134608248D01*
X207529180Y-134608248D02*
X207500609Y-134693962D01*
X207500609Y-134693962D02*
X207157752Y-135036819D01*
X207157752Y-135036819D02*
X207529180Y-135036819D01*
X207729181Y-134436819D02*
X208100609Y-134436819D01*
X208100609Y-134436819D02*
X207900609Y-134665390D01*
X207900609Y-134665390D02*
X207986324Y-134665390D01*
X207986324Y-134665390D02*
X208043467Y-134693962D01*
X208043467Y-134693962D02*
X208072038Y-134722533D01*
X208072038Y-134722533D02*
X208100609Y-134779676D01*
X208100609Y-134779676D02*
X208100609Y-134922533D01*
X208100609Y-134922533D02*
X208072038Y-134979676D01*
X208072038Y-134979676D02*
X208043467Y-135008248D01*
X208043467Y-135008248D02*
X207986324Y-135036819D01*
X207986324Y-135036819D02*
X207814895Y-135036819D01*
X207814895Y-135036819D02*
X207757752Y-135008248D01*
X207757752Y-135008248D02*
X207729181Y-134979676D01*
X201691877Y-58222477D02*
X201691877Y-57622477D01*
X201691877Y-57622477D02*
X201834734Y-57622477D01*
X201834734Y-57622477D02*
X201920448Y-57651048D01*
X201920448Y-57651048D02*
X201977591Y-57708191D01*
X201977591Y-57708191D02*
X202006162Y-57765334D01*
X202006162Y-57765334D02*
X202034734Y-57879620D01*
X202034734Y-57879620D02*
X202034734Y-57965334D01*
X202034734Y-57965334D02*
X202006162Y-58079620D01*
X202006162Y-58079620D02*
X201977591Y-58136763D01*
X201977591Y-58136763D02*
X201920448Y-58193906D01*
X201920448Y-58193906D02*
X201834734Y-58222477D01*
X201834734Y-58222477D02*
X201691877Y-58222477D01*
X202577591Y-57622477D02*
X202291877Y-57622477D01*
X202291877Y-57622477D02*
X202263305Y-57908191D01*
X202263305Y-57908191D02*
X202291877Y-57879620D01*
X202291877Y-57879620D02*
X202349020Y-57851048D01*
X202349020Y-57851048D02*
X202491877Y-57851048D01*
X202491877Y-57851048D02*
X202549020Y-57879620D01*
X202549020Y-57879620D02*
X202577591Y-57908191D01*
X202577591Y-57908191D02*
X202606162Y-57965334D01*
X202606162Y-57965334D02*
X202606162Y-58108191D01*
X202606162Y-58108191D02*
X202577591Y-58165334D01*
X202577591Y-58165334D02*
X202549020Y-58193906D01*
X202549020Y-58193906D02*
X202491877Y-58222477D01*
X202491877Y-58222477D02*
X202349020Y-58222477D01*
X202349020Y-58222477D02*
X202291877Y-58193906D01*
X202291877Y-58193906D02*
X202263305Y-58165334D01*
X194918268Y-59102255D02*
X194718268Y-58816541D01*
X194575411Y-59102255D02*
X194575411Y-58502255D01*
X194575411Y-58502255D02*
X194803982Y-58502255D01*
X194803982Y-58502255D02*
X194861125Y-58530826D01*
X194861125Y-58530826D02*
X194889696Y-58559398D01*
X194889696Y-58559398D02*
X194918268Y-58616541D01*
X194918268Y-58616541D02*
X194918268Y-58702255D01*
X194918268Y-58702255D02*
X194889696Y-58759398D01*
X194889696Y-58759398D02*
X194861125Y-58787969D01*
X194861125Y-58787969D02*
X194803982Y-58816541D01*
X194803982Y-58816541D02*
X194575411Y-58816541D01*
X195146839Y-58559398D02*
X195175411Y-58530826D01*
X195175411Y-58530826D02*
X195232554Y-58502255D01*
X195232554Y-58502255D02*
X195375411Y-58502255D01*
X195375411Y-58502255D02*
X195432554Y-58530826D01*
X195432554Y-58530826D02*
X195461125Y-58559398D01*
X195461125Y-58559398D02*
X195489696Y-58616541D01*
X195489696Y-58616541D02*
X195489696Y-58673684D01*
X195489696Y-58673684D02*
X195461125Y-58759398D01*
X195461125Y-58759398D02*
X195118268Y-59102255D01*
X195118268Y-59102255D02*
X195489696Y-59102255D01*
X196061125Y-59102255D02*
X195718268Y-59102255D01*
X195889697Y-59102255D02*
X195889697Y-58502255D01*
X195889697Y-58502255D02*
X195832554Y-58587969D01*
X195832554Y-58587969D02*
X195775411Y-58645112D01*
X195775411Y-58645112D02*
X195718268Y-58673684D01*
X162859936Y-144482396D02*
X162659936Y-144196682D01*
X162517079Y-144482396D02*
X162517079Y-143882396D01*
X162517079Y-143882396D02*
X162745650Y-143882396D01*
X162745650Y-143882396D02*
X162802793Y-143910967D01*
X162802793Y-143910967D02*
X162831364Y-143939539D01*
X162831364Y-143939539D02*
X162859936Y-143996682D01*
X162859936Y-143996682D02*
X162859936Y-144082396D01*
X162859936Y-144082396D02*
X162831364Y-144139539D01*
X162831364Y-144139539D02*
X162802793Y-144168110D01*
X162802793Y-144168110D02*
X162745650Y-144196682D01*
X162745650Y-144196682D02*
X162517079Y-144196682D01*
X163059936Y-143882396D02*
X163459936Y-143882396D01*
X163459936Y-143882396D02*
X163202793Y-144482396D01*
X224934062Y-150808688D02*
X224700728Y-150808688D01*
X224700728Y-151175355D02*
X224700728Y-150475355D01*
X224700728Y-150475355D02*
X225034062Y-150475355D01*
X225300728Y-151175355D02*
X225300728Y-150475355D01*
X225634061Y-151175355D02*
X225634061Y-150475355D01*
X225634061Y-150475355D02*
X225800728Y-150475355D01*
X225800728Y-150475355D02*
X225900728Y-150508688D01*
X225900728Y-150508688D02*
X225967395Y-150575355D01*
X225967395Y-150575355D02*
X226000728Y-150642022D01*
X226000728Y-150642022D02*
X226034061Y-150775355D01*
X226034061Y-150775355D02*
X226034061Y-150875355D01*
X226034061Y-150875355D02*
X226000728Y-151008688D01*
X226000728Y-151008688D02*
X225967395Y-151075355D01*
X225967395Y-151075355D02*
X225900728Y-151142022D01*
X225900728Y-151142022D02*
X225800728Y-151175355D01*
X225800728Y-151175355D02*
X225634061Y-151175355D01*
X226267395Y-150475355D02*
X226700728Y-150475355D01*
X226700728Y-150475355D02*
X226467395Y-150742022D01*
X226467395Y-150742022D02*
X226567395Y-150742022D01*
X226567395Y-150742022D02*
X226634061Y-150775355D01*
X226634061Y-150775355D02*
X226667395Y-150808688D01*
X226667395Y-150808688D02*
X226700728Y-150875355D01*
X226700728Y-150875355D02*
X226700728Y-151042022D01*
X226700728Y-151042022D02*
X226667395Y-151108688D01*
X226667395Y-151108688D02*
X226634061Y-151142022D01*
X226634061Y-151142022D02*
X226567395Y-151175355D01*
X226567395Y-151175355D02*
X226367395Y-151175355D01*
X226367395Y-151175355D02*
X226300728Y-151142022D01*
X226300728Y-151142022D02*
X226267395Y-151108688D01*
X184132016Y-132744442D02*
X184103444Y-132773014D01*
X184103444Y-132773014D02*
X184017730Y-132801585D01*
X184017730Y-132801585D02*
X183960587Y-132801585D01*
X183960587Y-132801585D02*
X183874873Y-132773014D01*
X183874873Y-132773014D02*
X183817730Y-132715871D01*
X183817730Y-132715871D02*
X183789159Y-132658728D01*
X183789159Y-132658728D02*
X183760587Y-132544442D01*
X183760587Y-132544442D02*
X183760587Y-132458728D01*
X183760587Y-132458728D02*
X183789159Y-132344442D01*
X183789159Y-132344442D02*
X183817730Y-132287299D01*
X183817730Y-132287299D02*
X183874873Y-132230156D01*
X183874873Y-132230156D02*
X183960587Y-132201585D01*
X183960587Y-132201585D02*
X184017730Y-132201585D01*
X184017730Y-132201585D02*
X184103444Y-132230156D01*
X184103444Y-132230156D02*
X184132016Y-132258728D01*
X184674873Y-132201585D02*
X184389159Y-132201585D01*
X184389159Y-132201585D02*
X184360587Y-132487299D01*
X184360587Y-132487299D02*
X184389159Y-132458728D01*
X184389159Y-132458728D02*
X184446302Y-132430156D01*
X184446302Y-132430156D02*
X184589159Y-132430156D01*
X184589159Y-132430156D02*
X184646302Y-132458728D01*
X184646302Y-132458728D02*
X184674873Y-132487299D01*
X184674873Y-132487299D02*
X184703444Y-132544442D01*
X184703444Y-132544442D02*
X184703444Y-132687299D01*
X184703444Y-132687299D02*
X184674873Y-132744442D01*
X184674873Y-132744442D02*
X184646302Y-132773014D01*
X184646302Y-132773014D02*
X184589159Y-132801585D01*
X184589159Y-132801585D02*
X184446302Y-132801585D01*
X184446302Y-132801585D02*
X184389159Y-132773014D01*
X184389159Y-132773014D02*
X184360587Y-132744442D01*
X174773073Y-129647087D02*
X174744501Y-129675659D01*
X174744501Y-129675659D02*
X174658787Y-129704230D01*
X174658787Y-129704230D02*
X174601644Y-129704230D01*
X174601644Y-129704230D02*
X174515930Y-129675659D01*
X174515930Y-129675659D02*
X174458787Y-129618516D01*
X174458787Y-129618516D02*
X174430216Y-129561373D01*
X174430216Y-129561373D02*
X174401644Y-129447087D01*
X174401644Y-129447087D02*
X174401644Y-129361373D01*
X174401644Y-129361373D02*
X174430216Y-129247087D01*
X174430216Y-129247087D02*
X174458787Y-129189944D01*
X174458787Y-129189944D02*
X174515930Y-129132801D01*
X174515930Y-129132801D02*
X174601644Y-129104230D01*
X174601644Y-129104230D02*
X174658787Y-129104230D01*
X174658787Y-129104230D02*
X174744501Y-129132801D01*
X174744501Y-129132801D02*
X174773073Y-129161373D01*
X175344501Y-129704230D02*
X175001644Y-129704230D01*
X175173073Y-129704230D02*
X175173073Y-129104230D01*
X175173073Y-129104230D02*
X175115930Y-129189944D01*
X175115930Y-129189944D02*
X175058787Y-129247087D01*
X175058787Y-129247087D02*
X175001644Y-129275659D01*
X175544502Y-129104230D02*
X175915930Y-129104230D01*
X175915930Y-129104230D02*
X175715930Y-129332801D01*
X175715930Y-129332801D02*
X175801645Y-129332801D01*
X175801645Y-129332801D02*
X175858788Y-129361373D01*
X175858788Y-129361373D02*
X175887359Y-129389944D01*
X175887359Y-129389944D02*
X175915930Y-129447087D01*
X175915930Y-129447087D02*
X175915930Y-129589944D01*
X175915930Y-129589944D02*
X175887359Y-129647087D01*
X175887359Y-129647087D02*
X175858788Y-129675659D01*
X175858788Y-129675659D02*
X175801645Y-129704230D01*
X175801645Y-129704230D02*
X175630216Y-129704230D01*
X175630216Y-129704230D02*
X175573073Y-129675659D01*
X175573073Y-129675659D02*
X175544502Y-129647087D01*
X214281137Y-134996584D02*
X214252565Y-135025156D01*
X214252565Y-135025156D02*
X214166851Y-135053727D01*
X214166851Y-135053727D02*
X214109708Y-135053727D01*
X214109708Y-135053727D02*
X214023994Y-135025156D01*
X214023994Y-135025156D02*
X213966851Y-134968013D01*
X213966851Y-134968013D02*
X213938280Y-134910870D01*
X213938280Y-134910870D02*
X213909708Y-134796584D01*
X213909708Y-134796584D02*
X213909708Y-134710870D01*
X213909708Y-134710870D02*
X213938280Y-134596584D01*
X213938280Y-134596584D02*
X213966851Y-134539441D01*
X213966851Y-134539441D02*
X214023994Y-134482298D01*
X214023994Y-134482298D02*
X214109708Y-134453727D01*
X214109708Y-134453727D02*
X214166851Y-134453727D01*
X214166851Y-134453727D02*
X214252565Y-134482298D01*
X214252565Y-134482298D02*
X214281137Y-134510870D01*
X214509708Y-134510870D02*
X214538280Y-134482298D01*
X214538280Y-134482298D02*
X214595423Y-134453727D01*
X214595423Y-134453727D02*
X214738280Y-134453727D01*
X214738280Y-134453727D02*
X214795423Y-134482298D01*
X214795423Y-134482298D02*
X214823994Y-134510870D01*
X214823994Y-134510870D02*
X214852565Y-134568013D01*
X214852565Y-134568013D02*
X214852565Y-134625156D01*
X214852565Y-134625156D02*
X214823994Y-134710870D01*
X214823994Y-134710870D02*
X214481137Y-135053727D01*
X214481137Y-135053727D02*
X214852565Y-135053727D01*
X215366852Y-134453727D02*
X215252566Y-134453727D01*
X215252566Y-134453727D02*
X215195423Y-134482298D01*
X215195423Y-134482298D02*
X215166852Y-134510870D01*
X215166852Y-134510870D02*
X215109709Y-134596584D01*
X215109709Y-134596584D02*
X215081137Y-134710870D01*
X215081137Y-134710870D02*
X215081137Y-134939441D01*
X215081137Y-134939441D02*
X215109709Y-134996584D01*
X215109709Y-134996584D02*
X215138280Y-135025156D01*
X215138280Y-135025156D02*
X215195423Y-135053727D01*
X215195423Y-135053727D02*
X215309709Y-135053727D01*
X215309709Y-135053727D02*
X215366852Y-135025156D01*
X215366852Y-135025156D02*
X215395423Y-134996584D01*
X215395423Y-134996584D02*
X215423994Y-134939441D01*
X215423994Y-134939441D02*
X215423994Y-134796584D01*
X215423994Y-134796584D02*
X215395423Y-134739441D01*
X215395423Y-134739441D02*
X215366852Y-134710870D01*
X215366852Y-134710870D02*
X215309709Y-134682298D01*
X215309709Y-134682298D02*
X215195423Y-134682298D01*
X215195423Y-134682298D02*
X215138280Y-134710870D01*
X215138280Y-134710870D02*
X215109709Y-134739441D01*
X215109709Y-134739441D02*
X215081137Y-134796584D01*
X181291202Y-139048970D02*
X181091202Y-138763256D01*
X180948345Y-139048970D02*
X180948345Y-138448970D01*
X180948345Y-138448970D02*
X181176916Y-138448970D01*
X181176916Y-138448970D02*
X181234059Y-138477541D01*
X181234059Y-138477541D02*
X181262630Y-138506113D01*
X181262630Y-138506113D02*
X181291202Y-138563256D01*
X181291202Y-138563256D02*
X181291202Y-138648970D01*
X181291202Y-138648970D02*
X181262630Y-138706113D01*
X181262630Y-138706113D02*
X181234059Y-138734684D01*
X181234059Y-138734684D02*
X181176916Y-138763256D01*
X181176916Y-138763256D02*
X180948345Y-138763256D01*
X181519773Y-138506113D02*
X181548345Y-138477541D01*
X181548345Y-138477541D02*
X181605488Y-138448970D01*
X181605488Y-138448970D02*
X181748345Y-138448970D01*
X181748345Y-138448970D02*
X181805488Y-138477541D01*
X181805488Y-138477541D02*
X181834059Y-138506113D01*
X181834059Y-138506113D02*
X181862630Y-138563256D01*
X181862630Y-138563256D02*
X181862630Y-138620399D01*
X181862630Y-138620399D02*
X181834059Y-138706113D01*
X181834059Y-138706113D02*
X181491202Y-139048970D01*
X181491202Y-139048970D02*
X181862630Y-139048970D01*
X182376917Y-138448970D02*
X182262631Y-138448970D01*
X182262631Y-138448970D02*
X182205488Y-138477541D01*
X182205488Y-138477541D02*
X182176917Y-138506113D01*
X182176917Y-138506113D02*
X182119774Y-138591827D01*
X182119774Y-138591827D02*
X182091202Y-138706113D01*
X182091202Y-138706113D02*
X182091202Y-138934684D01*
X182091202Y-138934684D02*
X182119774Y-138991827D01*
X182119774Y-138991827D02*
X182148345Y-139020399D01*
X182148345Y-139020399D02*
X182205488Y-139048970D01*
X182205488Y-139048970D02*
X182319774Y-139048970D01*
X182319774Y-139048970D02*
X182376917Y-139020399D01*
X182376917Y-139020399D02*
X182405488Y-138991827D01*
X182405488Y-138991827D02*
X182434059Y-138934684D01*
X182434059Y-138934684D02*
X182434059Y-138791827D01*
X182434059Y-138791827D02*
X182405488Y-138734684D01*
X182405488Y-138734684D02*
X182376917Y-138706113D01*
X182376917Y-138706113D02*
X182319774Y-138677541D01*
X182319774Y-138677541D02*
X182205488Y-138677541D01*
X182205488Y-138677541D02*
X182148345Y-138706113D01*
X182148345Y-138706113D02*
X182119774Y-138734684D01*
X182119774Y-138734684D02*
X182091202Y-138791827D01*
X176386466Y-122823658D02*
X176357894Y-122852230D01*
X176357894Y-122852230D02*
X176272180Y-122880801D01*
X176272180Y-122880801D02*
X176215037Y-122880801D01*
X176215037Y-122880801D02*
X176129323Y-122852230D01*
X176129323Y-122852230D02*
X176072180Y-122795087D01*
X176072180Y-122795087D02*
X176043609Y-122737944D01*
X176043609Y-122737944D02*
X176015037Y-122623658D01*
X176015037Y-122623658D02*
X176015037Y-122537944D01*
X176015037Y-122537944D02*
X176043609Y-122423658D01*
X176043609Y-122423658D02*
X176072180Y-122366515D01*
X176072180Y-122366515D02*
X176129323Y-122309372D01*
X176129323Y-122309372D02*
X176215037Y-122280801D01*
X176215037Y-122280801D02*
X176272180Y-122280801D01*
X176272180Y-122280801D02*
X176357894Y-122309372D01*
X176357894Y-122309372D02*
X176386466Y-122337944D01*
X176957894Y-122880801D02*
X176615037Y-122880801D01*
X176786466Y-122880801D02*
X176786466Y-122280801D01*
X176786466Y-122280801D02*
X176729323Y-122366515D01*
X176729323Y-122366515D02*
X176672180Y-122423658D01*
X176672180Y-122423658D02*
X176615037Y-122452230D01*
X177329323Y-122280801D02*
X177386466Y-122280801D01*
X177386466Y-122280801D02*
X177443609Y-122309372D01*
X177443609Y-122309372D02*
X177472181Y-122337944D01*
X177472181Y-122337944D02*
X177500752Y-122395087D01*
X177500752Y-122395087D02*
X177529323Y-122509372D01*
X177529323Y-122509372D02*
X177529323Y-122652230D01*
X177529323Y-122652230D02*
X177500752Y-122766515D01*
X177500752Y-122766515D02*
X177472181Y-122823658D01*
X177472181Y-122823658D02*
X177443609Y-122852230D01*
X177443609Y-122852230D02*
X177386466Y-122880801D01*
X177386466Y-122880801D02*
X177329323Y-122880801D01*
X177329323Y-122880801D02*
X177272181Y-122852230D01*
X177272181Y-122852230D02*
X177243609Y-122823658D01*
X177243609Y-122823658D02*
X177215038Y-122766515D01*
X177215038Y-122766515D02*
X177186466Y-122652230D01*
X177186466Y-122652230D02*
X177186466Y-122509372D01*
X177186466Y-122509372D02*
X177215038Y-122395087D01*
X177215038Y-122395087D02*
X177243609Y-122337944D01*
X177243609Y-122337944D02*
X177272181Y-122309372D01*
X177272181Y-122309372D02*
X177329323Y-122280801D01*
X176973381Y-125936142D02*
X176944809Y-125964714D01*
X176944809Y-125964714D02*
X176859095Y-125993285D01*
X176859095Y-125993285D02*
X176801952Y-125993285D01*
X176801952Y-125993285D02*
X176716238Y-125964714D01*
X176716238Y-125964714D02*
X176659095Y-125907571D01*
X176659095Y-125907571D02*
X176630524Y-125850428D01*
X176630524Y-125850428D02*
X176601952Y-125736142D01*
X176601952Y-125736142D02*
X176601952Y-125650428D01*
X176601952Y-125650428D02*
X176630524Y-125536142D01*
X176630524Y-125536142D02*
X176659095Y-125478999D01*
X176659095Y-125478999D02*
X176716238Y-125421856D01*
X176716238Y-125421856D02*
X176801952Y-125393285D01*
X176801952Y-125393285D02*
X176859095Y-125393285D01*
X176859095Y-125393285D02*
X176944809Y-125421856D01*
X176944809Y-125421856D02*
X176973381Y-125450428D01*
X177173381Y-125393285D02*
X177544809Y-125393285D01*
X177544809Y-125393285D02*
X177344809Y-125621856D01*
X177344809Y-125621856D02*
X177430524Y-125621856D01*
X177430524Y-125621856D02*
X177487667Y-125650428D01*
X177487667Y-125650428D02*
X177516238Y-125678999D01*
X177516238Y-125678999D02*
X177544809Y-125736142D01*
X177544809Y-125736142D02*
X177544809Y-125878999D01*
X177544809Y-125878999D02*
X177516238Y-125936142D01*
X177516238Y-125936142D02*
X177487667Y-125964714D01*
X177487667Y-125964714D02*
X177430524Y-125993285D01*
X177430524Y-125993285D02*
X177259095Y-125993285D01*
X177259095Y-125993285D02*
X177201952Y-125964714D01*
X177201952Y-125964714D02*
X177173381Y-125936142D01*
X185862131Y-139190320D02*
X185962131Y-139223653D01*
X185962131Y-139223653D02*
X186128798Y-139223653D01*
X186128798Y-139223653D02*
X186195464Y-139190320D01*
X186195464Y-139190320D02*
X186228798Y-139156986D01*
X186228798Y-139156986D02*
X186262131Y-139090320D01*
X186262131Y-139090320D02*
X186262131Y-139023653D01*
X186262131Y-139023653D02*
X186228798Y-138956986D01*
X186228798Y-138956986D02*
X186195464Y-138923653D01*
X186195464Y-138923653D02*
X186128798Y-138890320D01*
X186128798Y-138890320D02*
X185995464Y-138856986D01*
X185995464Y-138856986D02*
X185928798Y-138823653D01*
X185928798Y-138823653D02*
X185895464Y-138790320D01*
X185895464Y-138790320D02*
X185862131Y-138723653D01*
X185862131Y-138723653D02*
X185862131Y-138656986D01*
X185862131Y-138656986D02*
X185895464Y-138590320D01*
X185895464Y-138590320D02*
X185928798Y-138556986D01*
X185928798Y-138556986D02*
X185995464Y-138523653D01*
X185995464Y-138523653D02*
X186162131Y-138523653D01*
X186162131Y-138523653D02*
X186262131Y-138556986D01*
X186495465Y-138523653D02*
X186662131Y-139223653D01*
X186662131Y-139223653D02*
X186795465Y-138723653D01*
X186795465Y-138723653D02*
X186928798Y-139223653D01*
X186928798Y-139223653D02*
X187095465Y-138523653D01*
X187695465Y-138523653D02*
X187362131Y-138523653D01*
X187362131Y-138523653D02*
X187328798Y-138856986D01*
X187328798Y-138856986D02*
X187362131Y-138823653D01*
X187362131Y-138823653D02*
X187428798Y-138790320D01*
X187428798Y-138790320D02*
X187595465Y-138790320D01*
X187595465Y-138790320D02*
X187662131Y-138823653D01*
X187662131Y-138823653D02*
X187695465Y-138856986D01*
X187695465Y-138856986D02*
X187728798Y-138923653D01*
X187728798Y-138923653D02*
X187728798Y-139090320D01*
X187728798Y-139090320D02*
X187695465Y-139156986D01*
X187695465Y-139156986D02*
X187662131Y-139190320D01*
X187662131Y-139190320D02*
X187595465Y-139223653D01*
X187595465Y-139223653D02*
X187428798Y-139223653D01*
X187428798Y-139223653D02*
X187362131Y-139190320D01*
X187362131Y-139190320D02*
X187328798Y-139156986D01*
X186192757Y-123629859D02*
X186135614Y-123601287D01*
X186135614Y-123601287D02*
X186078471Y-123544145D01*
X186078471Y-123544145D02*
X185992757Y-123458430D01*
X185992757Y-123458430D02*
X185935614Y-123429859D01*
X185935614Y-123429859D02*
X185878471Y-123429859D01*
X185907042Y-123572716D02*
X185849900Y-123544145D01*
X185849900Y-123544145D02*
X185792757Y-123487002D01*
X185792757Y-123487002D02*
X185764185Y-123372716D01*
X185764185Y-123372716D02*
X185764185Y-123172716D01*
X185764185Y-123172716D02*
X185792757Y-123058430D01*
X185792757Y-123058430D02*
X185849900Y-123001287D01*
X185849900Y-123001287D02*
X185907042Y-122972716D01*
X185907042Y-122972716D02*
X186021328Y-122972716D01*
X186021328Y-122972716D02*
X186078471Y-123001287D01*
X186078471Y-123001287D02*
X186135614Y-123058430D01*
X186135614Y-123058430D02*
X186164185Y-123172716D01*
X186164185Y-123172716D02*
X186164185Y-123372716D01*
X186164185Y-123372716D02*
X186135614Y-123487002D01*
X186135614Y-123487002D02*
X186078471Y-123544145D01*
X186078471Y-123544145D02*
X186021328Y-123572716D01*
X186021328Y-123572716D02*
X185907042Y-123572716D01*
X186735613Y-123572716D02*
X186392756Y-123572716D01*
X186564185Y-123572716D02*
X186564185Y-122972716D01*
X186564185Y-122972716D02*
X186507042Y-123058430D01*
X186507042Y-123058430D02*
X186449899Y-123115573D01*
X186449899Y-123115573D02*
X186392756Y-123144145D01*
X209596647Y-133346397D02*
X210082361Y-133346397D01*
X210082361Y-133346397D02*
X210139504Y-133317826D01*
X210139504Y-133317826D02*
X210168076Y-133289255D01*
X210168076Y-133289255D02*
X210196647Y-133232112D01*
X210196647Y-133232112D02*
X210196647Y-133117826D01*
X210196647Y-133117826D02*
X210168076Y-133060683D01*
X210168076Y-133060683D02*
X210139504Y-133032112D01*
X210139504Y-133032112D02*
X210082361Y-133003540D01*
X210082361Y-133003540D02*
X209596647Y-133003540D01*
X209796647Y-132460684D02*
X210196647Y-132460684D01*
X209568076Y-132603541D02*
X209996647Y-132746398D01*
X209996647Y-132746398D02*
X209996647Y-132374969D01*
X209582636Y-130402100D02*
X209382636Y-130116386D01*
X209239779Y-130402100D02*
X209239779Y-129802100D01*
X209239779Y-129802100D02*
X209468350Y-129802100D01*
X209468350Y-129802100D02*
X209525493Y-129830671D01*
X209525493Y-129830671D02*
X209554064Y-129859243D01*
X209554064Y-129859243D02*
X209582636Y-129916386D01*
X209582636Y-129916386D02*
X209582636Y-130002100D01*
X209582636Y-130002100D02*
X209554064Y-130059243D01*
X209554064Y-130059243D02*
X209525493Y-130087814D01*
X209525493Y-130087814D02*
X209468350Y-130116386D01*
X209468350Y-130116386D02*
X209239779Y-130116386D01*
X210154064Y-130402100D02*
X209811207Y-130402100D01*
X209982636Y-130402100D02*
X209982636Y-129802100D01*
X209982636Y-129802100D02*
X209925493Y-129887814D01*
X209925493Y-129887814D02*
X209868350Y-129944957D01*
X209868350Y-129944957D02*
X209811207Y-129973529D01*
X210354065Y-129802100D02*
X210754065Y-129802100D01*
X210754065Y-129802100D02*
X210496922Y-130402100D01*
X188477491Y-123052487D02*
X188477491Y-123538201D01*
X188477491Y-123538201D02*
X188506062Y-123595344D01*
X188506062Y-123595344D02*
X188534634Y-123623916D01*
X188534634Y-123623916D02*
X188591776Y-123652487D01*
X188591776Y-123652487D02*
X188706062Y-123652487D01*
X188706062Y-123652487D02*
X188763205Y-123623916D01*
X188763205Y-123623916D02*
X188791776Y-123595344D01*
X188791776Y-123595344D02*
X188820348Y-123538201D01*
X188820348Y-123538201D02*
X188820348Y-123052487D01*
X189077490Y-123109630D02*
X189106062Y-123081058D01*
X189106062Y-123081058D02*
X189163205Y-123052487D01*
X189163205Y-123052487D02*
X189306062Y-123052487D01*
X189306062Y-123052487D02*
X189363205Y-123081058D01*
X189363205Y-123081058D02*
X189391776Y-123109630D01*
X189391776Y-123109630D02*
X189420347Y-123166773D01*
X189420347Y-123166773D02*
X189420347Y-123223916D01*
X189420347Y-123223916D02*
X189391776Y-123309630D01*
X189391776Y-123309630D02*
X189048919Y-123652487D01*
X189048919Y-123652487D02*
X189420347Y-123652487D01*
X181864664Y-119727927D02*
X181836092Y-119756499D01*
X181836092Y-119756499D02*
X181750378Y-119785070D01*
X181750378Y-119785070D02*
X181693235Y-119785070D01*
X181693235Y-119785070D02*
X181607521Y-119756499D01*
X181607521Y-119756499D02*
X181550378Y-119699356D01*
X181550378Y-119699356D02*
X181521807Y-119642213D01*
X181521807Y-119642213D02*
X181493235Y-119527927D01*
X181493235Y-119527927D02*
X181493235Y-119442213D01*
X181493235Y-119442213D02*
X181521807Y-119327927D01*
X181521807Y-119327927D02*
X181550378Y-119270784D01*
X181550378Y-119270784D02*
X181607521Y-119213641D01*
X181607521Y-119213641D02*
X181693235Y-119185070D01*
X181693235Y-119185070D02*
X181750378Y-119185070D01*
X181750378Y-119185070D02*
X181836092Y-119213641D01*
X181836092Y-119213641D02*
X181864664Y-119242213D01*
X182378950Y-119185070D02*
X182264664Y-119185070D01*
X182264664Y-119185070D02*
X182207521Y-119213641D01*
X182207521Y-119213641D02*
X182178950Y-119242213D01*
X182178950Y-119242213D02*
X182121807Y-119327927D01*
X182121807Y-119327927D02*
X182093235Y-119442213D01*
X182093235Y-119442213D02*
X182093235Y-119670784D01*
X182093235Y-119670784D02*
X182121807Y-119727927D01*
X182121807Y-119727927D02*
X182150378Y-119756499D01*
X182150378Y-119756499D02*
X182207521Y-119785070D01*
X182207521Y-119785070D02*
X182321807Y-119785070D01*
X182321807Y-119785070D02*
X182378950Y-119756499D01*
X182378950Y-119756499D02*
X182407521Y-119727927D01*
X182407521Y-119727927D02*
X182436092Y-119670784D01*
X182436092Y-119670784D02*
X182436092Y-119527927D01*
X182436092Y-119527927D02*
X182407521Y-119470784D01*
X182407521Y-119470784D02*
X182378950Y-119442213D01*
X182378950Y-119442213D02*
X182321807Y-119413641D01*
X182321807Y-119413641D02*
X182207521Y-119413641D01*
X182207521Y-119413641D02*
X182150378Y-119442213D01*
X182150378Y-119442213D02*
X182121807Y-119470784D01*
X182121807Y-119470784D02*
X182093235Y-119527927D01*
X188124067Y-58926952D02*
X188095495Y-58955524D01*
X188095495Y-58955524D02*
X188009781Y-58984095D01*
X188009781Y-58984095D02*
X187952638Y-58984095D01*
X187952638Y-58984095D02*
X187866924Y-58955524D01*
X187866924Y-58955524D02*
X187809781Y-58898381D01*
X187809781Y-58898381D02*
X187781210Y-58841238D01*
X187781210Y-58841238D02*
X187752638Y-58726952D01*
X187752638Y-58726952D02*
X187752638Y-58641238D01*
X187752638Y-58641238D02*
X187781210Y-58526952D01*
X187781210Y-58526952D02*
X187809781Y-58469809D01*
X187809781Y-58469809D02*
X187866924Y-58412666D01*
X187866924Y-58412666D02*
X187952638Y-58384095D01*
X187952638Y-58384095D02*
X188009781Y-58384095D01*
X188009781Y-58384095D02*
X188095495Y-58412666D01*
X188095495Y-58412666D02*
X188124067Y-58441238D01*
X188352638Y-58441238D02*
X188381210Y-58412666D01*
X188381210Y-58412666D02*
X188438353Y-58384095D01*
X188438353Y-58384095D02*
X188581210Y-58384095D01*
X188581210Y-58384095D02*
X188638353Y-58412666D01*
X188638353Y-58412666D02*
X188666924Y-58441238D01*
X188666924Y-58441238D02*
X188695495Y-58498381D01*
X188695495Y-58498381D02*
X188695495Y-58555524D01*
X188695495Y-58555524D02*
X188666924Y-58641238D01*
X188666924Y-58641238D02*
X188324067Y-58984095D01*
X188324067Y-58984095D02*
X188695495Y-58984095D01*
X189066924Y-58384095D02*
X189124067Y-58384095D01*
X189124067Y-58384095D02*
X189181210Y-58412666D01*
X189181210Y-58412666D02*
X189209782Y-58441238D01*
X189209782Y-58441238D02*
X189238353Y-58498381D01*
X189238353Y-58498381D02*
X189266924Y-58612666D01*
X189266924Y-58612666D02*
X189266924Y-58755524D01*
X189266924Y-58755524D02*
X189238353Y-58869809D01*
X189238353Y-58869809D02*
X189209782Y-58926952D01*
X189209782Y-58926952D02*
X189181210Y-58955524D01*
X189181210Y-58955524D02*
X189124067Y-58984095D01*
X189124067Y-58984095D02*
X189066924Y-58984095D01*
X189066924Y-58984095D02*
X189009782Y-58955524D01*
X189009782Y-58955524D02*
X188981210Y-58926952D01*
X188981210Y-58926952D02*
X188952639Y-58869809D01*
X188952639Y-58869809D02*
X188924067Y-58755524D01*
X188924067Y-58755524D02*
X188924067Y-58612666D01*
X188924067Y-58612666D02*
X188952639Y-58498381D01*
X188952639Y-58498381D02*
X188981210Y-58441238D01*
X188981210Y-58441238D02*
X189009782Y-58412666D01*
X189009782Y-58412666D02*
X189066924Y-58384095D01*
X201323768Y-119158518D02*
X201295196Y-119187090D01*
X201295196Y-119187090D02*
X201209482Y-119215661D01*
X201209482Y-119215661D02*
X201152339Y-119215661D01*
X201152339Y-119215661D02*
X201066625Y-119187090D01*
X201066625Y-119187090D02*
X201009482Y-119129947D01*
X201009482Y-119129947D02*
X200980911Y-119072804D01*
X200980911Y-119072804D02*
X200952339Y-118958518D01*
X200952339Y-118958518D02*
X200952339Y-118872804D01*
X200952339Y-118872804D02*
X200980911Y-118758518D01*
X200980911Y-118758518D02*
X201009482Y-118701375D01*
X201009482Y-118701375D02*
X201066625Y-118644232D01*
X201066625Y-118644232D02*
X201152339Y-118615661D01*
X201152339Y-118615661D02*
X201209482Y-118615661D01*
X201209482Y-118615661D02*
X201295196Y-118644232D01*
X201295196Y-118644232D02*
X201323768Y-118672804D01*
X201552339Y-118672804D02*
X201580911Y-118644232D01*
X201580911Y-118644232D02*
X201638054Y-118615661D01*
X201638054Y-118615661D02*
X201780911Y-118615661D01*
X201780911Y-118615661D02*
X201838054Y-118644232D01*
X201838054Y-118644232D02*
X201866625Y-118672804D01*
X201866625Y-118672804D02*
X201895196Y-118729947D01*
X201895196Y-118729947D02*
X201895196Y-118787090D01*
X201895196Y-118787090D02*
X201866625Y-118872804D01*
X201866625Y-118872804D02*
X201523768Y-119215661D01*
X201523768Y-119215661D02*
X201895196Y-119215661D01*
X202180911Y-119215661D02*
X202295197Y-119215661D01*
X202295197Y-119215661D02*
X202352340Y-119187090D01*
X202352340Y-119187090D02*
X202380911Y-119158518D01*
X202380911Y-119158518D02*
X202438054Y-119072804D01*
X202438054Y-119072804D02*
X202466625Y-118958518D01*
X202466625Y-118958518D02*
X202466625Y-118729947D01*
X202466625Y-118729947D02*
X202438054Y-118672804D01*
X202438054Y-118672804D02*
X202409483Y-118644232D01*
X202409483Y-118644232D02*
X202352340Y-118615661D01*
X202352340Y-118615661D02*
X202238054Y-118615661D01*
X202238054Y-118615661D02*
X202180911Y-118644232D01*
X202180911Y-118644232D02*
X202152340Y-118672804D01*
X202152340Y-118672804D02*
X202123768Y-118729947D01*
X202123768Y-118729947D02*
X202123768Y-118872804D01*
X202123768Y-118872804D02*
X202152340Y-118929947D01*
X202152340Y-118929947D02*
X202180911Y-118958518D01*
X202180911Y-118958518D02*
X202238054Y-118987090D01*
X202238054Y-118987090D02*
X202352340Y-118987090D01*
X202352340Y-118987090D02*
X202409483Y-118958518D01*
X202409483Y-118958518D02*
X202438054Y-118929947D01*
X202438054Y-118929947D02*
X202466625Y-118872804D01*
X173205111Y-132069142D02*
X173176539Y-132097714D01*
X173176539Y-132097714D02*
X173090825Y-132126285D01*
X173090825Y-132126285D02*
X173033682Y-132126285D01*
X173033682Y-132126285D02*
X172947968Y-132097714D01*
X172947968Y-132097714D02*
X172890825Y-132040571D01*
X172890825Y-132040571D02*
X172862254Y-131983428D01*
X172862254Y-131983428D02*
X172833682Y-131869142D01*
X172833682Y-131869142D02*
X172833682Y-131783428D01*
X172833682Y-131783428D02*
X172862254Y-131669142D01*
X172862254Y-131669142D02*
X172890825Y-131611999D01*
X172890825Y-131611999D02*
X172947968Y-131554856D01*
X172947968Y-131554856D02*
X173033682Y-131526285D01*
X173033682Y-131526285D02*
X173090825Y-131526285D01*
X173090825Y-131526285D02*
X173176539Y-131554856D01*
X173176539Y-131554856D02*
X173205111Y-131583428D01*
X173776539Y-132126285D02*
X173433682Y-132126285D01*
X173605111Y-132126285D02*
X173605111Y-131526285D01*
X173605111Y-131526285D02*
X173547968Y-131611999D01*
X173547968Y-131611999D02*
X173490825Y-131669142D01*
X173490825Y-131669142D02*
X173433682Y-131697714D01*
X174290826Y-131526285D02*
X174176540Y-131526285D01*
X174176540Y-131526285D02*
X174119397Y-131554856D01*
X174119397Y-131554856D02*
X174090826Y-131583428D01*
X174090826Y-131583428D02*
X174033683Y-131669142D01*
X174033683Y-131669142D02*
X174005111Y-131783428D01*
X174005111Y-131783428D02*
X174005111Y-132011999D01*
X174005111Y-132011999D02*
X174033683Y-132069142D01*
X174033683Y-132069142D02*
X174062254Y-132097714D01*
X174062254Y-132097714D02*
X174119397Y-132126285D01*
X174119397Y-132126285D02*
X174233683Y-132126285D01*
X174233683Y-132126285D02*
X174290826Y-132097714D01*
X174290826Y-132097714D02*
X174319397Y-132069142D01*
X174319397Y-132069142D02*
X174347968Y-132011999D01*
X174347968Y-132011999D02*
X174347968Y-131869142D01*
X174347968Y-131869142D02*
X174319397Y-131811999D01*
X174319397Y-131811999D02*
X174290826Y-131783428D01*
X174290826Y-131783428D02*
X174233683Y-131754856D01*
X174233683Y-131754856D02*
X174119397Y-131754856D01*
X174119397Y-131754856D02*
X174062254Y-131783428D01*
X174062254Y-131783428D02*
X174033683Y-131811999D01*
X174033683Y-131811999D02*
X174005111Y-131869142D01*
X193814170Y-139190881D02*
X193914170Y-139224214D01*
X193914170Y-139224214D02*
X194080837Y-139224214D01*
X194080837Y-139224214D02*
X194147503Y-139190881D01*
X194147503Y-139190881D02*
X194180837Y-139157547D01*
X194180837Y-139157547D02*
X194214170Y-139090881D01*
X194214170Y-139090881D02*
X194214170Y-139024214D01*
X194214170Y-139024214D02*
X194180837Y-138957547D01*
X194180837Y-138957547D02*
X194147503Y-138924214D01*
X194147503Y-138924214D02*
X194080837Y-138890881D01*
X194080837Y-138890881D02*
X193947503Y-138857547D01*
X193947503Y-138857547D02*
X193880837Y-138824214D01*
X193880837Y-138824214D02*
X193847503Y-138790881D01*
X193847503Y-138790881D02*
X193814170Y-138724214D01*
X193814170Y-138724214D02*
X193814170Y-138657547D01*
X193814170Y-138657547D02*
X193847503Y-138590881D01*
X193847503Y-138590881D02*
X193880837Y-138557547D01*
X193880837Y-138557547D02*
X193947503Y-138524214D01*
X193947503Y-138524214D02*
X194114170Y-138524214D01*
X194114170Y-138524214D02*
X194214170Y-138557547D01*
X194447504Y-138524214D02*
X194614170Y-139224214D01*
X194614170Y-139224214D02*
X194747504Y-138724214D01*
X194747504Y-138724214D02*
X194880837Y-139224214D01*
X194880837Y-139224214D02*
X195047504Y-138524214D01*
X195280837Y-138590881D02*
X195314170Y-138557547D01*
X195314170Y-138557547D02*
X195380837Y-138524214D01*
X195380837Y-138524214D02*
X195547504Y-138524214D01*
X195547504Y-138524214D02*
X195614170Y-138557547D01*
X195614170Y-138557547D02*
X195647504Y-138590881D01*
X195647504Y-138590881D02*
X195680837Y-138657547D01*
X195680837Y-138657547D02*
X195680837Y-138724214D01*
X195680837Y-138724214D02*
X195647504Y-138824214D01*
X195647504Y-138824214D02*
X195247504Y-139224214D01*
X195247504Y-139224214D02*
X195680837Y-139224214D01*
X172678534Y-126154091D02*
X172478534Y-125868377D01*
X172335677Y-126154091D02*
X172335677Y-125554091D01*
X172335677Y-125554091D02*
X172564248Y-125554091D01*
X172564248Y-125554091D02*
X172621391Y-125582662D01*
X172621391Y-125582662D02*
X172649962Y-125611234D01*
X172649962Y-125611234D02*
X172678534Y-125668377D01*
X172678534Y-125668377D02*
X172678534Y-125754091D01*
X172678534Y-125754091D02*
X172649962Y-125811234D01*
X172649962Y-125811234D02*
X172621391Y-125839805D01*
X172621391Y-125839805D02*
X172564248Y-125868377D01*
X172564248Y-125868377D02*
X172335677Y-125868377D01*
X173192820Y-125754091D02*
X173192820Y-126154091D01*
X173049962Y-125525520D02*
X172907105Y-125954091D01*
X172907105Y-125954091D02*
X173278534Y-125954091D01*
X176948345Y-124292092D02*
X176919773Y-124320664D01*
X176919773Y-124320664D02*
X176834059Y-124349235D01*
X176834059Y-124349235D02*
X176776916Y-124349235D01*
X176776916Y-124349235D02*
X176691202Y-124320664D01*
X176691202Y-124320664D02*
X176634059Y-124263521D01*
X176634059Y-124263521D02*
X176605488Y-124206378D01*
X176605488Y-124206378D02*
X176576916Y-124092092D01*
X176576916Y-124092092D02*
X176576916Y-124006378D01*
X176576916Y-124006378D02*
X176605488Y-123892092D01*
X176605488Y-123892092D02*
X176634059Y-123834949D01*
X176634059Y-123834949D02*
X176691202Y-123777806D01*
X176691202Y-123777806D02*
X176776916Y-123749235D01*
X176776916Y-123749235D02*
X176834059Y-123749235D01*
X176834059Y-123749235D02*
X176919773Y-123777806D01*
X176919773Y-123777806D02*
X176948345Y-123806378D01*
X177462631Y-123949235D02*
X177462631Y-124349235D01*
X177319773Y-123720664D02*
X177176916Y-124149235D01*
X177176916Y-124149235D02*
X177548345Y-124149235D01*
X214255962Y-141217825D02*
X214055962Y-140932111D01*
X213913105Y-141217825D02*
X213913105Y-140617825D01*
X213913105Y-140617825D02*
X214141676Y-140617825D01*
X214141676Y-140617825D02*
X214198819Y-140646396D01*
X214198819Y-140646396D02*
X214227390Y-140674968D01*
X214227390Y-140674968D02*
X214255962Y-140732111D01*
X214255962Y-140732111D02*
X214255962Y-140817825D01*
X214255962Y-140817825D02*
X214227390Y-140874968D01*
X214227390Y-140874968D02*
X214198819Y-140903539D01*
X214198819Y-140903539D02*
X214141676Y-140932111D01*
X214141676Y-140932111D02*
X213913105Y-140932111D01*
X214455962Y-140617825D02*
X214827390Y-140617825D01*
X214827390Y-140617825D02*
X214627390Y-140846396D01*
X214627390Y-140846396D02*
X214713105Y-140846396D01*
X214713105Y-140846396D02*
X214770248Y-140874968D01*
X214770248Y-140874968D02*
X214798819Y-140903539D01*
X214798819Y-140903539D02*
X214827390Y-140960682D01*
X214827390Y-140960682D02*
X214827390Y-141103539D01*
X214827390Y-141103539D02*
X214798819Y-141160682D01*
X214798819Y-141160682D02*
X214770248Y-141189254D01*
X214770248Y-141189254D02*
X214713105Y-141217825D01*
X214713105Y-141217825D02*
X214541676Y-141217825D01*
X214541676Y-141217825D02*
X214484533Y-141189254D01*
X214484533Y-141189254D02*
X214455962Y-141160682D01*
X226250787Y-139622946D02*
X226050787Y-139337232D01*
X225907930Y-139622946D02*
X225907930Y-139022946D01*
X225907930Y-139022946D02*
X226136501Y-139022946D01*
X226136501Y-139022946D02*
X226193644Y-139051517D01*
X226193644Y-139051517D02*
X226222215Y-139080089D01*
X226222215Y-139080089D02*
X226250787Y-139137232D01*
X226250787Y-139137232D02*
X226250787Y-139222946D01*
X226250787Y-139222946D02*
X226222215Y-139280089D01*
X226222215Y-139280089D02*
X226193644Y-139308660D01*
X226193644Y-139308660D02*
X226136501Y-139337232D01*
X226136501Y-139337232D02*
X225907930Y-139337232D01*
X226822215Y-139622946D02*
X226479358Y-139622946D01*
X226650787Y-139622946D02*
X226650787Y-139022946D01*
X226650787Y-139022946D02*
X226593644Y-139108660D01*
X226593644Y-139108660D02*
X226536501Y-139165803D01*
X226536501Y-139165803D02*
X226479358Y-139194375D01*
X227336502Y-139022946D02*
X227222216Y-139022946D01*
X227222216Y-139022946D02*
X227165073Y-139051517D01*
X227165073Y-139051517D02*
X227136502Y-139080089D01*
X227136502Y-139080089D02*
X227079359Y-139165803D01*
X227079359Y-139165803D02*
X227050787Y-139280089D01*
X227050787Y-139280089D02*
X227050787Y-139508660D01*
X227050787Y-139508660D02*
X227079359Y-139565803D01*
X227079359Y-139565803D02*
X227107930Y-139594375D01*
X227107930Y-139594375D02*
X227165073Y-139622946D01*
X227165073Y-139622946D02*
X227279359Y-139622946D01*
X227279359Y-139622946D02*
X227336502Y-139594375D01*
X227336502Y-139594375D02*
X227365073Y-139565803D01*
X227365073Y-139565803D02*
X227393644Y-139508660D01*
X227393644Y-139508660D02*
X227393644Y-139365803D01*
X227393644Y-139365803D02*
X227365073Y-139308660D01*
X227365073Y-139308660D02*
X227336502Y-139280089D01*
X227336502Y-139280089D02*
X227279359Y-139251517D01*
X227279359Y-139251517D02*
X227165073Y-139251517D01*
X227165073Y-139251517D02*
X227107930Y-139280089D01*
X227107930Y-139280089D02*
X227079359Y-139308660D01*
X227079359Y-139308660D02*
X227050787Y-139365803D01*
X170666667Y-107159800D02*
X170809524Y-107207419D01*
X170809524Y-107207419D02*
X171047619Y-107207419D01*
X171047619Y-107207419D02*
X171142857Y-107159800D01*
X171142857Y-107159800D02*
X171190476Y-107112180D01*
X171190476Y-107112180D02*
X171238095Y-107016942D01*
X171238095Y-107016942D02*
X171238095Y-106921704D01*
X171238095Y-106921704D02*
X171190476Y-106826466D01*
X171190476Y-106826466D02*
X171142857Y-106778847D01*
X171142857Y-106778847D02*
X171047619Y-106731228D01*
X171047619Y-106731228D02*
X170857143Y-106683609D01*
X170857143Y-106683609D02*
X170761905Y-106635990D01*
X170761905Y-106635990D02*
X170714286Y-106588371D01*
X170714286Y-106588371D02*
X170666667Y-106493133D01*
X170666667Y-106493133D02*
X170666667Y-106397895D01*
X170666667Y-106397895D02*
X170714286Y-106302657D01*
X170714286Y-106302657D02*
X170761905Y-106255038D01*
X170761905Y-106255038D02*
X170857143Y-106207419D01*
X170857143Y-106207419D02*
X171095238Y-106207419D01*
X171095238Y-106207419D02*
X171238095Y-106255038D01*
X171571429Y-106207419D02*
X171809524Y-107207419D01*
X171809524Y-107207419D02*
X172000000Y-106493133D01*
X172000000Y-106493133D02*
X172190476Y-107207419D01*
X172190476Y-107207419D02*
X172428572Y-106207419D01*
X173333333Y-107207419D02*
X172761905Y-107207419D01*
X173047619Y-107207419D02*
X173047619Y-106207419D01*
X173047619Y-106207419D02*
X172952381Y-106350276D01*
X172952381Y-106350276D02*
X172857143Y-106445514D01*
X172857143Y-106445514D02*
X172761905Y-106493133D01*
X210057742Y-124461785D02*
X210057742Y-124947499D01*
X210057742Y-124947499D02*
X210086313Y-125004642D01*
X210086313Y-125004642D02*
X210114885Y-125033214D01*
X210114885Y-125033214D02*
X210172027Y-125061785D01*
X210172027Y-125061785D02*
X210286313Y-125061785D01*
X210286313Y-125061785D02*
X210343456Y-125033214D01*
X210343456Y-125033214D02*
X210372027Y-125004642D01*
X210372027Y-125004642D02*
X210400599Y-124947499D01*
X210400599Y-124947499D02*
X210400599Y-124461785D01*
X210943456Y-124461785D02*
X210829170Y-124461785D01*
X210829170Y-124461785D02*
X210772027Y-124490356D01*
X210772027Y-124490356D02*
X210743456Y-124518928D01*
X210743456Y-124518928D02*
X210686313Y-124604642D01*
X210686313Y-124604642D02*
X210657741Y-124718928D01*
X210657741Y-124718928D02*
X210657741Y-124947499D01*
X210657741Y-124947499D02*
X210686313Y-125004642D01*
X210686313Y-125004642D02*
X210714884Y-125033214D01*
X210714884Y-125033214D02*
X210772027Y-125061785D01*
X210772027Y-125061785D02*
X210886313Y-125061785D01*
X210886313Y-125061785D02*
X210943456Y-125033214D01*
X210943456Y-125033214D02*
X210972027Y-125004642D01*
X210972027Y-125004642D02*
X211000598Y-124947499D01*
X211000598Y-124947499D02*
X211000598Y-124804642D01*
X211000598Y-124804642D02*
X210972027Y-124747499D01*
X210972027Y-124747499D02*
X210943456Y-124718928D01*
X210943456Y-124718928D02*
X210886313Y-124690356D01*
X210886313Y-124690356D02*
X210772027Y-124690356D01*
X210772027Y-124690356D02*
X210714884Y-124718928D01*
X210714884Y-124718928D02*
X210686313Y-124747499D01*
X210686313Y-124747499D02*
X210657741Y-124804642D01*
X164670058Y-141377868D02*
X164670058Y-141806439D01*
X164670058Y-141806439D02*
X164641487Y-141892154D01*
X164641487Y-141892154D02*
X164584344Y-141949297D01*
X164584344Y-141949297D02*
X164498630Y-141977868D01*
X164498630Y-141977868D02*
X164441487Y-141977868D01*
X165270058Y-141977868D02*
X164927201Y-141977868D01*
X165098630Y-141977868D02*
X165098630Y-141377868D01*
X165098630Y-141377868D02*
X165041487Y-141463582D01*
X165041487Y-141463582D02*
X164984344Y-141520725D01*
X164984344Y-141520725D02*
X164927201Y-141549297D01*
X191588090Y-130723198D02*
X191388090Y-130437484D01*
X191245233Y-130723198D02*
X191245233Y-130123198D01*
X191245233Y-130123198D02*
X191473804Y-130123198D01*
X191473804Y-130123198D02*
X191530947Y-130151769D01*
X191530947Y-130151769D02*
X191559518Y-130180341D01*
X191559518Y-130180341D02*
X191588090Y-130237484D01*
X191588090Y-130237484D02*
X191588090Y-130323198D01*
X191588090Y-130323198D02*
X191559518Y-130380341D01*
X191559518Y-130380341D02*
X191530947Y-130408912D01*
X191530947Y-130408912D02*
X191473804Y-130437484D01*
X191473804Y-130437484D02*
X191245233Y-130437484D01*
X191816661Y-130180341D02*
X191845233Y-130151769D01*
X191845233Y-130151769D02*
X191902376Y-130123198D01*
X191902376Y-130123198D02*
X192045233Y-130123198D01*
X192045233Y-130123198D02*
X192102376Y-130151769D01*
X192102376Y-130151769D02*
X192130947Y-130180341D01*
X192130947Y-130180341D02*
X192159518Y-130237484D01*
X192159518Y-130237484D02*
X192159518Y-130294627D01*
X192159518Y-130294627D02*
X192130947Y-130380341D01*
X192130947Y-130380341D02*
X191788090Y-130723198D01*
X191788090Y-130723198D02*
X192159518Y-130723198D01*
X192502376Y-130380341D02*
X192445233Y-130351769D01*
X192445233Y-130351769D02*
X192416662Y-130323198D01*
X192416662Y-130323198D02*
X192388090Y-130266055D01*
X192388090Y-130266055D02*
X192388090Y-130237484D01*
X192388090Y-130237484D02*
X192416662Y-130180341D01*
X192416662Y-130180341D02*
X192445233Y-130151769D01*
X192445233Y-130151769D02*
X192502376Y-130123198D01*
X192502376Y-130123198D02*
X192616662Y-130123198D01*
X192616662Y-130123198D02*
X192673805Y-130151769D01*
X192673805Y-130151769D02*
X192702376Y-130180341D01*
X192702376Y-130180341D02*
X192730947Y-130237484D01*
X192730947Y-130237484D02*
X192730947Y-130266055D01*
X192730947Y-130266055D02*
X192702376Y-130323198D01*
X192702376Y-130323198D02*
X192673805Y-130351769D01*
X192673805Y-130351769D02*
X192616662Y-130380341D01*
X192616662Y-130380341D02*
X192502376Y-130380341D01*
X192502376Y-130380341D02*
X192445233Y-130408912D01*
X192445233Y-130408912D02*
X192416662Y-130437484D01*
X192416662Y-130437484D02*
X192388090Y-130494627D01*
X192388090Y-130494627D02*
X192388090Y-130608912D01*
X192388090Y-130608912D02*
X192416662Y-130666055D01*
X192416662Y-130666055D02*
X192445233Y-130694627D01*
X192445233Y-130694627D02*
X192502376Y-130723198D01*
X192502376Y-130723198D02*
X192616662Y-130723198D01*
X192616662Y-130723198D02*
X192673805Y-130694627D01*
X192673805Y-130694627D02*
X192702376Y-130666055D01*
X192702376Y-130666055D02*
X192730947Y-130608912D01*
X192730947Y-130608912D02*
X192730947Y-130494627D01*
X192730947Y-130494627D02*
X192702376Y-130437484D01*
X192702376Y-130437484D02*
X192673805Y-130408912D01*
X192673805Y-130408912D02*
X192616662Y-130380341D01*
X178869164Y-129913613D02*
X178840592Y-129942185D01*
X178840592Y-129942185D02*
X178754878Y-129970756D01*
X178754878Y-129970756D02*
X178697735Y-129970756D01*
X178697735Y-129970756D02*
X178612021Y-129942185D01*
X178612021Y-129942185D02*
X178554878Y-129885042D01*
X178554878Y-129885042D02*
X178526307Y-129827899D01*
X178526307Y-129827899D02*
X178497735Y-129713613D01*
X178497735Y-129713613D02*
X178497735Y-129627899D01*
X178497735Y-129627899D02*
X178526307Y-129513613D01*
X178526307Y-129513613D02*
X178554878Y-129456470D01*
X178554878Y-129456470D02*
X178612021Y-129399327D01*
X178612021Y-129399327D02*
X178697735Y-129370756D01*
X178697735Y-129370756D02*
X178754878Y-129370756D01*
X178754878Y-129370756D02*
X178840592Y-129399327D01*
X178840592Y-129399327D02*
X178869164Y-129427899D01*
X179097735Y-129427899D02*
X179126307Y-129399327D01*
X179126307Y-129399327D02*
X179183450Y-129370756D01*
X179183450Y-129370756D02*
X179326307Y-129370756D01*
X179326307Y-129370756D02*
X179383450Y-129399327D01*
X179383450Y-129399327D02*
X179412021Y-129427899D01*
X179412021Y-129427899D02*
X179440592Y-129485042D01*
X179440592Y-129485042D02*
X179440592Y-129542185D01*
X179440592Y-129542185D02*
X179412021Y-129627899D01*
X179412021Y-129627899D02*
X179069164Y-129970756D01*
X179069164Y-129970756D02*
X179440592Y-129970756D01*
D14*
%TO.C,D305*%
X162574252Y-82881802D02*
X165414252Y-82881802D01*
X162574252Y-85181802D02*
X165414252Y-85181802D01*
D15*
X164354252Y-82964302D02*
X164354252Y-85091802D01*
D14*
%TO.C,D318*%
X170574252Y-77881802D02*
X173414252Y-77881802D01*
X170574252Y-80181802D02*
X173414252Y-80181802D01*
D15*
X172354252Y-77964302D02*
X172354252Y-80091802D01*
D14*
%TO.C,C28*%
X218981969Y-137705057D02*
X218981969Y-137423897D01*
X220001969Y-137705057D02*
X220001969Y-137423897D01*
%TO.C,D313*%
X166574252Y-87881802D02*
X169414252Y-87881802D01*
X166574252Y-90181802D02*
X169414252Y-90181802D01*
D15*
X168354252Y-87964302D02*
X168354252Y-90091802D01*
D14*
%TO.C,D322*%
X174574252Y-62881802D02*
X177414252Y-62881802D01*
X174574252Y-65181802D02*
X177414252Y-65181802D01*
D15*
X176354252Y-62964302D02*
X176354252Y-65091802D01*
D14*
%TO.C,D383*%
X206574252Y-87881802D02*
X209414252Y-87881802D01*
X206574252Y-90181802D02*
X209414252Y-90181802D01*
D15*
X208354252Y-87964302D02*
X208354252Y-90091802D01*
D14*
%TO.C,D339*%
X182574252Y-77881802D02*
X185414252Y-77881802D01*
X182574252Y-80181802D02*
X185414252Y-80181802D01*
D15*
X184354252Y-77964302D02*
X184354252Y-80091802D01*
D14*
%TO.C,C7*%
X188402809Y-121539601D02*
X188402809Y-121258441D01*
X189422809Y-121539601D02*
X189422809Y-121258441D01*
%TO.C,D379*%
X206574252Y-67881802D02*
X209414252Y-67881802D01*
X206574252Y-70181802D02*
X209414252Y-70181802D01*
D15*
X208354252Y-67964302D02*
X208354252Y-70091802D01*
%TO.C,L1*%
D13*
X204551167Y-143294455D02*
X211151167Y-143294455D01*
X211151167Y-136194455D01*
X204551167Y-136194455D01*
X204551167Y-143294455D01*
D14*
%TO.C,D362*%
X194574252Y-87881802D02*
X197414252Y-87881802D01*
X194574252Y-90181802D02*
X197414252Y-90181802D01*
D15*
X196354252Y-87964302D02*
X196354252Y-90091802D01*
D14*
%TO.C,D302*%
X162574252Y-67881802D02*
X165414252Y-67881802D01*
X162574252Y-70181802D02*
X165414252Y-70181802D01*
D15*
X164354252Y-67964302D02*
X164354252Y-70091802D01*
D14*
%TO.C,D342*%
X182574252Y-92881802D02*
X185414252Y-92881802D01*
X182574252Y-95181802D02*
X185414252Y-95181802D01*
D15*
X184354252Y-92964302D02*
X184354252Y-95091802D01*
D14*
%TO.C,D328*%
X174574252Y-92881802D02*
X177414252Y-92881802D01*
X174574252Y-95181802D02*
X177414252Y-95181802D01*
D15*
X176354252Y-92964302D02*
X176354252Y-95091802D01*
D14*
%TO.C,D369*%
X198574252Y-87881802D02*
X201414252Y-87881802D01*
X198574252Y-90181802D02*
X201414252Y-90181802D01*
D15*
X200354252Y-87964302D02*
X200354252Y-90091802D01*
D14*
%TO.C,D349*%
X186574252Y-92881802D02*
X189414252Y-92881802D01*
X186574252Y-95181802D02*
X189414252Y-95181802D01*
D15*
X188354252Y-92964302D02*
X188354252Y-95091802D01*
%TO.C,SW8*%
D10*
X155079563Y-125695133D02*
X157579563Y-125695133D01*
X157579563Y-124195133D01*
X155079563Y-124195133D01*
X155079563Y-125695133D01*
X157579563Y-129345133D02*
X161279563Y-129345133D01*
X161279563Y-120545133D01*
X157579563Y-120545133D01*
X157579563Y-129345133D01*
D14*
%TO.C,D400*%
X218574252Y-67881802D02*
X221414252Y-67881802D01*
X218574252Y-70181802D02*
X221414252Y-70181802D01*
D15*
X220354252Y-67964302D02*
X220354252Y-70091802D01*
D14*
%TO.C,D372*%
X202574252Y-67881802D02*
X205414252Y-67881802D01*
X202574252Y-70181802D02*
X205414252Y-70181802D01*
D15*
X204354252Y-67964302D02*
X204354252Y-70091802D01*
D14*
%TO.C,R5*%
X166462464Y-130621599D02*
X166462464Y-130147083D01*
X167507464Y-130621599D02*
X167507464Y-130147083D01*
%TO.C,R6*%
X165599180Y-139040126D02*
X165599180Y-139514642D01*
X166644180Y-139040126D02*
X166644180Y-139514642D01*
%TO.C,C9*%
X183000141Y-121546203D02*
X183000141Y-121265043D01*
X184020141Y-121546203D02*
X184020141Y-121265043D01*
%TO.C,D343*%
X186574252Y-62881802D02*
X189414252Y-62881802D01*
X186574252Y-65181802D02*
X189414252Y-65181802D01*
D15*
X188354252Y-62964302D02*
X188354252Y-65091802D01*
D14*
%TO.C,D309*%
X166574252Y-67881802D02*
X169414252Y-67881802D01*
X166574252Y-70181802D02*
X169414252Y-70181802D01*
D15*
X168354252Y-67964302D02*
X168354252Y-70091802D01*
D14*
%TO.C,C8*%
X182211428Y-134273252D02*
X182211428Y-134554412D01*
X183231428Y-134273252D02*
X183231428Y-134554412D01*
%TO.C,D307*%
X162574252Y-92881802D02*
X165414252Y-92881802D01*
X162574252Y-95181802D02*
X165414252Y-95181802D01*
D15*
X164354252Y-92964302D02*
X164354252Y-95091802D01*
D14*
%TO.C,D333*%
X178574252Y-82881802D02*
X181414252Y-82881802D01*
X178574252Y-85181802D02*
X181414252Y-85181802D01*
D15*
X180354252Y-82964302D02*
X180354252Y-85091802D01*
D14*
%TO.C,D304*%
X162574252Y-77881802D02*
X165414252Y-77881802D01*
X162574252Y-80181802D02*
X165414252Y-80181802D01*
D15*
X164354252Y-77964302D02*
X164354252Y-80091802D01*
D14*
%TO.C,D346*%
X186574252Y-77881802D02*
X189414252Y-77881802D01*
X186574252Y-80181802D02*
X189414252Y-80181802D01*
D15*
X188354252Y-77964302D02*
X188354252Y-80091802D01*
D14*
%TO.C,D340*%
X182574252Y-82881802D02*
X185414252Y-82881802D01*
X182574252Y-85181802D02*
X185414252Y-85181802D01*
D15*
X184354252Y-82964302D02*
X184354252Y-85091802D01*
D14*
%TO.C,D401*%
X218574252Y-72881802D02*
X221414252Y-72881802D01*
X218574252Y-75181802D02*
X221414252Y-75181802D01*
D15*
X220354252Y-72964302D02*
X220354252Y-75091802D01*
D14*
%TO.C,D345*%
X186574252Y-72881802D02*
X189414252Y-72881802D01*
X186574252Y-75181802D02*
X189414252Y-75181802D01*
D15*
X188354252Y-72964302D02*
X188354252Y-75091802D01*
D14*
%TO.C,D327*%
X174574252Y-87881802D02*
X177414252Y-87881802D01*
X174574252Y-90181802D02*
X177414252Y-90181802D01*
D15*
X176354252Y-87964302D02*
X176354252Y-90091802D01*
D16*
%TO.C,U5*%
X223145556Y-135380143D02*
X223145556Y-136929543D01*
X225609356Y-136929543D02*
X225609356Y-135380143D01*
X225229245Y-134448217D02*
G75*
G02*
X225026045Y-134448217I-101600J0D01*
G01*
X225026045Y-134448217D02*
G75*
G02*
X225229245Y-134448217I101600J0D01*
G01*
D14*
%TO.C,R27*%
X172935310Y-141008601D02*
X172935310Y-140534085D01*
X173980310Y-141008601D02*
X173980310Y-140534085D01*
%TO.C,C24*%
X216065317Y-132316766D02*
X216065317Y-132839270D01*
X217535317Y-132316766D02*
X217535317Y-132839270D01*
%TO.C,R10*%
X191697400Y-122319767D02*
X192171916Y-122319767D01*
X191697400Y-123364767D02*
X192171916Y-123364767D01*
%TO.C,D356*%
X190574252Y-92881802D02*
X193414252Y-92881802D01*
X190574252Y-95181802D02*
X193414252Y-95181802D01*
D15*
X192354252Y-92964302D02*
X192354252Y-95091802D01*
D14*
%TO.C,C30*%
X201069182Y-125490534D02*
X201069182Y-126013038D01*
X202539182Y-125490534D02*
X202539182Y-126013038D01*
%TO.C,U3*%
X178675823Y-118187933D02*
X177875823Y-118187933D01*
X178675823Y-118187933D02*
X179475823Y-118187933D01*
X178675823Y-121307933D02*
X177875823Y-121307933D01*
X178675823Y-121307933D02*
X179475823Y-121307933D01*
X180215823Y-121587933D02*
X179735823Y-121587933D01*
X179975823Y-121257933D01*
X180215823Y-121587933D01*
G36*
X180215823Y-121587933D02*
G01*
X179735823Y-121587933D01*
X179975823Y-121257933D01*
X180215823Y-121587933D01*
G37*
%TO.C,D390*%
X210574252Y-87881802D02*
X213414252Y-87881802D01*
X210574252Y-90181802D02*
X213414252Y-90181802D01*
D15*
X212354252Y-87964302D02*
X212354252Y-90091802D01*
D14*
%TO.C,R13*%
X191687176Y-123988216D02*
X192161692Y-123988216D01*
X191687176Y-125033216D02*
X192161692Y-125033216D01*
%TO.C,D364*%
X198574252Y-62881802D02*
X201414252Y-62881802D01*
X198574252Y-65181802D02*
X201414252Y-65181802D01*
D15*
X200354252Y-62964302D02*
X200354252Y-65091802D01*
D14*
%TO.C,D378*%
X206574252Y-62881802D02*
X209414252Y-62881802D01*
X206574252Y-65181802D02*
X209414252Y-65181802D01*
D15*
X208354252Y-62964302D02*
X208354252Y-65091802D01*
D14*
%TO.C,D310*%
X166574252Y-72881802D02*
X169414252Y-72881802D01*
X166574252Y-75181802D02*
X169414252Y-75181802D01*
D15*
X168354252Y-72964302D02*
X168354252Y-75091802D01*
D14*
%TO.C,D1*%
X158596133Y-146200039D02*
X161281133Y-146200039D01*
X161281133Y-144280039D02*
X158596133Y-144280039D01*
X161281133Y-146200039D02*
X161281133Y-144280039D01*
%TO.C,D329*%
X178574252Y-62881802D02*
X181414252Y-62881802D01*
X178574252Y-65181802D02*
X181414252Y-65181802D01*
D15*
X180354252Y-62964302D02*
X180354252Y-65091802D01*
D14*
%TO.C,D384*%
X206574252Y-92881802D02*
X209414252Y-92881802D01*
X206574252Y-95181802D02*
X209414252Y-95181802D01*
D15*
X208354252Y-92964302D02*
X208354252Y-95091802D01*
D14*
%TO.C,R2*%
X214159341Y-143250381D02*
X214633857Y-143250381D01*
X214159341Y-144295381D02*
X214633857Y-144295381D01*
%TO.C,D358*%
X194574252Y-67881802D02*
X197414252Y-67881802D01*
X194574252Y-70181802D02*
X197414252Y-70181802D01*
D15*
X196354252Y-67964302D02*
X196354252Y-70091802D01*
D14*
%TO.C,C14*%
X193776637Y-128643551D02*
X193776637Y-128362391D01*
X194796637Y-128643551D02*
X194796637Y-128362391D01*
%TO.C,U7*%
X174677496Y-134903532D02*
X174937496Y-134903532D01*
X174677496Y-137628532D02*
X174677496Y-134903532D01*
X174677496Y-137628532D02*
X174677496Y-140353532D01*
X174677496Y-140353532D02*
X174937496Y-140353532D01*
X180127496Y-134903532D02*
X179867496Y-134903532D01*
X180127496Y-137628532D02*
X180127496Y-134903532D01*
X180127496Y-137628532D02*
X180127496Y-140353532D01*
X180127496Y-140353532D02*
X179867496Y-140353532D01*
X174937496Y-141136032D02*
X174607496Y-141376032D01*
X174607496Y-140896032D01*
X174937496Y-141136032D01*
G36*
X174937496Y-141136032D02*
G01*
X174607496Y-141376032D01*
X174607496Y-140896032D01*
X174937496Y-141136032D01*
G37*
%TO.C,D353*%
X190574252Y-77881802D02*
X193414252Y-77881802D01*
X190574252Y-80181802D02*
X193414252Y-80181802D01*
D15*
X192354252Y-77964302D02*
X192354252Y-80091802D01*
D14*
%TO.C,D376*%
X202574252Y-87881802D02*
X205414252Y-87881802D01*
X202574252Y-90181802D02*
X205414252Y-90181802D01*
D15*
X204354252Y-87964302D02*
X204354252Y-90091802D01*
D14*
%TO.C,D363*%
X194574252Y-92881802D02*
X197414252Y-92881802D01*
X194574252Y-95181802D02*
X197414252Y-95181802D01*
D15*
X196354252Y-92964302D02*
X196354252Y-95091802D01*
D14*
%TO.C,C27*%
X220295310Y-132216772D02*
X220295310Y-132497932D01*
X221315310Y-132216772D02*
X221315310Y-132497932D01*
%TO.C,C1*%
X191791984Y-125674913D02*
X192073144Y-125674913D01*
X191791984Y-126694913D02*
X192073144Y-126694913D01*
%TO.C,D2*%
X158585596Y-149427380D02*
X161270596Y-149427380D01*
X161270596Y-147507380D02*
X158585596Y-147507380D01*
X161270596Y-149427380D02*
X161270596Y-147507380D01*
%TO.C,D361*%
X194574252Y-82881802D02*
X197414252Y-82881802D01*
X194574252Y-85181802D02*
X197414252Y-85181802D01*
D15*
X196354252Y-82964302D02*
X196354252Y-85091802D01*
D14*
%TO.C,D352*%
X190574252Y-72881802D02*
X193414252Y-72881802D01*
X190574252Y-75181802D02*
X193414252Y-75181802D01*
D15*
X192354252Y-72964302D02*
X192354252Y-75091802D01*
D13*
%TO.C,SW3*%
X186000000Y-102250000D02*
X187500000Y-100750000D01*
X186000000Y-111250000D02*
X186000000Y-102250000D01*
X187500000Y-112750000D02*
X186000000Y-111250000D01*
X196500000Y-100750000D02*
X187500000Y-100750000D01*
X196500000Y-112750000D02*
X187500000Y-112750000D01*
X198000000Y-102250000D02*
X196500000Y-100750000D01*
X198000000Y-111250000D02*
X196500000Y-112750000D01*
X198000000Y-111250000D02*
X198000000Y-102250000D01*
X195350000Y-106750000D02*
G75*
G02*
X188650000Y-106750000I-3350000J0D01*
G01*
X188650000Y-106750000D02*
G75*
G02*
X195350000Y-106750000I3350000J0D01*
G01*
D14*
%TO.C,D370*%
X198574252Y-92881802D02*
X201414252Y-92881802D01*
X198574252Y-95181802D02*
X201414252Y-95181802D01*
D15*
X200354252Y-92964302D02*
X200354252Y-95091802D01*
D14*
%TO.C,D360*%
X194574252Y-77881802D02*
X197414252Y-77881802D01*
X194574252Y-80181802D02*
X197414252Y-80181802D01*
D15*
X196354252Y-77964302D02*
X196354252Y-80091802D01*
D14*
%TO.C,D392*%
X214574252Y-62881802D02*
X217414252Y-62881802D01*
X214574252Y-65181802D02*
X217414252Y-65181802D01*
D15*
X216354252Y-62964302D02*
X216354252Y-65091802D01*
D14*
%TO.C,R29*%
X188485646Y-117663767D02*
X188960162Y-117663767D01*
X188485646Y-118708767D02*
X188960162Y-118708767D01*
%TO.C,D308*%
X166574252Y-62881802D02*
X169414252Y-62881802D01*
X166574252Y-65181802D02*
X169414252Y-65181802D01*
D15*
X168354252Y-62964302D02*
X168354252Y-65091802D01*
D14*
%TO.C,C12*%
X162828049Y-146358881D02*
X163109209Y-146358881D01*
X162828049Y-147378881D02*
X163109209Y-147378881D01*
%TO.C,D337*%
X182574252Y-67881802D02*
X185414252Y-67881802D01*
X182574252Y-70181802D02*
X185414252Y-70181802D01*
D15*
X184354252Y-67964302D02*
X184354252Y-70091802D01*
D14*
%TO.C,D317*%
X170574252Y-72881802D02*
X173414252Y-72881802D01*
X170574252Y-75181802D02*
X173414252Y-75181802D01*
D15*
X172354252Y-72964302D02*
X172354252Y-75091802D01*
D17*
%TO.C,Y1*%
X195440210Y-133392648D02*
X195440210Y-121992648D01*
X200140210Y-133392648D02*
X200140210Y-121992648D01*
D14*
%TO.C,R1*%
X174453510Y-126450786D02*
X174928026Y-126450786D01*
X174453510Y-127495786D02*
X174928026Y-127495786D01*
%TO.C,D402*%
X218574252Y-77881802D02*
X221414252Y-77881802D01*
X218574252Y-80181802D02*
X221414252Y-80181802D01*
D15*
X220354252Y-77964302D02*
X220354252Y-80091802D01*
D14*
%TO.C,D405*%
X218574252Y-92881802D02*
X221414252Y-92881802D01*
X218574252Y-95181802D02*
X221414252Y-95181802D01*
D15*
X220354252Y-92964302D02*
X220354252Y-95091802D01*
D14*
%TO.C,D3*%
X191000236Y-119182282D02*
X193685236Y-119182282D01*
X193685236Y-117262282D02*
X191000236Y-117262282D01*
X193685236Y-119182282D02*
X193685236Y-117262282D01*
%TO.C,D359*%
X194574252Y-72881802D02*
X197414252Y-72881802D01*
X194574252Y-75181802D02*
X197414252Y-75181802D01*
D15*
X196354252Y-72964302D02*
X196354252Y-75091802D01*
D14*
%TO.C,C15*%
X190603077Y-132162965D02*
X190603077Y-132444125D01*
X191623077Y-132162965D02*
X191623077Y-132444125D01*
%TO.C,C25*%
X218211354Y-132316766D02*
X218211354Y-132839270D01*
X219681354Y-132316766D02*
X219681354Y-132839270D01*
D18*
%TO.C,G\u002A\u002A\u002A*%
G36*
X188822245Y-98320407D02*
G01*
X188822245Y-99390169D01*
X189720081Y-99390169D01*
X190617920Y-99390169D01*
X190617920Y-99562095D01*
X190617920Y-99734021D01*
X189376229Y-99734021D01*
X188134540Y-99734021D01*
X188134540Y-98492333D01*
X188134540Y-97250645D01*
X188478393Y-97250645D01*
X188822245Y-97250645D01*
X188822245Y-98320407D01*
G37*
G36*
X202079667Y-97402035D02*
G01*
X202079667Y-97553424D01*
X201726263Y-97564409D01*
X201372859Y-97575393D01*
X201362712Y-98654707D01*
X201352565Y-99734021D01*
X200837382Y-99734021D01*
X200322199Y-99734021D01*
X200322199Y-98645155D01*
X200322199Y-97556292D01*
X199959243Y-97556292D01*
X199596288Y-97556292D01*
X199596288Y-97403467D01*
X199596288Y-97250645D01*
X200837978Y-97250645D01*
X202079667Y-97250645D01*
X202079667Y-97402035D01*
G37*
G36*
X204945104Y-97402035D02*
G01*
X204945104Y-97553424D01*
X204591701Y-97564409D01*
X204238297Y-97575393D01*
X204228150Y-98654707D01*
X204218003Y-99734021D01*
X203702820Y-99734021D01*
X203187637Y-99734021D01*
X203187637Y-98645155D01*
X203187637Y-97556292D01*
X202824681Y-97556292D01*
X202461726Y-97556292D01*
X202461726Y-97403467D01*
X202461726Y-97250645D01*
X203703416Y-97250645D01*
X204945104Y-97250645D01*
X204945104Y-97402035D01*
G37*
G36*
X181677755Y-97401374D02*
G01*
X181677755Y-97552105D01*
X181496276Y-97563749D01*
X181314799Y-97575393D01*
X181304556Y-98482783D01*
X181294313Y-99390169D01*
X181486033Y-99390169D01*
X181677755Y-99390169D01*
X181677755Y-99562095D01*
X181677755Y-99734021D01*
X180799020Y-99734021D01*
X179920285Y-99734021D01*
X179920285Y-99562095D01*
X179920285Y-99390169D01*
X180092211Y-99390169D01*
X180264138Y-99390169D01*
X180264138Y-98473232D01*
X180264138Y-97556292D01*
X180092211Y-97556292D01*
X179920285Y-97556292D01*
X179920285Y-97403467D01*
X179920285Y-97250645D01*
X180799020Y-97250645D01*
X181677755Y-97250645D01*
X181677755Y-97401374D01*
G37*
G36*
X187752482Y-97402763D02*
G01*
X187752482Y-97554883D01*
X186864196Y-97565139D01*
X185975911Y-97575393D01*
X185975911Y-97938350D01*
X185975911Y-98301306D01*
X186692270Y-98311700D01*
X187408630Y-98322093D01*
X187408630Y-98493175D01*
X187408630Y-98664259D01*
X186682718Y-98664259D01*
X185956808Y-98664259D01*
X185956808Y-99027213D01*
X185956808Y-99390169D01*
X186854644Y-99390169D01*
X187752482Y-99390169D01*
X187752482Y-99562095D01*
X187752482Y-99734021D01*
X186510791Y-99734021D01*
X185269103Y-99734021D01*
X185269103Y-98492333D01*
X185269103Y-97250645D01*
X186510791Y-97250645D01*
X187752482Y-97250645D01*
X187752482Y-97402763D01*
G37*
G36*
X198870377Y-97401374D02*
G01*
X198870377Y-97552105D01*
X198688899Y-97563749D01*
X198507422Y-97575393D01*
X198497179Y-98482783D01*
X198486935Y-99390169D01*
X198678657Y-99390169D01*
X198870377Y-99390169D01*
X198870377Y-99562095D01*
X198870377Y-99734021D01*
X197991643Y-99734021D01*
X197112909Y-99734021D01*
X197112909Y-99562095D01*
X197112909Y-99390169D01*
X197284836Y-99390169D01*
X197456762Y-99390169D01*
X197456762Y-98473232D01*
X197456762Y-97556292D01*
X197284836Y-97556292D01*
X197112909Y-97556292D01*
X197112909Y-97403467D01*
X197112909Y-97250645D01*
X197991643Y-97250645D01*
X198870377Y-97250645D01*
X198870377Y-97401374D01*
G37*
G36*
X178812317Y-97422571D02*
G01*
X178812317Y-97594497D01*
X178984244Y-97594497D01*
X179156170Y-97594497D01*
X179156170Y-98129379D01*
X179156170Y-98664259D01*
X178984244Y-98664259D01*
X178812317Y-98664259D01*
X178812317Y-98836185D01*
X178812317Y-99008111D01*
X178086405Y-99008111D01*
X177360495Y-99008111D01*
X177360495Y-99371065D01*
X177360495Y-99734021D01*
X177016643Y-99734021D01*
X176672790Y-99734021D01*
X176672790Y-98664259D01*
X177358396Y-98664259D01*
X177913431Y-98664259D01*
X178468465Y-98664259D01*
X178468465Y-98109227D01*
X178468465Y-97554193D01*
X177924031Y-97564794D01*
X177379599Y-97575393D01*
X177368998Y-98119827D01*
X177358396Y-98664259D01*
X176672790Y-98664259D01*
X176672790Y-98492333D01*
X176672790Y-97250645D01*
X177742553Y-97250645D01*
X178812317Y-97250645D01*
X178812317Y-97422571D01*
G37*
G36*
X206022985Y-97604048D02*
G01*
X206033971Y-97957453D01*
X206215449Y-97969097D01*
X206396927Y-97980742D01*
X206396927Y-98150575D01*
X206396927Y-98320407D01*
X206587956Y-98320407D01*
X206778984Y-98320407D01*
X206778984Y-98148481D01*
X206778984Y-97976555D01*
X206950911Y-97976555D01*
X207122837Y-97976555D01*
X207122837Y-97613601D01*
X207122837Y-97250645D01*
X207466689Y-97250645D01*
X207810542Y-97250645D01*
X207810542Y-97594497D01*
X207810542Y-97938350D01*
X207638616Y-97938350D01*
X207466689Y-97938350D01*
X207466689Y-98301306D01*
X207466689Y-98664259D01*
X207275661Y-98664259D01*
X207084632Y-98664259D01*
X207084632Y-99199139D01*
X207084632Y-99734021D01*
X206568853Y-99734021D01*
X206053074Y-99734021D01*
X206053074Y-99199139D01*
X206053074Y-98664259D01*
X205881148Y-98664259D01*
X205709222Y-98664259D01*
X205709222Y-98301306D01*
X205709222Y-97938350D01*
X205518192Y-97938350D01*
X205327163Y-97938350D01*
X205327163Y-97594497D01*
X205327163Y-97250645D01*
X205669582Y-97250645D01*
X206012000Y-97250645D01*
X206022985Y-97604048D01*
G37*
G36*
X194561235Y-97604048D02*
G01*
X194572221Y-97957453D01*
X194753699Y-97969097D01*
X194935177Y-97980742D01*
X194935177Y-97787620D01*
X194935177Y-97594497D01*
X195126206Y-97594497D01*
X195317234Y-97594497D01*
X195317234Y-97422571D01*
X195317234Y-97250645D01*
X195833013Y-97250645D01*
X196348792Y-97250645D01*
X196348792Y-97403467D01*
X196348792Y-97556292D01*
X196176866Y-97556292D01*
X196004939Y-97556292D01*
X196004939Y-97747320D01*
X196004939Y-97938350D01*
X195813911Y-97938350D01*
X195622882Y-97938350D01*
X195622882Y-98110276D01*
X195622882Y-98282202D01*
X195450956Y-98282202D01*
X195279029Y-98282202D01*
X195279029Y-98473232D01*
X195279029Y-98664259D01*
X195448862Y-98664259D01*
X195618694Y-98664259D01*
X195630339Y-98845735D01*
X195641984Y-99027213D01*
X195823462Y-99038858D01*
X196004939Y-99050503D01*
X196004939Y-99220336D01*
X196004939Y-99390169D01*
X196176866Y-99390169D01*
X196348792Y-99390169D01*
X196348792Y-99562095D01*
X196348792Y-99734021D01*
X195835107Y-99734021D01*
X195321421Y-99734021D01*
X195309776Y-99552544D01*
X195298132Y-99371065D01*
X195116653Y-99359421D01*
X194935177Y-99347776D01*
X194935177Y-99177944D01*
X194935177Y-99008111D01*
X194744147Y-99008111D01*
X194553118Y-99008111D01*
X194553118Y-99371065D01*
X194553118Y-99734021D01*
X194209266Y-99734021D01*
X193865413Y-99734021D01*
X193865413Y-98492333D01*
X193865413Y-97250645D01*
X194207832Y-97250645D01*
X194550250Y-97250645D01*
X194561235Y-97604048D01*
G37*
G36*
X183099488Y-97604048D02*
G01*
X183110474Y-97957453D01*
X183291951Y-97969097D01*
X183473428Y-97980742D01*
X183473428Y-98150575D01*
X183473428Y-98320407D01*
X183664458Y-98320407D01*
X183855487Y-98320407D01*
X183855487Y-98148481D01*
X183855487Y-97976555D01*
X184027414Y-97976555D01*
X184199340Y-97976555D01*
X184199340Y-97613601D01*
X184199340Y-97250645D01*
X184543192Y-97250645D01*
X184887045Y-97250645D01*
X184887045Y-97594497D01*
X184887045Y-97938350D01*
X184715119Y-97938350D01*
X184543192Y-97938350D01*
X184543192Y-98108182D01*
X184543192Y-98278015D01*
X184361714Y-98289660D01*
X184180236Y-98301306D01*
X184168591Y-98482783D01*
X184156946Y-98664259D01*
X184350070Y-98664259D01*
X184543192Y-98664259D01*
X184543192Y-98855287D01*
X184543192Y-99046316D01*
X184715119Y-99046316D01*
X184887045Y-99046316D01*
X184887045Y-99390169D01*
X184887045Y-99734021D01*
X184543192Y-99734021D01*
X184199340Y-99734021D01*
X184199340Y-99371065D01*
X184199340Y-99008111D01*
X184027414Y-99008111D01*
X183855487Y-99008111D01*
X183855487Y-98836185D01*
X183855487Y-98664259D01*
X183664458Y-98664259D01*
X183473428Y-98664259D01*
X183473428Y-98836185D01*
X183473428Y-99008111D01*
X183282400Y-99008111D01*
X183091370Y-99008111D01*
X183091370Y-99371065D01*
X183091370Y-99734021D01*
X182747518Y-99734021D01*
X182403665Y-99734021D01*
X182403665Y-99392262D01*
X182403665Y-99050503D01*
X182585143Y-99038858D01*
X182766621Y-99027213D01*
X182778265Y-98845735D01*
X182789910Y-98664259D01*
X182959743Y-98664259D01*
X183129575Y-98664259D01*
X183129575Y-98473232D01*
X183129575Y-98282202D01*
X182957649Y-98282202D01*
X182785723Y-98282202D01*
X182785723Y-98110276D01*
X182785723Y-97938350D01*
X182594695Y-97938350D01*
X182403665Y-97938350D01*
X182403665Y-97594497D01*
X182403665Y-97250645D01*
X182746084Y-97250645D01*
X183088503Y-97250645D01*
X183099488Y-97604048D01*
G37*
D13*
%TO.C,SW4*%
X206000000Y-102250000D02*
X207500000Y-100750000D01*
X206000000Y-111250000D02*
X206000000Y-102250000D01*
X207500000Y-112750000D02*
X206000000Y-111250000D01*
X216500000Y-100750000D02*
X207500000Y-100750000D01*
X216500000Y-112750000D02*
X207500000Y-112750000D01*
X218000000Y-102250000D02*
X216500000Y-100750000D01*
X218000000Y-111250000D02*
X216500000Y-112750000D01*
X218000000Y-111250000D02*
X218000000Y-102250000D01*
X215350000Y-106750000D02*
G75*
G02*
X208650000Y-106750000I-3350000J0D01*
G01*
X208650000Y-106750000D02*
G75*
G02*
X215350000Y-106750000I3350000J0D01*
G01*
D14*
%TO.C,D336*%
X182574252Y-62881802D02*
X185414252Y-62881802D01*
X182574252Y-65181802D02*
X185414252Y-65181802D01*
D15*
X184354252Y-62964302D02*
X184354252Y-65091802D01*
D14*
%TO.C,R18*%
X207530145Y-128373994D02*
X207530145Y-127899478D01*
X208575145Y-128373994D02*
X208575145Y-127899478D01*
%TO.C,D350*%
X190574252Y-62881802D02*
X193414252Y-62881802D01*
X190574252Y-65181802D02*
X193414252Y-65181802D01*
D15*
X192354252Y-62964302D02*
X192354252Y-65091802D01*
D14*
%TO.C,C11*%
X191801699Y-127230155D02*
X192082859Y-127230155D01*
X191801699Y-128250155D02*
X192082859Y-128250155D01*
%TO.C,D354*%
X190574252Y-82881802D02*
X193414252Y-82881802D01*
X190574252Y-85181802D02*
X193414252Y-85181802D01*
D15*
X192354252Y-82964302D02*
X192354252Y-85091802D01*
D14*
%TO.C,D335*%
X178574252Y-92881802D02*
X181414252Y-92881802D01*
X178574252Y-95181802D02*
X181414252Y-95181802D01*
D15*
X180354252Y-92964302D02*
X180354252Y-95091802D01*
D14*
%TO.C,D368*%
X198574252Y-82881802D02*
X201414252Y-82881802D01*
X198574252Y-85181802D02*
X201414252Y-85181802D01*
D15*
X200354252Y-82964302D02*
X200354252Y-85091802D01*
D14*
%TO.C,R8*%
X163209773Y-147956116D02*
X162735257Y-147956116D01*
X163209773Y-149001116D02*
X162735257Y-149001116D01*
%TO.C,D391*%
X210574252Y-92881802D02*
X213414252Y-92881802D01*
X210574252Y-95181802D02*
X213414252Y-95181802D01*
D15*
X212354252Y-92964302D02*
X212354252Y-95091802D01*
D13*
%TO.C,IC1*%
X179692522Y-57493527D02*
X179692522Y-57493527D01*
X179692522Y-57593527D02*
X179692522Y-57593527D01*
D19*
X182092522Y-56293527D02*
X186092522Y-56293527D01*
X182092522Y-61293527D02*
X182092522Y-56293527D01*
X186092522Y-56293527D02*
X186092522Y-61293527D01*
X186092522Y-61293527D02*
X182092522Y-61293527D01*
D13*
X179692522Y-57493527D02*
G75*
G02*
X179692522Y-57593527I0J-50000D01*
G01*
X179692522Y-57593527D02*
G75*
G02*
X179692522Y-57493527I0J50000D01*
G01*
D14*
%TO.C,C23*%
X206585689Y-132899699D02*
X206585689Y-132377195D01*
X208055689Y-132899699D02*
X208055689Y-132377195D01*
%TO.C,D5*%
X197498534Y-59096936D02*
X201383534Y-59096936D01*
X201383534Y-56826936D02*
X197498534Y-56826936D01*
X201383534Y-59096936D02*
X201383534Y-56826936D01*
%TO.C,D301*%
X162574252Y-62881802D02*
X165414252Y-62881802D01*
X162574252Y-65181802D02*
X165414252Y-65181802D01*
D15*
X164354252Y-62964302D02*
X164354252Y-65091802D01*
D14*
%TO.C,R21*%
X193343511Y-59826413D02*
X193343511Y-59351897D01*
X194388511Y-59826413D02*
X194388511Y-59351897D01*
%TO.C,R7*%
X163178498Y-144748391D02*
X162703982Y-144748391D01*
X163178498Y-145793391D02*
X162703982Y-145793391D01*
%TO.C,C5*%
X183762592Y-134263372D02*
X183762592Y-134544532D01*
X184782592Y-134263372D02*
X184782592Y-134544532D01*
%TO.C,D380*%
X206574252Y-72881802D02*
X209414252Y-72881802D01*
X206574252Y-75181802D02*
X209414252Y-75181802D01*
D15*
X208354252Y-72964302D02*
X208354252Y-75091802D01*
D14*
%TO.C,D387*%
X210574252Y-72881802D02*
X213414252Y-72881802D01*
X210574252Y-75181802D02*
X213414252Y-75181802D01*
D15*
X212354252Y-72964302D02*
X212354252Y-75091802D01*
D14*
%TO.C,C13*%
X176283456Y-129163661D02*
X176283456Y-129444821D01*
X177303456Y-129163661D02*
X177303456Y-129444821D01*
%TO.C,D389*%
X210574252Y-82881802D02*
X213414252Y-82881802D01*
X210574252Y-85181802D02*
X213414252Y-85181802D01*
D15*
X212354252Y-82964302D02*
X212354252Y-85091802D01*
D14*
%TO.C,D377*%
X202574252Y-92881802D02*
X205414252Y-92881802D01*
X202574252Y-95181802D02*
X205414252Y-95181802D01*
D15*
X204354252Y-92964302D02*
X204354252Y-95091802D01*
D14*
%TO.C,D316*%
X170574252Y-67881802D02*
X173414252Y-67881802D01*
X170574252Y-70181802D02*
X173414252Y-70181802D01*
D15*
X172354252Y-67964302D02*
X172354252Y-70091802D01*
D14*
%TO.C,D398*%
X214574252Y-92881802D02*
X217414252Y-92881802D01*
X214574252Y-95181802D02*
X217414252Y-95181802D01*
D15*
X216354252Y-92964302D02*
X216354252Y-95091802D01*
D14*
%TO.C,C26*%
X213920015Y-132323062D02*
X213920015Y-132845566D01*
X215390015Y-132323062D02*
X215390015Y-132845566D01*
%TO.C,D332*%
X178574252Y-77881802D02*
X181414252Y-77881802D01*
X178574252Y-80181802D02*
X181414252Y-80181802D01*
D15*
X180354252Y-77964302D02*
X180354252Y-80091802D01*
D14*
%TO.C,D388*%
X210574252Y-77881802D02*
X213414252Y-77881802D01*
X210574252Y-80181802D02*
X213414252Y-80181802D01*
D15*
X212354252Y-77964302D02*
X212354252Y-80091802D01*
D14*
%TO.C,D315*%
X170574252Y-62881802D02*
X173414252Y-62881802D01*
X170574252Y-65181802D02*
X173414252Y-65181802D01*
D15*
X172354252Y-62964302D02*
X172354252Y-65091802D01*
D14*
%TO.C,D331*%
X178574252Y-72881802D02*
X181414252Y-72881802D01*
X178574252Y-75181802D02*
X181414252Y-75181802D01*
D15*
X180354252Y-72964302D02*
X180354252Y-75091802D01*
D14*
%TO.C,D326*%
X174574252Y-82881802D02*
X177414252Y-82881802D01*
X174574252Y-85181802D02*
X177414252Y-85181802D01*
D15*
X176354252Y-82964302D02*
X176354252Y-85091802D01*
D14*
%TO.C,R26*%
X181121391Y-140548893D02*
X181121391Y-141023409D01*
X182166391Y-140548893D02*
X182166391Y-141023409D01*
%TO.C,D393*%
X214574252Y-67881802D02*
X217414252Y-67881802D01*
X214574252Y-70181802D02*
X217414252Y-70181802D01*
D15*
X216354252Y-67964302D02*
X216354252Y-70091802D01*
D14*
%TO.C,D394*%
X214574252Y-72881802D02*
X217414252Y-72881802D01*
X214574252Y-75181802D02*
X217414252Y-75181802D01*
D15*
X216354252Y-72964302D02*
X216354252Y-75091802D01*
D14*
%TO.C,D366*%
X198574252Y-72881802D02*
X201414252Y-72881802D01*
X198574252Y-75181802D02*
X201414252Y-75181802D01*
D15*
X200354252Y-72964302D02*
X200354252Y-75091802D01*
D14*
%TO.C,D385*%
X210574252Y-62881802D02*
X213414252Y-62881802D01*
X210574252Y-65181802D02*
X213414252Y-65181802D01*
D15*
X212354252Y-62964302D02*
X212354252Y-65091802D01*
D14*
%TO.C,D404*%
X218574252Y-87881802D02*
X221414252Y-87881802D01*
X218574252Y-90181802D02*
X221414252Y-90181802D01*
D15*
X220354252Y-87964302D02*
X220354252Y-90091802D01*
D14*
%TO.C,D399*%
X218574252Y-62881802D02*
X221414252Y-62881802D01*
X218574252Y-65181802D02*
X221414252Y-65181802D01*
D15*
X220354252Y-62964302D02*
X220354252Y-65091802D01*
D14*
%TO.C,D403*%
X218574252Y-82881802D02*
X221414252Y-82881802D01*
X218574252Y-85181802D02*
X221414252Y-85181802D01*
D15*
X220354252Y-82964302D02*
X220354252Y-85091802D01*
D14*
%TO.C,C10*%
X179282925Y-122082849D02*
X179001765Y-122082849D01*
X179282925Y-123102849D02*
X179001765Y-123102849D01*
%TO.C,D396*%
X214574252Y-82881802D02*
X217414252Y-82881802D01*
X214574252Y-85181802D02*
X217414252Y-85181802D01*
D15*
X216354252Y-82964302D02*
X216354252Y-85091802D01*
D14*
%TO.C,D382*%
X206574252Y-82881802D02*
X209414252Y-82881802D01*
X206574252Y-85181802D02*
X209414252Y-85181802D01*
D15*
X208354252Y-82964302D02*
X208354252Y-85091802D01*
D14*
%TO.C,D386*%
X210574252Y-67881802D02*
X213414252Y-67881802D01*
X210574252Y-70181802D02*
X213414252Y-70181802D01*
D15*
X212354252Y-67964302D02*
X212354252Y-70091802D01*
D14*
%TO.C,D341*%
X182574252Y-87881802D02*
X185414252Y-87881802D01*
X182574252Y-90181802D02*
X185414252Y-90181802D01*
D15*
X184354252Y-87964302D02*
X184354252Y-90091802D01*
D14*
%TO.C,C3*%
X179289080Y-125207630D02*
X179007920Y-125207630D01*
X179289080Y-126227630D02*
X179007920Y-126227630D01*
%TO.C,D311*%
X166574252Y-77881802D02*
X169414252Y-77881802D01*
X166574252Y-80181802D02*
X169414252Y-80181802D01*
D15*
X168354252Y-77964302D02*
X168354252Y-80091802D01*
D14*
%TO.C,D314*%
X166574252Y-92881802D02*
X169414252Y-92881802D01*
X166574252Y-95181802D02*
X169414252Y-95181802D01*
D15*
X168354252Y-92964302D02*
X168354252Y-95091802D01*
D16*
%TO.C,SW5*%
X184166565Y-137667161D02*
X184166565Y-140142879D01*
X184166565Y-141533920D02*
X189424365Y-141533920D01*
X189424365Y-136276120D02*
X184166565Y-136276120D01*
X189424365Y-140142879D02*
X189424365Y-137667161D01*
X189297365Y-138905020D02*
G75*
G02*
X184293565Y-138905020I-2501900J0D01*
G01*
X184293565Y-138905020D02*
G75*
G02*
X189297365Y-138905020I2501900J0D01*
G01*
D14*
%TO.C,D312*%
X166574252Y-82881802D02*
X169414252Y-82881802D01*
X166574252Y-85181802D02*
X169414252Y-85181802D01*
D15*
X168354252Y-82964302D02*
X168354252Y-85091802D01*
D19*
%TO.C,Q1*%
X184725693Y-122626297D02*
X184725693Y-121326297D01*
X184765693Y-120876297D02*
X187685693Y-120876297D01*
X184765693Y-120976297D02*
X184765693Y-120876297D01*
X187685693Y-120876297D02*
X187685693Y-120976297D01*
X187685693Y-120976297D02*
X184765693Y-120976297D01*
D14*
%TO.C,D334*%
X178574252Y-87881802D02*
X181414252Y-87881802D01*
X178574252Y-90181802D02*
X181414252Y-90181802D01*
D15*
X180354252Y-87964302D02*
X180354252Y-90091802D01*
D17*
%TO.C,U4*%
X212871560Y-131566374D02*
X210871560Y-131566374D01*
X212871560Y-133946374D02*
X210871560Y-133946374D01*
D19*
X213771560Y-133518374D02*
G75*
G02*
X213571560Y-133518374I-100000J0D01*
G01*
X213571560Y-133518374D02*
G75*
G02*
X213771560Y-133518374I100000J0D01*
G01*
D14*
%TO.C,D348*%
X186574252Y-87881802D02*
X189414252Y-87881802D01*
X186574252Y-90181802D02*
X189414252Y-90181802D01*
D15*
X188354252Y-87964302D02*
X188354252Y-90091802D01*
D14*
%TO.C,D320*%
X170574252Y-87881802D02*
X173414252Y-87881802D01*
X170574252Y-90181802D02*
X173414252Y-90181802D01*
D15*
X172354252Y-87964302D02*
X172354252Y-90091802D01*
D14*
%TO.C,R17*%
X209453823Y-127888677D02*
X209453823Y-128363193D01*
X210498823Y-127888677D02*
X210498823Y-128363193D01*
%TO.C,D324*%
X174574252Y-72881802D02*
X177414252Y-72881802D01*
X174574252Y-75181802D02*
X177414252Y-75181802D01*
D15*
X176354252Y-72964302D02*
X176354252Y-75091802D01*
D14*
%TO.C,U2*%
X181725071Y-124326543D02*
X182375071Y-124326543D01*
X181725071Y-124976543D02*
X181725071Y-124326543D01*
X181725071Y-130896543D02*
X181725071Y-131246543D01*
X182375071Y-131546543D02*
X181965071Y-131546543D01*
X188945071Y-124326543D02*
X188295071Y-124326543D01*
X188945071Y-124976543D02*
X188945071Y-124326543D01*
X188945071Y-130896543D02*
X188945071Y-131546543D01*
X188945071Y-131546543D02*
X188295071Y-131546543D01*
X181725071Y-131546543D02*
X181395071Y-131786543D01*
X181395071Y-131306543D01*
X181725071Y-131546543D01*
G36*
X181725071Y-131546543D02*
G01*
X181395071Y-131786543D01*
X181395071Y-131306543D01*
X181725071Y-131546543D01*
G37*
%TO.C,D375*%
X202574252Y-82881802D02*
X205414252Y-82881802D01*
X202574252Y-85181802D02*
X205414252Y-85181802D01*
D15*
X204354252Y-82964302D02*
X204354252Y-85091802D01*
D14*
%TO.C,C6*%
X181479325Y-121548404D02*
X181479325Y-121267244D01*
X182499325Y-121548404D02*
X182499325Y-121267244D01*
%TO.C,D321*%
X170574252Y-92881802D02*
X173414252Y-92881802D01*
X170574252Y-95181802D02*
X173414252Y-95181802D01*
D15*
X172354252Y-92964302D02*
X172354252Y-95091802D01*
D14*
%TO.C,D344*%
X186574252Y-67881802D02*
X189414252Y-67881802D01*
X186574252Y-70181802D02*
X189414252Y-70181802D01*
D15*
X188354252Y-67964302D02*
X188354252Y-70091802D01*
D14*
%TO.C,C20*%
X189431688Y-59343553D02*
X189431688Y-59624713D01*
X190451688Y-59343553D02*
X190451688Y-59624713D01*
%TO.C,C29*%
X200935578Y-121295377D02*
X200935578Y-120772873D01*
X202405578Y-121295377D02*
X202405578Y-120772873D01*
%TO.C,D381*%
X206574252Y-77881802D02*
X209414252Y-77881802D01*
X206574252Y-80181802D02*
X209414252Y-80181802D01*
D15*
X208354252Y-77964302D02*
X208354252Y-80091802D01*
D14*
%TO.C,D303*%
X162574252Y-72881802D02*
X165414252Y-72881802D01*
X162574252Y-75181802D02*
X165414252Y-75181802D01*
D15*
X164354252Y-72964302D02*
X164354252Y-75091802D01*
D14*
%TO.C,C16*%
X176156824Y-131319493D02*
X175875664Y-131319493D01*
X176156824Y-132339493D02*
X175875664Y-132339493D01*
D16*
%TO.C,SW2*%
X192118604Y-137667722D02*
X192118604Y-140143440D01*
X192118604Y-141534481D02*
X197376404Y-141534481D01*
X197376404Y-136276681D02*
X192118604Y-136276681D01*
X197376404Y-140143440D02*
X197376404Y-137667722D01*
X197249404Y-138905581D02*
G75*
G02*
X192245604Y-138905581I-2501900J0D01*
G01*
X192245604Y-138905581D02*
G75*
G02*
X197249404Y-138905581I2501900J0D01*
G01*
D14*
%TO.C,R4*%
X174457620Y-124903918D02*
X174932136Y-124903918D01*
X174457620Y-125948918D02*
X174932136Y-125948918D01*
%TO.C,C4*%
X179276187Y-123623195D02*
X178995027Y-123623195D01*
X179276187Y-124643195D02*
X178995027Y-124643195D01*
%TO.C,R3*%
X214640219Y-141673069D02*
X214165703Y-141673069D01*
X214640219Y-142718069D02*
X214165703Y-142718069D01*
%TO.C,D374*%
X202574252Y-77881802D02*
X205414252Y-77881802D01*
X202574252Y-80181802D02*
X205414252Y-80181802D01*
D15*
X204354252Y-77964302D02*
X204354252Y-80091802D01*
D14*
%TO.C,D347*%
X186574252Y-82881802D02*
X189414252Y-82881802D01*
X186574252Y-85181802D02*
X189414252Y-85181802D01*
D15*
X188354252Y-82964302D02*
X188354252Y-85091802D01*
D14*
%TO.C,R16*%
X226114318Y-137102024D02*
X226114318Y-137576540D01*
X227159318Y-137102024D02*
X227159318Y-137576540D01*
%TO.C,D323*%
X174574252Y-67881802D02*
X177414252Y-67881802D01*
X174574252Y-70181802D02*
X177414252Y-70181802D01*
D15*
X176354252Y-67964302D02*
X176354252Y-70091802D01*
D13*
%TO.C,SW1*%
X166000000Y-102250000D02*
X167500000Y-100750000D01*
X166000000Y-111250000D02*
X166000000Y-102250000D01*
X167500000Y-112750000D02*
X166000000Y-111250000D01*
X176500000Y-100750000D02*
X167500000Y-100750000D01*
X176500000Y-112750000D02*
X167500000Y-112750000D01*
X178000000Y-102250000D02*
X176500000Y-100750000D01*
X178000000Y-111250000D02*
X176500000Y-112750000D01*
X178000000Y-111250000D02*
X178000000Y-102250000D01*
X175350000Y-106750000D02*
G75*
G02*
X168650000Y-106750000I-3350000J0D01*
G01*
X168650000Y-106750000D02*
G75*
G02*
X175350000Y-106750000I3350000J0D01*
G01*
D17*
%TO.C,U6*%
X205369440Y-119042141D02*
X205369440Y-119302141D01*
X205369440Y-119042141D02*
X209089440Y-119042141D01*
X205369440Y-125512141D02*
X205369440Y-125762141D01*
X205369440Y-125762141D02*
X209089440Y-125762141D01*
X209089440Y-120642141D02*
X209089440Y-119042141D01*
X209089440Y-125762141D02*
X209089440Y-124272141D01*
D19*
X202956440Y-120112141D02*
G75*
G02*
X202756440Y-120112141I-100000J0D01*
G01*
X202756440Y-120112141D02*
G75*
G02*
X202956440Y-120112141I100000J0D01*
G01*
D14*
%TO.C,D325*%
X174574252Y-77881802D02*
X177414252Y-77881802D01*
X174574252Y-80181802D02*
X177414252Y-80181802D01*
D15*
X176354252Y-77964302D02*
X176354252Y-80091802D01*
D14*
%TO.C,D306*%
X162574252Y-87881802D02*
X165414252Y-87881802D01*
X162574252Y-90181802D02*
X165414252Y-90181802D01*
D15*
X164354252Y-87964302D02*
X164354252Y-90091802D01*
D14*
%TO.C,D319*%
X170574252Y-82881802D02*
X173414252Y-82881802D01*
X170574252Y-85181802D02*
X173414252Y-85181802D01*
D15*
X172354252Y-82964302D02*
X172354252Y-85091802D01*
D14*
%TO.C,J1*%
X155674795Y-132139783D02*
X157379795Y-132139783D01*
X155674795Y-141299783D02*
X155674795Y-132139783D01*
X157379795Y-141299783D02*
X155674795Y-141299783D01*
X159389795Y-141299783D02*
X161309795Y-141299783D01*
X161309795Y-132139783D02*
X159389795Y-132139783D01*
%TO.C,R28*%
X192149510Y-128784817D02*
X191674994Y-128784817D01*
X192149510Y-129829817D02*
X191674994Y-129829817D01*
%TO.C,D355*%
X190574252Y-87881802D02*
X193414252Y-87881802D01*
X190574252Y-90181802D02*
X193414252Y-90181802D01*
D15*
X192354252Y-87964302D02*
X192354252Y-90091802D01*
D14*
%TO.C,D330*%
X178574252Y-67881802D02*
X181414252Y-67881802D01*
X178574252Y-70181802D02*
X181414252Y-70181802D01*
D15*
X180354252Y-67964302D02*
X180354252Y-70091802D01*
D14*
%TO.C,D367*%
X198574252Y-77881802D02*
X201414252Y-77881802D01*
X198574252Y-80181802D02*
X201414252Y-80181802D01*
D15*
X200354252Y-77964302D02*
X200354252Y-80091802D01*
D14*
%TO.C,D365*%
X198574252Y-67881802D02*
X201414252Y-67881802D01*
X198574252Y-70181802D02*
X201414252Y-70181802D01*
D15*
X200354252Y-67964302D02*
X200354252Y-70091802D01*
D14*
%TO.C,D351*%
X190574252Y-67881802D02*
X193414252Y-67881802D01*
X190574252Y-70181802D02*
X193414252Y-70181802D01*
D15*
X192354252Y-67964302D02*
X192354252Y-70091802D01*
D14*
%TO.C,D338*%
X182574252Y-72881802D02*
X185414252Y-72881802D01*
X182574252Y-75181802D02*
X185414252Y-75181802D01*
D15*
X184354252Y-72964302D02*
X184354252Y-75091802D01*
D14*
%TO.C,D397*%
X214574252Y-87881802D02*
X217414252Y-87881802D01*
X214574252Y-90181802D02*
X217414252Y-90181802D01*
D15*
X216354252Y-87964302D02*
X216354252Y-90091802D01*
D14*
%TO.C,D357*%
X194574252Y-62881802D02*
X197414252Y-62881802D01*
X194574252Y-65181802D02*
X197414252Y-65181802D01*
D15*
X196354252Y-62964302D02*
X196354252Y-65091802D01*
D14*
%TO.C,C2*%
X179243548Y-128027862D02*
X178962388Y-128027862D01*
X179243548Y-129047862D02*
X178962388Y-129047862D01*
%TO.C,D371*%
X202574252Y-62881802D02*
X205414252Y-62881802D01*
X202574252Y-65181802D02*
X205414252Y-65181802D01*
D15*
X204354252Y-62964302D02*
X204354252Y-65091802D01*
D14*
%TO.C,D395*%
X214574252Y-77881802D02*
X217414252Y-77881802D01*
X214574252Y-80181802D02*
X217414252Y-80181802D01*
D15*
X216354252Y-77964302D02*
X216354252Y-80091802D01*
D14*
%TO.C,D373*%
X202574252Y-72881802D02*
X205414252Y-72881802D01*
X202574252Y-75181802D02*
X205414252Y-75181802D01*
D15*
X204354252Y-72964302D02*
X204354252Y-75091802D01*
%TD*%
M02*
