%TF.GenerationSoftware,KiCad,Pcbnew,8.0.5*%
%TF.CreationDate,2025-08-16T16:19:27-04:00*%
%TF.ProjectId,TagTag,54616754-6167-42e6-9b69-6361645f7063,1.2*%
%TF.SameCoordinates,Original*%
%TF.FileFunction,Paste,Top*%
%TF.FilePolarity,Positive*%
%FSLAX46Y46*%
G04 Gerber Fmt 4.6, Leading zero omitted, Abs format (unit mm)*
G04 Created by KiCad (PCBNEW 8.0.5) date 2025-08-16 16:19:27*
%MOMM*%
%LPD*%
G01*
G04 APERTURE LIST*
G04 Aperture macros list*
%AMRoundRect*
0 Rectangle with rounded corners*
0 $1 Rounding radius*
0 $2 $3 $4 $5 $6 $7 $8 $9 X,Y pos of 4 corners*
0 Add a 4 corners polygon primitive as box body*
4,1,4,$2,$3,$4,$5,$6,$7,$8,$9,$2,$3,0*
0 Add four circle primitives for the rounded corners*
1,1,$1+$1,$2,$3*
1,1,$1+$1,$4,$5*
1,1,$1+$1,$6,$7*
1,1,$1+$1,$8,$9*
0 Add four rect primitives between the rounded corners*
20,1,$1+$1,$2,$3,$4,$5,0*
20,1,$1+$1,$4,$5,$6,$7,0*
20,1,$1+$1,$6,$7,$8,$9,0*
20,1,$1+$1,$8,$9,$2,$3,0*%
G04 Aperture macros list end*
%ADD10C,0.010000*%
%ADD11R,0.700000X0.700000*%
%ADD12RoundRect,0.225000X0.250000X-0.225000X0.250000X0.225000X-0.250000X0.225000X-0.250000X-0.225000X0*%
%ADD13RoundRect,0.215000X1.485000X-0.860000X1.485000X0.860000X-1.485000X0.860000X-1.485000X-0.860000X0*%
%ADD14R,1.250000X0.900000*%
%ADD15R,0.930000X0.800000*%
%ADD16RoundRect,0.200000X0.275000X-0.200000X0.275000X0.200000X-0.275000X0.200000X-0.275000X-0.200000X0*%
%ADD17RoundRect,0.200000X-0.275000X0.200000X-0.275000X-0.200000X0.275000X-0.200000X0.275000X0.200000X0*%
%ADD18RoundRect,0.225000X-0.250000X0.225000X-0.250000X-0.225000X0.250000X-0.225000X0.250000X0.225000X0*%
%ADD19R,0.228600X0.711200*%
%ADD20RoundRect,0.250000X-0.475000X0.250000X-0.475000X-0.250000X0.475000X-0.250000X0.475000X0.250000X0*%
%ADD21RoundRect,0.200000X-0.200000X-0.275000X0.200000X-0.275000X0.200000X0.275000X-0.200000X0.275000X0*%
%ADD22RoundRect,0.150000X0.512500X0.150000X-0.512500X0.150000X-0.512500X-0.150000X0.512500X-0.150000X0*%
%ADD23RoundRect,0.243750X0.243750X0.456250X-0.243750X0.456250X-0.243750X-0.456250X0.243750X-0.456250X0*%
%ADD24RoundRect,0.150000X0.150000X-0.650000X0.150000X0.650000X-0.150000X0.650000X-0.150000X-0.650000X0*%
%ADD25RoundRect,0.225000X-0.225000X-0.250000X0.225000X-0.250000X0.225000X0.250000X-0.225000X0.250000X0*%
%ADD26R,2.000000X1.500000*%
%ADD27R,2.100000X5.600000*%
%ADD28RoundRect,0.200000X0.200000X0.275000X-0.200000X0.275000X-0.200000X-0.275000X0.200000X-0.275000X0*%
%ADD29R,1.500000X1.100000*%
%ADD30RoundRect,0.250000X0.475000X-0.250000X0.475000X0.250000X-0.475000X0.250000X-0.475000X-0.250000X0*%
%ADD31RoundRect,0.250000X0.375000X0.625000X-0.375000X0.625000X-0.375000X-0.625000X0.375000X-0.625000X0*%
%ADD32RoundRect,0.225000X0.225000X0.250000X-0.225000X0.250000X-0.225000X-0.250000X0.225000X-0.250000X0*%
%ADD33R,1.117600X0.558800*%
%ADD34R,0.600000X1.300000*%
%ADD35R,0.450000X0.250000*%
%ADD36RoundRect,0.249999X0.395001X-0.395001X0.395001X0.395001X-0.395001X0.395001X-0.395001X-0.395001X0*%
%ADD37RoundRect,0.050000X0.050000X-0.387500X0.050000X0.387500X-0.050000X0.387500X-0.050000X-0.387500X0*%
%ADD38RoundRect,0.050000X0.387500X-0.050000X0.387500X0.050000X-0.387500X0.050000X-0.387500X-0.050000X0*%
%ADD39RoundRect,0.069750X-0.585250X0.395250X-0.585250X-0.395250X0.585250X-0.395250X0.585250X0.395250X0*%
%ADD40RoundRect,0.098250X-0.556750X1.521750X-0.556750X-1.521750X0.556750X-1.521750X0.556750X1.521750X0*%
%ADD41R,1.240000X0.600000*%
%ADD42R,1.240000X0.300000*%
G04 APERTURE END LIST*
D10*
%TO.C,U4*%
X212246560Y-132856374D02*
X211621560Y-132856374D01*
X211621560Y-132656374D01*
X212246560Y-132656374D01*
X212246560Y-132856374D01*
G36*
X212246560Y-132856374D02*
G01*
X211621560Y-132856374D01*
X211621560Y-132656374D01*
X212246560Y-132656374D01*
X212246560Y-132856374D01*
G37*
X212396560Y-132381374D02*
X211921560Y-132381374D01*
X211921560Y-132031374D01*
X212396560Y-132031374D01*
X212396560Y-132381374D01*
G36*
X212396560Y-132381374D02*
G01*
X211921560Y-132381374D01*
X211921560Y-132031374D01*
X212396560Y-132031374D01*
X212396560Y-132381374D01*
G37*
X212396560Y-133481374D02*
X211921560Y-133481374D01*
X211921560Y-133131374D01*
X212396560Y-133131374D01*
X212396560Y-133481374D01*
G36*
X212396560Y-133481374D02*
G01*
X211921560Y-133481374D01*
X211921560Y-133131374D01*
X212396560Y-133131374D01*
X212396560Y-133481374D01*
G37*
X213071560Y-132381374D02*
X212596560Y-132381374D01*
X212596560Y-132031374D01*
X213071560Y-132031374D01*
X213071560Y-132381374D01*
G36*
X213071560Y-132381374D02*
G01*
X212596560Y-132381374D01*
X212596560Y-132031374D01*
X213071560Y-132031374D01*
X213071560Y-132381374D01*
G37*
X213071560Y-132856374D02*
X212446560Y-132856374D01*
X212446560Y-132656374D01*
X213071560Y-132656374D01*
X213071560Y-132856374D01*
G36*
X213071560Y-132856374D02*
G01*
X212446560Y-132856374D01*
X212446560Y-132656374D01*
X213071560Y-132656374D01*
X213071560Y-132856374D01*
G37*
X213071560Y-133481374D02*
X212596560Y-133481374D01*
X212596560Y-133131374D01*
X213071560Y-133131374D01*
X213071560Y-133481374D01*
G36*
X213071560Y-133481374D02*
G01*
X212596560Y-133481374D01*
X212596560Y-133131374D01*
X213071560Y-133131374D01*
X213071560Y-133481374D01*
G37*
%TD*%
D11*
%TO.C,D305*%
X164909252Y-84581802D03*
X164909252Y-83481802D03*
X163079252Y-83481802D03*
X163079252Y-84581802D03*
%TD*%
%TO.C,D318*%
X172909252Y-79581802D03*
X172909252Y-78481802D03*
X171079252Y-78481802D03*
X171079252Y-79581802D03*
%TD*%
D12*
%TO.C,C28*%
X219491969Y-138339477D03*
X219491969Y-136789477D03*
%TD*%
D11*
%TO.C,D313*%
X168909252Y-89581802D03*
X168909252Y-88481802D03*
X167079252Y-88481802D03*
X167079252Y-89581802D03*
%TD*%
%TO.C,D322*%
X176909252Y-64581802D03*
X176909252Y-63481802D03*
X175079252Y-63481802D03*
X175079252Y-64581802D03*
%TD*%
%TO.C,D383*%
X208909252Y-89581802D03*
X208909252Y-88481802D03*
X207079252Y-88481802D03*
X207079252Y-89581802D03*
%TD*%
%TO.C,D339*%
X184909252Y-79581802D03*
X184909252Y-78481802D03*
X183079252Y-78481802D03*
X183079252Y-79581802D03*
%TD*%
D12*
%TO.C,C7*%
X188912809Y-122174021D03*
X188912809Y-120624021D03*
%TD*%
D11*
%TO.C,D379*%
X208909252Y-69581802D03*
X208909252Y-68481802D03*
X207079252Y-68481802D03*
X207079252Y-69581802D03*
%TD*%
D13*
%TO.C,L1*%
X207851167Y-142669455D03*
X207851167Y-136819455D03*
%TD*%
D11*
%TO.C,D362*%
X196909252Y-89581802D03*
X196909252Y-88481802D03*
X195079252Y-88481802D03*
X195079252Y-89581802D03*
%TD*%
%TO.C,D302*%
X164909252Y-69581802D03*
X164909252Y-68481802D03*
X163079252Y-68481802D03*
X163079252Y-69581802D03*
%TD*%
%TO.C,D342*%
X184909252Y-94581802D03*
X184909252Y-93481802D03*
X183079252Y-93481802D03*
X183079252Y-94581802D03*
%TD*%
%TO.C,D328*%
X176909252Y-94581802D03*
X176909252Y-93481802D03*
X175079252Y-93481802D03*
X175079252Y-94581802D03*
%TD*%
%TO.C,D369*%
X200909252Y-89581802D03*
X200909252Y-88481802D03*
X199079252Y-88481802D03*
X199079252Y-89581802D03*
%TD*%
%TO.C,D349*%
X188909252Y-94581802D03*
X188909252Y-93481802D03*
X187079252Y-93481802D03*
X187079252Y-94581802D03*
%TD*%
D14*
%TO.C,SW8*%
X161454563Y-127195133D03*
X161454563Y-125695133D03*
X161454563Y-122695133D03*
D15*
X158244563Y-128745133D03*
X160514563Y-128745133D03*
X158244563Y-121145133D03*
X160514563Y-121145133D03*
%TD*%
D11*
%TO.C,D400*%
X220909252Y-69581802D03*
X220909252Y-68481802D03*
X219079252Y-68481802D03*
X219079252Y-69581802D03*
%TD*%
%TO.C,D372*%
X204909252Y-69581802D03*
X204909252Y-68481802D03*
X203079252Y-68481802D03*
X203079252Y-69581802D03*
%TD*%
D16*
%TO.C,R5*%
X166984964Y-131209341D03*
X166984964Y-129559341D03*
%TD*%
D17*
%TO.C,R6*%
X166121680Y-138452384D03*
X166121680Y-140102384D03*
%TD*%
D12*
%TO.C,C9*%
X183510141Y-122180623D03*
X183510141Y-120630623D03*
%TD*%
D11*
%TO.C,D343*%
X188909252Y-64581802D03*
X188909252Y-63481802D03*
X187079252Y-63481802D03*
X187079252Y-64581802D03*
%TD*%
%TO.C,D309*%
X168909252Y-69581802D03*
X168909252Y-68481802D03*
X167079252Y-68481802D03*
X167079252Y-69581802D03*
%TD*%
D18*
%TO.C,C8*%
X182721428Y-133638832D03*
X182721428Y-135188832D03*
%TD*%
D11*
%TO.C,D307*%
X164909252Y-94581802D03*
X164909252Y-93481802D03*
X163079252Y-93481802D03*
X163079252Y-94581802D03*
%TD*%
%TO.C,D333*%
X180909252Y-84581802D03*
X180909252Y-83481802D03*
X179079252Y-83481802D03*
X179079252Y-84581802D03*
%TD*%
%TO.C,D304*%
X164909252Y-79581802D03*
X164909252Y-78481802D03*
X163079252Y-78481802D03*
X163079252Y-79581802D03*
%TD*%
%TO.C,D346*%
X188909252Y-79581802D03*
X188909252Y-78481802D03*
X187079252Y-78481802D03*
X187079252Y-79581802D03*
%TD*%
%TO.C,D340*%
X184909252Y-84581802D03*
X184909252Y-83481802D03*
X183079252Y-83481802D03*
X183079252Y-84581802D03*
%TD*%
%TO.C,D401*%
X220909252Y-74581802D03*
X220909252Y-73481802D03*
X219079252Y-73481802D03*
X219079252Y-74581802D03*
%TD*%
%TO.C,D345*%
X188909252Y-74581802D03*
X188909252Y-73481802D03*
X187079252Y-73481802D03*
X187079252Y-74581802D03*
%TD*%
%TO.C,D327*%
X176909252Y-89581802D03*
X176909252Y-88481802D03*
X175079252Y-88481802D03*
X175079252Y-89581802D03*
%TD*%
D19*
%TO.C,U5*%
X225127645Y-135354743D03*
X224627519Y-135354743D03*
X224127393Y-135354743D03*
X223627267Y-135354743D03*
X223627267Y-136954943D03*
X224127393Y-136954943D03*
X224627519Y-136954943D03*
X225127645Y-136954943D03*
%TD*%
D16*
%TO.C,R27*%
X173457810Y-141596343D03*
X173457810Y-139946343D03*
%TD*%
D20*
%TO.C,C24*%
X216800317Y-131628018D03*
X216800317Y-133528018D03*
%TD*%
D21*
%TO.C,R10*%
X191109658Y-122842267D03*
X192759658Y-122842267D03*
%TD*%
D11*
%TO.C,D356*%
X192909252Y-94581802D03*
X192909252Y-93481802D03*
X191079252Y-93481802D03*
X191079252Y-94581802D03*
%TD*%
D20*
%TO.C,C30*%
X201804182Y-124801786D03*
X201804182Y-126701786D03*
%TD*%
D22*
%TO.C,U3*%
X179813323Y-120697933D03*
X179813323Y-119747933D03*
X179813323Y-118797933D03*
X177538323Y-118797933D03*
X177538323Y-120697933D03*
%TD*%
D11*
%TO.C,D390*%
X212909252Y-89581802D03*
X212909252Y-88481802D03*
X211079252Y-88481802D03*
X211079252Y-89581802D03*
%TD*%
D21*
%TO.C,R13*%
X191099434Y-124510716D03*
X192749434Y-124510716D03*
%TD*%
D11*
%TO.C,D364*%
X200909252Y-64581802D03*
X200909252Y-63481802D03*
X199079252Y-63481802D03*
X199079252Y-64581802D03*
%TD*%
%TO.C,D378*%
X208909252Y-64581802D03*
X208909252Y-63481802D03*
X207079252Y-63481802D03*
X207079252Y-64581802D03*
%TD*%
%TO.C,D310*%
X168909252Y-74581802D03*
X168909252Y-73481802D03*
X167079252Y-73481802D03*
X167079252Y-74581802D03*
%TD*%
D23*
%TO.C,D1*%
X160533633Y-145240039D03*
X158658633Y-145240039D03*
%TD*%
D11*
%TO.C,D329*%
X180909252Y-64581802D03*
X180909252Y-63481802D03*
X179079252Y-63481802D03*
X179079252Y-64581802D03*
%TD*%
%TO.C,D384*%
X208909252Y-94581802D03*
X208909252Y-93481802D03*
X207079252Y-93481802D03*
X207079252Y-94581802D03*
%TD*%
D21*
%TO.C,R2*%
X213571599Y-143772881D03*
X215221599Y-143772881D03*
%TD*%
D11*
%TO.C,D358*%
X196909252Y-69581802D03*
X196909252Y-68481802D03*
X195079252Y-68481802D03*
X195079252Y-69581802D03*
%TD*%
D12*
%TO.C,C14*%
X194286637Y-129277971D03*
X194286637Y-127727971D03*
%TD*%
D24*
%TO.C,U7*%
X175497496Y-141228532D03*
X176767496Y-141228532D03*
X178037496Y-141228532D03*
X179307496Y-141228532D03*
X179307496Y-134028532D03*
X178037496Y-134028532D03*
X176767496Y-134028532D03*
X175497496Y-134028532D03*
%TD*%
D11*
%TO.C,D353*%
X192909252Y-79581802D03*
X192909252Y-78481802D03*
X191079252Y-78481802D03*
X191079252Y-79581802D03*
%TD*%
%TO.C,D376*%
X204909252Y-89581802D03*
X204909252Y-88481802D03*
X203079252Y-88481802D03*
X203079252Y-89581802D03*
%TD*%
%TO.C,D363*%
X196909252Y-94581802D03*
X196909252Y-93481802D03*
X195079252Y-93481802D03*
X195079252Y-94581802D03*
%TD*%
D18*
%TO.C,C27*%
X220805310Y-131582352D03*
X220805310Y-133132352D03*
%TD*%
D25*
%TO.C,C1*%
X191157564Y-126184913D03*
X192707564Y-126184913D03*
%TD*%
D23*
%TO.C,D2*%
X160523096Y-148467380D03*
X158648096Y-148467380D03*
%TD*%
D11*
%TO.C,D361*%
X196909252Y-84581802D03*
X196909252Y-83481802D03*
X195079252Y-83481802D03*
X195079252Y-84581802D03*
%TD*%
%TO.C,D352*%
X192909252Y-74581802D03*
X192909252Y-73481802D03*
X191079252Y-73481802D03*
X191079252Y-74581802D03*
%TD*%
D26*
%TO.C,SW3*%
X184750000Y-104250000D03*
X199250000Y-104250000D03*
X184750000Y-109250000D03*
X199250000Y-109250000D03*
%TD*%
D11*
%TO.C,D370*%
X200909252Y-94581802D03*
X200909252Y-93481802D03*
X199079252Y-93481802D03*
X199079252Y-94581802D03*
%TD*%
%TO.C,D360*%
X196909252Y-79581802D03*
X196909252Y-78481802D03*
X195079252Y-78481802D03*
X195079252Y-79581802D03*
%TD*%
%TO.C,D392*%
X216909252Y-64581802D03*
X216909252Y-63481802D03*
X215079252Y-63481802D03*
X215079252Y-64581802D03*
%TD*%
D21*
%TO.C,R29*%
X187897904Y-118186267D03*
X189547904Y-118186267D03*
%TD*%
D11*
%TO.C,D308*%
X168909252Y-64581802D03*
X168909252Y-63481802D03*
X167079252Y-63481802D03*
X167079252Y-64581802D03*
%TD*%
D25*
%TO.C,C12*%
X162193629Y-146868881D03*
X163743629Y-146868881D03*
%TD*%
D11*
%TO.C,D337*%
X184909252Y-69581802D03*
X184909252Y-68481802D03*
X183079252Y-68481802D03*
X183079252Y-69581802D03*
%TD*%
%TO.C,D317*%
X172909252Y-74581802D03*
X172909252Y-73481802D03*
X171079252Y-73481802D03*
X171079252Y-74581802D03*
%TD*%
D27*
%TO.C,Y1*%
X197790210Y-132442648D03*
X197790210Y-122942648D03*
%TD*%
D21*
%TO.C,R1*%
X173865768Y-126973286D03*
X175515768Y-126973286D03*
%TD*%
D11*
%TO.C,D402*%
X220909252Y-79581802D03*
X220909252Y-78481802D03*
X219079252Y-78481802D03*
X219079252Y-79581802D03*
%TD*%
%TO.C,D405*%
X220909252Y-94581802D03*
X220909252Y-93481802D03*
X219079252Y-93481802D03*
X219079252Y-94581802D03*
%TD*%
D23*
%TO.C,D3*%
X192937736Y-118222282D03*
X191062736Y-118222282D03*
%TD*%
D11*
%TO.C,D359*%
X196909252Y-74581802D03*
X196909252Y-73481802D03*
X195079252Y-73481802D03*
X195079252Y-74581802D03*
%TD*%
D18*
%TO.C,C15*%
X191113077Y-131528545D03*
X191113077Y-133078545D03*
%TD*%
D20*
%TO.C,C25*%
X218946354Y-131628018D03*
X218946354Y-133528018D03*
%TD*%
D26*
%TO.C,SW4*%
X204750000Y-104250000D03*
X219250000Y-104250000D03*
X204750000Y-109250000D03*
X219250000Y-109250000D03*
%TD*%
D11*
%TO.C,D336*%
X184909252Y-64581802D03*
X184909252Y-63481802D03*
X183079252Y-63481802D03*
X183079252Y-64581802D03*
%TD*%
D16*
%TO.C,R18*%
X208052645Y-128961736D03*
X208052645Y-127311736D03*
%TD*%
D11*
%TO.C,D350*%
X192909252Y-64581802D03*
X192909252Y-63481802D03*
X191079252Y-63481802D03*
X191079252Y-64581802D03*
%TD*%
D25*
%TO.C,C11*%
X191167279Y-127740155D03*
X192717279Y-127740155D03*
%TD*%
D11*
%TO.C,D354*%
X192909252Y-84581802D03*
X192909252Y-83481802D03*
X191079252Y-83481802D03*
X191079252Y-84581802D03*
%TD*%
%TO.C,D335*%
X180909252Y-94581802D03*
X180909252Y-93481802D03*
X179079252Y-93481802D03*
X179079252Y-94581802D03*
%TD*%
%TO.C,D368*%
X200909252Y-84581802D03*
X200909252Y-83481802D03*
X199079252Y-83481802D03*
X199079252Y-84581802D03*
%TD*%
D28*
%TO.C,R8*%
X163797515Y-148478616D03*
X162147515Y-148478616D03*
%TD*%
D11*
%TO.C,D391*%
X212909252Y-94581802D03*
X212909252Y-93481802D03*
X211079252Y-93481802D03*
X211079252Y-94581802D03*
%TD*%
D29*
%TO.C,IC1*%
X180942522Y-57523527D03*
X180942522Y-60063527D03*
X187242522Y-60063527D03*
X187242522Y-57523527D03*
%TD*%
D30*
%TO.C,C23*%
X207320689Y-133588447D03*
X207320689Y-131688447D03*
%TD*%
D31*
%TO.C,D5*%
X200498534Y-57961936D03*
X197698534Y-57961936D03*
%TD*%
D11*
%TO.C,D301*%
X164909252Y-64581802D03*
X164909252Y-63481802D03*
X163079252Y-63481802D03*
X163079252Y-64581802D03*
%TD*%
D16*
%TO.C,R21*%
X193866011Y-60414155D03*
X193866011Y-58764155D03*
%TD*%
D28*
%TO.C,R7*%
X163766240Y-145270891D03*
X162116240Y-145270891D03*
%TD*%
D18*
%TO.C,C5*%
X184272592Y-133628952D03*
X184272592Y-135178952D03*
%TD*%
D11*
%TO.C,D380*%
X208909252Y-74581802D03*
X208909252Y-73481802D03*
X207079252Y-73481802D03*
X207079252Y-74581802D03*
%TD*%
%TO.C,D387*%
X212909252Y-74581802D03*
X212909252Y-73481802D03*
X211079252Y-73481802D03*
X211079252Y-74581802D03*
%TD*%
D18*
%TO.C,C13*%
X176793456Y-128529241D03*
X176793456Y-130079241D03*
%TD*%
D11*
%TO.C,D389*%
X212909252Y-84581802D03*
X212909252Y-83481802D03*
X211079252Y-83481802D03*
X211079252Y-84581802D03*
%TD*%
%TO.C,D377*%
X204909252Y-94581802D03*
X204909252Y-93481802D03*
X203079252Y-93481802D03*
X203079252Y-94581802D03*
%TD*%
%TO.C,D316*%
X172909252Y-69581802D03*
X172909252Y-68481802D03*
X171079252Y-68481802D03*
X171079252Y-69581802D03*
%TD*%
%TO.C,D398*%
X216909252Y-94581802D03*
X216909252Y-93481802D03*
X215079252Y-93481802D03*
X215079252Y-94581802D03*
%TD*%
D20*
%TO.C,C26*%
X214655015Y-131634314D03*
X214655015Y-133534314D03*
%TD*%
D11*
%TO.C,D332*%
X180909252Y-79581802D03*
X180909252Y-78481802D03*
X179079252Y-78481802D03*
X179079252Y-79581802D03*
%TD*%
%TO.C,D388*%
X212909252Y-79581802D03*
X212909252Y-78481802D03*
X211079252Y-78481802D03*
X211079252Y-79581802D03*
%TD*%
%TO.C,D315*%
X172909252Y-64581802D03*
X172909252Y-63481802D03*
X171079252Y-63481802D03*
X171079252Y-64581802D03*
%TD*%
%TO.C,D331*%
X180909252Y-74581802D03*
X180909252Y-73481802D03*
X179079252Y-73481802D03*
X179079252Y-74581802D03*
%TD*%
%TO.C,D326*%
X176909252Y-84581802D03*
X176909252Y-83481802D03*
X175079252Y-83481802D03*
X175079252Y-84581802D03*
%TD*%
D17*
%TO.C,R26*%
X181643891Y-139961151D03*
X181643891Y-141611151D03*
%TD*%
D11*
%TO.C,D393*%
X216909252Y-69581802D03*
X216909252Y-68481802D03*
X215079252Y-68481802D03*
X215079252Y-69581802D03*
%TD*%
%TO.C,D394*%
X216909252Y-74581802D03*
X216909252Y-73481802D03*
X215079252Y-73481802D03*
X215079252Y-74581802D03*
%TD*%
%TO.C,D366*%
X200909252Y-74581802D03*
X200909252Y-73481802D03*
X199079252Y-73481802D03*
X199079252Y-74581802D03*
%TD*%
%TO.C,D385*%
X212909252Y-64581802D03*
X212909252Y-63481802D03*
X211079252Y-63481802D03*
X211079252Y-64581802D03*
%TD*%
%TO.C,D404*%
X220909252Y-89581802D03*
X220909252Y-88481802D03*
X219079252Y-88481802D03*
X219079252Y-89581802D03*
%TD*%
%TO.C,D399*%
X220909252Y-64581802D03*
X220909252Y-63481802D03*
X219079252Y-63481802D03*
X219079252Y-64581802D03*
%TD*%
%TO.C,D403*%
X220909252Y-84581802D03*
X220909252Y-83481802D03*
X219079252Y-83481802D03*
X219079252Y-84581802D03*
%TD*%
D32*
%TO.C,C10*%
X179917345Y-122592849D03*
X178367345Y-122592849D03*
%TD*%
D11*
%TO.C,D396*%
X216909252Y-84581802D03*
X216909252Y-83481802D03*
X215079252Y-83481802D03*
X215079252Y-84581802D03*
%TD*%
%TO.C,D382*%
X208909252Y-84581802D03*
X208909252Y-83481802D03*
X207079252Y-83481802D03*
X207079252Y-84581802D03*
%TD*%
%TO.C,D386*%
X212909252Y-69581802D03*
X212909252Y-68481802D03*
X211079252Y-68481802D03*
X211079252Y-69581802D03*
%TD*%
%TO.C,D341*%
X184909252Y-89581802D03*
X184909252Y-88481802D03*
X183079252Y-88481802D03*
X183079252Y-89581802D03*
%TD*%
D32*
%TO.C,C3*%
X179923500Y-125717630D03*
X178373500Y-125717630D03*
%TD*%
D11*
%TO.C,D311*%
X168909252Y-79581802D03*
X168909252Y-78481802D03*
X167079252Y-78481802D03*
X167079252Y-79581802D03*
%TD*%
%TO.C,D314*%
X168909252Y-94581802D03*
X168909252Y-93481802D03*
X167079252Y-93481802D03*
X167079252Y-94581802D03*
%TD*%
D33*
%TO.C,SW5*%
X183696665Y-137055021D03*
X189894265Y-137055021D03*
X183696665Y-140755019D03*
X189894265Y-140755019D03*
%TD*%
D11*
%TO.C,D312*%
X168909252Y-84581802D03*
X168909252Y-83481802D03*
X167079252Y-83481802D03*
X167079252Y-84581802D03*
%TD*%
D34*
%TO.C,Q1*%
X185275693Y-121976297D03*
X187175693Y-121976297D03*
X186225693Y-119876297D03*
%TD*%
D11*
%TO.C,D334*%
X180909252Y-89581802D03*
X180909252Y-88481802D03*
X179079252Y-88481802D03*
X179079252Y-89581802D03*
%TD*%
D35*
%TO.C,U4*%
X210896560Y-132006374D03*
X210896560Y-132506374D03*
X210896560Y-133006374D03*
X210896560Y-133506374D03*
%TD*%
D11*
%TO.C,D348*%
X188909252Y-89581802D03*
X188909252Y-88481802D03*
X187079252Y-88481802D03*
X187079252Y-89581802D03*
%TD*%
%TO.C,D320*%
X172909252Y-89581802D03*
X172909252Y-88481802D03*
X171079252Y-88481802D03*
X171079252Y-89581802D03*
%TD*%
D17*
%TO.C,R17*%
X209976323Y-127300935D03*
X209976323Y-128950935D03*
%TD*%
D11*
%TO.C,D324*%
X176909252Y-74581802D03*
X176909252Y-73481802D03*
X175079252Y-73481802D03*
X175079252Y-74581802D03*
%TD*%
D36*
%TO.C,U2*%
X184535071Y-128736543D03*
X186135071Y-128736543D03*
X184535071Y-127136543D03*
X186135071Y-127136543D03*
D37*
X182735071Y-131374043D03*
X183135071Y-131374043D03*
X183535071Y-131374043D03*
X183935071Y-131374043D03*
X184335071Y-131374043D03*
X184735071Y-131374043D03*
X185135071Y-131374043D03*
X185535071Y-131374043D03*
X185935071Y-131374043D03*
X186335071Y-131374043D03*
X186735071Y-131374043D03*
X187135071Y-131374043D03*
X187535071Y-131374043D03*
X187935071Y-131374043D03*
D38*
X188772571Y-130536543D03*
X188772571Y-130136543D03*
X188772571Y-129736543D03*
X188772571Y-129336543D03*
X188772571Y-128936543D03*
X188772571Y-128536543D03*
X188772571Y-128136543D03*
X188772571Y-127736543D03*
X188772571Y-127336543D03*
X188772571Y-126936543D03*
X188772571Y-126536543D03*
X188772571Y-126136543D03*
X188772571Y-125736543D03*
X188772571Y-125336543D03*
D37*
X187935071Y-124499043D03*
X187535071Y-124499043D03*
X187135071Y-124499043D03*
X186735071Y-124499043D03*
X186335071Y-124499043D03*
X185935071Y-124499043D03*
X185535071Y-124499043D03*
X185135071Y-124499043D03*
X184735071Y-124499043D03*
X184335071Y-124499043D03*
X183935071Y-124499043D03*
X183535071Y-124499043D03*
X183135071Y-124499043D03*
X182735071Y-124499043D03*
D38*
X181897571Y-125336543D03*
X181897571Y-125736543D03*
X181897571Y-126136543D03*
X181897571Y-126536543D03*
X181897571Y-126936543D03*
X181897571Y-127336543D03*
X181897571Y-127736543D03*
X181897571Y-128136543D03*
X181897571Y-128536543D03*
X181897571Y-128936543D03*
X181897571Y-129336543D03*
X181897571Y-129736543D03*
X181897571Y-130136543D03*
X181897571Y-130536543D03*
%TD*%
D11*
%TO.C,D375*%
X204909252Y-84581802D03*
X204909252Y-83481802D03*
X203079252Y-83481802D03*
X203079252Y-84581802D03*
%TD*%
D12*
%TO.C,C6*%
X181989325Y-122182824D03*
X181989325Y-120632824D03*
%TD*%
D11*
%TO.C,D321*%
X172909252Y-94581802D03*
X172909252Y-93481802D03*
X171079252Y-93481802D03*
X171079252Y-94581802D03*
%TD*%
%TO.C,D344*%
X188909252Y-69581802D03*
X188909252Y-68481802D03*
X187079252Y-68481802D03*
X187079252Y-69581802D03*
%TD*%
D18*
%TO.C,C20*%
X189941688Y-58709133D03*
X189941688Y-60259133D03*
%TD*%
D30*
%TO.C,C29*%
X201670578Y-121984125D03*
X201670578Y-120084125D03*
%TD*%
D11*
%TO.C,D381*%
X208909252Y-79581802D03*
X208909252Y-78481802D03*
X207079252Y-78481802D03*
X207079252Y-79581802D03*
%TD*%
%TO.C,D303*%
X164909252Y-74581802D03*
X164909252Y-73481802D03*
X163079252Y-73481802D03*
X163079252Y-74581802D03*
%TD*%
D32*
%TO.C,C16*%
X176791244Y-131829493D03*
X175241244Y-131829493D03*
%TD*%
D33*
%TO.C,SW2*%
X197846304Y-140755580D03*
X191648704Y-140755580D03*
X197846304Y-137055582D03*
X191648704Y-137055582D03*
%TD*%
D21*
%TO.C,R4*%
X173869878Y-125426418D03*
X175519878Y-125426418D03*
%TD*%
D32*
%TO.C,C4*%
X179910607Y-124133195D03*
X178360607Y-124133195D03*
%TD*%
D28*
%TO.C,R3*%
X215227961Y-142195569D03*
X213577961Y-142195569D03*
%TD*%
D11*
%TO.C,D374*%
X204909252Y-79581802D03*
X204909252Y-78481802D03*
X203079252Y-78481802D03*
X203079252Y-79581802D03*
%TD*%
%TO.C,D347*%
X188909252Y-84581802D03*
X188909252Y-83481802D03*
X187079252Y-83481802D03*
X187079252Y-84581802D03*
%TD*%
D17*
%TO.C,R16*%
X226636818Y-136514282D03*
X226636818Y-138164282D03*
%TD*%
D11*
%TO.C,D323*%
X176909252Y-69581802D03*
X176909252Y-68481802D03*
X175079252Y-68481802D03*
X175079252Y-69581802D03*
%TD*%
D26*
%TO.C,SW1*%
X164750000Y-104250000D03*
X179250000Y-104250000D03*
X164750000Y-109250000D03*
X179250000Y-109250000D03*
%TD*%
D39*
%TO.C,U6*%
X203884440Y-120112141D03*
X203884440Y-122402141D03*
X203884440Y-124692141D03*
D40*
X210574440Y-122402141D03*
%TD*%
D11*
%TO.C,D325*%
X176909252Y-79581802D03*
X176909252Y-78481802D03*
X175079252Y-78481802D03*
X175079252Y-79581802D03*
%TD*%
%TO.C,D306*%
X164909252Y-89581802D03*
X164909252Y-88481802D03*
X163079252Y-88481802D03*
X163079252Y-89581802D03*
%TD*%
%TO.C,D319*%
X172909252Y-84581802D03*
X172909252Y-83481802D03*
X171079252Y-83481802D03*
X171079252Y-84581802D03*
%TD*%
D41*
%TO.C,J1*%
X163184795Y-133519783D03*
X163184795Y-134319783D03*
D42*
X163184795Y-135469783D03*
X163184795Y-136469783D03*
X163184795Y-136969783D03*
X163184795Y-137969783D03*
D41*
X163184795Y-139919783D03*
X163184795Y-139119783D03*
D42*
X163184795Y-138469783D03*
X163184795Y-137469783D03*
X163184795Y-135969783D03*
X163184795Y-134969783D03*
%TD*%
D28*
%TO.C,R28*%
X192737252Y-129307317D03*
X191087252Y-129307317D03*
%TD*%
D11*
%TO.C,D355*%
X192909252Y-89581802D03*
X192909252Y-88481802D03*
X191079252Y-88481802D03*
X191079252Y-89581802D03*
%TD*%
%TO.C,D330*%
X180909252Y-69581802D03*
X180909252Y-68481802D03*
X179079252Y-68481802D03*
X179079252Y-69581802D03*
%TD*%
%TO.C,D367*%
X200909252Y-79581802D03*
X200909252Y-78481802D03*
X199079252Y-78481802D03*
X199079252Y-79581802D03*
%TD*%
%TO.C,D365*%
X200909252Y-69581802D03*
X200909252Y-68481802D03*
X199079252Y-68481802D03*
X199079252Y-69581802D03*
%TD*%
%TO.C,D351*%
X192909252Y-69581802D03*
X192909252Y-68481802D03*
X191079252Y-68481802D03*
X191079252Y-69581802D03*
%TD*%
%TO.C,D338*%
X184909252Y-74581802D03*
X184909252Y-73481802D03*
X183079252Y-73481802D03*
X183079252Y-74581802D03*
%TD*%
%TO.C,D397*%
X216909252Y-89581802D03*
X216909252Y-88481802D03*
X215079252Y-88481802D03*
X215079252Y-89581802D03*
%TD*%
%TO.C,D357*%
X196909252Y-64581802D03*
X196909252Y-63481802D03*
X195079252Y-63481802D03*
X195079252Y-64581802D03*
%TD*%
D32*
%TO.C,C2*%
X179877968Y-128537862D03*
X178327968Y-128537862D03*
%TD*%
D11*
%TO.C,D371*%
X204909252Y-64581802D03*
X204909252Y-63481802D03*
X203079252Y-63481802D03*
X203079252Y-64581802D03*
%TD*%
%TO.C,D395*%
X216909252Y-79581802D03*
X216909252Y-78481802D03*
X215079252Y-78481802D03*
X215079252Y-79581802D03*
%TD*%
%TO.C,D373*%
X204909252Y-74581802D03*
X204909252Y-73481802D03*
X203079252Y-73481802D03*
X203079252Y-74581802D03*
%TD*%
M02*
