%TF.GenerationSoftware,KiCad,Pcbnew,8.0.5*%
%TF.CreationDate,2025-08-16T16:19:27-04:00*%
%TF.ProjectId,TagTag,54616754-6167-42e6-9b69-6361645f7063,1.2*%
%TF.SameCoordinates,Original*%
%TF.FileFunction,Copper,L3,Inr*%
%TF.FilePolarity,Positive*%
%FSLAX46Y46*%
G04 Gerber Fmt 4.6, Leading zero omitted, Abs format (unit mm)*
G04 Created by KiCad (PCBNEW 8.0.5) date 2025-08-16 16:19:27*
%MOMM*%
%LPD*%
G01*
G04 APERTURE LIST*
%TA.AperFunction,ComponentPad*%
%ADD10C,4.700000*%
%TD*%
%TA.AperFunction,ComponentPad*%
%ADD11O,2.100000X1.000000*%
%TD*%
%TA.AperFunction,ComponentPad*%
%ADD12O,1.800000X1.000000*%
%TD*%
%TA.AperFunction,ComponentPad*%
%ADD13C,2.250000*%
%TD*%
%TA.AperFunction,ComponentPad*%
%ADD14R,1.700000X1.700000*%
%TD*%
%TA.AperFunction,ComponentPad*%
%ADD15O,1.700000X1.700000*%
%TD*%
%TA.AperFunction,ViaPad*%
%ADD16C,0.500000*%
%TD*%
%TA.AperFunction,ViaPad*%
%ADD17C,0.450000*%
%TD*%
%TA.AperFunction,ViaPad*%
%ADD18C,0.600000*%
%TD*%
%TA.AperFunction,ViaPad*%
%ADD19C,1.600000*%
%TD*%
%TA.AperFunction,ViaPad*%
%ADD20C,0.800000*%
%TD*%
%TA.AperFunction,ViaPad*%
%ADD21C,1.000000*%
%TD*%
%TA.AperFunction,Conductor*%
%ADD22C,1.300000*%
%TD*%
%TA.AperFunction,Conductor*%
%ADD23C,2.000000*%
%TD*%
%TA.AperFunction,Conductor*%
%ADD24C,0.400000*%
%TD*%
%TA.AperFunction,Conductor*%
%ADD25C,1.700000*%
%TD*%
%TA.AperFunction,Conductor*%
%ADD26C,0.254000*%
%TD*%
G04 APERTURE END LIST*
D10*
%TO.N,GND*%
%TO.C,H7*%
X160000000Y-108200000D03*
%TD*%
%TO.N,GND*%
%TO.C,H8*%
X224000000Y-108200000D03*
%TD*%
D11*
%TO.N,GND*%
%TO.C,J1*%
X162584795Y-132399783D03*
X162584795Y-141039783D03*
D12*
X158384795Y-132399783D03*
X158384795Y-141039783D03*
%TD*%
D13*
%TO.N,Net-(SW8-B)*%
%TO.C,BT1*%
X166700000Y-127400000D03*
%TO.N,Net-(BT1-Pad-)*%
X222000000Y-127400000D03*
%TD*%
%TO.N,Net-(BT1-Pad-)*%
%TO.C,BT2*%
X221996238Y-144500000D03*
%TO.N,GND*%
X166696238Y-144500000D03*
%TD*%
D14*
%TO.N,/PI_A_3v3*%
%TO.C,WIS3*%
X157340445Y-99300000D03*
D15*
X159880445Y-99300000D03*
%TO.N,/DI_25*%
X162420445Y-99300000D03*
%TO.N,unconnected-(WIS3-Pin_4-Pad4)*%
X164960445Y-99300000D03*
%TO.N,+5V*%
X167500445Y-99300000D03*
%TD*%
D14*
%TO.N,/AN_ADC2*%
%TO.C,WIS4*%
X157340445Y-117090000D03*
D15*
%TO.N,/DI_25*%
X159880445Y-117090000D03*
%TO.N,GND*%
X162420445Y-117090000D03*
%TO.N,/DI_24*%
X164960445Y-117090000D03*
%TO.N,/DI_23*%
X167500445Y-117090000D03*
%TD*%
D14*
%TO.N,GND*%
%TO.C,J2*%
X159843375Y-101866875D03*
D15*
%TO.N,/DI_24*%
X162383375Y-101866875D03*
%TD*%
D14*
%TO.N,/DVI_12*%
%TO.C,WIS2*%
X216503970Y-117090000D03*
D15*
%TO.N,/DVI_13*%
X219043970Y-117090000D03*
%TO.N,GND*%
X221583970Y-117090000D03*
%TO.N,/DVI_14*%
X224123970Y-117090000D03*
%TO.N,/DVI_15*%
X226663970Y-117090000D03*
%TD*%
D14*
%TO.N,/DVI_19*%
%TO.C,WIS1*%
X216520341Y-99300000D03*
D15*
%TO.N,/DVI_18*%
X219060341Y-99300000D03*
%TO.N,GND*%
X221600341Y-99300000D03*
%TO.N,/DVI_17*%
X224140341Y-99300000D03*
%TO.N,/DVI_16*%
X226680341Y-99300000D03*
%TD*%
D16*
%TO.N,GND*%
X188722904Y-118186267D03*
X197961558Y-61742155D03*
X189928868Y-59557707D03*
X180942522Y-58741792D03*
X177961558Y-61742155D03*
D17*
X166984964Y-130366762D03*
D16*
X179246895Y-110383515D03*
X213156925Y-136949868D03*
X165931801Y-61765792D03*
D17*
X179109912Y-124120251D03*
X181987464Y-121407241D03*
X179131177Y-125717630D03*
D16*
X180781372Y-117579810D03*
X179307496Y-139998168D03*
D17*
X186467214Y-129091071D03*
X187805642Y-121810605D03*
X188906955Y-121363098D03*
D16*
X191974171Y-95717974D03*
X205961558Y-61742155D03*
X194277882Y-128424229D03*
X187974171Y-95717974D03*
X192007305Y-122842267D03*
X198930786Y-137065686D03*
X185961558Y-61742155D03*
X211974171Y-95717974D03*
D17*
X185335071Y-127936543D03*
X191120310Y-132303154D03*
D16*
X195974171Y-95717974D03*
D17*
X186452840Y-128020170D03*
D16*
X191967279Y-127737141D03*
D18*
X203875076Y-131664941D03*
D17*
X186467214Y-126791150D03*
X184145732Y-127941110D03*
D16*
X181961558Y-61742155D03*
D17*
X176794973Y-129341366D03*
D16*
X221961558Y-61742155D03*
X171974171Y-95717974D03*
X219241808Y-110418271D03*
X215735860Y-134796415D03*
X219974171Y-94416883D03*
D17*
X176011881Y-131819889D03*
D16*
X179974171Y-95717974D03*
X191669000Y-136339882D03*
X189961558Y-61742155D03*
X203974171Y-95717974D03*
D17*
X163020184Y-148478616D03*
D16*
X183974171Y-95717974D03*
X201961558Y-61742155D03*
X201803990Y-125801786D03*
D17*
X179109912Y-122585792D03*
X185295692Y-126776776D03*
D19*
X206765676Y-120114258D03*
D16*
X164768882Y-110374298D03*
D18*
X205959475Y-131701087D03*
D16*
X173961558Y-61742155D03*
X217945815Y-136961270D03*
X214438119Y-142194953D03*
D20*
X188785464Y-140755019D03*
D16*
X169961558Y-61742155D03*
D17*
X162968835Y-145270891D03*
X183511789Y-121391148D03*
D16*
X215745206Y-136961270D03*
X199239082Y-110389050D03*
D20*
X184792171Y-140755019D03*
D17*
X162968629Y-146868881D03*
D16*
X191957564Y-126181616D03*
X204775267Y-110409403D03*
X217945006Y-134807858D03*
X164002594Y-95717974D03*
D17*
X182725155Y-134505883D03*
X184266169Y-134505883D03*
X184145732Y-126769588D03*
D16*
X207974171Y-95717974D03*
X224727933Y-133785713D03*
X215974171Y-94416883D03*
X217961558Y-61742155D03*
D17*
X178991389Y-128529369D03*
D16*
X213145523Y-134783465D03*
X199974171Y-95717974D03*
X175974171Y-95717974D03*
X213961558Y-61742155D03*
X184760557Y-110374791D03*
D18*
X203863028Y-127267221D03*
D16*
X167974171Y-95717974D03*
D17*
X189832710Y-129559182D03*
X185302879Y-129112632D03*
X184124170Y-129127007D03*
X166121922Y-139261058D03*
D16*
X193961558Y-61742155D03*
X209961558Y-61742155D03*
D18*
X206826971Y-127303366D03*
D17*
%TO.N,+1V1*%
X187970698Y-127320171D03*
X182626266Y-126139149D03*
D19*
%TO.N,/PI_A_3v3*%
X205574715Y-122427598D03*
D17*
X175497496Y-135101424D03*
D16*
X190490972Y-127740155D03*
X177339875Y-131280862D03*
D17*
X180688097Y-122911336D03*
X173457000Y-140697993D03*
X180617096Y-124577127D03*
X182735071Y-122880042D03*
D16*
X170624597Y-138217487D03*
D17*
X176095512Y-128543069D03*
D16*
X185874434Y-57534898D03*
D17*
X159634756Y-148467078D03*
D16*
X185137381Y-134296372D03*
X177482469Y-117433298D03*
X182719340Y-132982489D03*
X191969120Y-124515191D03*
X175896147Y-132724590D03*
X188912809Y-122901229D03*
D21*
%TO.N,/PI_A_USB_PWR_IN*%
X160996319Y-137651307D03*
D17*
X159528803Y-146110209D03*
D19*
X223198278Y-140082185D03*
D21*
X160996319Y-135839166D03*
D19*
X221084042Y-140082185D03*
D17*
%TO.N,/PI_A_LED*%
X191999110Y-118218077D03*
X187197321Y-132536183D03*
D16*
%TO.N,Net-(D5-K)*%
X200584615Y-59487192D03*
X176932084Y-114538849D03*
%TO.N,/5V_PXL*%
X159199504Y-63481802D03*
X176476254Y-118797932D03*
D19*
%TO.N,+5V*%
X225101543Y-124870380D03*
D16*
X200000907Y-61762265D03*
X218354252Y-94206802D03*
X176000907Y-61762265D03*
X180000907Y-61762265D03*
X196000907Y-61762265D03*
D19*
X226353310Y-126122147D03*
D16*
X172000907Y-61762265D03*
X178013520Y-95738084D03*
X194013520Y-95738084D03*
X166013520Y-95738084D03*
X188000907Y-61762265D03*
X182013520Y-95738084D03*
X186013520Y-95738084D03*
X216000907Y-61762265D03*
X202013520Y-95738084D03*
X198013520Y-95738084D03*
X184000907Y-61762265D03*
X212000907Y-61762265D03*
X206013520Y-95738084D03*
X204000907Y-61762265D03*
X220000907Y-61762265D03*
X163971150Y-61785902D03*
X208000907Y-61762265D03*
X170013520Y-95738084D03*
X210013520Y-95738084D03*
X162940146Y-95792120D03*
X168000907Y-61762265D03*
X214013520Y-95738084D03*
X190013520Y-95738084D03*
X192000907Y-61762265D03*
X174013520Y-95738084D03*
D17*
%TO.N,/DO_IR_LED_PI*%
X187756376Y-125484227D03*
X186596532Y-130284738D03*
X185279315Y-122932434D03*
D16*
%TO.N,/DI_IRM_PI*%
X187169704Y-58995823D03*
D17*
X183943995Y-122954593D03*
D16*
%TO.N,+BATT*%
X205950581Y-133488847D03*
D19*
X202373113Y-143042329D03*
X163183999Y-122625168D03*
D16*
X209713531Y-132091847D03*
%TO.N,/DI_BTN_L_PI*%
X177614321Y-104250000D03*
D17*
X185124028Y-132096998D03*
D16*
%TO.N,/DI_BTN_R_PI*%
X182881514Y-104242058D03*
D17*
X185574028Y-132699990D03*
D16*
%TO.N,/DI_BTN_FIRE_PI*%
X203284587Y-104253622D03*
D17*
X185932453Y-133361179D03*
%TO.N,/AN_BATT_MEASURE_PI*%
X182976646Y-127753879D03*
X215221599Y-142974490D03*
%TO.N,/GPIO_PXL_PI*%
X184746570Y-130711445D03*
D16*
X178805646Y-120133961D03*
%TD*%
D22*
%TO.N,/PI_A_3v3*%
X193507525Y-118243508D02*
X192338237Y-119412796D01*
X201390625Y-118243508D02*
X193507525Y-118243508D01*
X205574715Y-122427598D02*
X201390625Y-118243508D01*
D23*
%TO.N,/PI_A_USB_PWR_IN*%
X167446922Y-138727891D02*
X167446922Y-138712225D01*
X196715328Y-142638548D02*
X171357579Y-142638548D01*
X223198278Y-140082185D02*
X221084042Y-140082185D01*
D24*
X160996319Y-135839166D02*
X160996319Y-137651307D01*
D23*
X164573863Y-135839166D02*
X160996319Y-135839166D01*
X199271691Y-140082185D02*
X196715328Y-142638548D01*
X171357579Y-142638548D02*
X167446922Y-138727891D01*
X167446922Y-138712225D02*
X164573863Y-135839166D01*
X221084042Y-140082185D02*
X199271691Y-140082185D01*
D25*
%TO.N,+5V*%
X214013520Y-95789705D02*
X214013520Y-95738084D01*
X224139386Y-123908223D02*
X214553484Y-123908223D01*
X226353310Y-126122147D02*
X224139386Y-123908223D01*
X210850875Y-98067449D02*
X210850875Y-96575439D01*
X210850875Y-96575439D02*
X210013520Y-95738084D01*
X214553484Y-123908223D02*
X210850875Y-120205614D01*
X210850875Y-100032801D02*
X210850875Y-98067449D01*
X210850875Y-120205614D02*
X210850875Y-100032801D01*
X211263666Y-98539559D02*
X214013520Y-95789705D01*
D26*
%TO.N,+BATT*%
X208316958Y-133488420D02*
X205890229Y-133488420D01*
X209713531Y-132091847D02*
X208316958Y-133488420D01*
%TD*%
%TA.AperFunction,Conductor*%
%TO.N,+5V*%
G36*
X221445681Y-61410892D02*
G01*
X221491443Y-61463690D01*
X221501395Y-61532847D01*
X221491450Y-61566725D01*
X221476393Y-61599695D01*
X221476392Y-61599697D01*
X221455911Y-61742155D01*
X221476392Y-61884611D01*
X221536180Y-62015526D01*
X221536181Y-62015528D01*
X221630430Y-62124298D01*
X221751505Y-62202108D01*
X221751508Y-62202109D01*
X221751507Y-62202109D01*
X221891594Y-62243242D01*
X221950373Y-62281016D01*
X221979398Y-62344572D01*
X221980660Y-62362181D01*
X221991138Y-96256737D01*
X221971474Y-96323782D01*
X221918684Y-96369553D01*
X221867129Y-96380775D01*
X212291985Y-96380066D01*
X212224947Y-96360376D01*
X212179196Y-96307569D01*
X212169257Y-96238410D01*
X212198287Y-96174856D01*
X212224951Y-96151753D01*
X212305299Y-96100117D01*
X212399548Y-95991347D01*
X212459336Y-95860431D01*
X212479818Y-95717974D01*
X212459336Y-95575517D01*
X212399548Y-95444601D01*
X212305299Y-95335831D01*
X212184224Y-95258021D01*
X212184222Y-95258020D01*
X212184220Y-95258019D01*
X212184221Y-95258019D01*
X212046134Y-95217474D01*
X212046132Y-95217474D01*
X211902210Y-95217474D01*
X211902207Y-95217474D01*
X211764120Y-95258019D01*
X211643044Y-95335830D01*
X211548794Y-95444600D01*
X211548793Y-95444602D01*
X211489005Y-95575517D01*
X211468524Y-95717974D01*
X211489005Y-95860430D01*
X211548793Y-95991345D01*
X211548794Y-95991347D01*
X211643043Y-96100117D01*
X211723313Y-96151703D01*
X211769068Y-96204507D01*
X211779012Y-96273666D01*
X211749987Y-96337222D01*
X211691209Y-96374996D01*
X211656265Y-96380019D01*
X208292446Y-96379770D01*
X208225408Y-96360080D01*
X208179657Y-96307273D01*
X208169718Y-96238114D01*
X208198748Y-96174560D01*
X208225413Y-96151456D01*
X208305299Y-96100117D01*
X208399548Y-95991347D01*
X208459336Y-95860431D01*
X208479818Y-95717974D01*
X208459336Y-95575517D01*
X208399548Y-95444601D01*
X208305299Y-95335831D01*
X208184224Y-95258021D01*
X208184222Y-95258020D01*
X208184220Y-95258019D01*
X208184221Y-95258019D01*
X208046134Y-95217474D01*
X208046132Y-95217474D01*
X207902210Y-95217474D01*
X207902207Y-95217474D01*
X207764120Y-95258019D01*
X207643044Y-95335830D01*
X207548794Y-95444600D01*
X207548793Y-95444602D01*
X207489005Y-95575517D01*
X207468524Y-95717974D01*
X207489005Y-95860430D01*
X207548793Y-95991345D01*
X207548794Y-95991347D01*
X207643043Y-96100117D01*
X207643045Y-96100118D01*
X207643047Y-96100120D01*
X207722852Y-96151408D01*
X207768607Y-96204212D01*
X207778551Y-96273370D01*
X207749526Y-96336926D01*
X207690748Y-96374700D01*
X207655804Y-96379723D01*
X204292907Y-96379474D01*
X204225869Y-96359784D01*
X204180118Y-96306977D01*
X204170179Y-96237818D01*
X204199209Y-96174264D01*
X204225877Y-96151158D01*
X204225952Y-96151110D01*
X204305299Y-96100117D01*
X204399548Y-95991347D01*
X204459336Y-95860431D01*
X204479818Y-95717974D01*
X204459336Y-95575517D01*
X204399548Y-95444601D01*
X204305299Y-95335831D01*
X204184224Y-95258021D01*
X204184222Y-95258020D01*
X204184220Y-95258019D01*
X204184221Y-95258019D01*
X204046134Y-95217474D01*
X204046132Y-95217474D01*
X203902210Y-95217474D01*
X203902207Y-95217474D01*
X203764120Y-95258019D01*
X203643044Y-95335830D01*
X203548794Y-95444600D01*
X203548793Y-95444602D01*
X203489005Y-95575517D01*
X203468524Y-95717974D01*
X203489005Y-95860430D01*
X203548793Y-95991345D01*
X203548794Y-95991347D01*
X203643043Y-96100117D01*
X203722392Y-96151111D01*
X203768146Y-96203914D01*
X203778090Y-96273072D01*
X203749065Y-96336628D01*
X203690288Y-96374403D01*
X203655343Y-96379426D01*
X200293368Y-96379177D01*
X200226330Y-96359487D01*
X200180579Y-96306680D01*
X200170640Y-96237521D01*
X200199670Y-96173967D01*
X200226333Y-96150865D01*
X200305299Y-96100117D01*
X200399548Y-95991347D01*
X200459336Y-95860431D01*
X200479818Y-95717974D01*
X200459336Y-95575517D01*
X200399548Y-95444601D01*
X200305299Y-95335831D01*
X200184224Y-95258021D01*
X200184222Y-95258020D01*
X200184220Y-95258019D01*
X200184221Y-95258019D01*
X200046134Y-95217474D01*
X200046132Y-95217474D01*
X199902210Y-95217474D01*
X199902207Y-95217474D01*
X199764120Y-95258019D01*
X199643044Y-95335830D01*
X199548794Y-95444600D01*
X199548793Y-95444602D01*
X199489005Y-95575517D01*
X199468524Y-95717974D01*
X199489005Y-95860430D01*
X199548793Y-95991345D01*
X199548794Y-95991347D01*
X199643043Y-96100117D01*
X199721930Y-96150815D01*
X199767685Y-96203618D01*
X199777629Y-96272777D01*
X199748604Y-96336332D01*
X199689826Y-96374107D01*
X199654882Y-96379130D01*
X196293829Y-96378881D01*
X196226791Y-96359191D01*
X196181040Y-96306384D01*
X196171101Y-96237225D01*
X196200131Y-96173671D01*
X196226795Y-96150567D01*
X196305299Y-96100117D01*
X196399548Y-95991347D01*
X196459336Y-95860431D01*
X196479818Y-95717974D01*
X196459336Y-95575517D01*
X196399548Y-95444601D01*
X196305299Y-95335831D01*
X196184224Y-95258021D01*
X196184222Y-95258020D01*
X196184220Y-95258019D01*
X196184221Y-95258019D01*
X196046134Y-95217474D01*
X196046132Y-95217474D01*
X195902210Y-95217474D01*
X195902207Y-95217474D01*
X195764120Y-95258019D01*
X195643044Y-95335830D01*
X195548794Y-95444600D01*
X195548793Y-95444602D01*
X195489005Y-95575517D01*
X195468524Y-95717974D01*
X195489005Y-95860430D01*
X195548793Y-95991345D01*
X195548794Y-95991347D01*
X195643043Y-96100117D01*
X195721469Y-96150518D01*
X195767224Y-96203322D01*
X195777168Y-96272481D01*
X195748143Y-96336037D01*
X195689365Y-96373811D01*
X195654421Y-96378834D01*
X192294290Y-96378585D01*
X192227252Y-96358895D01*
X192181501Y-96306088D01*
X192171562Y-96236929D01*
X192200592Y-96173375D01*
X192227257Y-96150270D01*
X192305299Y-96100117D01*
X192399548Y-95991347D01*
X192459336Y-95860431D01*
X192479818Y-95717974D01*
X192459336Y-95575517D01*
X192399548Y-95444601D01*
X192305299Y-95335831D01*
X192184224Y-95258021D01*
X192184222Y-95258020D01*
X192184220Y-95258019D01*
X192184221Y-95258019D01*
X192046134Y-95217474D01*
X192046132Y-95217474D01*
X191902210Y-95217474D01*
X191902207Y-95217474D01*
X191764120Y-95258019D01*
X191643044Y-95335830D01*
X191548794Y-95444600D01*
X191548793Y-95444602D01*
X191489005Y-95575517D01*
X191468524Y-95717974D01*
X191489005Y-95860430D01*
X191548793Y-95991345D01*
X191548794Y-95991347D01*
X191643043Y-96100117D01*
X191721009Y-96150223D01*
X191766763Y-96203025D01*
X191776707Y-96272183D01*
X191747683Y-96335739D01*
X191688905Y-96373514D01*
X191653960Y-96378537D01*
X188294751Y-96378288D01*
X188227713Y-96358598D01*
X188181962Y-96305791D01*
X188172023Y-96236632D01*
X188201053Y-96173078D01*
X188227719Y-96149974D01*
X188305299Y-96100117D01*
X188399548Y-95991347D01*
X188459336Y-95860431D01*
X188479818Y-95717974D01*
X188459336Y-95575517D01*
X188399548Y-95444601D01*
X188305299Y-95335831D01*
X188184224Y-95258021D01*
X188184222Y-95258020D01*
X188184220Y-95258019D01*
X188184221Y-95258019D01*
X188046134Y-95217474D01*
X188046132Y-95217474D01*
X187902210Y-95217474D01*
X187902207Y-95217474D01*
X187764120Y-95258019D01*
X187643044Y-95335830D01*
X187548794Y-95444600D01*
X187548793Y-95444602D01*
X187489005Y-95575517D01*
X187468524Y-95717974D01*
X187489005Y-95860430D01*
X187548793Y-95991345D01*
X187548794Y-95991347D01*
X187643043Y-96100117D01*
X187643045Y-96100118D01*
X187643047Y-96100120D01*
X187720546Y-96149926D01*
X187766301Y-96202729D01*
X187776245Y-96271888D01*
X187747220Y-96335444D01*
X187688442Y-96373218D01*
X187653498Y-96378241D01*
X184295212Y-96377992D01*
X184228174Y-96358302D01*
X184182423Y-96305495D01*
X184172484Y-96236336D01*
X184201514Y-96172782D01*
X184228177Y-96149679D01*
X184305299Y-96100117D01*
X184399548Y-95991347D01*
X184459336Y-95860431D01*
X184479818Y-95717974D01*
X184459336Y-95575517D01*
X184399548Y-95444601D01*
X184305299Y-95335831D01*
X184184224Y-95258021D01*
X184184222Y-95258020D01*
X184184220Y-95258019D01*
X184184221Y-95258019D01*
X184046134Y-95217474D01*
X184046132Y-95217474D01*
X183902210Y-95217474D01*
X183902207Y-95217474D01*
X183764120Y-95258019D01*
X183643044Y-95335830D01*
X183548794Y-95444600D01*
X183548793Y-95444602D01*
X183489005Y-95575517D01*
X183468524Y-95717974D01*
X183489005Y-95860430D01*
X183548793Y-95991345D01*
X183548794Y-95991347D01*
X183643043Y-96100117D01*
X183643045Y-96100118D01*
X183643044Y-96100118D01*
X183720086Y-96149630D01*
X183765840Y-96202434D01*
X183775784Y-96271592D01*
X183746759Y-96335148D01*
X183687981Y-96372922D01*
X183653037Y-96377945D01*
X180295673Y-96377696D01*
X180228635Y-96358006D01*
X180182884Y-96305199D01*
X180172945Y-96236040D01*
X180201975Y-96172486D01*
X180228639Y-96149382D01*
X180305299Y-96100117D01*
X180399548Y-95991347D01*
X180459336Y-95860431D01*
X180479818Y-95717974D01*
X180459336Y-95575517D01*
X180399548Y-95444601D01*
X180305299Y-95335831D01*
X180184224Y-95258021D01*
X180184222Y-95258020D01*
X180184220Y-95258019D01*
X180184221Y-95258019D01*
X180046134Y-95217474D01*
X180046132Y-95217474D01*
X179902210Y-95217474D01*
X179902207Y-95217474D01*
X179764120Y-95258019D01*
X179643044Y-95335830D01*
X179548794Y-95444600D01*
X179548793Y-95444602D01*
X179489005Y-95575517D01*
X179468524Y-95717974D01*
X179489005Y-95860430D01*
X179548793Y-95991345D01*
X179548794Y-95991347D01*
X179643043Y-96100117D01*
X179719624Y-96149333D01*
X179765379Y-96202136D01*
X179775323Y-96271295D01*
X179746298Y-96334850D01*
X179687520Y-96372625D01*
X179652576Y-96377648D01*
X176296134Y-96377400D01*
X176229096Y-96357710D01*
X176183345Y-96304903D01*
X176173406Y-96235744D01*
X176202436Y-96172190D01*
X176229102Y-96149085D01*
X176305299Y-96100117D01*
X176399548Y-95991347D01*
X176459336Y-95860431D01*
X176479818Y-95717974D01*
X176459336Y-95575517D01*
X176399548Y-95444601D01*
X176305299Y-95335831D01*
X176184224Y-95258021D01*
X176184222Y-95258020D01*
X176184220Y-95258019D01*
X176184221Y-95258019D01*
X176046134Y-95217474D01*
X176046132Y-95217474D01*
X175902210Y-95217474D01*
X175902207Y-95217474D01*
X175764120Y-95258019D01*
X175643044Y-95335830D01*
X175548794Y-95444600D01*
X175548793Y-95444602D01*
X175489005Y-95575517D01*
X175468524Y-95717974D01*
X175489005Y-95860430D01*
X175548793Y-95991345D01*
X175548794Y-95991347D01*
X175643043Y-96100117D01*
X175719163Y-96149036D01*
X175764918Y-96201840D01*
X175774862Y-96270999D01*
X175745837Y-96334555D01*
X175687059Y-96372329D01*
X175652115Y-96377352D01*
X172296595Y-96377103D01*
X172229557Y-96357413D01*
X172183806Y-96304606D01*
X172173867Y-96235447D01*
X172202897Y-96171893D01*
X172229563Y-96148789D01*
X172305299Y-96100117D01*
X172399548Y-95991347D01*
X172459336Y-95860431D01*
X172479818Y-95717974D01*
X172459336Y-95575517D01*
X172399548Y-95444601D01*
X172305299Y-95335831D01*
X172184224Y-95258021D01*
X172184222Y-95258020D01*
X172184220Y-95258019D01*
X172184221Y-95258019D01*
X172046134Y-95217474D01*
X172046132Y-95217474D01*
X171902210Y-95217474D01*
X171902207Y-95217474D01*
X171764120Y-95258019D01*
X171643044Y-95335830D01*
X171548794Y-95444600D01*
X171548793Y-95444602D01*
X171489005Y-95575517D01*
X171468524Y-95717974D01*
X171489005Y-95860430D01*
X171548793Y-95991345D01*
X171548794Y-95991347D01*
X171643043Y-96100117D01*
X171643045Y-96100118D01*
X171643047Y-96100120D01*
X171718702Y-96148741D01*
X171764457Y-96201545D01*
X171774401Y-96270703D01*
X171745376Y-96334259D01*
X171686598Y-96372033D01*
X171651654Y-96377056D01*
X168297056Y-96376807D01*
X168230018Y-96357117D01*
X168184267Y-96304310D01*
X168174328Y-96235151D01*
X168203358Y-96171597D01*
X168230021Y-96148494D01*
X168305299Y-96100117D01*
X168399548Y-95991347D01*
X168459336Y-95860431D01*
X168479818Y-95717974D01*
X168459336Y-95575517D01*
X168399548Y-95444601D01*
X168305299Y-95335831D01*
X168184224Y-95258021D01*
X168184222Y-95258020D01*
X168184220Y-95258019D01*
X168184221Y-95258019D01*
X168046134Y-95217474D01*
X168046132Y-95217474D01*
X167902210Y-95217474D01*
X167902207Y-95217474D01*
X167764120Y-95258019D01*
X167643044Y-95335830D01*
X167548794Y-95444600D01*
X167548793Y-95444602D01*
X167489005Y-95575517D01*
X167468524Y-95717974D01*
X167489005Y-95860430D01*
X167548793Y-95991345D01*
X167548794Y-95991347D01*
X167643043Y-96100117D01*
X167718242Y-96148444D01*
X167763996Y-96201247D01*
X167773940Y-96270405D01*
X167744915Y-96333961D01*
X167686138Y-96371736D01*
X167651193Y-96376759D01*
X164325936Y-96376513D01*
X164258898Y-96356823D01*
X164213147Y-96304016D01*
X164203208Y-96234857D01*
X164232238Y-96171303D01*
X164258904Y-96148199D01*
X164333722Y-96100117D01*
X164427971Y-95991347D01*
X164487759Y-95860431D01*
X164508241Y-95717974D01*
X164487759Y-95575517D01*
X164427971Y-95444601D01*
X164333722Y-95335831D01*
X164212647Y-95258021D01*
X164212645Y-95258020D01*
X164212643Y-95258019D01*
X164212644Y-95258019D01*
X164074557Y-95217474D01*
X164074555Y-95217474D01*
X163930633Y-95217474D01*
X163930630Y-95217474D01*
X163792543Y-95258019D01*
X163671467Y-95335830D01*
X163577217Y-95444600D01*
X163577216Y-95444602D01*
X163517428Y-95575517D01*
X163496947Y-95717974D01*
X163517428Y-95860430D01*
X163577216Y-95991345D01*
X163577217Y-95991347D01*
X163671466Y-96100117D01*
X163746206Y-96148149D01*
X163791961Y-96200953D01*
X163801905Y-96270112D01*
X163772880Y-96333667D01*
X163714102Y-96371442D01*
X163679158Y-96376465D01*
X162120889Y-96376350D01*
X162053851Y-96356660D01*
X162008100Y-96303853D01*
X161996898Y-96252446D01*
X161996887Y-96237818D01*
X161995478Y-94416883D01*
X215468524Y-94416883D01*
X215489005Y-94559339D01*
X215548793Y-94690254D01*
X215548794Y-94690256D01*
X215643043Y-94799026D01*
X215764118Y-94876836D01*
X215764121Y-94876837D01*
X215764120Y-94876837D01*
X215902207Y-94917382D01*
X215902209Y-94917383D01*
X215902210Y-94917383D01*
X216046133Y-94917383D01*
X216046133Y-94917382D01*
X216184224Y-94876836D01*
X216305299Y-94799026D01*
X216399548Y-94690256D01*
X216459336Y-94559340D01*
X216479818Y-94416883D01*
X219468524Y-94416883D01*
X219489005Y-94559339D01*
X219548793Y-94690254D01*
X219548794Y-94690256D01*
X219643043Y-94799026D01*
X219764118Y-94876836D01*
X219764121Y-94876837D01*
X219764120Y-94876837D01*
X219902207Y-94917382D01*
X219902209Y-94917383D01*
X219902210Y-94917383D01*
X220046133Y-94917383D01*
X220046133Y-94917382D01*
X220184224Y-94876836D01*
X220305299Y-94799026D01*
X220399548Y-94690256D01*
X220459336Y-94559340D01*
X220479818Y-94416883D01*
X220459336Y-94274426D01*
X220399548Y-94143510D01*
X220305299Y-94034740D01*
X220184224Y-93956930D01*
X220184222Y-93956929D01*
X220184220Y-93956928D01*
X220184221Y-93956928D01*
X220046134Y-93916383D01*
X220046132Y-93916383D01*
X219902210Y-93916383D01*
X219902207Y-93916383D01*
X219764120Y-93956928D01*
X219643044Y-94034739D01*
X219548794Y-94143509D01*
X219548793Y-94143511D01*
X219489005Y-94274426D01*
X219468524Y-94416883D01*
X216479818Y-94416883D01*
X216459336Y-94274426D01*
X216399548Y-94143510D01*
X216305299Y-94034740D01*
X216184224Y-93956930D01*
X216184222Y-93956929D01*
X216184220Y-93956928D01*
X216184221Y-93956928D01*
X216046134Y-93916383D01*
X216046132Y-93916383D01*
X215902210Y-93916383D01*
X215902207Y-93916383D01*
X215764120Y-93956928D01*
X215643044Y-94034739D01*
X215548794Y-94143509D01*
X215548793Y-94143511D01*
X215489005Y-94274426D01*
X215468524Y-94416883D01*
X161995478Y-94416883D01*
X161970031Y-61523059D01*
X161989664Y-61456008D01*
X162042432Y-61410213D01*
X162094011Y-61398967D01*
X165356336Y-61398541D01*
X165423374Y-61418216D01*
X165469136Y-61471014D01*
X165479088Y-61540171D01*
X165469143Y-61574050D01*
X165446635Y-61623335D01*
X165426154Y-61765792D01*
X165446635Y-61908248D01*
X165495628Y-62015526D01*
X165506424Y-62039165D01*
X165600673Y-62147935D01*
X165721748Y-62225745D01*
X165721751Y-62225746D01*
X165721750Y-62225746D01*
X165859837Y-62266291D01*
X165859839Y-62266292D01*
X165859840Y-62266292D01*
X166003763Y-62266292D01*
X166003763Y-62266291D01*
X166141854Y-62225745D01*
X166262929Y-62147935D01*
X166357178Y-62039165D01*
X166416966Y-61908249D01*
X166437448Y-61765792D01*
X166416966Y-61623335D01*
X166394389Y-61573900D01*
X166384446Y-61504744D01*
X166413470Y-61441188D01*
X166472248Y-61403413D01*
X166507162Y-61398390D01*
X169375537Y-61398015D01*
X169442577Y-61417691D01*
X169488339Y-61470489D01*
X169498291Y-61539646D01*
X169488345Y-61573527D01*
X169476392Y-61599698D01*
X169455911Y-61742155D01*
X169476392Y-61884611D01*
X169536180Y-62015526D01*
X169536181Y-62015528D01*
X169630430Y-62124298D01*
X169751505Y-62202108D01*
X169751508Y-62202109D01*
X169751507Y-62202109D01*
X169889594Y-62242654D01*
X169889596Y-62242655D01*
X169889597Y-62242655D01*
X170033520Y-62242655D01*
X170033520Y-62242654D01*
X170171611Y-62202108D01*
X170292686Y-62124298D01*
X170386935Y-62015528D01*
X170446723Y-61884612D01*
X170467205Y-61742155D01*
X170446723Y-61599698D01*
X170434699Y-61573371D01*
X170424757Y-61504213D01*
X170453783Y-61440658D01*
X170512561Y-61402884D01*
X170547468Y-61397862D01*
X173375775Y-61397492D01*
X173442815Y-61417168D01*
X173488577Y-61469966D01*
X173498529Y-61539123D01*
X173488584Y-61573001D01*
X173476393Y-61599695D01*
X173476392Y-61599697D01*
X173455911Y-61742155D01*
X173476392Y-61884611D01*
X173536180Y-62015526D01*
X173536181Y-62015528D01*
X173630430Y-62124298D01*
X173751505Y-62202108D01*
X173751508Y-62202109D01*
X173751507Y-62202109D01*
X173889594Y-62242654D01*
X173889596Y-62242655D01*
X173889597Y-62242655D01*
X174033520Y-62242655D01*
X174033520Y-62242654D01*
X174171611Y-62202108D01*
X174292686Y-62124298D01*
X174386935Y-62015528D01*
X174446723Y-61884612D01*
X174467205Y-61742155D01*
X174446723Y-61599698D01*
X174434460Y-61572847D01*
X174424518Y-61503691D01*
X174453543Y-61440135D01*
X174512322Y-61402361D01*
X174547228Y-61397339D01*
X177376014Y-61396969D01*
X177443054Y-61416645D01*
X177488816Y-61469443D01*
X177498768Y-61538600D01*
X177488823Y-61572479D01*
X177476392Y-61599698D01*
X177455911Y-61742155D01*
X177476392Y-61884611D01*
X177536180Y-62015526D01*
X177536181Y-62015528D01*
X177630430Y-62124298D01*
X177751505Y-62202108D01*
X177751508Y-62202109D01*
X177751507Y-62202109D01*
X177889594Y-62242654D01*
X177889596Y-62242655D01*
X177889597Y-62242655D01*
X178033520Y-62242655D01*
X178033520Y-62242654D01*
X178171611Y-62202108D01*
X178292686Y-62124298D01*
X178386935Y-62015528D01*
X178446723Y-61884612D01*
X178467205Y-61742155D01*
X178446723Y-61599698D01*
X178435010Y-61574050D01*
X178434223Y-61572326D01*
X178424279Y-61503168D01*
X178453304Y-61439612D01*
X178512082Y-61401838D01*
X178546989Y-61396816D01*
X181376253Y-61396446D01*
X181443293Y-61416122D01*
X181489055Y-61468920D01*
X181499007Y-61538077D01*
X181489062Y-61571956D01*
X181476392Y-61599698D01*
X181455911Y-61742155D01*
X181476392Y-61884611D01*
X181536180Y-62015526D01*
X181536181Y-62015528D01*
X181630430Y-62124298D01*
X181751505Y-62202108D01*
X181751508Y-62202109D01*
X181751507Y-62202109D01*
X181889594Y-62242654D01*
X181889596Y-62242655D01*
X181889597Y-62242655D01*
X182033520Y-62242655D01*
X182033520Y-62242654D01*
X182171611Y-62202108D01*
X182292686Y-62124298D01*
X182386935Y-62015528D01*
X182446723Y-61884612D01*
X182467205Y-61742155D01*
X182446723Y-61599698D01*
X182433983Y-61571803D01*
X182424040Y-61502645D01*
X182453065Y-61439090D01*
X182511843Y-61401315D01*
X182546750Y-61396293D01*
X185376492Y-61395923D01*
X185443532Y-61415599D01*
X185489294Y-61468397D01*
X185499246Y-61537554D01*
X185489301Y-61571433D01*
X185488894Y-61572326D01*
X185476392Y-61599699D01*
X185455911Y-61742155D01*
X185476392Y-61884611D01*
X185536180Y-62015526D01*
X185536181Y-62015528D01*
X185630430Y-62124298D01*
X185751505Y-62202108D01*
X185751508Y-62202109D01*
X185751507Y-62202109D01*
X185889594Y-62242654D01*
X185889596Y-62242655D01*
X185889597Y-62242655D01*
X186033520Y-62242655D01*
X186033520Y-62242654D01*
X186171611Y-62202108D01*
X186292686Y-62124298D01*
X186386935Y-62015528D01*
X186446723Y-61884612D01*
X186467205Y-61742155D01*
X186446723Y-61599698D01*
X186433744Y-61571280D01*
X186423801Y-61502123D01*
X186452825Y-61438567D01*
X186511603Y-61400792D01*
X186546510Y-61395770D01*
X189376731Y-61395400D01*
X189443771Y-61415076D01*
X189489533Y-61467874D01*
X189499485Y-61537031D01*
X189489540Y-61570909D01*
X189488894Y-61572326D01*
X189476392Y-61599700D01*
X189455911Y-61742155D01*
X189476392Y-61884611D01*
X189536180Y-62015526D01*
X189536181Y-62015528D01*
X189630430Y-62124298D01*
X189751505Y-62202108D01*
X189751508Y-62202109D01*
X189751507Y-62202109D01*
X189889594Y-62242654D01*
X189889596Y-62242655D01*
X189889597Y-62242655D01*
X190033520Y-62242655D01*
X190033520Y-62242654D01*
X190171611Y-62202108D01*
X190292686Y-62124298D01*
X190386935Y-62015528D01*
X190446723Y-61884612D01*
X190467205Y-61742155D01*
X190446723Y-61599698D01*
X190433505Y-61570756D01*
X190423562Y-61501600D01*
X190452586Y-61438044D01*
X190511364Y-61400269D01*
X190546271Y-61395247D01*
X193376970Y-61394877D01*
X193444010Y-61414553D01*
X193489772Y-61467351D01*
X193499724Y-61536508D01*
X193489778Y-61570388D01*
X193476393Y-61599696D01*
X193476392Y-61599697D01*
X193455911Y-61742155D01*
X193476392Y-61884611D01*
X193536180Y-62015526D01*
X193536181Y-62015528D01*
X193630430Y-62124298D01*
X193751505Y-62202108D01*
X193751508Y-62202109D01*
X193751507Y-62202109D01*
X193889594Y-62242654D01*
X193889596Y-62242655D01*
X193889597Y-62242655D01*
X194033520Y-62242655D01*
X194033520Y-62242654D01*
X194171611Y-62202108D01*
X194292686Y-62124298D01*
X194386935Y-62015528D01*
X194446723Y-61884612D01*
X194467205Y-61742155D01*
X194446723Y-61599698D01*
X194433267Y-61570235D01*
X194423324Y-61501077D01*
X194452349Y-61437521D01*
X194511127Y-61399747D01*
X194546039Y-61394724D01*
X197377208Y-61394354D01*
X197444248Y-61414030D01*
X197490010Y-61466828D01*
X197499962Y-61535985D01*
X197490017Y-61569863D01*
X197476393Y-61599695D01*
X197476392Y-61599697D01*
X197455911Y-61742155D01*
X197476392Y-61884611D01*
X197536180Y-62015526D01*
X197536181Y-62015528D01*
X197630430Y-62124298D01*
X197751505Y-62202108D01*
X197751508Y-62202109D01*
X197751507Y-62202109D01*
X197889594Y-62242654D01*
X197889596Y-62242655D01*
X197889597Y-62242655D01*
X198033520Y-62242655D01*
X198033520Y-62242654D01*
X198171611Y-62202108D01*
X198292686Y-62124298D01*
X198386935Y-62015528D01*
X198446723Y-61884612D01*
X198467205Y-61742155D01*
X198446723Y-61599698D01*
X198433028Y-61569712D01*
X198423085Y-61500555D01*
X198452110Y-61436999D01*
X198510888Y-61399224D01*
X198545800Y-61394201D01*
X201377447Y-61393831D01*
X201444487Y-61413507D01*
X201490249Y-61466305D01*
X201500201Y-61535462D01*
X201490256Y-61569341D01*
X201476392Y-61599698D01*
X201455911Y-61742155D01*
X201476392Y-61884611D01*
X201536180Y-62015526D01*
X201536181Y-62015528D01*
X201630430Y-62124298D01*
X201751505Y-62202108D01*
X201751508Y-62202109D01*
X201751507Y-62202109D01*
X201889594Y-62242654D01*
X201889596Y-62242655D01*
X201889597Y-62242655D01*
X202033520Y-62242655D01*
X202033520Y-62242654D01*
X202171611Y-62202108D01*
X202292686Y-62124298D01*
X202386935Y-62015528D01*
X202446723Y-61884612D01*
X202467205Y-61742155D01*
X202446723Y-61599698D01*
X202432789Y-61569189D01*
X202422846Y-61500032D01*
X202451870Y-61436476D01*
X202510648Y-61398701D01*
X202545561Y-61393678D01*
X205377686Y-61393308D01*
X205444726Y-61412984D01*
X205490488Y-61465782D01*
X205500440Y-61534939D01*
X205490495Y-61568818D01*
X205476392Y-61599698D01*
X205455911Y-61742155D01*
X205476392Y-61884611D01*
X205536180Y-62015526D01*
X205536181Y-62015528D01*
X205630430Y-62124298D01*
X205751505Y-62202108D01*
X205751508Y-62202109D01*
X205751507Y-62202109D01*
X205889594Y-62242654D01*
X205889596Y-62242655D01*
X205889597Y-62242655D01*
X206033520Y-62242655D01*
X206033520Y-62242654D01*
X206171611Y-62202108D01*
X206292686Y-62124298D01*
X206386935Y-62015528D01*
X206446723Y-61884612D01*
X206467205Y-61742155D01*
X206446723Y-61599698D01*
X206432550Y-61568665D01*
X206422607Y-61499509D01*
X206451631Y-61435953D01*
X206510409Y-61398178D01*
X206545321Y-61393156D01*
X209377925Y-61392785D01*
X209444965Y-61412461D01*
X209490727Y-61465259D01*
X209500679Y-61534416D01*
X209490734Y-61568295D01*
X209476392Y-61599698D01*
X209455911Y-61742155D01*
X209476392Y-61884611D01*
X209536180Y-62015526D01*
X209536181Y-62015528D01*
X209630430Y-62124298D01*
X209751505Y-62202108D01*
X209751508Y-62202109D01*
X209751507Y-62202109D01*
X209889594Y-62242654D01*
X209889596Y-62242655D01*
X209889597Y-62242655D01*
X210033520Y-62242655D01*
X210033520Y-62242654D01*
X210171611Y-62202108D01*
X210292686Y-62124298D01*
X210386935Y-62015528D01*
X210446723Y-61884612D01*
X210467205Y-61742155D01*
X210446723Y-61599698D01*
X210432311Y-61568141D01*
X210422368Y-61498987D01*
X210451392Y-61435431D01*
X210510169Y-61397655D01*
X210545082Y-61392633D01*
X213378164Y-61392262D01*
X213445204Y-61411938D01*
X213490966Y-61464736D01*
X213500918Y-61533893D01*
X213490973Y-61567771D01*
X213488894Y-61572326D01*
X213476392Y-61599700D01*
X213455911Y-61742155D01*
X213476392Y-61884611D01*
X213536180Y-62015526D01*
X213536181Y-62015528D01*
X213630430Y-62124298D01*
X213751505Y-62202108D01*
X213751508Y-62202109D01*
X213751507Y-62202109D01*
X213889594Y-62242654D01*
X213889596Y-62242655D01*
X213889597Y-62242655D01*
X214033520Y-62242655D01*
X214033520Y-62242654D01*
X214171611Y-62202108D01*
X214292686Y-62124298D01*
X214386935Y-62015528D01*
X214446723Y-61884612D01*
X214467205Y-61742155D01*
X214446723Y-61599698D01*
X214432072Y-61567619D01*
X214422130Y-61498462D01*
X214451155Y-61434906D01*
X214509934Y-61397132D01*
X214544844Y-61392110D01*
X217378403Y-61391739D01*
X217445443Y-61411415D01*
X217491205Y-61464213D01*
X217501157Y-61533370D01*
X217491211Y-61567250D01*
X217476393Y-61599696D01*
X217476392Y-61599697D01*
X217455911Y-61742155D01*
X217476392Y-61884611D01*
X217536180Y-62015526D01*
X217536181Y-62015528D01*
X217630430Y-62124298D01*
X217751505Y-62202108D01*
X217751508Y-62202109D01*
X217751507Y-62202109D01*
X217889594Y-62242654D01*
X217889596Y-62242655D01*
X217889597Y-62242655D01*
X218033520Y-62242655D01*
X218033520Y-62242654D01*
X218171611Y-62202108D01*
X218292686Y-62124298D01*
X218386935Y-62015528D01*
X218446723Y-61884612D01*
X218467205Y-61742155D01*
X218446723Y-61599698D01*
X218435010Y-61574050D01*
X218431835Y-61567097D01*
X218421891Y-61497939D01*
X218450916Y-61434383D01*
X218509694Y-61396609D01*
X218544604Y-61391587D01*
X221378641Y-61391216D01*
X221445681Y-61410892D01*
G37*
%TD.AperFunction*%
%TD*%
%TA.AperFunction,Conductor*%
%TO.N,/PI_A_USB_PWR_IN*%
G36*
X164829250Y-128178839D02*
G01*
X164896207Y-128198803D01*
X164941741Y-128251797D01*
X164952733Y-128302794D01*
X164959206Y-146357620D01*
X164939545Y-146424666D01*
X164886758Y-146470440D01*
X164834979Y-146481664D01*
X163277371Y-146478816D01*
X163210560Y-146459132D01*
X163168188Y-146431902D01*
X163036997Y-146393381D01*
X163036996Y-146393381D01*
X162900262Y-146393381D01*
X162900261Y-146393381D01*
X162769071Y-146431901D01*
X162769067Y-146431903D01*
X162728449Y-146458006D01*
X162661409Y-146477689D01*
X162661185Y-146477689D01*
X157389529Y-146468050D01*
X157322526Y-146448243D01*
X157276868Y-146395355D01*
X157265758Y-146344698D01*
X157262630Y-145746391D01*
X157260144Y-145270891D01*
X162488445Y-145270891D01*
X162507903Y-145406228D01*
X162507905Y-145406236D01*
X162564702Y-145530605D01*
X162564707Y-145530612D01*
X162654244Y-145633944D01*
X162654248Y-145633948D01*
X162714814Y-145672870D01*
X162769274Y-145707869D01*
X162834871Y-145727130D01*
X162900467Y-145746391D01*
X162900468Y-145746391D01*
X163037202Y-145746391D01*
X163168396Y-145707869D01*
X163283424Y-145633946D01*
X163372965Y-145530609D01*
X163429766Y-145406233D01*
X163449225Y-145270891D01*
X163429766Y-145135549D01*
X163417512Y-145108718D01*
X163372967Y-145011176D01*
X163372962Y-145011169D01*
X163283425Y-144907837D01*
X163283421Y-144907833D01*
X163168394Y-144833912D01*
X163037203Y-144795391D01*
X163037202Y-144795391D01*
X162900468Y-144795391D01*
X162900467Y-144795391D01*
X162769275Y-144833912D01*
X162654248Y-144907833D01*
X162654244Y-144907837D01*
X162564707Y-145011169D01*
X162564702Y-145011176D01*
X162507905Y-145135545D01*
X162507903Y-145135553D01*
X162488445Y-145270891D01*
X157260144Y-145270891D01*
X157241256Y-141657619D01*
X157260590Y-141590479D01*
X157313154Y-141544448D01*
X157382259Y-141534144D01*
X157445966Y-141562836D01*
X157452935Y-141569291D01*
X157506375Y-141622731D01*
X157506379Y-141622734D01*
X157629293Y-141704863D01*
X157629306Y-141704870D01*
X157765877Y-141761439D01*
X157765882Y-141761441D01*
X157765886Y-141761441D01*
X157765887Y-141761442D01*
X157910874Y-141790283D01*
X157910877Y-141790283D01*
X158858715Y-141790283D01*
X158956257Y-141770879D01*
X159003708Y-141761441D01*
X159140290Y-141704867D01*
X159263211Y-141622734D01*
X159367746Y-141518199D01*
X159449879Y-141395278D01*
X159506453Y-141258696D01*
X159535295Y-141113703D01*
X161284294Y-141113703D01*
X161313135Y-141258690D01*
X161313138Y-141258700D01*
X161369707Y-141395271D01*
X161369714Y-141395284D01*
X161451843Y-141518198D01*
X161451846Y-141518202D01*
X161556375Y-141622731D01*
X161556379Y-141622734D01*
X161679293Y-141704863D01*
X161679306Y-141704870D01*
X161815877Y-141761439D01*
X161815882Y-141761441D01*
X161815886Y-141761441D01*
X161815887Y-141761442D01*
X161960874Y-141790283D01*
X161960877Y-141790283D01*
X163208715Y-141790283D01*
X163306257Y-141770879D01*
X163353708Y-141761441D01*
X163490290Y-141704867D01*
X163613211Y-141622734D01*
X163717746Y-141518199D01*
X163799879Y-141395278D01*
X163856453Y-141258696D01*
X163885295Y-141113701D01*
X163885295Y-140965865D01*
X163885295Y-140965862D01*
X163856454Y-140820875D01*
X163856453Y-140820874D01*
X163856453Y-140820870D01*
X163856451Y-140820865D01*
X163799882Y-140684294D01*
X163799875Y-140684281D01*
X163717746Y-140561367D01*
X163717743Y-140561363D01*
X163613214Y-140456834D01*
X163613210Y-140456831D01*
X163490296Y-140374702D01*
X163490283Y-140374695D01*
X163353712Y-140318126D01*
X163353702Y-140318123D01*
X163208715Y-140289283D01*
X163208713Y-140289283D01*
X161960877Y-140289283D01*
X161960875Y-140289283D01*
X161815887Y-140318123D01*
X161815877Y-140318126D01*
X161679306Y-140374695D01*
X161679293Y-140374702D01*
X161556379Y-140456831D01*
X161556375Y-140456834D01*
X161451846Y-140561363D01*
X161451843Y-140561367D01*
X161369714Y-140684281D01*
X161369707Y-140684294D01*
X161313138Y-140820865D01*
X161313135Y-140820875D01*
X161284295Y-140965862D01*
X161284295Y-140965865D01*
X161284295Y-141113701D01*
X161284295Y-141113703D01*
X161284294Y-141113703D01*
X159535295Y-141113703D01*
X159535295Y-141113701D01*
X159535295Y-140965865D01*
X159535295Y-140965862D01*
X159506454Y-140820875D01*
X159506453Y-140820874D01*
X159506453Y-140820870D01*
X159506451Y-140820865D01*
X159449882Y-140684294D01*
X159449875Y-140684281D01*
X159367746Y-140561367D01*
X159367743Y-140561363D01*
X159263214Y-140456834D01*
X159263210Y-140456831D01*
X159140296Y-140374702D01*
X159140283Y-140374695D01*
X159003712Y-140318126D01*
X159003702Y-140318123D01*
X158858715Y-140289283D01*
X158858713Y-140289283D01*
X157910877Y-140289283D01*
X157910875Y-140289283D01*
X157765887Y-140318123D01*
X157765877Y-140318126D01*
X157629306Y-140374695D01*
X157629293Y-140374702D01*
X157506379Y-140456831D01*
X157446515Y-140516695D01*
X157385191Y-140550179D01*
X157315500Y-140545194D01*
X157259566Y-140503323D01*
X157235150Y-140437858D01*
X157234837Y-140429692D01*
X157230258Y-139553765D01*
X161639295Y-139553765D01*
X161639295Y-139665801D01*
X161668292Y-139774020D01*
X161724310Y-139871046D01*
X161803532Y-139950268D01*
X161900558Y-140006286D01*
X162008777Y-140035283D01*
X162008779Y-140035283D01*
X162120811Y-140035283D01*
X162120813Y-140035283D01*
X162229032Y-140006286D01*
X162326058Y-139950268D01*
X162405280Y-139871046D01*
X162461298Y-139774020D01*
X162490295Y-139665801D01*
X162490295Y-139553765D01*
X162461298Y-139445546D01*
X162405280Y-139348520D01*
X162326058Y-139269298D01*
X162229032Y-139213280D01*
X162120813Y-139184283D01*
X162008777Y-139184283D01*
X161900558Y-139213280D01*
X161900555Y-139213281D01*
X161803535Y-139269296D01*
X161803529Y-139269300D01*
X161724312Y-139348517D01*
X161724308Y-139348523D01*
X161668293Y-139445543D01*
X161668292Y-139445546D01*
X161639295Y-139553765D01*
X157230258Y-139553765D01*
X157200042Y-133773765D01*
X161639295Y-133773765D01*
X161639295Y-133885801D01*
X161668292Y-133994020D01*
X161724310Y-134091046D01*
X161803532Y-134170268D01*
X161900558Y-134226286D01*
X162008777Y-134255283D01*
X162008779Y-134255283D01*
X162120811Y-134255283D01*
X162120813Y-134255283D01*
X162229032Y-134226286D01*
X162326058Y-134170268D01*
X162405280Y-134091046D01*
X162461298Y-133994020D01*
X162490295Y-133885801D01*
X162490295Y-133773765D01*
X162461298Y-133665546D01*
X162405280Y-133568520D01*
X162326058Y-133489298D01*
X162229032Y-133433280D01*
X162120813Y-133404283D01*
X162008777Y-133404283D01*
X161900558Y-133433280D01*
X161900555Y-133433281D01*
X161803535Y-133489296D01*
X161803529Y-133489300D01*
X161724312Y-133568517D01*
X161724308Y-133568523D01*
X161668293Y-133665543D01*
X161668292Y-133665546D01*
X161639295Y-133773765D01*
X157200042Y-133773765D01*
X157195852Y-132972213D01*
X157215186Y-132905075D01*
X157267750Y-132859044D01*
X157336855Y-132848740D01*
X157400562Y-132877432D01*
X157407531Y-132883887D01*
X157506375Y-132982731D01*
X157506379Y-132982734D01*
X157629293Y-133064863D01*
X157629306Y-133064870D01*
X157765877Y-133121439D01*
X157765882Y-133121441D01*
X157765886Y-133121441D01*
X157765887Y-133121442D01*
X157910874Y-133150283D01*
X157910877Y-133150283D01*
X158858715Y-133150283D01*
X158956257Y-133130879D01*
X159003708Y-133121441D01*
X159140290Y-133064867D01*
X159263211Y-132982734D01*
X159367746Y-132878199D01*
X159449879Y-132755278D01*
X159506453Y-132618696D01*
X159535295Y-132473703D01*
X161284294Y-132473703D01*
X161313135Y-132618690D01*
X161313138Y-132618700D01*
X161369707Y-132755271D01*
X161369714Y-132755284D01*
X161451843Y-132878198D01*
X161451846Y-132878202D01*
X161556375Y-132982731D01*
X161556379Y-132982734D01*
X161679293Y-133064863D01*
X161679306Y-133064870D01*
X161815877Y-133121439D01*
X161815882Y-133121441D01*
X161815886Y-133121441D01*
X161815887Y-133121442D01*
X161960874Y-133150283D01*
X161960877Y-133150283D01*
X163208715Y-133150283D01*
X163306257Y-133130879D01*
X163353708Y-133121441D01*
X163490290Y-133064867D01*
X163613211Y-132982734D01*
X163717746Y-132878199D01*
X163799879Y-132755278D01*
X163856453Y-132618696D01*
X163885295Y-132473701D01*
X163885295Y-132325865D01*
X163885295Y-132325862D01*
X163856454Y-132180875D01*
X163856453Y-132180874D01*
X163856453Y-132180870D01*
X163856451Y-132180865D01*
X163799882Y-132044294D01*
X163799875Y-132044281D01*
X163717746Y-131921367D01*
X163717743Y-131921363D01*
X163613214Y-131816834D01*
X163613210Y-131816831D01*
X163490296Y-131734702D01*
X163490283Y-131734695D01*
X163353712Y-131678126D01*
X163353702Y-131678123D01*
X163208715Y-131649283D01*
X163208713Y-131649283D01*
X161960877Y-131649283D01*
X161960875Y-131649283D01*
X161815887Y-131678123D01*
X161815877Y-131678126D01*
X161679306Y-131734695D01*
X161679293Y-131734702D01*
X161556379Y-131816831D01*
X161556375Y-131816834D01*
X161451846Y-131921363D01*
X161451843Y-131921367D01*
X161369714Y-132044281D01*
X161369707Y-132044294D01*
X161313138Y-132180865D01*
X161313135Y-132180875D01*
X161284295Y-132325862D01*
X161284295Y-132325865D01*
X161284295Y-132473701D01*
X161284295Y-132473703D01*
X161284294Y-132473703D01*
X159535295Y-132473703D01*
X159535295Y-132473701D01*
X159535295Y-132325865D01*
X159535295Y-132325862D01*
X159506454Y-132180875D01*
X159506453Y-132180874D01*
X159506453Y-132180870D01*
X159506451Y-132180865D01*
X159449882Y-132044294D01*
X159449875Y-132044281D01*
X159367746Y-131921367D01*
X159367743Y-131921363D01*
X159263214Y-131816834D01*
X159263210Y-131816831D01*
X159140296Y-131734702D01*
X159140283Y-131734695D01*
X159003712Y-131678126D01*
X159003702Y-131678123D01*
X158858715Y-131649283D01*
X158858713Y-131649283D01*
X157910877Y-131649283D01*
X157910875Y-131649283D01*
X157765887Y-131678123D01*
X157765877Y-131678126D01*
X157629306Y-131734695D01*
X157629293Y-131734702D01*
X157506379Y-131816831D01*
X157401584Y-131921626D01*
X157340261Y-131955110D01*
X157270569Y-131950126D01*
X157214636Y-131908254D01*
X157190219Y-131842789D01*
X157189905Y-131834612D01*
X157171282Y-128272068D01*
X157190616Y-128204929D01*
X157243180Y-128158898D01*
X157295792Y-128147423D01*
X164829250Y-128178839D01*
G37*
%TD.AperFunction*%
%TD*%
%TA.AperFunction,Conductor*%
%TO.N,/PI_A_3v3*%
G36*
X180122102Y-116987711D02*
G01*
X180167857Y-117040515D01*
X180177801Y-117109673D01*
X180160057Y-117157998D01*
X180100917Y-117252117D01*
X180045057Y-117411753D01*
X180026123Y-117579807D01*
X180026123Y-117579812D01*
X180045057Y-117747866D01*
X180100917Y-117907504D01*
X180100919Y-117907507D01*
X180190890Y-118050694D01*
X180190895Y-118050700D01*
X180310481Y-118170286D01*
X180310487Y-118170291D01*
X180453674Y-118260262D01*
X180453677Y-118260264D01*
X180453681Y-118260265D01*
X180453682Y-118260266D01*
X180526285Y-118285670D01*
X180613315Y-118316124D01*
X180781369Y-118335059D01*
X180781372Y-118335059D01*
X180781375Y-118335059D01*
X180949428Y-118316124D01*
X180949431Y-118316123D01*
X181109062Y-118260266D01*
X181109064Y-118260264D01*
X181109066Y-118260264D01*
X181109069Y-118260262D01*
X181226835Y-118186264D01*
X187967655Y-118186264D01*
X187967655Y-118186269D01*
X187986589Y-118354323D01*
X188042449Y-118513961D01*
X188042451Y-118513964D01*
X188132422Y-118657151D01*
X188132427Y-118657157D01*
X188252013Y-118776743D01*
X188252019Y-118776748D01*
X188395206Y-118866719D01*
X188395209Y-118866721D01*
X188395213Y-118866722D01*
X188395214Y-118866723D01*
X188467817Y-118892127D01*
X188554847Y-118922581D01*
X188722901Y-118941516D01*
X188722904Y-118941516D01*
X188722907Y-118941516D01*
X188890960Y-118922581D01*
X188890963Y-118922580D01*
X189050594Y-118866723D01*
X189050596Y-118866721D01*
X189050598Y-118866721D01*
X189050601Y-118866719D01*
X189193788Y-118776748D01*
X189193789Y-118776747D01*
X189193794Y-118776744D01*
X189313381Y-118657157D01*
X189390231Y-118534852D01*
X189403356Y-118513964D01*
X189403358Y-118513961D01*
X189403358Y-118513959D01*
X189403360Y-118513957D01*
X189459217Y-118354326D01*
X189459217Y-118354325D01*
X189459218Y-118354323D01*
X189474570Y-118218073D01*
X191269019Y-118218073D01*
X191269019Y-118218080D01*
X191287322Y-118380532D01*
X191341320Y-118534851D01*
X191341321Y-118534852D01*
X191428302Y-118673281D01*
X191543906Y-118788885D01*
X191682335Y-118875866D01*
X191836649Y-118929863D01*
X191836652Y-118929863D01*
X191836654Y-118929864D01*
X191999106Y-118948168D01*
X191999110Y-118948168D01*
X191999114Y-118948168D01*
X192161565Y-118929864D01*
X192161566Y-118929863D01*
X192161571Y-118929863D01*
X192315885Y-118875866D01*
X192454314Y-118788885D01*
X192569918Y-118673281D01*
X192656899Y-118534852D01*
X192710896Y-118380538D01*
X192710897Y-118380532D01*
X192729201Y-118218080D01*
X192729201Y-118218073D01*
X192710897Y-118055621D01*
X192710896Y-118055619D01*
X192710896Y-118055616D01*
X192656899Y-117901302D01*
X192569918Y-117762873D01*
X192454314Y-117647269D01*
X192372378Y-117595785D01*
X192315884Y-117560287D01*
X192161565Y-117506289D01*
X191999114Y-117487986D01*
X191999106Y-117487986D01*
X191836654Y-117506289D01*
X191682335Y-117560287D01*
X191543905Y-117647269D01*
X191428302Y-117762872D01*
X191341320Y-117901302D01*
X191287322Y-118055621D01*
X191269019Y-118218073D01*
X189474570Y-118218073D01*
X189478153Y-118186269D01*
X189478153Y-118186264D01*
X189459218Y-118018210D01*
X189403358Y-117858572D01*
X189403356Y-117858569D01*
X189313385Y-117715382D01*
X189313380Y-117715376D01*
X189193794Y-117595790D01*
X189193788Y-117595785D01*
X189050601Y-117505814D01*
X189050598Y-117505812D01*
X188890960Y-117449952D01*
X188722907Y-117431018D01*
X188722901Y-117431018D01*
X188554847Y-117449952D01*
X188395209Y-117505812D01*
X188395206Y-117505814D01*
X188252019Y-117595785D01*
X188252013Y-117595790D01*
X188132427Y-117715376D01*
X188132422Y-117715382D01*
X188042451Y-117858569D01*
X188042449Y-117858572D01*
X187986589Y-118018210D01*
X187967655Y-118186264D01*
X181226835Y-118186264D01*
X181252256Y-118170291D01*
X181252257Y-118170290D01*
X181252262Y-118170287D01*
X181371849Y-118050700D01*
X181371853Y-118050694D01*
X181461824Y-117907507D01*
X181461826Y-117907504D01*
X181461826Y-117907502D01*
X181461828Y-117907500D01*
X181517685Y-117747869D01*
X181517685Y-117747868D01*
X181517686Y-117747866D01*
X181536621Y-117579812D01*
X181536621Y-117579807D01*
X181517686Y-117411753D01*
X181487472Y-117325408D01*
X181461828Y-117252120D01*
X181402687Y-117157998D01*
X181383687Y-117090762D01*
X181404055Y-117023926D01*
X181457322Y-116978712D01*
X181507681Y-116968026D01*
X197536652Y-116968026D01*
X197603691Y-116987711D01*
X197649446Y-117040515D01*
X197660651Y-117091724D01*
X197666618Y-119553181D01*
X197714881Y-139465303D01*
X197695359Y-139532390D01*
X197678562Y-139553285D01*
X196130120Y-141101729D01*
X196068797Y-141135214D01*
X196042439Y-141138048D01*
X189778524Y-141138048D01*
X189711485Y-141118363D01*
X189665730Y-141065559D01*
X189655786Y-140996401D01*
X189660593Y-140975731D01*
X189665700Y-140960010D01*
X189671138Y-140943275D01*
X189690924Y-140755019D01*
X189671138Y-140566763D01*
X189612643Y-140386735D01*
X189517997Y-140222803D01*
X189391335Y-140082131D01*
X189391334Y-140082130D01*
X189238198Y-139970870D01*
X189238193Y-139970867D01*
X189065271Y-139893876D01*
X189065266Y-139893874D01*
X188919465Y-139862884D01*
X188880110Y-139854519D01*
X188690818Y-139854519D01*
X188658361Y-139861417D01*
X188505661Y-139893874D01*
X188505656Y-139893876D01*
X188332734Y-139970867D01*
X188332729Y-139970870D01*
X188179593Y-140082130D01*
X188052930Y-140222804D01*
X187958285Y-140386734D01*
X187958282Y-140386741D01*
X187943072Y-140433554D01*
X187899790Y-140566763D01*
X187880004Y-140755019D01*
X187899790Y-140943275D01*
X187899790Y-140943277D01*
X187899791Y-140943279D01*
X187910335Y-140975731D01*
X187912330Y-141045572D01*
X187876249Y-141105404D01*
X187813548Y-141136232D01*
X187792404Y-141138048D01*
X185785231Y-141138048D01*
X185718192Y-141118363D01*
X185672437Y-141065559D01*
X185662493Y-140996401D01*
X185667300Y-140975731D01*
X185672407Y-140960010D01*
X185677845Y-140943275D01*
X185697631Y-140755019D01*
X185677845Y-140566763D01*
X185619350Y-140386735D01*
X185524704Y-140222803D01*
X185398042Y-140082131D01*
X185398041Y-140082130D01*
X185244905Y-139970870D01*
X185244900Y-139970867D01*
X185071978Y-139893876D01*
X185071973Y-139893874D01*
X184926172Y-139862884D01*
X184886817Y-139854519D01*
X184697525Y-139854519D01*
X184665068Y-139861417D01*
X184512368Y-139893874D01*
X184512363Y-139893876D01*
X184339441Y-139970867D01*
X184339436Y-139970870D01*
X184186300Y-140082130D01*
X184059637Y-140222804D01*
X183964992Y-140386734D01*
X183964989Y-140386741D01*
X183949779Y-140433554D01*
X183906497Y-140566763D01*
X183886711Y-140755019D01*
X183906497Y-140943275D01*
X183906497Y-140943277D01*
X183906498Y-140943279D01*
X183917042Y-140975731D01*
X183919037Y-141045572D01*
X183882956Y-141105404D01*
X183820255Y-141136232D01*
X183799111Y-141138048D01*
X172030468Y-141138048D01*
X171963429Y-141118363D01*
X171942787Y-141101729D01*
X170839223Y-139998165D01*
X178552247Y-139998165D01*
X178552247Y-139998170D01*
X178571181Y-140166224D01*
X178627041Y-140325862D01*
X178627043Y-140325865D01*
X178717014Y-140469052D01*
X178717019Y-140469058D01*
X178836605Y-140588644D01*
X178836611Y-140588649D01*
X178979798Y-140678620D01*
X178979801Y-140678622D01*
X178979805Y-140678623D01*
X178979806Y-140678624D01*
X179052409Y-140704028D01*
X179139439Y-140734482D01*
X179307493Y-140753417D01*
X179307496Y-140753417D01*
X179307499Y-140753417D01*
X179475552Y-140734482D01*
X179475555Y-140734481D01*
X179635186Y-140678624D01*
X179635188Y-140678622D01*
X179635190Y-140678622D01*
X179635193Y-140678620D01*
X179778380Y-140588649D01*
X179778381Y-140588648D01*
X179778386Y-140588645D01*
X179897973Y-140469058D01*
X179920282Y-140433554D01*
X179987948Y-140325865D01*
X179987950Y-140325862D01*
X179987950Y-140325860D01*
X179987952Y-140325858D01*
X180043809Y-140166227D01*
X180043809Y-140166226D01*
X180043810Y-140166224D01*
X180062745Y-139998170D01*
X180062745Y-139998165D01*
X180043810Y-139830111D01*
X179987950Y-139670473D01*
X179987948Y-139670470D01*
X179897977Y-139527283D01*
X179897972Y-139527277D01*
X179778386Y-139407691D01*
X179778380Y-139407686D01*
X179635193Y-139317715D01*
X179635190Y-139317713D01*
X179475552Y-139261853D01*
X179307499Y-139242919D01*
X179307493Y-139242919D01*
X179139439Y-139261853D01*
X178979801Y-139317713D01*
X178979798Y-139317715D01*
X178836611Y-139407686D01*
X178836605Y-139407691D01*
X178717019Y-139527277D01*
X178717014Y-139527283D01*
X178627043Y-139670470D01*
X178627041Y-139670473D01*
X178571181Y-139830111D01*
X178552247Y-139998165D01*
X170839223Y-139998165D01*
X168639962Y-137798904D01*
X168627325Y-137784108D01*
X168591441Y-137734718D01*
X168591436Y-137734712D01*
X167958281Y-137101557D01*
X167924796Y-137040234D01*
X167921964Y-137013133D01*
X167926036Y-136339879D01*
X190913751Y-136339879D01*
X190913751Y-136339884D01*
X190932685Y-136507938D01*
X190988545Y-136667576D01*
X190988547Y-136667579D01*
X191078518Y-136810766D01*
X191078523Y-136810772D01*
X191198109Y-136930358D01*
X191198115Y-136930363D01*
X191341302Y-137020334D01*
X191341305Y-137020336D01*
X191341309Y-137020337D01*
X191341310Y-137020338D01*
X191398170Y-137040234D01*
X191500943Y-137076196D01*
X191668997Y-137095131D01*
X191669000Y-137095131D01*
X191669003Y-137095131D01*
X191837056Y-137076196D01*
X191837059Y-137076195D01*
X191996690Y-137020338D01*
X191996692Y-137020336D01*
X191996694Y-137020336D01*
X191996697Y-137020334D01*
X192139884Y-136930363D01*
X192139885Y-136930362D01*
X192139890Y-136930359D01*
X192259477Y-136810772D01*
X192349452Y-136667579D01*
X192349454Y-136667576D01*
X192349454Y-136667574D01*
X192349456Y-136667572D01*
X192405313Y-136507941D01*
X192405313Y-136507940D01*
X192405314Y-136507938D01*
X192424249Y-136339884D01*
X192424249Y-136339879D01*
X192405314Y-136171825D01*
X192349454Y-136012187D01*
X192349452Y-136012184D01*
X192259481Y-135868997D01*
X192259476Y-135868991D01*
X192139890Y-135749405D01*
X192139884Y-135749400D01*
X191996697Y-135659429D01*
X191996694Y-135659427D01*
X191837056Y-135603567D01*
X191669003Y-135584633D01*
X191668997Y-135584633D01*
X191500943Y-135603567D01*
X191341305Y-135659427D01*
X191341302Y-135659429D01*
X191198115Y-135749400D01*
X191198109Y-135749405D01*
X191078523Y-135868991D01*
X191078518Y-135868997D01*
X190988547Y-136012184D01*
X190988545Y-136012187D01*
X190932685Y-136171825D01*
X190913751Y-136339879D01*
X167926036Y-136339879D01*
X167936034Y-134686949D01*
X167937557Y-134668323D01*
X167950500Y-134586611D01*
X167950500Y-134505879D01*
X181995064Y-134505879D01*
X181995064Y-134505886D01*
X182013367Y-134668338D01*
X182067365Y-134822657D01*
X182154347Y-134961087D01*
X182269951Y-135076691D01*
X182408380Y-135163672D01*
X182562694Y-135217669D01*
X182562697Y-135217669D01*
X182562699Y-135217670D01*
X182725151Y-135235974D01*
X182725155Y-135235974D01*
X182725159Y-135235974D01*
X182887610Y-135217670D01*
X182887611Y-135217669D01*
X182887616Y-135217669D01*
X183041930Y-135163672D01*
X183180359Y-135076691D01*
X183295963Y-134961087D01*
X183382944Y-134822658D01*
X183382943Y-134822658D01*
X183382946Y-134822655D01*
X183383941Y-134820589D01*
X183384938Y-134819483D01*
X183386649Y-134816762D01*
X183387125Y-134817061D01*
X183430762Y-134768728D01*
X183498189Y-134750414D01*
X183564813Y-134771460D01*
X183604281Y-134817009D01*
X183604675Y-134816762D01*
X183606279Y-134819315D01*
X183607383Y-134820589D01*
X183608377Y-134822655D01*
X183695361Y-134961087D01*
X183810965Y-135076691D01*
X183949394Y-135163672D01*
X184103708Y-135217669D01*
X184103711Y-135217669D01*
X184103713Y-135217670D01*
X184266165Y-135235974D01*
X184266169Y-135235974D01*
X184266173Y-135235974D01*
X184428624Y-135217670D01*
X184428625Y-135217669D01*
X184428630Y-135217669D01*
X184582944Y-135163672D01*
X184721373Y-135076691D01*
X184836977Y-134961087D01*
X184923958Y-134822658D01*
X184977955Y-134668344D01*
X184987164Y-134586611D01*
X184996260Y-134505886D01*
X184996260Y-134505879D01*
X184977956Y-134343427D01*
X184977955Y-134343425D01*
X184977955Y-134343422D01*
X184923958Y-134189108D01*
X184836977Y-134050679D01*
X184721373Y-133935075D01*
X184582943Y-133848093D01*
X184428624Y-133794095D01*
X184266173Y-133775792D01*
X184266165Y-133775792D01*
X184103713Y-133794095D01*
X183949394Y-133848093D01*
X183810964Y-133935075D01*
X183695361Y-134050678D01*
X183608378Y-134189110D01*
X183607381Y-134191181D01*
X183606381Y-134192287D01*
X183604675Y-134195004D01*
X183604199Y-134194705D01*
X183560557Y-134243040D01*
X183493129Y-134261351D01*
X183426506Y-134240301D01*
X183387041Y-134194757D01*
X183386649Y-134195004D01*
X183385048Y-134192456D01*
X183383943Y-134191181D01*
X183382945Y-134189110D01*
X183295962Y-134050678D01*
X183180359Y-133935075D01*
X183041929Y-133848093D01*
X182887610Y-133794095D01*
X182725159Y-133775792D01*
X182725151Y-133775792D01*
X182562699Y-133794095D01*
X182408380Y-133848093D01*
X182269950Y-133935075D01*
X182154347Y-134050678D01*
X182067365Y-134189108D01*
X182013367Y-134343427D01*
X181995064Y-134505879D01*
X167950500Y-134505879D01*
X167950500Y-134413389D01*
X167939745Y-134345486D01*
X167938221Y-134325359D01*
X167953376Y-131819885D01*
X175281790Y-131819885D01*
X175281790Y-131819892D01*
X175300093Y-131982344D01*
X175354091Y-132136663D01*
X175406084Y-132219408D01*
X175441073Y-132275093D01*
X175556677Y-132390697D01*
X175695106Y-132477678D01*
X175849420Y-132531675D01*
X175849423Y-132531675D01*
X175849425Y-132531676D01*
X176011877Y-132549980D01*
X176011881Y-132549980D01*
X176011885Y-132549980D01*
X176174336Y-132531676D01*
X176174337Y-132531675D01*
X176174342Y-132531675D01*
X176328656Y-132477678D01*
X176467085Y-132390697D01*
X176582689Y-132275093D01*
X176669670Y-132136664D01*
X176723667Y-131982350D01*
X176725580Y-131965375D01*
X176741972Y-131819892D01*
X176741972Y-131819885D01*
X176723668Y-131657433D01*
X176723667Y-131657431D01*
X176723667Y-131657428D01*
X176669670Y-131503114D01*
X176582689Y-131364685D01*
X176467085Y-131249081D01*
X176335896Y-131166649D01*
X176328655Y-131162099D01*
X176174336Y-131108101D01*
X176011885Y-131089798D01*
X176011877Y-131089798D01*
X175849425Y-131108101D01*
X175695106Y-131162099D01*
X175556676Y-131249081D01*
X175441073Y-131364684D01*
X175354091Y-131503114D01*
X175300093Y-131657433D01*
X175281790Y-131819885D01*
X167953376Y-131819885D01*
X167960080Y-130711441D01*
X184016479Y-130711441D01*
X184016479Y-130711448D01*
X184034782Y-130873900D01*
X184088780Y-131028219D01*
X184088781Y-131028220D01*
X184175762Y-131166649D01*
X184291366Y-131282253D01*
X184429795Y-131369234D01*
X184536864Y-131406699D01*
X184593640Y-131447421D01*
X184619388Y-131512373D01*
X184605932Y-131580935D01*
X184583592Y-131611421D01*
X184553220Y-131641793D01*
X184466238Y-131780223D01*
X184412240Y-131934542D01*
X184393937Y-132096994D01*
X184393937Y-132097001D01*
X184412240Y-132259453D01*
X184466238Y-132413772D01*
X184553220Y-132552202D01*
X184668825Y-132667807D01*
X184802814Y-132751999D01*
X184849104Y-132804334D01*
X184860061Y-132843104D01*
X184861172Y-132852957D01*
X184862242Y-132862451D01*
X184877472Y-132905975D01*
X184916238Y-133016764D01*
X184972931Y-133106990D01*
X185003220Y-133155194D01*
X185118824Y-133270798D01*
X185147204Y-133288630D01*
X185193495Y-133340965D01*
X185204452Y-133379740D01*
X185220665Y-133523634D01*
X185274663Y-133677953D01*
X185274664Y-133677954D01*
X185361645Y-133816383D01*
X185477249Y-133931987D01*
X185615678Y-134018968D01*
X185769992Y-134072965D01*
X185769995Y-134072965D01*
X185769997Y-134072966D01*
X185932449Y-134091270D01*
X185932453Y-134091270D01*
X185932457Y-134091270D01*
X186094908Y-134072966D01*
X186094909Y-134072965D01*
X186094914Y-134072965D01*
X186249228Y-134018968D01*
X186387657Y-133931987D01*
X186503261Y-133816383D01*
X186590242Y-133677954D01*
X186644239Y-133523640D01*
X186655173Y-133426598D01*
X186662544Y-133361182D01*
X186662544Y-133361176D01*
X186654489Y-133289686D01*
X186666543Y-133220864D01*
X186713893Y-133169484D01*
X186781503Y-133151860D01*
X186843682Y-133170809D01*
X186880546Y-133193972D01*
X187034860Y-133247969D01*
X187034863Y-133247969D01*
X187034865Y-133247970D01*
X187197317Y-133266274D01*
X187197321Y-133266274D01*
X187197325Y-133266274D01*
X187359776Y-133247970D01*
X187359777Y-133247969D01*
X187359782Y-133247969D01*
X187514096Y-133193972D01*
X187652525Y-133106991D01*
X187768129Y-132991387D01*
X187855110Y-132852958D01*
X187909107Y-132698644D01*
X187917976Y-132619929D01*
X187927412Y-132536186D01*
X187927412Y-132536179D01*
X187909108Y-132373727D01*
X187909107Y-132373725D01*
X187909107Y-132373722D01*
X187884413Y-132303150D01*
X190390219Y-132303150D01*
X190390219Y-132303157D01*
X190408522Y-132465609D01*
X190462520Y-132619928D01*
X190462521Y-132619929D01*
X190549502Y-132758358D01*
X190665106Y-132873962D01*
X190803535Y-132960943D01*
X190957849Y-133014940D01*
X190957852Y-133014940D01*
X190957854Y-133014941D01*
X191120306Y-133033245D01*
X191120310Y-133033245D01*
X191120314Y-133033245D01*
X191282765Y-133014941D01*
X191282766Y-133014940D01*
X191282771Y-133014940D01*
X191437085Y-132960943D01*
X191575514Y-132873962D01*
X191691118Y-132758358D01*
X191778099Y-132619929D01*
X191832096Y-132465615D01*
X191837621Y-132416583D01*
X191850401Y-132303157D01*
X191850401Y-132303150D01*
X191832097Y-132140698D01*
X191832096Y-132140696D01*
X191832096Y-132140693D01*
X191778099Y-131986379D01*
X191691118Y-131847950D01*
X191575514Y-131732346D01*
X191437084Y-131645364D01*
X191282765Y-131591366D01*
X191120314Y-131573063D01*
X191120306Y-131573063D01*
X190957854Y-131591366D01*
X190803535Y-131645364D01*
X190665105Y-131732346D01*
X190549502Y-131847949D01*
X190462520Y-131986379D01*
X190408522Y-132140698D01*
X190390219Y-132303150D01*
X187884413Y-132303150D01*
X187855110Y-132219408D01*
X187768129Y-132080979D01*
X187652525Y-131965375D01*
X187603434Y-131934529D01*
X187514095Y-131878393D01*
X187359776Y-131824395D01*
X187197325Y-131806092D01*
X187197317Y-131806092D01*
X187034865Y-131824395D01*
X186880546Y-131878393D01*
X186742116Y-131965375D01*
X186626513Y-132080978D01*
X186539531Y-132219408D01*
X186485533Y-132373727D01*
X186483755Y-132389513D01*
X186456688Y-132453927D01*
X186399093Y-132493482D01*
X186329256Y-132495619D01*
X186269350Y-132459661D01*
X186243493Y-132416583D01*
X186231817Y-132383215D01*
X186181511Y-132303154D01*
X186144836Y-132244786D01*
X186029232Y-132129182D01*
X185895240Y-132044989D01*
X185848950Y-131992655D01*
X185837993Y-131953879D01*
X185835814Y-131934537D01*
X185835812Y-131934533D01*
X185835812Y-131934529D01*
X185781818Y-131780225D01*
X185781817Y-131780223D01*
X185694836Y-131641794D01*
X185579232Y-131526190D01*
X185453872Y-131447421D01*
X185440800Y-131439207D01*
X185333732Y-131401742D01*
X185276956Y-131361021D01*
X185251209Y-131296068D01*
X185264665Y-131227506D01*
X185287004Y-131197022D01*
X185317378Y-131166649D01*
X185404359Y-131028220D01*
X185458356Y-130873906D01*
X185476661Y-130711445D01*
X185464274Y-130601512D01*
X185458357Y-130548989D01*
X185458356Y-130548987D01*
X185458356Y-130548984D01*
X185404359Y-130394670D01*
X185317378Y-130256241D01*
X185201774Y-130140637D01*
X185201768Y-130140632D01*
X185061969Y-130052790D01*
X185015678Y-130000456D01*
X185009560Y-129960782D01*
X184957653Y-129994894D01*
X184907624Y-129999499D01*
X184746574Y-129981354D01*
X184746566Y-129981354D01*
X184584114Y-129999657D01*
X184429795Y-130053655D01*
X184291365Y-130140637D01*
X184175762Y-130256240D01*
X184088780Y-130394670D01*
X184034782Y-130548989D01*
X184016479Y-130711441D01*
X167960080Y-130711441D01*
X167968367Y-129341362D01*
X176064882Y-129341362D01*
X176064882Y-129341369D01*
X176083185Y-129503821D01*
X176137183Y-129658140D01*
X176177081Y-129721637D01*
X176224165Y-129796570D01*
X176339769Y-129912174D01*
X176478198Y-129999155D01*
X176632512Y-130053152D01*
X176632515Y-130053152D01*
X176632517Y-130053153D01*
X176794969Y-130071457D01*
X176794973Y-130071457D01*
X176794977Y-130071457D01*
X176957428Y-130053153D01*
X176957429Y-130053152D01*
X176957434Y-130053152D01*
X177111748Y-129999155D01*
X177250177Y-129912174D01*
X177365781Y-129796570D01*
X177452762Y-129658141D01*
X177506759Y-129503827D01*
X177506760Y-129503821D01*
X177525064Y-129341369D01*
X177525064Y-129341362D01*
X177506760Y-129178910D01*
X177506759Y-129178908D01*
X177506759Y-129178905D01*
X177452762Y-129024591D01*
X177365781Y-128886162D01*
X177250177Y-128770558D01*
X177111747Y-128683576D01*
X176957428Y-128629578D01*
X176794977Y-128611275D01*
X176794969Y-128611275D01*
X176632517Y-128629578D01*
X176478198Y-128683576D01*
X176339768Y-128770558D01*
X176224165Y-128886161D01*
X176137183Y-129024591D01*
X176083185Y-129178910D01*
X176064882Y-129341362D01*
X167968367Y-129341362D01*
X167973279Y-128529365D01*
X178261298Y-128529365D01*
X178261298Y-128529372D01*
X178279601Y-128691824D01*
X178333599Y-128846143D01*
X178337788Y-128852809D01*
X178420581Y-128984573D01*
X178536185Y-129100177D01*
X178674614Y-129187158D01*
X178828928Y-129241155D01*
X178828931Y-129241155D01*
X178828933Y-129241156D01*
X178991385Y-129259460D01*
X178991389Y-129259460D01*
X178991393Y-129259460D01*
X179153844Y-129241156D01*
X179153845Y-129241155D01*
X179153850Y-129241155D01*
X179308164Y-129187158D01*
X179446593Y-129100177D01*
X179562197Y-128984573D01*
X179649178Y-128846144D01*
X179703175Y-128691830D01*
X179704105Y-128683576D01*
X179721480Y-128529372D01*
X179721480Y-128529365D01*
X179703176Y-128366913D01*
X179703175Y-128366911D01*
X179703175Y-128366908D01*
X179649178Y-128212594D01*
X179562197Y-128074165D01*
X179446593Y-127958561D01*
X179379399Y-127916340D01*
X179308163Y-127871579D01*
X179153844Y-127817581D01*
X178991393Y-127799278D01*
X178991385Y-127799278D01*
X178828933Y-127817581D01*
X178674614Y-127871579D01*
X178536184Y-127958561D01*
X178420581Y-128074164D01*
X178333599Y-128212594D01*
X178279601Y-128366913D01*
X178261298Y-128529365D01*
X167973279Y-128529365D01*
X167973719Y-128456551D01*
X167993808Y-128389639D01*
X168003416Y-128376788D01*
X168019123Y-128358399D01*
X168020560Y-128356055D01*
X168108472Y-128212594D01*
X168152809Y-128140243D01*
X168180180Y-128074165D01*
X168230227Y-127953339D01*
X168250722Y-127903860D01*
X168310452Y-127655070D01*
X168330526Y-127400000D01*
X168310452Y-127144930D01*
X168250722Y-126896140D01*
X168231998Y-126850936D01*
X168152811Y-126659760D01*
X168152809Y-126659757D01*
X168019126Y-126441605D01*
X168019121Y-126441598D01*
X168016124Y-126438089D01*
X167987556Y-126374326D01*
X167986420Y-126356828D01*
X168009229Y-122585788D01*
X178379821Y-122585788D01*
X178379821Y-122585795D01*
X178398124Y-122748247D01*
X178452122Y-122902566D01*
X178484813Y-122954593D01*
X178539104Y-123040996D01*
X178654708Y-123156600D01*
X178675972Y-123169961D01*
X178799033Y-123247286D01*
X178797583Y-123249593D01*
X178840256Y-123288115D01*
X178858574Y-123355541D01*
X178837531Y-123422167D01*
X178797725Y-123456676D01*
X178799033Y-123458757D01*
X178654707Y-123549443D01*
X178539104Y-123665046D01*
X178452122Y-123803476D01*
X178398124Y-123957795D01*
X178379821Y-124120247D01*
X178379821Y-124120254D01*
X178398124Y-124282706D01*
X178452122Y-124437025D01*
X178452123Y-124437026D01*
X178539104Y-124575455D01*
X178654708Y-124691059D01*
X178723922Y-124734549D01*
X178793138Y-124778041D01*
X178832205Y-124791710D01*
X178871953Y-124805619D01*
X178928729Y-124846339D01*
X178954477Y-124911291D01*
X178941022Y-124979853D01*
X178892635Y-125030257D01*
X178871955Y-125039701D01*
X178814403Y-125059839D01*
X178675972Y-125146822D01*
X178560369Y-125262425D01*
X178473387Y-125400855D01*
X178419389Y-125555174D01*
X178401086Y-125717626D01*
X178401086Y-125717633D01*
X178419389Y-125880085D01*
X178473387Y-126034404D01*
X178535566Y-126133360D01*
X178560369Y-126172834D01*
X178675973Y-126288438D01*
X178814402Y-126375419D01*
X178968716Y-126429416D01*
X178968719Y-126429416D01*
X178968721Y-126429417D01*
X179131173Y-126447721D01*
X179131177Y-126447721D01*
X179131181Y-126447721D01*
X179293632Y-126429417D01*
X179293633Y-126429416D01*
X179293638Y-126429416D01*
X179447952Y-126375419D01*
X179586381Y-126288438D01*
X179701985Y-126172834D01*
X179723153Y-126139145D01*
X181896175Y-126139145D01*
X181896175Y-126139152D01*
X181914478Y-126301604D01*
X181914479Y-126301609D01*
X181914480Y-126301610D01*
X181918950Y-126314384D01*
X181968476Y-126455923D01*
X182018340Y-126535281D01*
X182055458Y-126594353D01*
X182171062Y-126709957D01*
X182309491Y-126796938D01*
X182463805Y-126850935D01*
X182463808Y-126850935D01*
X182463810Y-126850936D01*
X182538006Y-126859295D01*
X182608751Y-126867266D01*
X182673164Y-126894332D01*
X182712719Y-126951926D01*
X182714858Y-127021763D01*
X182678900Y-127081670D01*
X182660840Y-127095479D01*
X182521444Y-127183069D01*
X182521441Y-127183071D01*
X182405838Y-127298674D01*
X182318856Y-127437104D01*
X182264858Y-127591423D01*
X182246555Y-127753875D01*
X182246555Y-127753882D01*
X182264858Y-127916334D01*
X182318856Y-128070653D01*
X182362580Y-128140239D01*
X182405838Y-128209083D01*
X182521442Y-128324687D01*
X182659871Y-128411668D01*
X182814185Y-128465665D01*
X182814188Y-128465665D01*
X182814190Y-128465666D01*
X182976642Y-128483970D01*
X182976646Y-128483970D01*
X182976650Y-128483970D01*
X183139101Y-128465666D01*
X183139102Y-128465665D01*
X183139107Y-128465665D01*
X183293421Y-128411668D01*
X183397165Y-128346480D01*
X183464401Y-128327481D01*
X183531237Y-128347849D01*
X183568130Y-128385502D01*
X183574922Y-128396311D01*
X183574924Y-128396314D01*
X183614206Y-128435596D01*
X183647691Y-128496919D01*
X183642707Y-128566611D01*
X183614207Y-128610958D01*
X183553361Y-128671804D01*
X183466380Y-128810232D01*
X183412382Y-128964551D01*
X183394079Y-129127003D01*
X183394079Y-129127010D01*
X183412382Y-129289462D01*
X183466380Y-129443781D01*
X183466381Y-129443782D01*
X183553362Y-129582211D01*
X183668966Y-129697815D01*
X183807395Y-129784796D01*
X183961709Y-129838793D01*
X183961712Y-129838793D01*
X183961714Y-129838794D01*
X184124166Y-129857098D01*
X184124170Y-129857098D01*
X184124174Y-129857098D01*
X184286625Y-129838794D01*
X184286626Y-129838793D01*
X184286631Y-129838793D01*
X184440945Y-129784796D01*
X184579374Y-129697815D01*
X184633031Y-129644158D01*
X184694354Y-129610673D01*
X184764046Y-129615657D01*
X184808393Y-129644158D01*
X184847675Y-129683440D01*
X184924743Y-129731865D01*
X184987479Y-129771285D01*
X185033770Y-129823620D01*
X185039887Y-129863293D01*
X185091795Y-129829182D01*
X185141825Y-129824577D01*
X185302876Y-129842723D01*
X185302879Y-129842723D01*
X185302883Y-129842723D01*
X185465334Y-129824419D01*
X185465335Y-129824418D01*
X185465340Y-129824418D01*
X185619654Y-129770421D01*
X185758083Y-129683440D01*
X185808146Y-129633376D01*
X185869467Y-129599892D01*
X185939159Y-129604876D01*
X185983506Y-129633375D01*
X186012010Y-129661879D01*
X186012012Y-129661880D01*
X186015664Y-129665532D01*
X186049150Y-129726855D01*
X186044166Y-129796547D01*
X186028988Y-129823361D01*
X186029429Y-129823638D01*
X185938742Y-129967963D01*
X185884744Y-130122282D01*
X185866441Y-130284734D01*
X185866441Y-130284741D01*
X185884744Y-130447193D01*
X185938742Y-130601512D01*
X186007818Y-130711445D01*
X186025724Y-130739942D01*
X186141328Y-130855546D01*
X186279757Y-130942527D01*
X186434071Y-130996524D01*
X186434074Y-130996524D01*
X186434076Y-130996525D01*
X186596528Y-131014829D01*
X186596532Y-131014829D01*
X186596536Y-131014829D01*
X186758987Y-130996525D01*
X186758988Y-130996524D01*
X186758993Y-130996524D01*
X186913307Y-130942527D01*
X187051736Y-130855546D01*
X187167340Y-130739942D01*
X187254321Y-130601513D01*
X187308318Y-130447199D01*
X187326623Y-130284738D01*
X187325071Y-130270968D01*
X187308319Y-130122282D01*
X187308318Y-130122280D01*
X187308318Y-130122277D01*
X187254321Y-129967963D01*
X187167340Y-129829534D01*
X187051736Y-129713930D01*
X187048081Y-129710275D01*
X187014596Y-129648952D01*
X187019580Y-129579260D01*
X187030947Y-129559178D01*
X189102619Y-129559178D01*
X189102619Y-129559185D01*
X189120922Y-129721637D01*
X189174920Y-129875956D01*
X189249654Y-129994894D01*
X189261902Y-130014386D01*
X189377506Y-130129990D01*
X189515935Y-130216971D01*
X189670249Y-130270968D01*
X189670252Y-130270968D01*
X189670254Y-130270969D01*
X189832706Y-130289273D01*
X189832710Y-130289273D01*
X189832714Y-130289273D01*
X189995165Y-130270969D01*
X189995166Y-130270968D01*
X189995171Y-130270968D01*
X190149485Y-130216971D01*
X190287914Y-130129990D01*
X190403518Y-130014386D01*
X190490499Y-129875957D01*
X190544496Y-129721643D01*
X190547181Y-129697814D01*
X190562801Y-129559185D01*
X190562801Y-129559178D01*
X190544497Y-129396726D01*
X190544496Y-129396724D01*
X190544496Y-129396721D01*
X190490499Y-129242407D01*
X190403518Y-129103978D01*
X190287914Y-128988374D01*
X190249992Y-128964546D01*
X190149484Y-128901392D01*
X189995165Y-128847394D01*
X189832714Y-128829091D01*
X189832706Y-128829091D01*
X189670254Y-128847394D01*
X189515935Y-128901392D01*
X189377505Y-128988374D01*
X189261902Y-129103977D01*
X189174920Y-129242407D01*
X189120922Y-129396726D01*
X189102619Y-129559178D01*
X187030947Y-129559178D01*
X187034757Y-129552448D01*
X187034317Y-129552172D01*
X187066353Y-129501185D01*
X187125003Y-129407846D01*
X187179000Y-129253532D01*
X187179001Y-129253526D01*
X187197305Y-129091074D01*
X187197305Y-129091067D01*
X187179001Y-128928615D01*
X187179000Y-128928613D01*
X187179000Y-128928610D01*
X187125003Y-128774296D01*
X187038022Y-128635867D01*
X187037177Y-128635022D01*
X187036805Y-128634342D01*
X187033681Y-128630424D01*
X187034367Y-128629876D01*
X187003692Y-128573699D01*
X187008676Y-128504007D01*
X187021182Y-128482049D01*
X187019943Y-128481271D01*
X187055785Y-128424229D01*
X187110629Y-128336945D01*
X187164626Y-128182631D01*
X187169402Y-128140242D01*
X187182931Y-128020173D01*
X187182931Y-128020166D01*
X187164627Y-127857713D01*
X187163303Y-127851914D01*
X187167569Y-127782175D01*
X187208862Y-127725813D01*
X187274072Y-127700724D01*
X187342494Y-127714872D01*
X187389184Y-127758337D01*
X187399888Y-127775373D01*
X187399890Y-127775375D01*
X187515494Y-127890979D01*
X187653923Y-127977960D01*
X187808237Y-128031957D01*
X187808240Y-128031957D01*
X187808242Y-128031958D01*
X187970694Y-128050262D01*
X187970698Y-128050262D01*
X187970702Y-128050262D01*
X188133153Y-128031958D01*
X188133154Y-128031957D01*
X188133159Y-128031957D01*
X188287473Y-127977960D01*
X188425902Y-127890979D01*
X188541506Y-127775375D01*
X188628487Y-127636946D01*
X188682484Y-127482632D01*
X188690730Y-127409446D01*
X188700789Y-127320174D01*
X188700789Y-127320167D01*
X188682485Y-127157715D01*
X188682484Y-127157713D01*
X188682484Y-127157710D01*
X188628487Y-127003396D01*
X188541506Y-126864967D01*
X188425902Y-126749363D01*
X188363188Y-126709957D01*
X188287472Y-126662381D01*
X188133153Y-126608383D01*
X187970702Y-126590080D01*
X187970694Y-126590080D01*
X187808242Y-126608383D01*
X187653923Y-126662381D01*
X187515495Y-126749362D01*
X187407366Y-126857491D01*
X187346043Y-126890975D01*
X187276351Y-126885991D01*
X187220418Y-126844119D01*
X187196465Y-126783692D01*
X187179001Y-126628694D01*
X187179000Y-126628692D01*
X187179000Y-126628689D01*
X187125003Y-126474375D01*
X187038022Y-126335946D01*
X186922418Y-126220342D01*
X186899540Y-126205967D01*
X186783988Y-126133360D01*
X186629669Y-126079362D01*
X186467218Y-126061059D01*
X186467210Y-126061059D01*
X186304758Y-126079362D01*
X186150439Y-126133360D01*
X186012009Y-126220342D01*
X185976320Y-126256031D01*
X185914997Y-126289516D01*
X185845305Y-126284530D01*
X185800960Y-126256031D01*
X185750897Y-126205969D01*
X185750896Y-126205968D01*
X185612466Y-126118986D01*
X185458147Y-126064988D01*
X185295696Y-126046685D01*
X185295688Y-126046685D01*
X185133236Y-126064988D01*
X184978917Y-126118986D01*
X184840489Y-126205967D01*
X184811984Y-126234471D01*
X184750659Y-126267954D01*
X184680968Y-126262967D01*
X184636624Y-126234468D01*
X184600936Y-126198780D01*
X184462506Y-126111798D01*
X184308187Y-126057800D01*
X184145736Y-126039497D01*
X184145728Y-126039497D01*
X183983276Y-126057800D01*
X183828957Y-126111798D01*
X183690527Y-126198780D01*
X183574924Y-126314383D01*
X183574918Y-126314391D01*
X183573576Y-126316527D01*
X183572351Y-126317609D01*
X183570581Y-126319830D01*
X183570191Y-126319519D01*
X183521236Y-126362812D01*
X183452181Y-126373453D01*
X183388336Y-126345070D01*
X183349971Y-126286676D01*
X183345370Y-126236659D01*
X183356357Y-126139151D01*
X183356357Y-126139145D01*
X183338053Y-125976693D01*
X183338052Y-125976691D01*
X183338052Y-125976688D01*
X183284055Y-125822374D01*
X183197074Y-125683945D01*
X183081470Y-125568341D01*
X183060507Y-125555169D01*
X182947598Y-125484223D01*
X187026285Y-125484223D01*
X187026285Y-125484230D01*
X187044588Y-125646682D01*
X187098586Y-125801001D01*
X187098587Y-125801002D01*
X187185568Y-125939431D01*
X187301172Y-126055035D01*
X187439601Y-126142016D01*
X187593915Y-126196013D01*
X187593918Y-126196013D01*
X187593920Y-126196014D01*
X187756372Y-126214318D01*
X187756376Y-126214318D01*
X187756380Y-126214318D01*
X187918831Y-126196014D01*
X187918832Y-126196013D01*
X187918837Y-126196013D01*
X187959990Y-126181613D01*
X191202315Y-126181613D01*
X191202315Y-126181618D01*
X191221249Y-126349672D01*
X191277109Y-126509310D01*
X191277111Y-126509313D01*
X191367082Y-126652500D01*
X191367087Y-126652506D01*
X191486674Y-126772093D01*
X191622496Y-126857436D01*
X191668787Y-126909771D01*
X191679435Y-126978825D01*
X191651060Y-127042673D01*
X191622497Y-127067423D01*
X191496391Y-127146662D01*
X191496388Y-127146664D01*
X191376802Y-127266250D01*
X191376797Y-127266256D01*
X191286826Y-127409443D01*
X191286824Y-127409446D01*
X191230964Y-127569084D01*
X191212030Y-127737138D01*
X191212030Y-127737143D01*
X191230964Y-127905197D01*
X191286824Y-128064835D01*
X191286826Y-128064838D01*
X191376797Y-128208025D01*
X191376802Y-128208031D01*
X191496388Y-128327617D01*
X191496394Y-128327622D01*
X191639581Y-128417593D01*
X191639584Y-128417595D01*
X191639588Y-128417596D01*
X191639589Y-128417597D01*
X191699787Y-128438661D01*
X191799222Y-128473455D01*
X191967276Y-128492390D01*
X191967279Y-128492390D01*
X191967282Y-128492390D01*
X192135335Y-128473455D01*
X192157595Y-128465666D01*
X192276024Y-128424226D01*
X193522633Y-128424226D01*
X193522633Y-128424231D01*
X193541567Y-128592285D01*
X193597427Y-128751923D01*
X193597429Y-128751926D01*
X193687400Y-128895113D01*
X193687405Y-128895119D01*
X193806991Y-129014705D01*
X193806997Y-129014710D01*
X193950184Y-129104681D01*
X193950187Y-129104683D01*
X193950191Y-129104684D01*
X193950192Y-129104685D01*
X194013974Y-129127003D01*
X194109825Y-129160543D01*
X194277879Y-129179478D01*
X194277882Y-129179478D01*
X194277885Y-129179478D01*
X194445938Y-129160543D01*
X194445941Y-129160542D01*
X194605572Y-129104685D01*
X194605574Y-129104683D01*
X194605576Y-129104683D01*
X194605579Y-129104681D01*
X194748766Y-129014710D01*
X194748767Y-129014709D01*
X194748772Y-129014706D01*
X194868359Y-128895119D01*
X194873988Y-128886161D01*
X194958334Y-128751926D01*
X194958336Y-128751923D01*
X194958336Y-128751921D01*
X194958338Y-128751919D01*
X195014195Y-128592288D01*
X195014195Y-128592287D01*
X195014196Y-128592285D01*
X195033131Y-128424231D01*
X195033131Y-128424226D01*
X195014196Y-128256172D01*
X194958336Y-128096534D01*
X194958334Y-128096531D01*
X194868363Y-127953344D01*
X194868358Y-127953338D01*
X194748772Y-127833752D01*
X194748766Y-127833747D01*
X194605579Y-127743776D01*
X194605576Y-127743774D01*
X194445938Y-127687914D01*
X194277885Y-127668980D01*
X194277879Y-127668980D01*
X194109825Y-127687914D01*
X193950187Y-127743774D01*
X193950184Y-127743776D01*
X193806997Y-127833747D01*
X193806991Y-127833752D01*
X193687405Y-127953338D01*
X193687400Y-127953344D01*
X193597429Y-128096531D01*
X193597427Y-128096534D01*
X193541567Y-128256172D01*
X193522633Y-128424226D01*
X192276024Y-128424226D01*
X192294969Y-128417597D01*
X192294971Y-128417595D01*
X192294973Y-128417595D01*
X192294976Y-128417593D01*
X192438163Y-128327622D01*
X192438164Y-128327621D01*
X192438169Y-128327618D01*
X192557756Y-128208031D01*
X192573720Y-128182625D01*
X192647731Y-128064838D01*
X192647733Y-128064835D01*
X192647733Y-128064833D01*
X192647735Y-128064831D01*
X192703592Y-127905200D01*
X192703592Y-127905199D01*
X192703593Y-127905197D01*
X192722528Y-127737143D01*
X192722528Y-127737138D01*
X192703593Y-127569084D01*
X192647733Y-127409446D01*
X192647731Y-127409443D01*
X192557760Y-127266256D01*
X192557755Y-127266250D01*
X192438167Y-127146662D01*
X192302345Y-127061319D01*
X192256055Y-127008985D01*
X192245407Y-126939931D01*
X192273782Y-126876083D01*
X192302344Y-126851333D01*
X192428454Y-126772093D01*
X192548041Y-126652506D01*
X192563003Y-126628694D01*
X192638016Y-126509313D01*
X192638018Y-126509310D01*
X192638018Y-126509308D01*
X192638020Y-126509306D01*
X192693877Y-126349675D01*
X192693877Y-126349674D01*
X192693878Y-126349672D01*
X192712813Y-126181618D01*
X192712813Y-126181613D01*
X192693878Y-126013559D01*
X192638018Y-125853921D01*
X192638016Y-125853918D01*
X192548045Y-125710731D01*
X192548040Y-125710725D01*
X192428454Y-125591139D01*
X192428448Y-125591134D01*
X192285261Y-125501163D01*
X192285258Y-125501161D01*
X192125620Y-125445301D01*
X191957567Y-125426367D01*
X191957561Y-125426367D01*
X191789507Y-125445301D01*
X191629869Y-125501161D01*
X191629866Y-125501163D01*
X191486679Y-125591134D01*
X191486673Y-125591139D01*
X191367087Y-125710725D01*
X191367082Y-125710731D01*
X191277111Y-125853918D01*
X191277109Y-125853921D01*
X191221249Y-126013559D01*
X191202315Y-126181613D01*
X187959990Y-126181613D01*
X188073151Y-126142016D01*
X188211580Y-126055035D01*
X188327184Y-125939431D01*
X188414165Y-125801002D01*
X188468162Y-125646688D01*
X188474421Y-125591139D01*
X188486467Y-125484230D01*
X188486467Y-125484223D01*
X188468163Y-125321771D01*
X188468162Y-125321769D01*
X188468162Y-125321766D01*
X188414165Y-125167452D01*
X188327184Y-125029023D01*
X188211580Y-124913419D01*
X188111194Y-124850342D01*
X188073150Y-124826437D01*
X187918831Y-124772439D01*
X187756380Y-124754136D01*
X187756372Y-124754136D01*
X187593920Y-124772439D01*
X187439601Y-124826437D01*
X187301171Y-124913419D01*
X187185568Y-125029022D01*
X187098586Y-125167452D01*
X187044588Y-125321771D01*
X187026285Y-125484223D01*
X182947598Y-125484223D01*
X182943040Y-125481359D01*
X182788721Y-125427361D01*
X182626270Y-125409058D01*
X182626262Y-125409058D01*
X182463810Y-125427361D01*
X182309491Y-125481359D01*
X182171061Y-125568341D01*
X182055458Y-125683944D01*
X181968476Y-125822374D01*
X181914478Y-125976693D01*
X181896175Y-126139145D01*
X179723153Y-126139145D01*
X179788966Y-126034405D01*
X179842963Y-125880091D01*
X179849466Y-125822374D01*
X179861268Y-125717633D01*
X179861268Y-125717626D01*
X179842964Y-125555174D01*
X179842963Y-125555172D01*
X179842963Y-125555169D01*
X179788966Y-125400855D01*
X179701985Y-125262426D01*
X179586381Y-125146822D01*
X179447951Y-125059840D01*
X179390395Y-125039701D01*
X179369134Y-125032261D01*
X179312359Y-124991540D01*
X179286611Y-124926588D01*
X179300067Y-124858026D01*
X179348454Y-124807623D01*
X179369131Y-124798179D01*
X179426687Y-124778040D01*
X179565116Y-124691059D01*
X179680720Y-124575455D01*
X179767701Y-124437026D01*
X179821698Y-124282712D01*
X179840003Y-124120251D01*
X179821698Y-123957790D01*
X179767701Y-123803476D01*
X179680720Y-123665047D01*
X179565116Y-123549443D01*
X179426687Y-123462462D01*
X179420791Y-123458757D01*
X179422237Y-123456455D01*
X179379549Y-123417898D01*
X179361249Y-123350467D01*
X179382310Y-123283847D01*
X179422107Y-123249380D01*
X179420791Y-123247286D01*
X179452811Y-123227165D01*
X179565116Y-123156600D01*
X179680720Y-123040996D01*
X179767701Y-122902567D01*
X179821698Y-122748253D01*
X179840003Y-122585792D01*
X179833089Y-122524433D01*
X179821699Y-122423336D01*
X179821698Y-122423334D01*
X179821698Y-122423331D01*
X179767701Y-122269017D01*
X179680720Y-122130588D01*
X179565116Y-122014984D01*
X179538470Y-121998241D01*
X179426686Y-121928002D01*
X179272367Y-121874004D01*
X179109916Y-121855701D01*
X179109908Y-121855701D01*
X178947456Y-121874004D01*
X178793137Y-121928002D01*
X178654707Y-122014984D01*
X178539104Y-122130587D01*
X178452122Y-122269017D01*
X178398124Y-122423336D01*
X178379821Y-122585788D01*
X168009229Y-122585788D01*
X168016358Y-121407237D01*
X181257373Y-121407237D01*
X181257373Y-121407244D01*
X181275676Y-121569696D01*
X181329674Y-121724015D01*
X181388919Y-121818302D01*
X181416656Y-121862445D01*
X181532260Y-121978049D01*
X181670689Y-122065030D01*
X181825003Y-122119027D01*
X181825006Y-122119027D01*
X181825008Y-122119028D01*
X181987460Y-122137332D01*
X181987464Y-122137332D01*
X181987468Y-122137332D01*
X182149919Y-122119028D01*
X182149920Y-122119027D01*
X182149925Y-122119027D01*
X182304239Y-122065030D01*
X182442668Y-121978049D01*
X182558272Y-121862445D01*
X182645253Y-121724016D01*
X182645252Y-121724016D01*
X182648958Y-121718120D01*
X182651336Y-121719614D01*
X182689607Y-121677163D01*
X182757020Y-121658799D01*
X182823660Y-121679796D01*
X182859578Y-121716802D01*
X182940979Y-121846350D01*
X182940981Y-121846352D01*
X183056585Y-121961956D01*
X183195014Y-122048937D01*
X183349328Y-122102934D01*
X183349331Y-122102934D01*
X183349333Y-122102935D01*
X183442046Y-122113380D01*
X183494449Y-122119285D01*
X183558863Y-122146351D01*
X183598418Y-122203946D01*
X183600556Y-122273783D01*
X183564598Y-122333689D01*
X183546540Y-122347498D01*
X183488789Y-122383786D01*
X183373187Y-122499388D01*
X183286205Y-122637818D01*
X183232207Y-122792137D01*
X183213904Y-122954589D01*
X183213904Y-122954596D01*
X183232207Y-123117048D01*
X183286205Y-123271367D01*
X183360848Y-123390160D01*
X183373187Y-123409797D01*
X183488791Y-123525401D01*
X183627220Y-123612382D01*
X183781534Y-123666379D01*
X183781537Y-123666379D01*
X183781539Y-123666380D01*
X183943991Y-123684684D01*
X183943995Y-123684684D01*
X183943999Y-123684684D01*
X184106450Y-123666380D01*
X184106451Y-123666379D01*
X184106456Y-123666379D01*
X184260770Y-123612382D01*
X184399199Y-123525401D01*
X184514803Y-123409797D01*
X184515368Y-123408896D01*
X184515885Y-123408439D01*
X184519146Y-123404351D01*
X184519861Y-123404921D01*
X184567698Y-123362602D01*
X184636750Y-123351947D01*
X184700601Y-123380316D01*
X184708048Y-123387179D01*
X184708507Y-123387638D01*
X184824111Y-123503242D01*
X184962540Y-123590223D01*
X185116854Y-123644220D01*
X185116857Y-123644220D01*
X185116859Y-123644221D01*
X185279311Y-123662525D01*
X185279315Y-123662525D01*
X185279319Y-123662525D01*
X185441770Y-123644221D01*
X185441771Y-123644220D01*
X185441776Y-123644220D01*
X185596090Y-123590223D01*
X185734519Y-123503242D01*
X185850123Y-123387638D01*
X185937104Y-123249209D01*
X185991101Y-123094895D01*
X186006909Y-122954596D01*
X186009406Y-122932437D01*
X186009406Y-122932430D01*
X185999247Y-122842264D01*
X191252056Y-122842264D01*
X191252056Y-122842269D01*
X191270990Y-123010323D01*
X191326850Y-123169961D01*
X191326852Y-123169964D01*
X191416823Y-123313151D01*
X191416828Y-123313157D01*
X191536414Y-123432743D01*
X191536420Y-123432748D01*
X191679607Y-123522719D01*
X191679610Y-123522721D01*
X191679614Y-123522722D01*
X191679615Y-123522723D01*
X191752218Y-123548127D01*
X191839248Y-123578581D01*
X192007302Y-123597516D01*
X192007305Y-123597516D01*
X192007308Y-123597516D01*
X192175361Y-123578581D01*
X192175364Y-123578580D01*
X192334995Y-123522723D01*
X192334997Y-123522721D01*
X192334999Y-123522721D01*
X192335002Y-123522719D01*
X192478189Y-123432748D01*
X192478190Y-123432747D01*
X192478195Y-123432744D01*
X192597782Y-123313157D01*
X192637856Y-123249380D01*
X192687757Y-123169964D01*
X192687759Y-123169961D01*
X192687759Y-123169959D01*
X192687761Y-123169957D01*
X192743618Y-123010326D01*
X192743618Y-123010325D01*
X192743619Y-123010323D01*
X192762554Y-122842269D01*
X192762554Y-122842264D01*
X192743619Y-122674210D01*
X192691210Y-122524433D01*
X192687761Y-122514577D01*
X192687760Y-122514576D01*
X192687759Y-122514572D01*
X192687757Y-122514569D01*
X192597786Y-122371382D01*
X192597781Y-122371376D01*
X192478195Y-122251790D01*
X192478189Y-122251785D01*
X192335002Y-122161814D01*
X192334999Y-122161812D01*
X192175361Y-122105952D01*
X192007308Y-122087018D01*
X192007302Y-122087018D01*
X191839248Y-122105952D01*
X191679610Y-122161812D01*
X191679607Y-122161814D01*
X191536420Y-122251785D01*
X191536414Y-122251790D01*
X191416828Y-122371376D01*
X191416823Y-122371382D01*
X191326852Y-122514569D01*
X191326850Y-122514572D01*
X191270990Y-122674210D01*
X191252056Y-122842264D01*
X185999247Y-122842264D01*
X185991102Y-122769978D01*
X185991101Y-122769976D01*
X185991101Y-122769973D01*
X185937104Y-122615659D01*
X185850123Y-122477230D01*
X185734519Y-122361626D01*
X185596089Y-122274644D01*
X185441770Y-122220646D01*
X185279319Y-122202343D01*
X185279311Y-122202343D01*
X185116859Y-122220646D01*
X184962540Y-122274644D01*
X184824110Y-122361626D01*
X184708507Y-122477229D01*
X184708499Y-122477239D01*
X184707930Y-122478146D01*
X184707409Y-122478606D01*
X184704164Y-122482676D01*
X184703450Y-122482107D01*
X184655592Y-122524433D01*
X184586538Y-122535076D01*
X184522692Y-122506696D01*
X184515261Y-122499847D01*
X184399199Y-122383785D01*
X184260769Y-122296803D01*
X184106450Y-122242805D01*
X183961334Y-122226455D01*
X183896920Y-122199389D01*
X183857364Y-122141794D01*
X183855227Y-122071957D01*
X183891185Y-122012050D01*
X183909240Y-121998244D01*
X183966993Y-121961956D01*
X184082597Y-121846352D01*
X184105061Y-121810601D01*
X187075551Y-121810601D01*
X187075551Y-121810608D01*
X187093854Y-121973060D01*
X187147852Y-122127379D01*
X187195963Y-122203946D01*
X187234834Y-122265809D01*
X187350438Y-122381413D01*
X187488867Y-122468394D01*
X187643181Y-122522391D01*
X187643184Y-122522391D01*
X187643186Y-122522392D01*
X187805638Y-122540696D01*
X187805642Y-122540696D01*
X187805646Y-122540696D01*
X187968097Y-122522392D01*
X187968098Y-122522391D01*
X187968103Y-122522391D01*
X188122417Y-122468394D01*
X188260846Y-122381413D01*
X188376450Y-122265809D01*
X188463431Y-122127380D01*
X188469501Y-122110033D01*
X188510222Y-122053256D01*
X188575174Y-122027508D01*
X188627497Y-122033944D01*
X188670342Y-122048937D01*
X188744497Y-122074885D01*
X188906951Y-122093189D01*
X188906955Y-122093189D01*
X188906959Y-122093189D01*
X189069410Y-122074885D01*
X189069411Y-122074884D01*
X189069416Y-122074884D01*
X189223730Y-122020887D01*
X189362159Y-121933906D01*
X189477763Y-121818302D01*
X189564744Y-121679873D01*
X189618741Y-121525559D01*
X189632072Y-121407244D01*
X189637046Y-121363101D01*
X189637046Y-121363094D01*
X189618742Y-121200642D01*
X189618741Y-121200640D01*
X189618741Y-121200637D01*
X189564744Y-121046323D01*
X189477763Y-120907894D01*
X189362159Y-120792290D01*
X189293983Y-120749452D01*
X189223729Y-120705308D01*
X189069410Y-120651310D01*
X188906959Y-120633007D01*
X188906951Y-120633007D01*
X188744499Y-120651310D01*
X188590180Y-120705308D01*
X188451750Y-120792290D01*
X188336147Y-120907893D01*
X188249167Y-121046320D01*
X188249165Y-121046324D01*
X188243094Y-121063674D01*
X188202371Y-121120449D01*
X188137418Y-121146194D01*
X188085100Y-121139758D01*
X187968097Y-121098817D01*
X187805646Y-121080514D01*
X187805638Y-121080514D01*
X187643186Y-121098817D01*
X187488867Y-121152815D01*
X187350437Y-121239797D01*
X187234834Y-121355400D01*
X187147852Y-121493830D01*
X187093854Y-121648149D01*
X187075551Y-121810601D01*
X184105061Y-121810601D01*
X184169578Y-121707923D01*
X184223575Y-121553609D01*
X184223576Y-121553603D01*
X184241880Y-121391151D01*
X184241880Y-121391144D01*
X184223576Y-121228692D01*
X184223575Y-121228690D01*
X184223575Y-121228687D01*
X184169578Y-121074373D01*
X184082597Y-120935944D01*
X183966993Y-120820340D01*
X183854176Y-120749452D01*
X183828563Y-120733358D01*
X183674244Y-120679360D01*
X183511793Y-120661057D01*
X183511785Y-120661057D01*
X183349333Y-120679360D01*
X183195014Y-120733358D01*
X183056584Y-120820340D01*
X182940981Y-120935943D01*
X182850295Y-121080269D01*
X182847932Y-121078784D01*
X182809548Y-121121284D01*
X182742119Y-121139587D01*
X182675498Y-121118529D01*
X182639674Y-121081585D01*
X182558276Y-120952042D01*
X182558271Y-120952036D01*
X182442668Y-120836433D01*
X182304238Y-120749451D01*
X182149919Y-120695453D01*
X181987468Y-120677150D01*
X181987460Y-120677150D01*
X181825008Y-120695453D01*
X181670689Y-120749451D01*
X181532259Y-120836433D01*
X181416656Y-120952036D01*
X181329674Y-121090466D01*
X181275676Y-121244785D01*
X181257373Y-121407237D01*
X168016358Y-121407237D01*
X168024059Y-120133958D01*
X178050397Y-120133958D01*
X178050397Y-120133963D01*
X178069331Y-120302017D01*
X178125191Y-120461655D01*
X178125193Y-120461658D01*
X178215164Y-120604845D01*
X178215169Y-120604851D01*
X178334755Y-120724437D01*
X178334761Y-120724442D01*
X178477948Y-120814413D01*
X178477951Y-120814415D01*
X178477955Y-120814416D01*
X178477956Y-120814417D01*
X178550559Y-120839821D01*
X178637589Y-120870275D01*
X178805643Y-120889210D01*
X178805646Y-120889210D01*
X178805649Y-120889210D01*
X178973702Y-120870275D01*
X178973705Y-120870274D01*
X179133336Y-120814417D01*
X179133338Y-120814415D01*
X179133340Y-120814415D01*
X179133343Y-120814413D01*
X179276530Y-120724442D01*
X179276531Y-120724441D01*
X179276536Y-120724438D01*
X179396123Y-120604851D01*
X179486098Y-120461658D01*
X179486100Y-120461655D01*
X179486100Y-120461653D01*
X179486102Y-120461651D01*
X179541959Y-120302020D01*
X179541959Y-120302019D01*
X179541960Y-120302017D01*
X179560895Y-120133963D01*
X179560895Y-120133958D01*
X179541960Y-119965904D01*
X179486100Y-119806266D01*
X179486098Y-119806263D01*
X179396127Y-119663076D01*
X179396122Y-119663070D01*
X179276536Y-119543484D01*
X179276530Y-119543479D01*
X179133343Y-119453508D01*
X179133340Y-119453506D01*
X178973702Y-119397646D01*
X178805649Y-119378712D01*
X178805643Y-119378712D01*
X178637589Y-119397646D01*
X178477951Y-119453506D01*
X178477948Y-119453508D01*
X178334761Y-119543479D01*
X178334755Y-119543484D01*
X178215169Y-119663070D01*
X178215164Y-119663076D01*
X178125193Y-119806263D01*
X178125191Y-119806266D01*
X178069331Y-119965904D01*
X178050397Y-120133958D01*
X168024059Y-120133958D01*
X168032140Y-118797929D01*
X175721005Y-118797929D01*
X175721005Y-118797934D01*
X175739939Y-118965988D01*
X175795799Y-119125626D01*
X175795801Y-119125629D01*
X175885772Y-119268816D01*
X175885777Y-119268822D01*
X176005363Y-119388408D01*
X176005369Y-119388413D01*
X176148556Y-119478384D01*
X176148559Y-119478386D01*
X176148563Y-119478387D01*
X176148564Y-119478388D01*
X176221167Y-119503792D01*
X176308197Y-119534246D01*
X176476251Y-119553181D01*
X176476254Y-119553181D01*
X176476257Y-119553181D01*
X176644310Y-119534246D01*
X176644313Y-119534245D01*
X176803944Y-119478388D01*
X176803946Y-119478386D01*
X176803948Y-119478386D01*
X176803951Y-119478384D01*
X176947138Y-119388413D01*
X176947139Y-119388412D01*
X176947144Y-119388409D01*
X177066731Y-119268822D01*
X177156706Y-119125629D01*
X177156708Y-119125626D01*
X177156708Y-119125624D01*
X177156710Y-119125622D01*
X177212567Y-118965991D01*
X177212567Y-118965990D01*
X177212568Y-118965988D01*
X177231503Y-118797934D01*
X177231503Y-118797929D01*
X177212568Y-118629875D01*
X177156708Y-118470237D01*
X177156706Y-118470234D01*
X177066735Y-118327047D01*
X177066730Y-118327041D01*
X176947144Y-118207455D01*
X176947138Y-118207450D01*
X176803951Y-118117479D01*
X176803948Y-118117477D01*
X176644310Y-118061617D01*
X176476257Y-118042683D01*
X176476251Y-118042683D01*
X176308197Y-118061617D01*
X176148559Y-118117477D01*
X176148556Y-118117479D01*
X176005369Y-118207450D01*
X176005363Y-118207455D01*
X175885777Y-118327041D01*
X175885772Y-118327047D01*
X175795801Y-118470234D01*
X175795799Y-118470237D01*
X175739939Y-118629875D01*
X175721005Y-118797929D01*
X168032140Y-118797929D01*
X168034491Y-118409324D01*
X168054580Y-118342410D01*
X168106080Y-118297699D01*
X168178275Y-118264035D01*
X168371846Y-118128495D01*
X168538940Y-117961401D01*
X168674480Y-117767830D01*
X168774348Y-117553663D01*
X168835508Y-117325408D01*
X168856104Y-117090000D01*
X168856576Y-117084606D01*
X168858240Y-117084751D01*
X168875789Y-117024987D01*
X168928593Y-116979232D01*
X168980104Y-116968026D01*
X180055063Y-116968026D01*
X180122102Y-116987711D01*
G37*
%TD.AperFunction*%
%TD*%
M02*
