M48
; DRILL file {KiCad 8.0.5} date 2025-08-16T16:19:24-0400
; FORMAT={-:-/ absolute / inch / decimal}
; #@! TF.CreationDate,2025-08-16T16:19:24-04:00
; #@! TF.GenerationSoftware,Kicad,Pcbnew,8.0.5
; #@! TF.FileFunction,Plated,1,4,PTH
FMAT,2
INCH
; #@! TA.AperFunction,Plated,PTH,ViaDrill
T1C0.0098
; #@! TA.AperFunction,Plated,PTH,ViaDrill
T2C0.0118
; #@! TA.AperFunction,Plated,PTH,ViaDrill
T3C0.0157
; #@! TA.AperFunction,Plated,PTH,ViaDrill
T4C0.0236
; #@! TA.AperFunction,Plated,PTH,ComponentDrill
T5C0.0236
; #@! TA.AperFunction,Plated,PTH,ViaDrill
T6C0.0394
; #@! TA.AperFunction,Plated,PTH,ComponentDrill
T7C0.0394
; #@! TA.AperFunction,Plated,PTH,ComponentDrill
T8C0.0591
; #@! TA.AperFunction,Plated,PTH,ComponentDrill
T9C0.1063
%
G90
G05
T1
X6.2807Y-5.7524
X6.2848Y-5.8452
X6.4161Y-5.7822
X6.4161Y-5.7193
X6.4181Y-5.8456
X6.5402Y-5.4827
X6.5742Y-5.1325
X6.829Y-5.5393
X6.9094Y-5.319
X6.9296Y-5.1898
X6.9329Y-5.0608
X6.9604Y-5.0922
X7.0469Y-5.0602
X7.0516Y-4.8262
X7.0516Y-4.8866
X7.0524Y-4.9495
X7.1109Y-4.9046
X7.1137Y-4.839
X7.1649Y-4.7798
X7.19Y-4.9661
X7.1939Y-5.2955
X7.1943Y-4.8378
X7.2038Y-5.0297
X7.2249Y-4.7792
X7.2419Y-4.8407
X7.249Y-5.0837
X7.2498Y-4.9909
X7.2498Y-5.0371
X7.2546Y-5.2955
X7.2735Y-5.1461
X7.2883Y-5.2007
X7.2945Y-4.8399
X7.2951Y-4.9912
X7.2954Y-5.0832
X7.2967Y-5.0369
X7.3061Y-5.2244
X7.3202Y-5.2504
X7.3407Y-5.0402
X7.3412Y-4.9918
X7.3412Y-5.0823
X7.3463Y-5.1293
X7.37Y-5.218
X7.392Y-4.9403
X7.3939Y-4.7957
X7.4004Y-5.0126
X7.4373Y-4.7781
X7.4737Y-5.1008
X7.5244Y-5.2088
X7.559Y-4.6543
X8.4733Y-5.6289
T2
X6.2677Y-2.4993
X6.415Y-3.7713
X6.4556Y-2.4325
X6.4568Y-3.7684
X6.487Y-4.3454
X6.5327Y-2.4317
X6.536Y-3.7692
X6.6132Y-3.7684
X6.6142Y-2.4316
X6.6914Y-2.4308
X6.6934Y-3.7692
X6.7175Y-5.4416
X6.7706Y-3.7684
X6.7717Y-2.4316
X6.8489Y-2.4308
X6.8509Y-3.7692
X6.925Y-5.2254
X6.9281Y-3.7684
X6.9292Y-2.4316
X6.9479Y-4.6771
X6.9658Y-4.5094
X6.9819Y-5.1685
X6.9875Y-4.6234
X6.9927Y-4.1043
X7.0064Y-2.4308
X7.0084Y-3.7692
X7.0396Y-4.7297
X7.057Y-4.3458
X7.0594Y-5.5117
X7.0856Y-3.7684
X7.0866Y-2.4316
X7.1174Y-4.6291
X7.1237Y-2.3127
X7.1638Y-2.4308
X7.1659Y-3.7692
X7.1937Y-5.2355
X7.2001Y-4.104
X7.2431Y-3.7684
X7.2441Y-2.4316
X7.274Y-4.3455
X7.2889Y-5.2873
X7.3179Y-2.2652
X7.3213Y-2.4308
X7.3234Y-3.7692
X7.3689Y-2.3227
X7.4006Y-3.7684
X7.4016Y-2.4316
X7.43Y-4.653
X7.4375Y-4.8386
X7.4775Y-2.3448
X7.4788Y-2.4308
X7.4808Y-3.7692
X7.4996Y-5.0291
X7.546Y-5.3677
X7.5574Y-4.9678
X7.5578Y-5.029
X7.5578Y-4.9022
X7.558Y-3.7684
X7.5591Y-2.4316
X7.5593Y-4.8363
X7.6363Y-2.4308
X7.6383Y-3.7692
X7.6487Y-5.0561
X7.7155Y-3.7684
X7.7166Y-2.4316
X7.7938Y-2.4308
X7.7958Y-3.7692
X7.8319Y-5.3963
X7.8441Y-4.346
X7.873Y-3.7684
X7.8741Y-2.4316
X7.897Y-2.342
X7.945Y-4.9528
X7.9512Y-2.4308
X7.9533Y-3.7692
X8.0033Y-4.1045
X8.0305Y-3.7684
X8.0315Y-2.4316
X8.062Y-4.3468
X8.1083Y-5.2555
X8.1087Y-2.4308
X8.1108Y-3.7692
X8.188Y-3.7684
X8.189Y-2.4316
X8.2564Y-5.2005
X8.2662Y-2.4308
X8.2682Y-3.7692
X8.3454Y-3.7684
X8.3465Y-2.4316
X8.3916Y-5.3064
X8.392Y-5.3917
X8.4237Y-2.4308
X8.4257Y-3.7692
X8.4424Y-5.5982
X8.4935Y-5.3069
X8.4939Y-5.3922
X8.5029Y-3.7172
X8.504Y-2.4316
X8.5805Y-5.3074
X8.5805Y-5.3922
X8.5812Y-2.4308
X8.5966Y-3.7089
X8.6316Y-4.3472
X8.6604Y-3.7172
X8.6615Y-2.4316
X8.7386Y-2.4308
X8.8476Y-5.2672
T3
X7.2753Y-5.5415
X7.4325Y-5.5415
X8.0261Y-5.0105
X8.0266Y-5.1837
X8.1086Y-5.1851
X8.1428Y-5.0119
T4
X6.3384Y-5.348
X6.3384Y-5.4193
T6
X6.4246Y-4.8278
X7.9674Y-5.6316
X8.0935Y-4.82
X8.1404Y-4.7289
X8.7041Y-5.515
X8.7873Y-5.515
X8.8623Y-4.9162
X8.9115Y-4.9654
T7
X6.1945Y-3.9094
X6.1945Y-4.6098
X6.293Y-4.0105
X6.2945Y-3.9094
X6.2945Y-4.6098
X6.393Y-4.0105
X6.3945Y-3.9094
X6.3945Y-4.6098
X6.4945Y-3.9094
X6.4945Y-4.6098
X6.5945Y-3.9094
X6.5945Y-4.6098
X8.5238Y-4.6098
X8.5244Y-3.9094
X8.6238Y-4.6098
X8.6244Y-3.9094
X8.7238Y-4.6098
X8.7244Y-3.9094
X8.8238Y-4.6098
X8.8244Y-3.9094
X8.9238Y-4.6098
X8.9244Y-3.9094
T8
X6.5628Y-5.689
X6.563Y-5.0157
X8.74Y-5.689
X8.7402Y-5.0157
T9
X6.2992Y-4.2598
X8.8189Y-4.2598
T5
G00X6.2514Y-5.2126
M15
G01X6.2199Y-5.2126
M16
G05
G00X6.2514Y-5.5527
M15
G01X6.2199Y-5.5527
M16
G05
G00X6.4226Y-5.2126
M15
G01X6.3793Y-5.2126
M16
G05
G00X6.4226Y-5.5527
M15
G01X6.3793Y-5.5527
M16
G05
M30
