%TF.GenerationSoftware,KiCad,Pcbnew,8.0.5*%
%TF.CreationDate,2025-08-16T16:19:27-04:00*%
%TF.ProjectId,TagTag,54616754-6167-42e6-9b69-6361645f7063,1.2*%
%TF.SameCoordinates,Original*%
%TF.FileFunction,Profile,NP*%
%FSLAX46Y46*%
G04 Gerber Fmt 4.6, Leading zero omitted, Abs format (unit mm)*
G04 Created by KiCad (PCBNEW 8.0.5) date 2025-08-16 16:19:27*
%MOMM*%
%LPD*%
G01*
G04 APERTURE LIST*
%TA.AperFunction,Profile*%
%ADD10C,0.100000*%
%TD*%
%TA.AperFunction,Profile*%
%ADD11C,0.050000*%
%TD*%
G04 APERTURE END LIST*
D10*
X218477874Y-42007243D02*
X218513146Y-42007862D01*
X218548204Y-42009710D01*
X218583022Y-42012769D01*
X218617573Y-42017025D01*
X218651831Y-42022460D01*
X218685770Y-42029059D01*
X218719364Y-42036806D01*
X218752586Y-42045684D01*
X218785411Y-42055678D01*
X218817812Y-42066771D01*
X218849763Y-42078947D01*
X218881238Y-42092190D01*
X218912211Y-42106484D01*
X218942655Y-42121814D01*
X218972545Y-42138162D01*
X219001854Y-42155512D01*
X219030556Y-42173850D01*
X219058625Y-42193157D01*
X219086035Y-42213420D01*
X219112759Y-42234620D01*
X219138771Y-42256743D01*
X219164046Y-42279772D01*
X219188556Y-42303691D01*
X219212277Y-42328483D01*
X219235181Y-42354134D01*
X219257242Y-42380626D01*
X219278435Y-42407944D01*
X219298733Y-42436071D01*
X219318110Y-42464992D01*
X219336539Y-42494690D01*
X219353996Y-42525149D01*
X219370452Y-42556353D01*
X224170364Y-52058428D01*
X224197711Y-52117212D01*
X224221034Y-52177187D01*
X224240341Y-52238158D01*
X224255639Y-52299932D01*
X224266936Y-52362314D01*
X224274242Y-52425112D01*
X224277563Y-52488131D01*
X224276908Y-52551177D01*
X224272285Y-52614058D01*
X224263703Y-52676578D01*
X224251169Y-52738545D01*
X224234692Y-52799764D01*
X224214279Y-52860042D01*
X224189938Y-52919184D01*
X224161679Y-52976998D01*
X224129508Y-53033289D01*
X224093770Y-53087384D01*
X224054909Y-53138675D01*
X224013094Y-53187066D01*
X223968495Y-53232464D01*
X223921281Y-53274775D01*
X223871622Y-53313902D01*
X223819687Y-53349752D01*
X223765644Y-53382230D01*
X223709664Y-53411242D01*
X223651916Y-53436692D01*
X223592569Y-53458487D01*
X223531793Y-53476531D01*
X223469756Y-53490730D01*
X223406629Y-53500989D01*
X223342579Y-53507214D01*
X223277778Y-53509310D01*
X212599555Y-53509310D01*
X212567072Y-53508784D01*
X212534756Y-53507214D01*
X212502627Y-53504612D01*
X212470708Y-53500989D01*
X212439020Y-53496358D01*
X212407582Y-53490730D01*
X212376418Y-53484117D01*
X212345547Y-53476531D01*
X212284772Y-53458487D01*
X212225426Y-53436692D01*
X212167679Y-53411242D01*
X212111700Y-53382230D01*
X212057658Y-53349752D01*
X212005723Y-53313902D01*
X211956063Y-53274775D01*
X211908849Y-53232464D01*
X211886212Y-53210145D01*
X211864250Y-53187066D01*
X211842984Y-53163239D01*
X211822434Y-53138675D01*
X211802624Y-53113386D01*
X211783572Y-53087384D01*
X211765301Y-53060681D01*
X211747832Y-53033289D01*
X211715663Y-52976998D01*
X211687405Y-52919184D01*
X211663066Y-52860042D01*
X211642653Y-52799764D01*
X211626176Y-52738545D01*
X211613643Y-52676578D01*
X211605061Y-52614058D01*
X211600438Y-52551177D01*
X211599783Y-52488131D01*
X211603104Y-52425112D01*
X211610409Y-52362314D01*
X211621706Y-52299932D01*
X211637004Y-52238158D01*
X211656309Y-52177187D01*
X211679631Y-52117212D01*
X211706977Y-52058428D01*
X216506885Y-42556353D01*
X216540798Y-42494688D01*
X216578605Y-42436069D01*
X216620096Y-42380622D01*
X216665062Y-42328479D01*
X216713294Y-42279767D01*
X216764581Y-42234614D01*
X216818715Y-42193151D01*
X216875487Y-42155506D01*
X216934686Y-42121807D01*
X216996103Y-42092183D01*
X217059530Y-42066763D01*
X217124756Y-42045677D01*
X217191573Y-42029052D01*
X217259770Y-42017017D01*
X217329139Y-42009702D01*
X217399470Y-42007235D01*
X218477874Y-42007243D01*
X167922850Y-39008474D02*
X167992967Y-39012169D01*
X168062602Y-39018288D01*
X168131705Y-39026800D01*
X168200221Y-39037670D01*
X168268100Y-39050869D01*
X168335287Y-39066362D01*
X168401733Y-39084119D01*
X168467383Y-39104107D01*
X168532185Y-39126293D01*
X168596088Y-39150646D01*
X168659038Y-39177133D01*
X168720984Y-39205722D01*
X168781873Y-39236381D01*
X168841652Y-39269077D01*
X168900271Y-39303779D01*
X168957675Y-39340454D01*
X169013813Y-39379071D01*
X169068632Y-39419595D01*
X169122080Y-39461997D01*
X169174105Y-39506243D01*
X169224654Y-39552302D01*
X169273676Y-39600140D01*
X169321117Y-39649726D01*
X169366925Y-39701028D01*
X169411048Y-39754013D01*
X169453433Y-39808649D01*
X169494029Y-39864904D01*
X169532783Y-39922746D01*
X169569643Y-39982143D01*
X169604555Y-40043062D01*
X169637468Y-40105471D01*
X176694417Y-54075648D01*
X176762244Y-54198976D01*
X176837857Y-54316214D01*
X176920839Y-54427105D01*
X177010771Y-54531392D01*
X177107233Y-54628815D01*
X177209808Y-54719119D01*
X177318075Y-54802045D01*
X177431618Y-54877336D01*
X177550016Y-54944734D01*
X177672851Y-55003981D01*
X177799704Y-55054820D01*
X177930157Y-55096993D01*
X178063790Y-55130243D01*
X178200185Y-55154312D01*
X178338924Y-55168942D01*
X178479587Y-55173876D01*
X205541789Y-55173876D01*
X205612335Y-55172637D01*
X205682452Y-55168942D01*
X205752088Y-55162823D01*
X205821190Y-55154312D01*
X205889707Y-55143441D01*
X205957586Y-55130243D01*
X206024773Y-55114750D01*
X206091219Y-55096993D01*
X206156869Y-55077006D01*
X206221671Y-55054820D01*
X206285574Y-55030468D01*
X206348524Y-55003981D01*
X206410470Y-54975392D01*
X206471359Y-54944734D01*
X206531138Y-54912038D01*
X206589756Y-54877336D01*
X206647160Y-54840661D01*
X206703298Y-54802045D01*
X206758117Y-54761521D01*
X206811565Y-54719119D01*
X206863590Y-54674874D01*
X206914139Y-54628815D01*
X206963160Y-54580978D01*
X207010601Y-54531392D01*
X207056409Y-54480090D01*
X207100532Y-54427105D01*
X207142918Y-54372469D01*
X207183514Y-54316214D01*
X207222268Y-54258372D01*
X207259127Y-54198976D01*
X207294040Y-54138057D01*
X207326953Y-54075648D01*
X214383903Y-40105471D01*
X214451729Y-39982143D01*
X214527343Y-39864904D01*
X214610326Y-39754013D01*
X214700257Y-39649726D01*
X214796720Y-39552302D01*
X214899295Y-39461997D01*
X215007562Y-39379071D01*
X215121105Y-39303779D01*
X215239503Y-39236381D01*
X215362338Y-39177133D01*
X215489191Y-39126293D01*
X215619644Y-39084119D01*
X215753278Y-39050869D01*
X215889673Y-39026800D01*
X216028411Y-39012169D01*
X216169074Y-39007235D01*
X219708274Y-39007235D01*
X219778820Y-39008474D01*
X219848936Y-39012169D01*
X219918572Y-39018288D01*
X219987674Y-39026800D01*
X220056191Y-39037670D01*
X220124069Y-39050869D01*
X220191257Y-39066362D01*
X220257702Y-39084119D01*
X220323352Y-39104107D01*
X220388155Y-39126293D01*
X220452058Y-39150646D01*
X220515008Y-39177133D01*
X220576954Y-39205722D01*
X220637843Y-39236381D01*
X220697623Y-39269077D01*
X220756241Y-39303779D01*
X220813645Y-39340454D01*
X220869783Y-39379071D01*
X220924603Y-39419595D01*
X220978051Y-39461997D01*
X221030076Y-39506243D01*
X221080625Y-39552302D01*
X221129646Y-39600140D01*
X221177087Y-39649726D01*
X221222895Y-39701028D01*
X221267018Y-39754013D01*
X221309404Y-39808649D01*
X221350000Y-39864904D01*
X221388753Y-39922746D01*
X221425612Y-39982143D01*
X221460525Y-40043062D01*
X221493438Y-40105471D01*
X227581016Y-52156649D01*
X227632395Y-52262178D01*
X227680585Y-52369006D01*
X227725569Y-52477061D01*
X227767329Y-52586269D01*
X227805848Y-52696558D01*
X227841109Y-52807854D01*
X227873095Y-52920084D01*
X227901787Y-53033177D01*
X227927169Y-53147058D01*
X227949223Y-53261655D01*
X227967931Y-53376895D01*
X227983277Y-53492705D01*
X227995243Y-53609011D01*
X228003812Y-53725742D01*
X228008966Y-53842824D01*
X228010688Y-53960185D01*
X228010688Y-150007247D01*
X228006784Y-150161626D01*
X227995198Y-150313979D01*
X227976119Y-150464117D01*
X227949736Y-150611851D01*
X227916237Y-150756993D01*
X227875811Y-150899354D01*
X227828646Y-151038746D01*
X227774930Y-151174981D01*
X227714852Y-151307869D01*
X227648601Y-151437223D01*
X227576364Y-151562854D01*
X227498331Y-151684573D01*
X227414691Y-151802192D01*
X227325630Y-151915523D01*
X227231339Y-152024376D01*
X227132005Y-152128564D01*
X227027817Y-152227898D01*
X226918963Y-152322189D01*
X226805633Y-152411249D01*
X226688014Y-152494890D01*
X226566295Y-152572923D01*
X226440664Y-152645159D01*
X226311310Y-152711410D01*
X226178422Y-152771487D01*
X226042187Y-152825202D01*
X225902795Y-152872367D01*
X225760434Y-152912793D01*
X225615292Y-152946291D01*
X225467558Y-152972674D01*
X225317420Y-152991751D01*
X225165067Y-153003336D01*
X225010688Y-153007239D01*
X159010687Y-153007244D01*
X158856308Y-153003340D01*
X158703955Y-152991755D01*
X158553817Y-152972677D01*
X158406083Y-152946294D01*
X158260941Y-152912796D01*
X158118580Y-152872369D01*
X157979187Y-152825204D01*
X157842953Y-152771488D01*
X157710064Y-152711410D01*
X157580710Y-152645159D01*
X157455079Y-152572923D01*
X157333360Y-152494890D01*
X157215741Y-152411249D01*
X157102410Y-152322188D01*
X156993556Y-152227896D01*
X156889368Y-152128562D01*
X156790034Y-152024374D01*
X156695743Y-151915520D01*
X156606683Y-151802189D01*
X156523042Y-151684570D01*
X156445009Y-151562850D01*
X156372773Y-151437219D01*
X156306522Y-151307865D01*
X156246444Y-151174977D01*
X156192728Y-151038742D01*
X156145563Y-150899350D01*
X156105137Y-150756988D01*
X156071638Y-150611846D01*
X156045255Y-150464112D01*
X156026177Y-150313974D01*
X156014592Y-150161622D01*
X156010688Y-150007242D01*
X156010688Y-53960185D01*
X156012410Y-53842824D01*
X156017564Y-53725742D01*
X156026132Y-53609011D01*
X156038098Y-53492705D01*
X156053444Y-53376895D01*
X156072152Y-53261655D01*
X156094206Y-53147058D01*
X156119587Y-53033177D01*
X156148279Y-52920084D01*
X156180264Y-52807854D01*
X156215524Y-52696558D01*
X156254043Y-52586269D01*
X156295803Y-52477061D01*
X156340786Y-52369006D01*
X156388976Y-52262178D01*
X156440354Y-52156649D01*
X162527936Y-40105471D01*
X162527934Y-40105471D01*
X162595760Y-39982143D01*
X162671374Y-39864904D01*
X162754356Y-39754013D01*
X162844287Y-39649726D01*
X162940750Y-39552302D01*
X163043324Y-39461997D01*
X163151592Y-39379071D01*
X163265134Y-39303779D01*
X163383532Y-39236381D01*
X163506367Y-39177133D01*
X163633220Y-39126293D01*
X163763673Y-39084119D01*
X163897306Y-39050869D01*
X164033701Y-39026800D01*
X164172439Y-39012169D01*
X164313102Y-39007235D01*
X167852305Y-39007235D01*
X167922850Y-39008474D01*
X166621903Y-42007243D02*
X166657175Y-42007862D01*
X166692234Y-42009710D01*
X166727052Y-42012769D01*
X166761603Y-42017025D01*
X166795861Y-42022460D01*
X166829800Y-42029059D01*
X166863394Y-42036806D01*
X166896617Y-42045684D01*
X166929442Y-42055678D01*
X166961843Y-42066771D01*
X166993794Y-42078947D01*
X167025270Y-42092190D01*
X167056243Y-42106484D01*
X167086687Y-42121814D01*
X167116577Y-42138162D01*
X167145886Y-42155512D01*
X167174588Y-42173850D01*
X167202657Y-42193157D01*
X167230067Y-42213420D01*
X167256791Y-42234620D01*
X167282804Y-42256743D01*
X167308079Y-42279772D01*
X167332589Y-42303691D01*
X167356310Y-42328483D01*
X167379214Y-42354134D01*
X167401276Y-42380626D01*
X167422469Y-42407944D01*
X167442767Y-42436071D01*
X167462144Y-42464992D01*
X167480574Y-42494690D01*
X167498031Y-42525149D01*
X167514487Y-42556353D01*
X172314397Y-52058428D01*
X172341743Y-52117212D01*
X172365065Y-52177187D01*
X172384370Y-52238158D01*
X172399667Y-52299932D01*
X172410964Y-52362314D01*
X172418269Y-52425112D01*
X172421590Y-52488131D01*
X172420935Y-52551177D01*
X172416312Y-52614058D01*
X172407730Y-52676578D01*
X172395196Y-52738545D01*
X172378719Y-52799764D01*
X172358307Y-52860042D01*
X172333967Y-52919184D01*
X172305709Y-52976998D01*
X172273540Y-53033289D01*
X172237800Y-53087384D01*
X172198938Y-53138675D01*
X172157122Y-53187066D01*
X172112523Y-53232464D01*
X172065309Y-53274775D01*
X172015649Y-53313902D01*
X171963714Y-53349752D01*
X171909672Y-53382230D01*
X171853693Y-53411242D01*
X171795946Y-53436692D01*
X171736600Y-53458487D01*
X171675824Y-53476531D01*
X171613789Y-53490730D01*
X171550663Y-53500989D01*
X171486615Y-53507214D01*
X171421815Y-53509310D01*
X160743592Y-53509295D01*
X160711109Y-53508769D01*
X160678792Y-53507199D01*
X160646663Y-53504597D01*
X160614743Y-53500974D01*
X160583054Y-53496343D01*
X160551616Y-53490715D01*
X160520451Y-53484102D01*
X160489580Y-53476516D01*
X160428804Y-53458472D01*
X160369458Y-53436677D01*
X160311710Y-53411227D01*
X160255730Y-53382216D01*
X160201688Y-53349738D01*
X160149753Y-53313889D01*
X160100094Y-53274762D01*
X160052880Y-53232452D01*
X160030243Y-53210134D01*
X160008280Y-53187055D01*
X159987014Y-53163228D01*
X159966465Y-53138664D01*
X159946654Y-53113376D01*
X159927603Y-53087375D01*
X159909332Y-53060673D01*
X159891864Y-53033282D01*
X159859695Y-52976991D01*
X159831436Y-52919177D01*
X159807097Y-52860034D01*
X159786685Y-52799756D01*
X159770208Y-52738537D01*
X159757675Y-52676571D01*
X159749092Y-52614051D01*
X159744470Y-52551171D01*
X159743815Y-52488125D01*
X159747136Y-52425106D01*
X159754441Y-52362309D01*
X159765738Y-52299927D01*
X159781035Y-52238154D01*
X159800340Y-52177184D01*
X159823662Y-52117211D01*
X159851008Y-52058428D01*
X164650920Y-42556353D01*
X164684833Y-42494688D01*
X164722640Y-42436069D01*
X164764131Y-42380622D01*
X164809097Y-42328479D01*
X164857328Y-42279767D01*
X164908615Y-42234614D01*
X164962749Y-42193151D01*
X165019520Y-42155506D01*
X165078719Y-42121807D01*
X165140136Y-42092183D01*
X165203562Y-42066763D01*
X165268788Y-42045677D01*
X165335605Y-42029052D01*
X165403802Y-42017017D01*
X165473171Y-42009702D01*
X165543502Y-42007235D01*
X166621903Y-42007243D01*
D11*
%TO.C,SW8*%
X159754563Y-123445133D02*
G75*
G02*
X159004563Y-123445133I-375000J0D01*
G01*
X159004563Y-123445133D02*
G75*
G02*
X159754563Y-123445133I375000J0D01*
G01*
X159754563Y-126445133D02*
G75*
G02*
X159004563Y-126445133I-375000J0D01*
G01*
X159004563Y-126445133D02*
G75*
G02*
X159754563Y-126445133I375000J0D01*
G01*
%TD*%
M02*
